<?xml version="1.0" encoding="UTF-8" standalone="no"?>
<!-- Created with Inkscape (http://www.inkscape.org/) -->

<svg
   width="128"
   height="128"
   viewBox="0 0 33.866666 33.866666"
   version="1.1"
   id="svg1"
   xml:space="preserve"
   inkscape:version="1.4.2 (f4327f4, 2025-05-13)"
   sodipodi:docname="cups.svg"
   xmlns:inkscape="http://www.inkscape.org/namespaces/inkscape"
   xmlns:sodipodi="http://sodipodi.sourceforge.net/DTD/sodipodi-0.dtd"
   xmlns="http://www.w3.org/2000/svg"
   xmlns:svg="http://www.w3.org/2000/svg"><sodipodi:namedview
     id="namedview1"
     pagecolor="#ffffff"
     bordercolor="#000000"
     borderopacity="0.25"
     inkscape:showpageshadow="2"
     inkscape:pageopacity="0.0"
     inkscape:pagecheckerboard="0"
     inkscape:deskcolor="#d1d1d1"
     inkscape:document-units="mm"
     inkscape:zoom="2.28"
     inkscape:cx="49.780702"
     inkscape:cy="57.675439"
     inkscape:window-width="1600"
     inkscape:window-height="837"
     inkscape:window-x="-8"
     inkscape:window-y="-8"
     inkscape:window-maximized="1"
     inkscape:current-layer="layer1" /><defs
     id="defs1" /><g
     inkscape:label="Camada 1"
     inkscape:groupmode="layer"
     id="layer1"><g
       id="g2"><path
         style="fill:#626262;fill-opacity:1"
         d="m 14.423243,31.019153 c -3.220364,-0.883472 -3.38082,-0.90896 -5.1038037,-0.81072 -2.421999,0.138096 -2.22589,-0.42636 0.282894,-0.814246 L 10.398018,29.271165 V 28.14396 c 0,-0.98216 0.108408,-1.326082 0.842489,-2.672771 1.028888,-1.887522 1.071071,-2.377531 0.2345,-2.72405 C 10.509225,22.347099 8.3256853,20.019515 7.2778043,18.273055 6.4114553,16.829147 4.1796293,12.516962 2.8558613,9.7292724 2.2935063,8.5450206 2.1855643,7.2589623 2.5882273,6.5405716 3.8085773,4.3633451 9.8000413,2.7458425 16.67547,2.737469 c 4.826087,-0.00588 8.846377,0.6202919 11.862102,1.8475501 3.79726,1.5453062 3.869881,2.3747263 0.779958,8.9079789 -2.404065,5.083093 -3.995037,7.347025 -6.187288,8.804431 -1.279589,0.850669 -1.327195,0.908912 -1.203969,1.472979 0.07057,0.323009 0.500008,1.292775 0.954319,2.155036 0.731057,1.387513 0.812082,1.660679 0.704796,2.376119 l -0.121223,0.808372 1.020086,0.296548 c 0.561048,0.163101 1.180681,0.418088 1.376962,0.566638 0.318302,0.240899 0.143703,0.270734 -1.615422,0.276045 -1.54517,0.0047 -2.21416,0.09395 -3.089126,0.412274 -0.898246,0.326796 -1.611499,0.416642 -3.644296,0.459059 -1.390107,0.02901 -2.780214,-0.0166 -3.089126,-0.101346 z m 4.212444,-1.122654 c 3.572525,-0.467217 4.231216,-1.288596 2.925941,-3.648612 -0.347179,-0.627721 -0.733477,-1.459193 -0.858438,-1.847717 l -0.227204,-0.706407 -0.966954,0.144747 c -1.214841,0.181855 -3.425111,0.185981 -4.926299,0.0092 -1.142262,-0.134516 -1.151996,-0.131657 -1.275156,0.37444 -0.06826,0.280494 -0.450432,1.063026 -0.849272,1.738959 -0.398841,0.675934 -0.781422,1.453116 -0.85018,1.727071 -0.386638,1.54049 3.292912,2.696741 7.027562,2.208322 z m 2.010129,-7.767832 c 1.587973,-0.504479 3.202463,-1.731789 4.223155,-3.210375 1.046621,-1.516149 2.355425,-3.889897 3.003696,-5.447737 0.2506,-0.602207 0.679412,-1.589719 0.952917,-2.19447 0.430413,-0.951695 0.452173,-1.080696 0.16182,-0.959358 -2.534814,1.059304 -4.694919,1.415782 -9.328801,1.539516 -4.215444,0.112561 -6.667742,-0.09423 -9.499562,-0.801055 C 7.2512403,10.329399 5.9047433,9.4870781 5.9047433,8.3938495 c 0,-1.005878 1.63059,-1.7970322 4.9613237,-2.4072104 2.399824,-0.439639 8.338746,-0.4450483 10.858746,-0.00989 3.400139,0.5871415 4.251179,1.0718236 1.014338,0.5776827 C 19.995511,6.1355833 14.457372,6.2786536 11.645798,6.841013 9.4066043,7.2888872 7.5897213,8.0140115 7.5897213,8.4598069 c 0,0.4394275 1.713552,1.0863985 4.2124447,1.5904541 2.02324,0.408112 2.70274,0.452276 6.833521,0.444152 4.90979,-0.0097 6.631047,-0.235636 9.239744,-1.2130635 C 29.573703,8.64504 30.314184,7.6056951 29.660926,6.7752125 28.561359,5.377339 23.831907,4.2787269 18.167638,4.1054177 12.793426,3.9409833 8.4402713,4.5973518 5.4158513,6.0281315 c -2.21434,1.0475507 -2.305445,2.5744402 -0.250711,4.2018195 0.99526,0.788261 4.240169,2.423345 4.8416487,2.43967 0.266662,0.0072 0.653336,0.08556 0.859278,0.174061 0.301926,0.129742 0.240847,0.16345 -0.315395,0.174061 -1.0677267,0.02037 -3.2859907,-0.503984 -4.3118017,-1.01922 -0.509603,-0.255959 -0.957521,-0.46538 -0.995373,-0.46538 -0.141984,0 3.00037,5.939335 3.664973,6.927132 0.802468,1.192704 2.2732937,2.621729 3.1918987,3.101183 1.609449,0.840033 2.592354,1.021764 5.13117,0.94871 1.572578,-0.04525 2.780802,-0.180254 3.414277,-0.381501 z"
         id="path2" /></g></g></svg>
