<?xml version="1.0" encoding="UTF-8" standalone="no"?>
<!-- Created with Inkscape (http://www.inkscape.org/) -->

<svg
   width="128"
   height="128"
   viewBox="0 0 33.866667 33.866667"
   version="1.1"
   id="svg5"
   xml:space="preserve"
   inkscape:version="1.2.2 (b0a8486541, 2022-12-01)"
   sodipodi:docname="cups_puro.svg"
   xmlns:inkscape="http://www.inkscape.org/namespaces/inkscape"
   xmlns:sodipodi="http://sodipodi.sourceforge.net/DTD/sodipodi-0.dtd"
   xmlns="http://www.w3.org/2000/svg"
   xmlns:svg="http://www.w3.org/2000/svg"><sodipodi:namedview
     id="namedview7"
     pagecolor="#ffffff"
     bordercolor="#000000"
     borderopacity="0.25"
     inkscape:showpageshadow="2"
     inkscape:pageopacity="0.0"
     inkscape:pagecheckerboard="0"
     inkscape:deskcolor="#d1d1d1"
     inkscape:document-units="mm"
     showgrid="false"
     inkscape:zoom="4.3279859"
     inkscape:cx="78.558481"
     inkscape:cy="89.995671"
     inkscape:window-width="1854"
     inkscape:window-height="1011"
     inkscape:window-x="0"
     inkscape:window-y="0"
     inkscape:window-maximized="1"
     inkscape:current-layer="g8704" /><defs
     id="defs2" /><g
     inkscape:label="Camada 1"
     inkscape:groupmode="layer"
     id="layer1"
     transform="translate(-54.059536,-75.824003)"><g
       id="g8704"
       transform="translate(38.449005,-0.11289557)"><g
         id="g9033"><path
           id="path9029"
           style="fill:#575757;stroke-width:0.07574;fill-opacity:1"
           d="M 33.877116 80.15783 C 33.126211 80.175246 32.480811 80.332912 32.013664 80.629119 C 31.208478 81.139668 30.35296 82.061259 30.121273 82.667237 C 30.078168 82.779979 29.979338 83.038381 29.901648 83.241879 C 29.599697 84.03276 29.392687 85.330663 29.400387 86.386907 C 29.402768 86.712134 29.331179 86.775823 29.18903 86.573975 C 29.019475 86.333211 28.08828 85.812262 27.446501 85.599358 C 26.722683 85.359242 24.880497 85.34469 24.094768 85.573003 C 23.415651 85.770337 22.603956 86.131802 22.017375 86.498528 C 20.622172 87.370796 19.283404 88.917749 18.882683 90.120012 C 18.709503 90.639594 18.694909 90.775371 18.695097 91.875461 C 18.695287 92.993597 18.707325 93.102702 18.891468 93.632976 C 19.581333 95.619569 20.909171 96.722303 23.165625 97.18263 C 23.929977 97.338558 24.839877 97.316284 25.635242 97.122686 C 26.124434 97.003612 26.06807 96.945701 26.653268 98.164999 C 26.870308 98.617216 27.15776 99.191137 27.291989 99.439857 C 27.765549 100.31734 28.073525 101.17726 28.350322 102.39575 C 28.396062 102.59709 28.432654 103.22616 28.431454 103.7936 C 28.428643 105.09716 28.496319 105.35959 28.873804 105.49995 C 29.443059 105.71162 30.450018 105.50393 30.788416 105.10514 C 30.892405 104.98259 31.170717 104.42534 31.406466 103.86698 C 31.642214 103.30863 32.033946 102.40769 32.277214 101.86503 C 32.520482 101.32237 32.825995 100.56425 32.956242 100.17986 C 33.08649 99.795475 33.216564 99.442405 33.245114 99.395415 C 33.273662 99.348427 33.394576 98.996686 33.513831 98.614067 C 33.633086 98.23145 33.801338 97.741785 33.887968 97.525762 L 34.045581 97.133021 L 34.3205 97.363498 C 34.73927 97.71517 35.513074 98.236602 36.095069 98.558774 C 37.527192 99.351547 38.701918 99.629011 40.664816 99.638811 C 42.312841 99.647007 42.972535 99.480567 44.188632 98.748426 C 44.594078 98.504329 45.862948 97.06079 45.862948 96.843633 C 45.862948 96.779236 45.891707 96.726327 45.927027 96.726327 C 45.962347 96.726327 46.013171 96.60613 46.039681 96.45916 C 46.066187 96.312189 46.128314 96.136316 46.178174 96.068486 C 46.321953 95.872882 46.416604 94.351016 46.387464 92.697633 C 46.363233 91.322499 46.340305 91.088666 46.150786 90.260055 C 45.95562 89.406749 45.645366 88.541109 45.282622 87.839531 C 45.022391 87.336226 43.967657 85.708912 43.901827 85.708912 C 43.867457 85.708912 43.839299 85.660818 43.839299 85.602458 C 43.839299 85.544102 43.564766 85.197033 43.229 84.830929 C 42.893235 84.464824 42.529614 84.067432 42.420781 83.947779 C 42.212902 83.719235 41.49351 83.077548 41.44513 83.077548 C 41.429622 83.077548 41.185015 82.897667 40.901494 82.677572 C 39.617486 81.680815 38.558756 81.178298 36.374121 80.52835 C 35.484293 80.263617 34.628021 80.140413 33.877116 80.15783 z M 30.352267 92.180868 L 30.467505 92.375172 C 30.531092 92.482161 30.58326 92.599764 30.58326 92.636654 C 30.58326 92.768747 31.45075 94.23157 31.928398 94.904733 L 32.41519 95.590479 L 32.324239 95.932577 C 32.274004 96.120528 32.210076 96.311104 32.182646 96.356324 C 32.155217 96.401546 32.031763 96.753287 31.908244 97.137672 C 31.784724 97.522056 31.624574 98.009962 31.552194 98.221843 C 31.479817 98.433725 31.420419 98.654706 31.420419 98.713286 C 31.420419 98.771862 31.359023 99.005651 31.283993 99.232634 C 31.208963 99.459617 31.067373 99.892923 30.969283 100.19588 C 30.871192 100.49883 30.663333 101.04413 30.507296 101.4077 C 30.35126 101.77126 30.195324 102.08911 30.161064 102.11411 C 30.126803 102.13906 30.080855 102.05635 30.058745 101.93014 C 29.876461 100.88974 29.539375 99.838823 29.061906 98.82284 C 28.599864 97.839681 28.481388 97.601368 28.273324 97.236374 C 28.162477 97.041915 28.071786 96.863789 28.071786 96.841049 C 28.071786 96.818306 27.993049 96.663776 27.89712 96.497401 C 27.657041 96.081038 27.676167 95.950348 28.019076 95.668511 C 28.587554 95.201275 29.709145 93.707576 29.971928 93.067636 C 30.046207 92.886749 30.162404 92.612859 30.229794 92.459404 L 30.352267 92.180868 z " /></g></g></g></svg>
