<?xml version="1.0" encoding="UTF-8" standalone="no"?>
<!-- Created with Inkscape (http://www.inkscape.org/) -->

<svg
   width="128"
   height="128"
   viewBox="0 0 33.866666 33.866666"
   version="1.1"
   id="svg1"
   xml:space="preserve"
   inkscape:version="1.4.2 (f4327f4, 2025-05-13)"
   sodipodi:docname="pufballs.svg"
   xmlns:inkscape="http://www.inkscape.org/namespaces/inkscape"
   xmlns:sodipodi="http://sodipodi.sourceforge.net/DTD/sodipodi-0.dtd"
   xmlns="http://www.w3.org/2000/svg"
   xmlns:svg="http://www.w3.org/2000/svg"><sodipodi:namedview
     id="namedview1"
     pagecolor="#ffffff"
     bordercolor="#000000"
     borderopacity="0.25"
     inkscape:showpageshadow="2"
     inkscape:pageopacity="0.0"
     inkscape:pagecheckerboard="0"
     inkscape:deskcolor="#d1d1d1"
     inkscape:document-units="mm"
     inkscape:zoom="1.42"
     inkscape:cx="50"
     inkscape:cy="58.098592"
     inkscape:window-width="1600"
     inkscape:window-height="837"
     inkscape:window-x="-8"
     inkscape:window-y="-8"
     inkscape:window-maximized="1"
     inkscape:current-layer="layer1" /><defs
     id="defs1" /><g
     inkscape:label="Camada 1"
     inkscape:groupmode="layer"
     id="layer1"><g
       id="g2"><path
         style="fill:#626262;fill-opacity:1"
         d="m 16.490909,30.498084 c -0.16406,-0.07316 -0.481921,-0.295539 -0.706356,-0.494177 -0.745074,-0.659431 -2.486079,-3.083759 -2.357296,-3.282506 0.03396,-0.05241 0.01849,-0.06979 -0.03439,-0.03862 -0.108637,0.06404 -0.859182,-1.422154 -0.779953,-1.544426 0.02814,-0.04342 -0.0051,-0.09836 -0.07375,-0.122077 -0.098,-0.03384 -0.09469,-0.09177 0.01535,-0.268899 0.128698,-0.207156 0.126648,-0.21504 -0.02486,-0.09561 -0.09082,0.07159 -0.16512,0.104127 -0.16512,0.07231 0,-0.03181 -0.107084,-0.453133 -0.237965,-0.936263 -0.195935,-0.72327 -0.489416,-2.628199 -0.445954,-2.894599 0.03088,-0.189259 -0.02141,-0.402138 -0.09877,-0.402138 -0.04767,0 -0.424027,0.210051 -0.836347,0.466779 -0.412321,0.256728 -0.7760124,0.448771 -0.8082024,0.426762 -0.03219,-0.02201 -0.03909,-0.01437 -0.01534,0.01698 0.02375,0.03135 -0.390127,0.378214 -0.9197319,0.770814 -1.07655,0.798056 -1.580499,1.281686 -2.349074,2.25436 -0.62281,0.7882 -1.146176,1.696187 -1.120607,1.944138 0.0027,0.02608 -0.04528,0.136837 -0.106608,0.246127 -0.06132,0.109291 -0.138352,0.322672 -0.171173,0.47418 -0.09664,0.446103 -0.100893,0.459586 -0.186264,0.589997 -0.04495,0.06867 -0.05645,0.148965 -0.02556,0.178433 0.12106,0.115467 -0.145696,0.395793 -0.359708,0.378006 -0.256839,-0.02135 -0.685322,-0.345156 -0.610181,-0.46112 0.02777,-0.04286 0.01134,-0.07792 -0.0365,-0.07792 -0.190265,0 -0.853152,-1.441426 -1.061348,-2.307863 -0.240232,-0.999765 -0.278436,-3.41791 -0.06917,-4.378076 0.267896,-1.229159 1.075975,-3.177006 1.318006,-3.177006 0.0541,0 0.07478,-0.03639 0.04596,-0.08086 -0.02882,-0.04448 0.01186,-0.161835 0.0904,-0.260799 0.223384,-0.281478 0.175011,-0.339828 -0.149169,-0.179935 -0.16406,0.08092 -0.298291,0.12792 -0.298291,0.104448 0,-0.04591 -0.279184,0.167637 -0.931727,0.712672 -0.584179,0.487934 -1.058227,0.708416 -1.167985,0.543237 -0.134936,-0.20307 -0.101303,-1.055795 0.06932,-1.757525 0.20578,-0.846324 0.480696,-1.453481 1.006847,-2.22364 0.44627,-0.653233 1.75111,-1.94909 1.920835,-1.907611 0.05336,0.01304 0.09701,-0.01452 0.09701,-0.06124 0,-0.106277 0.755931,-0.567841 1.541173,-0.941023 0.843269,-0.400761 2.54042,-0.74236 3.8466373,-0.774244 0.03755,-9.17e-4 0.06553,-0.439098 0.06218,-0.973736 -0.0034,-0.5346378 0.04751,-1.1641118 0.113025,-1.3988309 0.182923,-0.6553199 0.715412,-1.7098085 0.82946,-1.6425801 0.05568,0.032821 0.07186,0.014343 0.03596,-0.041062 -0.07918,-0.1221978 0.574018,-0.9291904 1.039752,-1.2845579 0.185409,-0.1414723 0.404223,-0.3132478 0.486253,-0.3817233 0.161032,-0.134423 1.128565,-0.6778662 1.166504,-0.6552009 0.01268,0.00757 0.179031,-0.048388 0.36967,-0.1243619 0.19064,-0.075974 0.386647,-0.1381341 0.43557,-0.1381341 0.147607,0 0.810749,-0.5388928 0.742843,-0.6036608 -0.03471,-0.033105 0.01147,-0.060191 0.10261,-0.060191 0.09114,0 0.165718,-0.032259 0.165718,-0.071686 0,-0.1322454 0.621042,-0.3355805 1.108282,-0.3628622 0.320685,-0.017956 0.483116,0.010636 0.484128,0.085218 9.01e-4,0.066448 0.03978,0.054526 0.09529,-0.029221 0.0713,-0.1075597 0.121492,-0.1150177 0.209455,-0.03112 0.06363,0.060688 0.172824,0.089429 0.242659,0.063869 0.06983,-0.02556 0.15651,-8.868e-4 0.192613,0.054829 0.0361,0.055716 0.129604,0.1013013 0.207781,0.1013013 0.179974,0 0.542137,0.291412 0.542137,0.4362263 0,0.1610618 0.242202,0.3253211 0.560988,0.3804569 0.153964,0.026629 0.307739,0.091325 0.341722,0.1437697 0.03398,0.052444 0.139187,0.1061884 0.233787,0.1194313 0.0946,0.013243 0.201981,0.063751 0.238623,0.1122399 0.03664,0.048489 0.133737,0.088162 0.215767,0.088162 0.08203,0 0.141056,0.044486 0.131169,0.098858 -0.0099,0.054372 0.07894,0.1058209 0.197388,0.1143312 0.118451,0.00851 0.230943,0.060046 0.249982,0.1145232 0.01904,0.054477 0.08884,0.09905 0.155104,0.09905 0.191521,0 1.343445,1.1504726 1.716729,1.7145665 0.514426,0.7773838 0.832482,1.8469725 0.869763,2.924925 l 0.03142,0.9084148 0.486836,0.06171 c 0.466397,0.05912 0.832627,0.116399 1.481142,0.231666 0.420611,0.07476 1.181557,0.344692 1.253997,0.444835 0.03346,0.04625 0.08242,0.06978 0.108796,0.05229 0.06311,-0.04185 1.445225,0.742306 1.788611,1.014785 0.147356,0.116929 0.240572,0.238682 0.207147,0.270563 -0.03343,0.03188 -0.0091,0.05796 0.05409,0.05796 0.514467,0 2.435515,2.582904 2.347321,3.156041 -0.01389,0.09027 0.01556,0.140063 0.06545,0.110656 0.04989,-0.02941 0.09752,0.0024 0.105847,0.07068 0.0083,0.06828 0.0207,0.166818 0.02748,0.218978 0.0068,0.05216 0.04329,0.141904 0.08112,0.199432 0.117006,0.177949 0.288009,1.419896 0.255301,1.854177 -0.025,0.331948 -0.07086,0.41756 -0.235728,0.440054 -0.271336,0.03702 -0.748195,-0.323724 -0.673463,-0.509474 0.036,-0.08948 0.0065,-0.132362 -0.0791,-0.115056 -0.07507,0.01517 -0.124192,-0.02893 -0.109165,-0.09801 0.01503,-0.06908 -0.01346,-0.101554 -0.06331,-0.07217 -0.119784,0.07061 -0.331391,-0.17682 -0.236586,-0.276636 0.04054,-0.04268 0.01747,-0.04672 -0.05128,-0.009 -0.07301,0.04009 -0.1498,0.007 -0.184641,-0.07963 -0.03281,-0.08154 -0.103736,-0.148265 -0.157618,-0.148265 -0.05388,0 -0.211732,-0.08535 -0.350778,-0.189672 -0.315145,-0.236439 -0.38224,-0.237661 -0.38224,-0.007 0,0.10049 0.03252,0.163536 0.07228,0.140103 0.06868,-0.04048 0.868961,1.428326 0.919644,1.687878 0.01322,0.06772 0.103938,0.293824 0.20159,0.502463 0.09765,0.20864 0.183865,0.492509 0.191584,0.630821 0.0077,0.138312 0.05145,0.229539 0.09719,0.202726 0.04573,-0.02681 0.07264,0.05207 0.05979,0.175286 -0.01285,0.12322 0.01146,0.301237 0.05402,0.395594 0.170257,0.377436 0.09407,3.171423 -0.110221,4.042059 -0.110742,0.471951 -0.656378,1.857029 -0.768602,1.951066 -0.06247,0.05235 -0.124709,0.148185 -0.138302,0.212971 -0.01359,0.06479 -0.183879,0.329102 -0.378414,0.587368 -0.297954,0.395567 -0.387158,0.45777 -0.565988,0.394674 -0.132449,-0.04673 -0.26676,-0.232095 -0.357131,-0.492875 -0.370782,-1.06996 -0.658745,-1.697325 -1.030786,-2.2457 -0.421638,-0.62148 -2.344452,-2.557421 -2.986386,-3.006775 -0.204542,-0.14318 -0.347635,-0.297766 -0.317985,-0.343525 0.02965,-0.04576 -0.0048,-0.0617 -0.07659,-0.03543 -0.07178,0.02627 -0.272869,-0.07626 -0.44687,-0.227837 -0.174,-0.151581 -0.334302,-0.258493 -0.356227,-0.237582 -0.02192,0.02091 -0.158734,-0.06706 -0.304023,-0.195483 -0.145288,-0.128426 -0.26416,-0.213219 -0.26416,-0.188427 0,0.02479 -0.111476,-0.02459 -0.247723,-0.109738 -0.136247,-0.08515 -0.218821,-0.199416 -0.183498,-0.253929 0.03598,-0.05553 0.01667,-0.07108 -0.04391,-0.03538 -0.05947,0.03506 -0.316338,-0.04713 -0.570815,-0.182638 -0.254476,-0.135507 -0.475921,-0.23228 -0.4921,-0.21505 -0.01618,0.01723 -0.126519,0.415413 -0.245201,0.884851 -0.383668,1.517575 -1.251764,3.690285 -1.431988,3.584048 -0.05318,-0.03135 -0.06746,-0.01187 -0.03172,0.04328 0.08648,0.133454 -0.445146,1.070484 -0.566688,0.998838 -0.05253,-0.03097 -0.06239,-0.0058 -0.02209,0.0564 0.0981,0.15139 -0.419487,0.983333 -0.560175,0.900401 -0.06005,-0.0354 -0.08179,-0.02208 -0.0483,0.0296 0.03349,0.05168 -0.11181,0.431693 -0.322889,0.844468 -0.211078,0.412774 -0.486512,1.049231 -0.612076,1.41435 -0.125563,0.365118 -0.297742,0.745871 -0.382619,0.846117 -0.105324,0.124394 -0.11171,0.158399 -0.02011,0.1071 0.108615,-0.06083 0.112688,-0.03681 0.02136,0.125952 -0.130198,0.232035 -0.420865,0.252745 -0.851581,0.06067 z m 0.6452,-1.611707 c 0.242708,-0.512374 0.469243,-0.872941 0.52704,-0.838871 0.05575,0.03287 0.07194,0.01434 0.03597,-0.04118 -0.09273,-0.143102 0.03459,-0.413798 0.159887,-0.33994 0.0597,0.03519 0.07499,0.01618 0.03573,-0.04441 -0.08943,-0.138016 0.413553,-1.085617 0.53747,-1.012571 0.05211,0.03072 0.07372,2.92e-4 0.04801,-0.06762 -0.06294,-0.166245 0.885622,-1.805111 0.991623,-1.713268 0.04597,0.03983 0.05244,0.02068 0.01437,-0.04257 -0.03807,-0.06324 0.04252,-0.325311 0.179094,-0.58237 0.315517,-0.593872 0.824111,-1.965421 1.024997,-2.764155 0.170997,-0.679893 0.26286,-3.414096 0.114707,-3.414096 -0.04856,0 -0.08829,-0.10669 -0.08829,-0.23709 0,-0.130399 0.02663,-0.23709 0.05918,-0.23709 0.113034,0 1.177062,0.585563 1.527384,0.840561 0.193782,0.141052 0.541707,0.377662 0.773167,0.525801 0.23146,0.148138 0.395923,0.30779 0.365474,0.354782 -0.03045,0.04699 -0.01848,0.07761 0.0266,0.06803 0.163235,-0.03467 0.427268,0.129825 0.364321,0.226969 -0.03585,0.05532 -0.01725,0.07169 0.04187,0.03685 0.12192,-0.07187 0.397748,0.131694 1.710198,1.262138 1.556008,1.340225 2.577849,2.452508 3.183849,3.465644 0.440417,0.736307 0.964016,2.52 0.834349,2.842294 -0.04629,0.11506 -0.03376,0.154278 0.03613,0.113077 0.198513,-0.117019 0.701019,-1.271068 0.921426,-2.116136 0.270041,-1.035373 0.293346,-2.922556 0.04997,-4.046375 -0.320489,-1.47989 -0.963605,-2.784443 -1.865253,-3.783642 -0.341602,-0.378562 -0.621095,-0.717339 -0.621095,-0.752838 0,-0.0355 -0.04073,-0.100108 -0.09051,-0.143575 -0.05259,-0.04592 -0.06054,-0.02936 -0.01899,0.03951 0.134482,0.22289 -0.101504,0.118909 -0.393904,-0.173564 -0.16062,-0.16066 -0.58287,-0.488825 -0.938334,-0.729255 -0.355464,-0.240431 -0.673673,-0.475374 -0.70713,-0.522097 -0.03346,-0.04672 -0.100573,-0.08855 -0.149146,-0.09295 -0.189144,-0.01714 -1.132334,-0.468173 -1.132334,-0.541486 0,-0.101405 0.478562,-0.215154 0.601156,-0.142887 0.05217,0.03075 0.09486,0.01072 0.09486,-0.04452 0,-0.06153 0.279251,-0.100114 0.72087,-0.09961 0.895431,10e-4 1.774444,0.09738 1.715677,0.188075 -0.02431,0.03751 0.07296,0.04685 0.216147,0.02074 0.177976,-0.03245 0.238307,-0.01346 0.190688,0.06003 -0.04326,0.06676 -0.01663,0.08809 0.07025,0.05629 0.335196,-0.122683 1.779562,0.67762 2.381035,1.319299 0.325454,0.347209 0.353424,0.203778 0.06531,-0.334884 -0.497399,-0.92993 -1.445526,-2.011544 -2.201035,-2.510919 -0.204272,-0.13502 -0.342904,-0.289475 -0.308069,-0.343234 0.03483,-0.05376 0.01888,-0.07154 -0.03546,-0.03951 -0.102392,0.06036 -1.559223,-0.626449 -1.483005,-0.699146 0.02368,-0.02258 -0.0539,-0.04683 -0.172388,-0.05388 -0.278601,-0.01658 -1.387724,-0.315174 -1.477803,-0.397844 -0.03806,-0.03493 -0.360212,-0.0493 -0.715887,-0.03192 l -0.646683,0.03159 -0.120213,0.347754 c -0.151049,0.436958 -0.413933,0.888147 -0.845462,1.451073 -0.185289,0.241707 -0.336889,0.545898 -0.336889,0.675979 0,0.565775 -0.611313,1.336026 -1.312833,1.654162 -1.532485,0.694973 -2.543371,0.904491 -4.313553,0.894036 -0.496892,-0.0029 -1.033816,-0.05261 -1.193166,-0.110401 -0.15935,-0.05779 -0.312099,-0.102131 -0.339442,-0.09855 -0.153122,0.02007 -0.688194,-0.118331 -0.655475,-0.169544 0.02134,-0.0334 -0.105231,-0.06783 -0.281267,-0.07651 -0.314108,-0.01548 -1.458131,-0.547504 -1.861777,-0.865806 -0.32297,-0.254684 -0.644122,-0.792321 -0.710482,-1.18941 -0.03506,-0.209771 -0.206167,-0.533125 -0.403924,-0.763309 -0.188705,-0.219649 -0.4669,-0.66401 -0.61821,-0.987467 -0.151309,-0.323457 -0.323482,-0.591896 -0.382606,-0.596531 -1.3530573,-0.106071 -3.4877553,0.428473 -4.5840253,1.147873 -0.245824,0.161317 -0.492429,0.266496 -0.548011,0.233731 -0.05558,-0.03276 -0.08997,-0.02439 -0.07641,0.01861 0.01356,0.043 -0.269061,0.355571 -0.628037,0.69461 -0.556327,0.525429 -1.181431,1.301867 -1.181431,1.467447 0,0.02677 0.196421,-0.09433 0.436491,-0.269109 0.24007,-0.174782 0.636493,-0.410132 0.880941,-0.522999 0.501847,-0.231714 1.763832,-0.485667 2.413457,-0.485667 0.446401,0 1.631426,0.20958 2.224912,0.393492 0.2799699,0.08676 0.3096999,0.119829 0.1732159,0.19268 -0.09062,0.04837 -0.2053319,0.06403 -0.2549139,0.0348 -0.04958,-0.02923 -0.105158,-0.01823 -0.123501,0.02443 -0.01834,0.04266 -0.324184,0.212643 -0.679648,0.377732 -0.355464,0.165089 -0.780856,0.375836 -0.945317,0.468328 -0.638308,0.358981 -1.9314,1.554568 -2.489713,2.301976 -0.214299,0.286879 -0.423959,0.535824 -0.465911,0.55321 -0.04195,0.01739 -0.07628,0.103913 -0.07628,0.19228 0,0.08837 -0.0615,0.244846 -0.136662,0.347732 -0.250417,0.342775 -0.747774,1.882748 -0.902704,2.795054 -0.245607,1.446253 -0.174434,2.858979 0.208965,4.147829 0.08126,0.273154 0.115189,0.550549 0.07541,0.616434 -0.04225,0.06998 -0.03469,0.08655 0.01818,0.03986 0.05231,-0.0462 0.228414,0.193959 0.41725,0.569016 0.179705,0.356921 0.299735,0.552926 0.266733,0.435567 -0.03992,-0.141973 -0.01617,-0.213867 0.07099,-0.214833 0.101146,-0.0011 0.09886,-0.02085 -0.01001,-0.08658 -0.118578,-0.07159 -0.122672,-0.208752 -0.02574,-0.862493 0.06339,-0.427553 0.08637,-0.82195 0.05107,-0.876437 -0.03531,-0.05449 -0.02174,-0.07404 0.03015,-0.04345 0.05189,0.03059 0.196008,-0.188505 0.320261,-0.486873 0.273902,-0.657721 1.468634,-2.22765 1.625081,-2.135428 0.06861,0.04045 0.08148,0.02102 0.03431,-0.05178 -0.09191,-0.141847 0.327987,-0.596728 0.472308,-0.511655 0.05519,0.03253 0.07231,0.01589 0.03805,-0.03698 -0.102147,-0.15764 1.726844,-1.776987 2.8156139,-2.492882 0.191404,-0.125853 0.3703794,-0.253689 0.3977224,-0.28408 0.187816,-0.208751 0.63926,-0.462381 0.732557,-0.411565 0.06193,0.03373 0.07904,0.02604 0.03803,-0.0171 -0.08207,-0.08631 1.04205,-0.903534 1.654793,-1.203013 0.342126,-0.167215 0.379589,-0.170613 0.322725,-0.02928 -0.03538,0.08794 -0.09128,0.262328 -0.124228,0.387521 -0.03294,0.125194 -0.08868,0.210657 -0.123865,0.189918 -0.03518,-0.02074 -0.06861,0.05424 -0.07429,0.166618 -0.0057,0.112379 -0.08128,0.588411 -0.168007,1.057849 -0.264441,1.431411 -0.08819,3.173978 0.493497,4.879068 0.23349,0.684429 0.783689,1.827595 1.415481,2.940991 0.161567,0.284727 0.267606,0.558047 0.235641,0.607378 -0.03196,0.04933 -0.0094,0.06096 0.05019,0.02584 0.06024,-0.03551 0.23151,0.09477 0.385909,0.293564 0.152679,0.196577 0.468296,0.57483 0.701373,0.840564 0.233077,0.265734 0.398932,0.506849 0.368567,0.535811 -0.03036,0.02896 -5.75e-4,0.08486 0.0662,0.124225 0.07758,0.04573 0.0958,0.03204 0.05046,-0.03792 -0.104181,-0.160779 0.09435,-0.133572 0.239082,0.03277 0.06808,0.07824 0.156509,0.142254 0.196511,0.142254 0.04,0 0.264284,-0.404381 0.498404,-0.898625 z m 12.529338,-0.998095 c 0,-0.05216 -0.04738,-0.09484 -0.105299,-0.09484 -0.05791,0 -0.07765,0.04268 -0.04385,0.09484 0.0338,0.05216 0.08118,0.09484 0.105299,0.09484 0.02412,0 0.04385,-0.04268 0.04385,-0.09484 z M 4.4495787,27.714416 c 0.02817,-0.04347 -0.01197,-0.07903 -0.08919,-0.07903 -0.07722,0 -0.117353,0.03556 -0.08919,0.07903 0.02817,0.04347 0.0683,0.07903 0.08919,0.07903 0.02089,0 0.06102,-0.03556 0.08919,-0.07903 z m 0.590644,-1.560111 c 0.551606,-1.307914 1.711088,-2.819517 2.98289,-3.888759 0.385334,-0.323962 0.950737,-0.802404 1.25645,-1.063203 0.3057129,-0.260799 0.8005063,-0.665852 1.0995403,-0.900118 0.846224,-0.662939 1.311493,-1.122915 1.242905,-1.228765 -0.05332,-0.08228 -0.329141,0.08711 -1.196358,0.734738 -0.05469,0.04084 -0.367893,0.263843 -0.6960134,0.495564 -0.328121,0.231721 -0.8650459,0.662779 -1.1931659,0.957906 -0.328121,0.295127 -0.752462,0.65857 -0.94298,0.807651 -0.539532,0.422185 -1.405006,1.331474 -1.826157,1.918609 -0.210543,0.293521 -0.41189,0.526563 -0.447437,0.51787 -0.03555,-0.0087 -0.07058,0.07666 -0.07785,0.189672 -0.0073,0.113013 -0.124034,0.482873 -0.259476,0.821912 -0.210941,0.528025 -0.454524,1.628938 -0.33407,1.509881 0.02221,-0.02196 0.19849,-0.414789 0.391722,-0.872958 z m 24.1726083,0.667072 c -0.03833,-0.696314 -0.707524,-2.141919 -1.360935,-2.939916 -0.16016,-0.1956 -0.267085,-0.355635 -0.237613,-0.355635 0.02947,0 -0.291159,-0.347442 -0.712515,-0.772092 -0.421357,-0.42465 -0.755454,-0.8072 -0.742438,-0.850111 0.01302,-0.04291 -0.04291,-0.05365 -0.124288,-0.02387 -0.13395,0.04903 -0.196923,-0.06366 -0.157264,-0.281408 0.0078,-0.043 -0.03548,-0.04887 -0.09625,-0.01305 -0.06077,0.03582 -0.252037,-0.06093 -0.425043,-0.215005 -0.316155,-0.281554 -1.346845,-1.042694 -1.904421,-1.406367 -0.164622,-0.107373 -0.526296,-0.347758 -0.803719,-0.534189 -0.277424,-0.18643 -0.643032,-0.407338 -0.812464,-0.490906 l -0.308058,-0.151942 0.251502,0.429193 c 0.138326,0.236056 0.455541,0.587491 0.704921,0.780967 0.249381,0.193475 0.646649,0.526589 0.882819,0.740253 0.23617,0.213663 0.44466,0.373924 0.463312,0.356133 0.01865,-0.01779 0.343626,0.223341 0.722164,0.535845 0.378537,0.312505 0.724448,0.568338 0.768691,0.568518 0.04424,1.79e-4 0.04852,0.0496 0.0095,0.109815 -0.04061,0.06267 -0.02759,0.08393 0.03045,0.04972 0.13877,-0.0818 2.079294,1.835852 2.599557,2.568919 0.231984,0.326874 0.390328,0.64287 0.351874,0.702214 -0.04052,0.06253 -0.02593,0.08197 0.03469,0.04624 0.09802,-0.05778 0.721561,1.030399 0.721561,1.25925 0,0.05545 0.03503,0.100812 0.07786,0.100812 0.04282,0 0.07257,-0.09602 0.06611,-0.213381 z M 11.221094,20.491073 c -0.0338,-0.05216 -0.114741,-0.09418 -0.179872,-0.09338 -0.07115,8.72e-4 -0.05889,0.03815 0.03073,0.09338 0.191018,0.117742 0.225439,0.117742 0.149146,0 z m 19.845095,-3.628948 c -0.286063,-0.469589 -1.060366,-1.187887 -1.225179,-1.136561 -0.04187,0.01304 -0.07613,-0.0186 -0.07613,-0.07032 0,-0.05171 -0.24609,-0.226492 -0.546867,-0.388397 -0.300777,-0.161904 -0.546868,-0.327415 -0.546868,-0.367801 0,-0.04039 -0.0783,-0.07314 -0.174003,-0.07278 -0.379939,0.0014 -0.53164,-0.0286 -0.487637,-0.09648 0.02536,-0.03912 -0.07267,-0.06809 -0.21785,-0.06437 -0.145178,0.0037 -0.545,-0.01932 -0.888492,-0.05119 -0.343493,-0.03187 -0.667981,-0.03233 -0.721086,-0.001 -0.152778,0.09006 0.418384,0.440409 0.826212,0.506796 0.203643,0.03315 0.526504,0.08624 0.717469,0.117976 0.205507,0.03415 0.320975,0.09819 0.282929,0.156907 -0.03535,0.05456 -0.01961,0.07287 0.03499,0.04069 0.200391,-0.118126 0.84687,0.1459 1.400886,0.57213 0.76328,0.587227 1.679689,1.491921 1.778715,1.755976 0.07317,0.195114 0.08325,0.186587 0.112837,-0.09543 0.02245,-0.214036 -0.06092,-0.463014 -0.269919,-0.806106 z M 2.8258187,17.288867 c 0.156997,-0.236119 0.257568,-0.472335 0.223492,-0.524924 -0.03408,-0.05259 -0.01287,-0.06668 0.04713,-0.03131 0.06,0.03537 0.301814,-0.126262 0.537372,-0.359176 0.623807,-0.616803 1.426864,-1.039566 2.333037,-1.22821 0.42893,-0.08929 1.0176,-0.277939 1.308155,-0.419213 0.474063,-0.230501 0.504677,-0.263202 0.298291,-0.318628 -0.126494,-0.03397 -0.440339,-0.06602 -0.697433,-0.07122 -0.843643,-0.01706 -2.499014,0.50409 -2.775164,0.87369 -0.03346,0.04478 -0.100573,0.08844 -0.149145,0.09703 -0.04857,0.0086 -0.07602,0.05079 -0.06099,0.09379 0.01503,0.043 -0.01887,0.05095 -0.07531,0.01768 -0.11928,-0.07031 -0.958703,0.7332 -1.04879,1.003921 -0.03354,0.100798 -0.09833,0.161252 -0.143984,0.134342 -0.04565,-0.02691 -0.06222,0.02686 -0.03682,0.119495 0.0254,0.09263 -0.02324,0.295402 -0.10809,0.450602 -0.180017,0.329282 -0.209903,0.75221 -0.04634,0.655795 0.06003,-0.03539 0.237604,-0.257531 0.3946,-0.49365 z M 19.125816,15.795594 c 0.991926,-0.276977 2.00992,-0.756571 2.327486,-1.096515 0.365012,-0.390735 0.323288,-0.407837 -0.209197,-0.08575 -0.256797,0.15533 -0.519781,0.282419 -0.584408,0.282419 -0.06463,0 -0.167198,0.05711 -0.227935,0.126912 -0.101752,0.116939 -1.058672,0.383361 -1.405376,0.39128 -0.08203,0.0019 -0.193889,0.03066 -0.248576,0.06398 -0.241598,0.147175 -2.1819,0.243205 -2.734338,0.135329 -1.280128,-0.249974 -1.803597,-0.409923 -2.62058,-0.800732 -0.699339,-0.334534 -0.922004,-0.407524 -0.84961,-0.278507 0.216055,0.385048 1.361776,0.940887 2.585069,1.254128 1.239907,0.317495 2.846335,0.320516 3.967465,0.0075 z m -0.994304,-1.059882 c 0.08203,-0.03009 0.241656,-0.06667 0.354723,-0.08128 0.436775,-0.05644 1.103232,-0.261534 1.547336,-0.47618 0.569176,-0.275096 1.833942,-1.242507 2.184386,-1.670822 0.279404,-0.34149 0.595704,-0.884763 0.582839,-1.001076 -0.0044,-0.03967 0.04491,-0.252283 0.109547,-0.47248 0.06464,-0.220197 0.09616,-0.50697 0.07004,-0.637273 -0.02612,-0.130303 -0.0092,-0.214349 0.03758,-0.186769 0.188722,0.111246 0.07961,-1.2006088 -0.160029,-1.9240003 C 22.552783,7.3646607 22.206692,6.843818 21.439649,6.1514072 21.11001,5.853842 20.868424,5.5802736 20.902793,5.5434776 c 0.03437,-0.036796 0.0063,-0.036023 -0.06248,0.00172 -0.06873,0.037741 -0.247707,-0.012487 -0.397722,-0.1116172 -0.150015,-0.099133 -0.353892,-0.2082202 -0.45306,-0.2424195 -0.104547,-0.036054 -0.150314,-0.1084653 -0.108925,-0.1723391 0.04391,-0.067774 0.028,-0.084589 -0.04136,-0.043702 -0.06201,0.036551 -0.203151,0.020305 -0.313655,-0.036102 -0.145938,-0.074495 -0.200916,-0.073532 -0.200916,0.00352 0,0.058342 -0.05593,0.086516 -0.124288,0.062609 -0.06836,-0.023907 -0.113639,-0.089941 -0.100623,-0.146744 0.01302,-0.056803 -0.03998,-0.079983 -0.11777,-0.051512 -0.08779,0.03213 -0.250874,-0.09233 -0.429956,-0.3281209 -0.273625,-0.36028 -0.300906,-0.3730495 -0.528525,-0.24739 -0.569705,0.3145115 -0.876035,0.4111352 -1.146524,0.3616403 -0.428056,-0.078327 -0.466257,-0.087231 -0.712009,-0.1659659 -0.163124,-0.052262 -0.274406,-0.023545 -0.397722,0.1026356 -0.09417,0.096361 -0.137666,0.1337564 -0.09665,0.083101 0.04101,-0.050655 0.07457,-0.1343982 0.07457,-0.1860953 0,-0.051697 -0.06214,-0.012942 -0.138084,0.086121 -0.07595,0.099064 -0.112923,0.2426581 -0.08217,0.3190983 0.04056,0.1008138 0.0088,0.1217367 -0.115656,0.076186 -0.102097,-0.037368 -0.146973,-0.024834 -0.110824,0.030954 0.03341,0.051562 0.02455,0.097015 -0.01969,0.1010057 -0.04424,0.00399 -0.163475,0.022215 -0.264962,0.040499 -0.161716,0.029134 -0.156006,0.00429 0.0462,-0.2010016 l 0.230723,-0.2342444 -0.59307,0.2569756 c -1.563044,0.6772633 -2.565029,1.5348718 -3.17685,2.7190958 -0.472528,0.914612 -0.48737,0.9837053 -0.493085,2.2954742 -0.0046,1.0520668 0.01598,1.1807118 0.272173,1.7030468 0.345684,0.704775 0.745269,1.213082 0.887642,1.129157 0.06281,-0.03702 0.07996,-0.0201 0.04084,0.04028 -0.07217,0.111378 1.310666,1.262565 1.584969,1.319459 0.05081,0.01054 0.360106,0.110438 0.687325,0.221997 1.171997,0.399574 3.068798,0.611104 3.630852,0.404911 z m -0.09943,-0.718426 c 0.02734,-0.02754 0.206318,-0.07122 0.397722,-0.09706 0.761669,-0.102828 1.702575,-0.643135 2.570434,-1.476049 0.626494,-0.601268 1.036095,-1.394111 1.197812,-2.318538 0.04746,-0.2713088 0.09153,-0.3796838 0.09792,-0.2408328 0.02107,0.4575628 -0.276278,1.7007968 -0.525819,2.1985128 -0.392415,0.782677 -1.036943,1.316793 -2.018082,1.67237 -0.456553,0.16546 -1.832268,0.374696 -1.719986,0.261596 z M 16.490909,5.5801138 c -0.16406,-0.055863 -0.331164,-0.1485153 -0.371342,-0.205894 -0.04774,-0.068175 -0.07358,-0.056206 -0.07457,0.034542 -0.0013,0.1160387 -0.02797,0.1136372 -0.162433,-0.014608 -0.244434,-0.2331389 -0.07934,-0.3915903 0.215811,-0.2071334 0.133865,0.083659 0.243391,0.117704 0.243391,0.075656 0,-0.042048 0.07043,0.00639 0.156519,0.107638 0.08609,0.1012489 0.128189,0.1307437 0.09356,0.065544 -0.04576,-0.086158 0.05912,-0.118545 0.383875,-0.118545 0.245758,0 0.556975,-0.039941 0.691593,-0.088758 0.180015,-0.065279 0.29351,-0.050874 0.429052,0.054457 0.175826,0.136635 0.174008,0.1411189 -0.03956,0.097602 -0.123121,-0.025087 -0.200693,-0.00987 -0.172382,0.033826 0.02831,0.043691 0.006,0.1062443 -0.04958,0.1390067 -0.05558,0.032762 -0.102413,0.0037 -0.104076,-0.064574 -0.0019,-0.076606 -0.04183,-0.060591 -0.104371,0.041821 -0.115993,0.1899459 -0.654015,0.2133623 -1.135486,0.04942 z m 1.601129,-0.4366669 c -0.02816,-0.043467 0.01394,-0.07903 0.09356,-0.07903 0.07962,0 0.144772,0.035563 0.144772,0.07903 0,0.043467 -0.0421,0.07903 -0.09356,0.07903 -0.05146,0 -0.116606,-0.035564 -0.144772,-0.07903 z"
         id="path2" /></g></g></svg>
