<?xml version="1.0" encoding="UTF-8" standalone="no"?>
<!-- Created with Inkscape (http://www.inkscape.org/) -->

<svg
   width="128"
   height="128"
   viewBox="0 0 33.866667 33.866666"
   version="1.1"
   id="svg5"
   xml:space="preserve"
   inkscape:version="1.2.2 (b0a8486541, 2022-12-01)"
   sodipodi:docname="puffballs_puro.svg"
   xmlns:inkscape="http://www.inkscape.org/namespaces/inkscape"
   xmlns:sodipodi="http://sodipodi.sourceforge.net/DTD/sodipodi-0.dtd"
   xmlns="http://www.w3.org/2000/svg"
   xmlns:svg="http://www.w3.org/2000/svg"><sodipodi:namedview
     id="namedview7"
     pagecolor="#ffffff"
     bordercolor="#000000"
     borderopacity="0.25"
     inkscape:showpageshadow="2"
     inkscape:pageopacity="0.0"
     inkscape:pagecheckerboard="0"
     inkscape:deskcolor="#d1d1d1"
     inkscape:document-units="mm"
     showgrid="false"
     inkscape:zoom="4.2482867"
     inkscape:cx="94.86177"
     inkscape:cy="102.98269"
     inkscape:window-width="1854"
     inkscape:window-height="1011"
     inkscape:window-x="0"
     inkscape:window-y="0"
     inkscape:window-maximized="1"
     inkscape:current-layer="g7782" /><defs
     id="defs2" /><g
     inkscape:label="Camada 1"
     inkscape:groupmode="layer"
     id="layer1"><g
       id="g7782"
       transform="translate(44.331275,-0.25027221)"><g
         id="g9421"><path
           style="fill:#555555;stroke-width:0.0689514;fill-opacity:1"
           d="m -24.427078,29.50367 c -0.08693,-0.220945 -0.215442,-0.939709 -0.217047,-1.213953 -7.53e-4,-0.128952 -0.04876,-0.479836 -0.106687,-0.779743 -0.05792,-0.299906 -0.123081,-0.667973 -0.144796,-0.817926 -0.03779,-0.260967 -0.452569,-1.718538 -0.592758,-2.083019 -0.03692,-0.09599 -0.17508,-0.295357 -0.307021,-0.443044 -0.131942,-0.147686 -0.350937,-0.473531 -0.486655,-0.7241 -0.290248,-0.535869 -0.54339,-0.787966 -0.955325,-0.95138 -0.67481,-0.267696 -1.477306,-0.05419 -2.183352,0.580902 -0.191817,0.172539 -0.584168,0.472725 -0.871892,0.667081 -0.700327,0.473066 -1.020267,0.697241 -1.395027,0.977461 -0.172634,0.129084 -0.3505,0.235442 -0.395258,0.236352 -0.04476,9.06e-4 -0.09184,0.02576 -0.104627,0.05523 -0.01279,0.02947 -0.125261,0.123576 -0.249942,0.209123 -0.214552,0.147211 -0.226692,0.178329 -0.226692,0.58109 0,0.334045 -0.03058,0.457627 -0.14222,0.574724 -0.291905,0.306178 -1.126393,0.103974 -1.715924,-0.415785 -0.148099,-0.130571 -0.426212,-0.326634 -0.618028,-0.435695 -0.485309,-0.275933 -0.592642,-0.510473 -0.592778,-1.295309 -1.4e-4,-0.633656 0.09215,-1.17811 0.341656,-2.016273 0.198468,-0.666708 0.429301,-1.124051 0.782318,-1.549984 0.1707,-0.205959 0.405721,-0.512496 0.52227,-0.681194 0.116548,-0.168697 0.313314,-0.446274 0.437257,-0.616838 0.191136,-0.263029 0.214874,-0.337043 0.156349,-0.487466 -0.03795,-0.09754 -0.175841,-0.256982 -0.306422,-0.354309 -0.218804,-0.163084 -0.297078,-0.177963 -0.998289,-0.18976 -0.560937,-0.0094 -0.87084,0.01935 -1.179377,0.109549 -0.675955,0.197612 -2.138089,0.796635 -2.453864,1.005325 -0.160365,0.105983 -0.318875,0.192696 -0.352244,0.192696 -0.03337,0 -0.09791,0.03639 -0.143421,0.08086 -0.06383,0.06237 -0.05777,0.107838 0.02653,0.19886 0.390424,0.421575 -0.544724,0.950463 -1.180241,0.667505 -0.173093,-0.07707 -0.465473,-0.511442 -0.465473,-0.691531 0,-0.136132 -0.399326,-1.074507 -0.513428,-1.206501 -0.221641,-0.256398 -0.277799,-0.540548 -0.186698,-0.944652 0.121157,-0.537422 0.326533,-1.040039 0.582264,-1.424977 0.430576,-0.64812 0.473545,-0.768555 0.274803,-0.770226 -0.1427,-0.0012 -0.62088,-0.156971 -0.690397,-0.224903 -0.02629,-0.02569 -0.231574,-0.04671 -0.456182,-0.04671 -0.365206,0 -0.416574,-0.01758 -0.485901,-0.166265 -0.06097,-0.130765 -0.05217,-0.228175 0.0412,-0.456227 0.115577,-0.282268 0.114904,-0.292782 -0.02538,-0.396186 -0.241287,-0.177852 -0.49332,-0.715753 -0.49332,-1.052867 0,-0.531435 0.378714,-1.822302 0.733211,-2.499191 0.157388,-0.300522 0.712342,-0.9817485 1.057015,-1.2975245 0.521967,-0.478206 1.54025,-0.9805091 2.359978,-1.1641398 0.671893,-0.1505135 1.426813,-0.2581554 1.819347,-0.2594163 0.233377,-7.498e-4 0.441586,-0.018234 0.462688,-0.038855 0.0211,-0.020621 0.0086,-0.1509784 -0.02771,-0.2896824 -0.298357,-1.1386295 -0.319611,-1.3804679 -0.156358,-1.7791716 0.07713,-0.188367 0.184078,-0.3030976 0.357511,-0.3835198 0.778465,-0.3609811 2.995136,-0.7818481 4.117838,-0.7818311 0.45027,6.8e-6 0.748739,0.042662 1.13421,0.1620939 1.009244,0.3126973 1.312667,0.5074877 1.814258,1.1647102 0.144027,0.1887161 0.446043,0.5362136 0.671146,0.7722161 0.405933,0.4255897 0.411537,0.4286317 0.685963,0.3723024 0.231509,-0.047519 0.283647,-0.089758 0.319323,-0.2586938 0.0951,-0.4503258 0.409529,-0.9169898 0.772792,-1.146951 0.153188,-0.096974 0.23604,-0.1042564 0.508157,-0.044665 0.605853,0.132678 1.856451,0.5610888 3.424143,1.1729906 1.01648,0.3967531 1.483325,0.7137603 1.72069,1.1684198 0.135031,0.2586461 0.143444,0.3513179 0.101497,1.1180558 -0.02516,0.459819 -0.02829,0.8360345 -0.007,0.8360345 0.105447,0 0.671169,-0.3244075 1.033255,-0.5925105 0.532652,-0.394395 0.699367,-0.453289 1.015344,-0.358683 0.77126,0.230922 1.582207,0.628917 1.965331,0.9645405 0.0986,0.08638 0.251314,0.283651 0.339356,0.438379 0.114736,0.201642 0.278964,0.346437 0.579815,0.511204 0.847779,0.464304 1.381837,1.203203 2.309168,3.194863 0.299386,0.643 1.091342,2.942899 1.091342,3.169336 0,0.275457 -0.454476,0.462238 -1.987914,0.816995 -0.671182,0.155276 -1.331066,0.332361 -1.918161,0.514754 -0.09591,0.0298 -0.268543,0.06987 -0.383633,0.08904 -0.115089,0.01918 -0.30135,0.06916 -0.413912,0.111074 l -0.204658,0.0762 0.598746,0.593321 c 0.573749,0.56855 0.773631,0.865252 1.157354,1.71797 0.57114,1.269197 0.469557,2.788867 -0.284765,4.260034 -0.484754,0.945423 -1.078613,1.481977 -2.317543,2.093907 -0.765649,0.378169 -1.331216,0.530274 -1.971687,0.530274 -0.268753,0 -0.354512,0.03276 -0.490734,0.187442 -0.159321,0.180915 -0.187935,0.187202 -0.8218,0.180541 -0.361201,-0.0038 -0.65673,0.02135 -0.65673,0.05588 0,0.14387 -0.441661,0.67493 -0.648489,0.779753 -0.256636,0.130066 -1.075826,0.295718 -1.462985,0.295836 -0.208467,6.4e-5 -0.275585,-0.03175 -0.323402,-0.153281 z"
           id="path9418" /></g></g></g></svg>
