<?xml version="1.0" encoding="UTF-8" standalone="no"?>
<!-- Created with Inkscape (http://www.inkscape.org/) -->

<svg
   width="128"
   height="128"
   viewBox="0 0 33.866666 33.866666"
   version="1.1"
   id="svg1"
   xml:space="preserve"
   inkscape:version="1.4.2 (f4327f4, 2025-05-13)"
   sodipodi:docname="truffles.svg"
   xmlns:inkscape="http://www.inkscape.org/namespaces/inkscape"
   xmlns:sodipodi="http://sodipodi.sourceforge.net/DTD/sodipodi-0.dtd"
   xmlns="http://www.w3.org/2000/svg"
   xmlns:svg="http://www.w3.org/2000/svg"><sodipodi:namedview
     id="namedview1"
     pagecolor="#ffffff"
     bordercolor="#000000"
     borderopacity="0.25"
     inkscape:showpageshadow="2"
     inkscape:pageopacity="0.0"
     inkscape:pagecheckerboard="0"
     inkscape:deskcolor="#d1d1d1"
     inkscape:document-units="mm"
     inkscape:zoom="3.22"
     inkscape:cx="49.534161"
     inkscape:cy="57.608696"
     inkscape:window-width="1600"
     inkscape:window-height="837"
     inkscape:window-x="-8"
     inkscape:window-y="-8"
     inkscape:window-maximized="1"
     inkscape:current-layer="layer1" /><defs
     id="defs1" /><g
     inkscape:label="Camada 1"
     inkscape:groupmode="layer"
     id="layer1"><g
       id="g2"><g
         id="g1"><path
           style="fill:#626262;fill-opacity:1"
           d="m 8.6928074,30.082694 c -0.2070589,-0.03172 -0.3764707,-0.128983 -0.3764707,-0.216149 0,-0.202083 1.2881121,-0.209051 1.4103979,-0.0076 0.1072685,0.176686 -0.49308,0.306623 -1.0339272,0.223779 z m 3.8483676,-0.146778 c -0.355916,-0.146199 -0.230845,-0.568548 0.220043,-0.743059 0.835928,-0.323536 2.749893,-0.08828 2.749893,0.337999 0,0.360521 -2.311032,0.675715 -2.969936,0.40506 z m 14.945929,-0.03679 c -0.139627,-0.229985 0.855138,-0.373298 1.326044,-0.19104 0.230026,0.08903 0.418229,0.202092 0.418229,0.251251 0,0.154106 -1.64871,0.09719 -1.744273,-0.06021 z m -7.704471,-0.461178 c -1.625632,-0.371447 -2.701794,-0.932107 -3.889757,-2.026487 -0.561011,-0.516817 -1.071849,-0.939667 -1.135194,-0.939667 -0.06335,0 -0.326028,0.152841 -0.583738,0.339647 -0.25771,0.186806 -1.135216,0.504172 -1.950013,0.705257 -3.266119,0.80605 -6.3896238,0.208201 -8.3415828,-1.596607 -1.7880592,-1.653263 -2.5080833,-3.572571 -2.389028,-6.368232 0.065498,-1.538019 0.1372212,-1.86093 0.6620744,-2.98077 0.68371,-1.45878 1.8706843,-2.869786 3.0724942,-3.652402 0.903509,-0.588363 2.3470093,-1.095249 3.1190277,-1.095249 0.4174904,0 0.5322817,-0.130306 0.9971691,-1.131939 C 10.06173,9.145288 11.815608,7.2824601 13.297279,6.4927393 15.078918,5.5431379 16.130601,5.2989276 18.002018,5.400256 c 1.964723,0.1063805 2.976184,0.4203077 4.379997,1.3594204 1.96426,1.314037 2.926149,3.3472746 2.80863,5.9368726 l -0.05405,1.190999 1.085298,0.373167 c 2.410703,0.828891 4.109704,2.283472 5.182187,4.436671 0.886392,1.779587 1.054989,3.213927 0.589311,5.013548 -0.814227,3.146596 -2.918292,5.01665 -6.359402,5.65212 -1.799082,0.332237 -4.569898,0.367704 -5.851357,0.0749 z m 6.39276,-1.40594 c 2.27149,-0.624188 3.534324,-1.615804 4.366924,-3.429043 0.515612,-1.122901 0.589725,-1.45163 0.596305,-2.644909 0.007,-1.263192 -0.04006,-1.453947 -0.644347,-2.613794 -0.88063,-1.690246 -1.760546,-2.600348 -3.354402,-3.469477 L 25.80131,15.144871 h -2.258824 c -2.197076,0 -2.28992,0.01499 -3.396355,0.54849 -1.428932,0.688997 -3.002281,1.804961 -3.521032,2.497441 -0.218777,0.292046 -0.649396,1.029208 -0.95693,1.638137 -0.515581,1.020869 -0.559784,1.233235 -0.567256,2.725275 -0.0062,1.245492 0.06327,1.764262 0.301818,2.252676 0.825622,1.69041 2.545575,2.945693 4.709688,3.437298 1.524013,0.346198 4.396847,0.245662 6.062974,-0.212176 z M 22.217505,27.5956 c -0.161115,-0.197623 -0.09247,-0.235885 0.397814,-0.221737 0.623084,0.01798 0.774346,0.18277 0.327861,0.357184 -0.389166,0.152023 -0.509644,0.129536 -0.725675,-0.135447 z m -2.858027,-0.953473 c 0,-0.09368 0.150588,-0.170329 0.334641,-0.170329 0.184052,0 0.33464,0.07665 0.33464,0.170329 0,0.09368 -0.150588,0.17033 -0.33464,0.17033 -0.184053,0 -0.334641,-0.07665 -0.334641,-0.17033 z m 6.763116,0.022 c 0.04953,-0.08158 0.314548,-0.194036 0.588931,-0.249899 0.274382,-0.05586 0.803008,-0.381276 1.174724,-0.723139 0.371716,-0.341863 0.675847,-0.569287 0.675847,-0.505387 0,0.346249 -0.416773,0.792712 -1.106133,1.184933 -0.751777,0.427733 -1.517148,0.596202 -1.333369,0.293492 z m 0.555003,-3.462442 c 0.294366,-0.29966 0.575658,-0.503661 0.625094,-0.453336 0.140213,0.142735 -0.646404,0.998173 -0.917869,0.998173 -0.150682,0 -0.03988,-0.206203 0.292775,-0.544837 z m 2.394066,0.374507 c -0.0052,-0.439776 0.192196,-1.021978 0.346549,-1.021978 0.232817,0 0.172579,0.582866 -0.09785,0.946841 -0.186466,0.250965 -0.24639,0.269069 -0.248695,0.07514 z m -17.467099,2.984112 c 0.566171,-0.135914 1.381112,-0.460537 1.81098,-0.721383 0.857204,-0.520157 0.82562,-0.356029 0.43543,-2.262729 -0.229374,-1.12086 0.30037,-3.342294 1.109501,-4.652592 1.032115,-1.671396 1.06769,-1.778395 0.864464,-2.599995 -0.616256,-2.491393 -4.780336,-4.106529 -8.3698749,-3.246451 -2.3982674,0.57464 -4.176685,2.59649 -4.9397033,5.615857 -0.5243709,2.075007 0.2281097,4.844963 1.6884189,6.215239 0.4030856,0.378234 1.0227212,0.837367 1.3769679,1.020296 0.557762,0.288022 1.0354272,0.419721 2.8192493,0.777311 0.7630557,0.152964 2.2406131,0.08585 3.2045671,-0.145553 z m -1.275538,-1.444491 c -0.135374,-0.08715 -0.210668,-0.190074 -0.16732,-0.228713 0.14399,-0.128349 1.333717,0.08636 1.333717,0.240695 0,0.199411 -0.851631,0.190662 -1.166397,-0.01198 z M 7.9632364,21.148994 c -0.1964948,-0.381187 -0.1956293,-0.381502 0.1614333,-0.05877 0.3988147,0.360475 0.4352557,0.442008 0.197554,0.442008 -0.088788,0 -0.2503327,-0.172459 -0.3589873,-0.383242 z M 18.363115,15.41928 c 1.607685,-0.94357 2.845588,-1.372644 4.316416,-1.49613 0.704691,-0.05916 1.336573,-0.19172 1.404184,-0.294572 0.368847,-0.561106 -0.0953,-3.017766 -0.83125,-4.3997207 C 22.736037,8.2591221 21.656443,7.3660516 20.382088,6.8544 19.622072,6.5492548 19.092393,6.4755687 17.602615,6.4677344 c -1.790505,-0.00942 -1.876233,0.00768 -3.154514,0.6290047 -1.547053,0.7519676 -3.339775,2.4632683 -3.923654,3.7454499 -0.202173,0.443966 -0.367587,0.841673 -0.367587,0.883795 0,0.04212 0.357647,0.12573 0.794772,0.185796 2.475338,0.340144 4.896707,1.82438 5.748224,3.523512 0.178166,0.355516 0.371345,0.646393 0.429286,0.646393 0.05794,0 0.613228,-0.298082 1.233973,-0.662405 z m 3.377192,-3.457445 c 0.103416,-0.31583 0.463616,-0.368212 0.463616,-0.06742 0,0.148329 -0.119215,0.269689 -0.264923,0.269689 -0.145709,0 -0.23512,-0.09102 -0.198693,-0.202266 z M 4.4871945,28.872114 c -0.4410796,-0.284366 0.4555647,-0.577203 1.4480594,-0.472927 0.9903192,0.104049 1.1332221,0.170029 0.96574,0.445894 -0.1321513,0.217672 -2.0841903,0.239533 -2.4137994,0.02703 z"
           id="path1" /></g></g></g></svg>
