<?xml version="1.0" encoding="UTF-8" standalone="no"?>
<!-- Created with Inkscape (http://www.inkscape.org/) -->

<svg
   width="128mm"
   height="128mm"
   viewBox="0 0 128 128"
   version="1.1"
   id="svg5"
   xml:space="preserve"
   inkscape:version="1.2.2 (b0a8486541, 2022-12-01)"
   sodipodi:docname="truffles_puro.svg"
   xmlns:inkscape="http://www.inkscape.org/namespaces/inkscape"
   xmlns:sodipodi="http://sodipodi.sourceforge.net/DTD/sodipodi-0.dtd"
   xmlns="http://www.w3.org/2000/svg"
   xmlns:svg="http://www.w3.org/2000/svg"><sodipodi:namedview
     id="namedview7"
     pagecolor="#ffffff"
     bordercolor="#000000"
     borderopacity="0.25"
     inkscape:showpageshadow="2"
     inkscape:pageopacity="0.0"
     inkscape:pagecheckerboard="0"
     inkscape:deskcolor="#d1d1d1"
     inkscape:document-units="mm"
     showgrid="false"
     inkscape:zoom="0.60881013"
     inkscape:cx="177.39521"
     inkscape:cy="294.83741"
     inkscape:window-width="1854"
     inkscape:window-height="1011"
     inkscape:window-x="0"
     inkscape:window-y="0"
     inkscape:window-maximized="1"
     inkscape:current-layer="layer1" /><defs
     id="defs2" /><g
     inkscape:label="Camada 1"
     inkscape:groupmode="layer"
     id="layer1"><g
       id="g6662"><path
         style="fill:#5d5d5d;stroke-width:0.579016;fill-opacity:1"
         d="m 65.532394,113.97504 c -0.14077,-0.14644 -2.28659,-0.69817 -4.76851,-1.22608 -6.12816,-1.30346 -13.37999,-5.11947 -20.7851,-10.93742 -6.78992,-5.334606 -6.52632,-5.199485 -11.64897,-5.971216 -5.5259,-0.832487 -8.67837,-2.550971 -12.95315,-7.061032 -3.20085,-3.377033 -3.91567,-4.513771 -4.57273,-7.271721 -1.3303888,-5.584244 -0.9547498,-10.798013 1.28468,-17.830724 1.09298,-3.432415 2.55266,-8.324225 3.24374,-10.870689 3.12934,-11.530947 9.28023,-17.658471 17.7258,-17.658471 2.97872,0 4.86087,-1.111277 4.86087,-2.869998 0,-0.38288 0.25383,-0.696146 0.56407,-0.696146 0.31024,0 0.56407,-0.26671 0.56407,-0.592688 0,-1.848448 7.3652,-10.703887 12.13591,-14.591438 2.13853,-1.742646 8.39978,-2.647202 18.30912,-2.6451 11.79423,0.0025 20.48551,3.229743 29.31848,10.886518 4.418206,3.82987 12.394236,15.484867 16.470106,24.066975 2.93671,6.183509 3.27918,10.148756 1.91798,22.20687 -1.36091,12.055465 -1.93904,13.89392 -5.80837,18.470384 -1.7845,2.110634 -4.74656,5.892727 -6.58235,8.404654 -2.90611,3.976452 -7.824876,8.682872 -9.074646,8.682872 -0.2287,0 -2.60609,1.31318 -5.2831,2.91818 -2.76133,1.65555 -6.45368,3.31002 -8.53375,3.8238 -3.33064,0.82268 -15.76983,1.40156 -16.38415,0.76247 z"
         id="path6659" /></g></g></svg>
