<?xml version="1.0" encoding="UTF-8" standalone="no"?>
<!-- Created with Inkscape (http://www.inkscape.org/) -->

<svg
   width="128"
   height="128"
   viewBox="0 0 33.866666 33.866666"
   version="1.1"
   id="svg1"
   xml:space="preserve"
   inkscape:version="1.4.2 (f4327f4, 2025-05-13)"
   sodipodi:docname="otherFungi.svg"
   xmlns:inkscape="http://www.inkscape.org/namespaces/inkscape"
   xmlns:sodipodi="http://sodipodi.sourceforge.net/DTD/sodipodi-0.dtd"
   xmlns="http://www.w3.org/2000/svg"
   xmlns:svg="http://www.w3.org/2000/svg"><sodipodi:namedview
     id="namedview1"
     pagecolor="#ffffff"
     bordercolor="#000000"
     borderopacity="0.25"
     inkscape:showpageshadow="2"
     inkscape:pageopacity="0.0"
     inkscape:pagecheckerboard="0"
     inkscape:deskcolor="#d1d1d1"
     inkscape:document-units="mm"
     inkscape:zoom="3.01"
     inkscape:cx="49.335548"
     inkscape:cy="57.973422"
     inkscape:window-width="1600"
     inkscape:window-height="837"
     inkscape:window-x="-8"
     inkscape:window-y="-8"
     inkscape:window-maximized="1"
     inkscape:current-layer="layer1" /><defs
     id="defs1" /><g
     inkscape:label="Camada 1"
     inkscape:groupmode="layer"
     id="layer1"><g
       id="g1"><path
         style="fill:#626262;fill-opacity:1;stroke-width:0.289281"
         d="M 17.516281,31.287643 C 17.321292,31.254273 16.879964,31.0783 16.535553,30.896597 l -0.626203,-0.330369 -1.005576,0.02038 c -0.920011,0.01864 -1.738397,-0.06525 -2.125373,-0.217886 -1.220545,-0.48142 -2.086097,-1.17644 -2.7889039,-2.239434 C 9.1754855,26.898097 9.0282881,26.81901 7.5508056,26.81901 6.7800292,26.81901 6.3382293,26.78318 6.0466579,26.697036 4.0442969,26.105422 2.715785,24.008812 3.1145084,22.069626 3.318542,21.077312 4.1162959,19.740822 4.9449363,19.003082 5.5300766,18.482131 6.4478676,17.860277 6.9912737,17.616577 7.2163555,17.515635 7.4254556,17.392122 7.4559402,17.342102 7.4897277,17.286667 7.3168293,17.050074 7.0131391,16.736165 6.2245314,15.921019 5.8084816,15.204039 5.5067133,14.140139 5.2578241,13.262665 5.2610762,11.589042 5.5135263,10.633217 5.8468776,9.3710902 6.6601898,7.9815623 7.5446328,7.1631125 7.8585495,6.8726179 9.5072069,5.4652183 10.092665,4.987948 c 0.88581,-0.7221199 2.68255,-1.6831719 3.901832,-2.087038 0.912371,-0.3022083 1.894049,-0.4286559 3.078245,-0.3965026 1.612738,0.043786 2.62637,0.4489738 3.6917,1.4757073 0.715276,0.6893631 1.24411,1.5743021 1.511656,2.5295781 0.141559,0.505431 0.484312,1.2717407 0.568826,1.2717407 0.07975,0 0.688915,0.6094024 1.002194,1.0025937 0.645931,0.810695 1.094685,2.1696908 1.18327,3.5833818 0.0239,0.381522 0.07476,0.733984 0.112999,0.78325 0.03824,0.04927 0.247404,0.132036 0.464801,0.183939 2.224737,0.531139 3.797469,1.886225 4.748627,4.091471 0.405816,0.940884 0.503194,1.540186 0.454626,2.797961 -0.03105,0.804044 -0.0781,1.124801 -0.233402,1.591304 -0.416741,1.25178 -0.693942,1.706366 -1.724357,2.827811 -0.676772,0.736558 -0.75752,0.888567 -1.033038,1.944643 -0.227378,0.871561 -0.611744,1.713584 -1.021988,2.238844 -0.552137,0.70694 -1.66671,1.357267 -2.70315,1.577224 -0.486955,0.103343 -0.824252,0.117356 -1.787025,0.07424 l -1.186771,-0.05316 -0.751382,0.392976 c -1.007107,0.526724 -1.778876,0.653744 -2.854048,0.469728 z m 1.826035,-0.741574 c 0.511907,-0.167653 0.673284,-0.345549 0.554096,-0.610819 -0.06815,-0.151667 -0.128138,-0.187454 -0.25908,-0.154548 -0.09372,0.02355 -0.126539,0.02253 -0.07293,-0.0023 0.06467,-0.02991 -0.07001,-0.225105 -0.40019,-0.580042 -0.27371,-0.294229 -0.653796,-0.773079 -0.844635,-1.064111 -0.40664,-0.620133 -0.788334,-1.668015 -0.789779,-2.168218 -5.46e-4,-0.193574 -0.03663,-0.547341 -0.08016,-0.786148 -0.06876,-0.377225 -0.196364,-0.701511 -0.805409,-2.046929 -0.06378,-0.140894 -0.180817,-0.401022 -0.260083,-0.578064 l -0.144122,-0.321894 -0.0056,0.655139 c -0.0031,0.360326 -0.05483,0.93261 -0.114889,1.271741 -0.330169,1.864434 -0.357962,2.142616 -0.266337,2.665732 0.175573,1.002394 0.670113,1.74314 1.44311,2.161556 0.657447,0.355871 1.040001,0.603857 0.933681,0.605247 -0.07511,0.001 -0.07166,0.05087 0.01528,0.221372 l 0.112241,0.220104 -0.851348,-0.361543 c -1.002019,-0.425528 -1.563007,-0.907867 -1.901454,-1.634878 -0.466559,-1.002205 -0.51967,-1.981591 -0.185198,-3.415139 0.124684,-0.534394 0.161937,-0.94145 0.162241,-1.77273 3.44e-4,-0.970281 -0.02058,-1.143155 -0.207653,-1.714973 -0.191623,-0.585717 -0.661874,-1.405628 -1.065512,-1.857776 -0.363234,-0.406893 -1.518638,-1.091692 -2.233962,-1.324054 -1.484895,-0.482344 -2.4730254,-0.471927 -4.0389356,0.04259 -1.3235137,0.434866 -2.3192279,1.13202 -3.1638413,2.215179 -1.0555353,1.353652 -1.3009446,2.285874 -0.9179242,3.486868 0.1918946,0.601704 0.3346421,0.826681 0.9925408,1.564302 0.6847708,0.767747 1.6522698,0.993755 3.3236209,0.776397 0.9446765,-0.122854 1.9213384,0.06078 2.5544804,0.480292 0.598843,0.396789 1.307888,1.158808 1.307888,1.405604 0,0.275471 -0.168562,0.219399 -0.590956,-0.196583 -0.197516,-0.194518 -0.57599,-0.463244 -0.841054,-0.597169 l -0.481933,-0.2435 0.248521,0.47283 c 0.245859,0.46777 0.935416,1.321049 1.241227,1.535936 0.08699,0.06114 0.175275,0.13433 0.196177,0.162665 0.05565,0.07543 0.502319,0.299837 0.863709,0.433914 0.556917,0.206618 1.081918,0.308196 1.685226,0.326059 l 0.58954,0.01745 -0.315138,-0.363051 c -0.173326,-0.199678 -0.315138,-0.392852 -0.315138,-0.429275 0,-0.03642 -0.05549,-0.06623 -0.123315,-0.06623 -0.100996,0 -0.106191,0.02093 -0.0287,0.115612 0.05204,0.06359 0.06649,0.115613 0.03211,0.115613 -0.03438,0 -0.02414,0.03891 0.02275,0.08646 0.0469,0.04755 0.06825,0.142938 0.04747,0.211958 -0.03008,0.09985 -0.02015,0.0976 0.04861,-0.01101 0.09933,-0.156897 0.193914,-0.119683 0.308877,0.121527 0.07921,0.166187 0.07847,0.166447 -0.0423,0.01497 -0.121089,-0.151877 -0.124503,-0.151959 -0.231422,-0.0057 -0.103081,0.141075 -0.11094,0.136246 -0.156813,-0.09634 -0.02656,-0.134675 -0.0933,-0.244862 -0.148316,-0.244862 -0.05501,0 -0.124753,-0.04058 -0.15498,-0.09018 -0.03697,-0.06067 -0.01348,-0.07404 0.07177,-0.04086 0.117646,0.04578 0.11754,0.0343 -0.0014,-0.160321 -0.07051,-0.1153 -0.08356,-0.168991 -0.02899,-0.119315 0.110409,0.100516 0.33233,0.04934 0.265014,-0.06112 -0.02355,-0.03864 -0.07427,-0.05055 -0.112702,-0.02645 -0.03849,0.02413 -0.04766,-0.01494 -0.0204,-0.08696 0.03051,-0.08062 -8.95e-4,-0.168128 -0.08194,-0.228211 -0.07228,-0.05359 -0.12655,-0.118526 -0.120597,-0.144288 0.006,-0.02576 -0.01002,-0.143051 -0.03549,-0.260643 -0.04948,-0.228447 -0.494465,-0.535789 -0.641929,-0.44337 -0.04804,0.0301 -0.06512,0.0076 -0.04154,-0.05474 0.02392,-0.0632 -0.03916,-0.142496 -0.156459,-0.196691 -0.237107,-0.109553 -0.28836,-0.113788 -0.230624,-0.01906 0.02405,0.03946 0.01075,0.09241 -0.02955,0.117671 -0.0403,0.02525 -0.06124,-0.01745 -0.04653,-0.09491 0.01576,-0.08296 -0.05616,-0.207848 -0.174987,-0.303915 -0.110953,-0.0897 -0.431258,-0.385873 -0.711788,-0.658167 -0.561288,-0.544675 -1.148646,-0.894178 -1.84622,-1.098481 -0.3834865,-0.112315 -0.5950903,-0.123375 -1.3301064,-0.06952 -1.4778978,0.108284 -2.117396,0.08156 -2.5263025,-0.105569 -0.648723,-0.29688 -1.0179704,-0.632964 -1.2887979,-1.173046 -0.2290898,-0.45685 -0.2512234,-0.562106 -0.2512234,-1.194667 0,-0.655203 0.016865,-0.727854 0.3040239,-1.309895 0.3493745,-0.708135 1.1504603,-1.586631 1.9001522,-2.083762 0.9596219,-0.636341 2.6488741,-1.097579 3.6482901,-0.996137 1.261814,0.128074 2.155596,0.52559 2.972979,1.322255 1.029367,1.003274 1.343608,1.753626 1.33443,3.186375 -0.0029,0.446881 -0.05651,1.071191 -0.119221,1.387354 -0.313453,1.580374 -0.339112,2.646582 -0.0846,3.515655 0.171179,0.584531 0.779479,1.476699 1.260354,1.848512 1.158909,0.896065 2.466035,1.235282 3.48016,0.903149 z m -0.350419,-0.653202 c -0.135862,-0.03978 -0.24702,-0.08839 -0.24702,-0.108012 0,-0.0708 0.464401,0.01774 0.550388,0.10494 0.101685,0.103116 0.04043,0.103737 -0.303368,0.0031 z M 13.385512,28.82143 c -0.02307,-0.03784 -0.09114,-0.04965 -0.151275,-0.02625 -0.06014,0.0234 -0.200465,-0.03014 -0.31184,-0.118979 l -0.2025,-0.161527 h 0.185065 c 0.101784,0 0.226107,0.04162 0.27627,0.09249 0.07094,0.07194 0.09228,0.06766 0.09603,-0.01927 0.0027,-0.06147 0.03707,-0.03009 0.07649,0.06972 0.04504,0.114031 0.112962,0.16541 0.182763,0.138249 0.0611,-0.02378 0.126913,-0.01726 0.146258,0.01448 0.01934,0.03174 -0.03019,0.0627 -0.110079,0.0688 -0.07989,0.0061 -0.16412,-0.01987 -0.187183,-0.05772 z m 0.27754,-0.155176 -0.179434,-0.151586 h 0.173099 c 0.09521,0 0.150595,0.02282 0.12309,0.05071 -0.02751,0.0279 -0.01192,0.09726 0.03465,0.154151 0.119117,0.145546 0.05885,0.124337 -0.151397,-0.05328 z m -0.542624,-0.301188 c 0,-0.03989 0.03381,-0.09372 0.07513,-0.119616 0.04308,-0.02701 0.05583,0.0039 0.02987,0.07252 -0.05053,0.133527 -0.105008,0.157958 -0.105008,0.04709 z m 0.271919,-0.228683 c 0.01694,-0.01729 -0.0026,-0.07221 -0.04335,-0.122036 -0.05097,-0.06226 -0.03993,-0.09059 0.03532,-0.09059 0.0602,0 0.09365,0.02594 0.07432,0.05764 -0.01932,0.03171 0.05914,0.09217 0.174357,0.134365 l 0.20949,0.07672 -0.240462,-0.01232 c -0.132254,-0.0068 -0.226609,-0.02647 -0.209676,-0.04378 z m 3.820139,-0.18051 c -0.249703,-0.269937 -0.747792,-1.240884 -0.747792,-1.457707 0,-0.210504 0.117091,-0.228224 0.283377,-0.04289 0.193749,0.21595 0.586894,1.109513 0.572632,1.301513 -0.0064,0.08676 0.02252,0.123757 0.07241,0.09249 0.05096,-0.03194 0.06136,-0.01636 0.02686,0.04025 -0.03096,0.0508 -0.01495,0.142868 0.03557,0.204598 0.178996,0.21871 -0.01484,0.108451 -0.243049,-0.138258 z m -3.544011,-0.02704 c -0.0539,-0.05931 -0.06447,-0.107839 -0.02349,-0.107839 0.07893,0 0.193187,0.146613 0.148105,0.190041 -0.01464,0.0141 -0.07071,-0.0229 -0.124618,-0.0822 z m -0.65717,-0.393547 c -0.04125,-0.109848 -0.03252,-0.118701 0.04255,-0.04314 0.05194,0.05229 0.0753,0.114476 0.0519,0.138206 -0.0234,0.02373 -0.0659,-0.01905 -0.09444,-0.09506 z m 3.619641,-2.141249 c -0.08584,-0.191043 -0.05185,-0.424827 0.06177,-0.424827 0.0805,0 0.152013,0.202378 0.152013,0.430218 0,0.241094 -0.104211,0.238466 -0.213779,-0.0054 z m 6.785496,4.42643 c 0.623674,-0.08797 1.408772,-0.356583 1.915213,-0.655282 0.784152,-0.462495 1.472332,-1.575073 1.846819,-2.985752 0.262981,-0.990647 0.466487,-1.365923 1.086533,-2.003628 1.840414,-1.892829 2.351283,-4.163807 1.440093,-6.401669 -0.722722,-1.774986 -1.964841,-2.969893 -3.701646,-3.560945 -0.474771,-0.16157 -0.818882,-0.217594 -1.56994,-0.255601 -0.529039,-0.02678 -0.946004,-0.02267 -0.926588,0.0092 0.01942,0.03179 -0.0362,0.0578 -0.123591,0.0578 -0.292027,0 -1.098606,0.315483 -1.625439,0.635768 -0.605491,0.368102 -1.301582,1.140942 -1.640048,1.820873 -0.332872,0.668691 -0.491021,1.57616 -0.438522,2.516266 0.04372,0.782994 0.09289,0.972037 0.733438,2.819901 0.333557,0.962256 0.423558,1.688229 0.315365,2.543761 -0.147893,1.169434 -0.470089,1.829851 -1.165997,2.389988 -0.219572,0.176734 -0.392689,0.344893 -0.384704,0.373684 0.008,0.02879 -0.05695,0.04981 -0.144319,0.04671 -0.08736,-0.0031 -0.175288,0.04255 -0.195393,0.101442 -0.02443,0.07156 -0.0042,0.08678 0.06105,0.0459 0.06336,-0.03972 0.07892,-0.03051 0.04435,0.02623 -0.08631,0.141624 0.09659,0.398878 0.283589,0.398878 0.274136,0 0.832857,-0.406348 1.218053,-0.885868 0.750176,-0.933874 1.170962,-2.274561 1.088735,-3.468883 -0.03046,-0.442399 -0.160357,-0.997671 -0.459786,-1.965418 -0.467791,-1.511892 -0.5819,-2.051019 -0.578044,-2.731058 0.0075,-1.325843 0.456616,-2.484343 1.201635,-3.099768 0.840272,-0.694108 1.581816,-0.91891 2.786033,-0.844594 1.539395,0.095 2.190175,0.382945 3.240561,1.433818 0.643395,0.643693 0.774062,0.821651 1.075634,1.464916 0.432446,0.922417 0.496216,1.165126 0.556557,2.118177 0.08807,1.391094 -0.308301,2.394123 -1.432146,3.624051 -0.949533,1.039161 -1.176402,1.418182 -1.396262,2.33269 -0.232457,0.966897 -0.708395,1.935776 -1.140278,2.321281 -0.408568,0.364695 -1.14228,0.765585 -1.654124,0.90379 -0.800641,0.216184 -1.665185,0.102529 -2.518205,-0.33105 -0.557355,-0.283299 -0.832712,-0.374691 -0.757604,-0.251454 0.02448,0.04017 0.0083,0.07305 -0.03597,0.07305 -0.04427,0 -0.08049,-0.03716 -0.08049,-0.08258 0,-0.04542 -0.05131,-0.03055 -0.114011,0.03304 -0.06271,0.06358 -0.113484,0.161445 -0.112844,0.217462 8.67e-4,0.07522 0.02042,0.07163 0.07484,-0.01376 0.06549,-0.102767 0.07394,-0.102767 0.076,0 0.0021,0.102766 0.01051,0.102766 0.07601,0 0.05158,-0.08094 0.07403,-0.08598 0.07484,-0.01678 5.74e-4,0.05436 -0.07579,0.130196 -0.169849,0.168534 -0.09406,0.03834 -0.133962,0.0719 -0.08867,0.07459 0.04528,0.0027 0.08234,0.05834 0.08234,0.123676 0,0.06768 -0.05177,0.107863 -0.120344,0.09339 -0.06619,-0.01397 -0.115592,-0.08477 -0.109786,-0.157329 0.0058,-0.07256 -0.01985,-0.131928 -0.05701,-0.131928 -0.176736,0 -0.02066,0.311815 0.270055,0.539527 0.131201,0.102766 0.141131,0.102766 0.08937,0 -0.04438,-0.0881 -0.03429,-0.08634 0.04241,0.0074 0.134869,0.164853 0.483289,0.270001 1.392748,0.420307 0.418033,0.06909 0.811362,0.135828 0.87407,0.148311 0.06271,0.01248 0.137184,0.02672 0.165512,0.03164 0.02832,0.005 0.311713,-0.02776 0.629744,-0.07262 z m -3.075437,-0.92284 c 0,-0.04106 0.05131,-0.07465 0.114007,-0.07465 0.06271,0 0.114011,0.01363 0.114011,0.03029 0,0.01666 -0.05131,0.05025 -0.114011,0.07465 -0.06271,0.0244 -0.114007,0.01077 -0.114007,-0.03029 z m 0.304024,-0.0021 c 0,-0.0449 0.03421,-0.06019 0.076,-0.03399 0.0418,0.0262 0.076,0.06292 0.076,0.08162 0,0.01869 -0.03421,0.03399 -0.076,0.03399 -0.0418,0 -0.076,-0.03673 -0.076,-0.08162 z M 20.013058,28.49542 c 0.0047,-0.09538 -0.0074,-0.132014 -0.02674,-0.0814 -0.01935,0.05061 -0.08426,0.07291 -0.144266,0.04956 -0.06,-0.02335 -0.109098,-0.002 -0.109098,0.04742 0,0.04943 0.03421,0.06843 0.076,0.04224 0.0418,-0.0262 0.076,-0.0109 0.076,0.03399 0,0.162871 0.119889,0.07695 0.12809,-0.0918 z m 3.66335,-0.163614 c 0.471307,-0.141932 1.124133,-0.545431 1.439876,-0.889959 0.346227,-0.377792 0.534341,-0.820855 0.771663,-1.817483 0.240234,-1.008846 0.4482,-1.368643 1.418464,-2.454028 0.918425,-1.027398 1.063773,-1.238774 1.280498,-1.862184 0.327315,-0.941535 0.222541,-2.296416 -0.251065,-3.246563 -0.702773,-1.409909 -1.889797,-2.39316 -3.206173,-2.655785 -0.73744,-0.147123 -1.805886,-0.05891 -2.308845,0.19063 -0.554141,0.274929 -1.371967,1.069494 -1.317639,1.280161 0.02502,0.09702 0.0098,0.135318 -0.04115,0.103398 -0.05184,-0.03248 -0.06549,0.0091 -0.038,0.115612 0.02359,0.09147 0.01187,0.146873 -0.02603,0.123117 -0.0379,-0.02376 -0.06892,-0.02664 -0.06892,-0.0064 0,0.02023 -0.02293,0.09733 -0.05092,0.171343 -0.03083,0.08145 -0.02083,0.115699 0.02534,0.08678 0.04194,-0.02629 0.07625,7.88e-4 0.07625,0.06015 0,0.05937 -0.03705,0.101197 -0.08234,0.09295 -0.04528,-0.0083 -0.08234,0.05439 -0.08234,0.139164 0,0.08479 -0.03421,0.179632 -0.076,0.210776 -0.04642,0.03458 -0.03728,0.05708 0.0235,0.05781 0.05473,6.41e-4 0.07981,0.03347 0.05576,0.07293 -0.02404,0.03946 -0.0081,0.09407 0.0354,0.121342 0.04352,0.02727 0.06973,0.008 0.05825,-0.04285 -0.01149,-0.05084 0.02273,-0.102843 0.07602,-0.11556 0.0533,-0.01272 0.06163,-0.0054 0.01853,0.01622 -0.04311,0.02164 -0.05889,0.07131 -0.03508,0.110377 0.02382,0.03907 -0.01305,0.09296 -0.08191,0.119755 -0.100072,0.03895 -0.104853,0.0618 -0.02382,0.113889 0.06617,0.04253 0.07058,0.06557 0.0127,0.06634 -0.05449,7.24e-4 -0.08867,0.137349 -0.08867,0.354442 0,0.398677 0.0076,0.401629 0.125013,0.04875 0.06505,-0.195453 0.06329,-0.242449 -0.0077,-0.206241 -0.05058,0.0258 -0.03211,-0.0028 0.04104,-0.06367 0.07316,-0.06081 0.133011,-0.147611 0.133011,-0.192898 0,-0.04529 0.04275,-0.128175 0.09501,-0.184192 0.05226,-0.05602 0.188568,-0.240584 0.302917,-0.41015 0.428951,-0.636082 0.834997,-1.003167 1.51548,-1.370074 0.453707,-0.244632 0.722635,-0.311988 0.791898,-0.198342 0.03699,0.0607 0.02022,0.06839 -0.05234,0.02402 -0.0836,-0.05109 -0.08202,-0.03406 0.0072,0.07853 0.105518,0.133068 0.101267,0.140444 -0.0571,0.09906 -0.09411,-0.02459 -0.15382,-0.01634 -0.13268,0.01836 0.02114,0.03469 -0.141276,0.174769 -0.360925,0.311289 -0.219648,0.136521 -0.519072,0.353574 -0.665383,0.48234 -0.307059,0.270239 -0.774517,0.938378 -0.705499,1.008367 0.02573,0.02609 0.0012,0.04744 -0.05456,0.04744 -0.05574,0 -0.07907,0.02259 -0.05185,0.05019 0.02724,0.0276 -0.0098,0.09954 -0.08234,0.159867 -0.0725,0.06032 -0.08908,0.08772 -0.03682,0.06088 0.05225,-0.02684 0.09501,-0.01207 0.09501,0.03283 0,0.0449 -0.02841,0.08162 -0.06316,0.08162 -0.03474,0 -0.106573,0.08225 -0.159631,0.182786 -0.08188,0.155159 -0.07645,0.206488 0.03595,0.339614 0.131939,0.15626 0.133206,0.155955 0.349647,-0.08435 0.119475,-0.132648 0.214526,-0.276803 0.211225,-0.320345 -0.0033,-0.04355 -0.02261,-0.03776 -0.04291,0.01285 -0.05922,0.147615 -0.255685,0.02295 -0.24911,-0.158067 0.0033,-0.09085 0.02327,-0.121818 0.04434,-0.06883 0.05791,0.145528 0.366105,0.115568 0.568295,-0.05525 0.09869,-0.08337 0.145231,-0.153251 0.103427,-0.155286 -0.0418,-0.002 -5.74e-4,-0.04655 0.09141,-0.09891 0.09208,-0.05236 0.415995,-0.251286 0.719808,-0.442047 0.775406,-0.486869 1.605096,-0.859161 1.671587,-0.750062 0.06911,0.113396 -0.0641,0.360676 -0.226599,0.420644 -0.24272,0.08957 -1.420601,0.785711 -1.627739,0.962014 -0.114179,0.09718 -0.295505,0.240357 -0.402946,0.318167 -0.167307,0.121168 -0.181148,0.159885 -0.09642,0.269763 0.08632,0.111951 0.08356,0.116142 -0.02174,0.03291 -0.09967,-0.0788 -0.146653,-0.06539 -0.270175,0.07707 -0.224224,0.25862 -0.569665,0.827429 -0.503321,0.828777 0.03194,6.41e-4 0.01307,0.03013 -0.04197,0.06553 -0.05504,0.03539 -0.107838,0.118067 -0.117341,0.183732 -0.0095,0.06567 -0.06019,0.171828 -0.112646,0.235916 -0.123257,0.150605 -0.0388,0.194111 0.294306,0.151593 0.203201,-0.02593 0.30179,-0.09345 0.406402,-0.278287 0.07597,-0.134224 0.133843,-0.253781 0.128615,-0.265682 -0.01342,-0.03055 0.426425,-0.440762 0.830831,-0.774856 0.188114,-0.155407 0.359129,-0.301573 0.380032,-0.32481 0.07531,-0.08373 0.532041,-0.391377 0.532041,-0.358375 0,0.01859 0.333476,-0.0828 0.74106,-0.225287 0.407582,-0.142491 0.886709,-0.259383 1.064729,-0.259763 0.306134,-6.41e-4 0.318487,0.0078 0.228018,0.155919 -0.05462,0.08942 -0.291283,0.219645 -0.551691,0.303554 -1.498981,0.483009 -1.833329,0.675247 -2.672364,1.536515 -0.430237,0.441636 -0.50218,0.590322 -0.253763,0.524445 0.08366,-0.02218 0.13295,-0.0089 0.109524,0.02954 -0.02341,0.03843 -0.126083,0.06988 -0.228122,0.06988 -0.13486,0 -0.185532,0.0421 -0.185532,0.15415 0,0.08479 -0.04275,0.14548 -0.09501,0.134881 -0.05226,-0.01059 -0.08871,0.01725 -0.081,0.06188 0.0077,0.04463 -0.08089,0.07448 -0.196868,0.06633 -0.184132,-0.01293 -0.20647,0.0085 -0.176158,0.169353 0.03015,0.159965 0.141121,0.223859 0.337286,0.194209 0.02985,-0.0045 0.03356,0.04651 0.0082,0.113388 -0.02993,0.07909 -0.108664,0.109445 -0.225284,0.08684 -0.240045,-0.04653 -0.225837,-0.0139 0.05604,0.128696 0.202801,0.102594 0.229382,0.103374 0.192399,0.0057 -0.02927,-0.07736 0.0072,-0.113393 0.114781,-0.113393 0.157224,0 0.502361,-0.362481 0.462706,-0.485956 -0.01149,-0.03576 0.01519,-0.04242 0.05927,-0.0148 0.09736,0.06102 0.617895,-0.385643 0.545155,-0.467787 -0.02832,-0.03199 -0.01275,-0.03573 0.03457,-0.0083 0.04734,0.02741 0.17147,-0.01828 0.275843,-0.101526 0.333252,-0.265824 1.445556,-0.771432 1.697098,-0.771432 0.339078,0 0.390694,0.191853 0.08305,0.308682 -0.912986,0.346702 -2.408081,1.470293 -2.408081,1.809714 0,0.05516 -0.05347,0.121101 -0.118826,0.146532 -0.06536,0.02543 -0.09975,0.07753 -0.07644,0.115783 0.02333,0.03825 -0.0088,0.08943 -0.07119,0.113739 -0.0662,0.02576 -0.113571,0.141655 -0.113571,0.277839 0,0.128504 -0.03622,0.233645 -0.08049,0.233645 -0.04427,0 -0.05935,-0.03469 -0.03352,-0.07707 0.02582,-0.04239 0.01075,-0.07707 -0.03352,-0.07707 -0.04427,0 -0.08049,0.03346 -0.08049,0.07436 0,0.08973 0.264401,0.24317 0.332033,0.192689 0.02641,-0.01971 0.0299,-0.0117 0.0078,0.01779 -0.07041,0.09391 -0.296055,0.09528 -0.352813,0.0022 -0.03012,-0.04941 -0.08227,-0.06008 -0.115892,-0.0237 -0.03363,0.03637 -0.01816,0.08169 0.03434,0.100695 0.05251,0.01901 0.07761,0.0639 0.05576,0.09973 -0.02183,0.03585 2.87e-4,0.09027 0.04927,0.12094 0.05965,0.03739 0.06848,0.02212 0.02677,-0.04631 -0.04416,-0.07245 -0.02827,-0.08888 0.05474,-0.05657 0.124257,0.04835 0.703672,-0.486453 0.631588,-0.582964 -0.02174,-0.02912 -0.01798,-0.03687 0.0083,-0.0172 0.02634,0.01966 0.24012,-0.138456 0.475039,-0.351367 0.528534,-0.479021 1.160412,-0.790807 1.925036,-0.949863 0.67247,-0.139887 0.944414,-0.152876 1.008236,-0.04815 0.02471,0.04054 0.103681,0.05236 0.175497,0.02626 0.07182,-0.0261 0.108059,-0.02198 0.08054,0.0092 -0.02751,0.03113 -0.09593,0.06434 -0.152013,0.07379 -0.05609,0.0095 -0.170378,0.0543 -0.253984,0.09964 -0.08361,0.04535 -0.340127,0.12607 -0.570044,0.17938 -0.800771,0.185668 -2.203415,1.037592 -2.077205,1.261629 0.02717,0.04824 0.02083,0.06137 -0.01414,0.0292 -0.08424,-0.07756 -0.425715,0.251384 -0.364769,0.351386 0.02608,0.04278 0.0118,0.05546 -0.03174,0.02818 -0.04352,-0.02728 -0.118874,-10e-4 -0.167444,0.0583 -0.06045,0.07386 -0.06317,0.123659 -0.0086,0.157851 0.04384,0.02747 0.0797,0.01322 0.0797,-0.03167 0,-0.0449 0.0285,-0.08162 0.06334,-0.08162 0.03483,0 0.06333,0.04892 0.06333,0.108713 0,0.06488 -0.05756,0.09747 -0.142777,0.08083 -0.188528,-0.03682 -0.342313,0.02755 -0.394343,0.165038 -0.03435,0.09078 -0.0108,0.09603 0.127133,0.02833 0.152232,-0.07473 0.156009,-0.07219 0.03747,0.02511 -0.07251,0.05952 -0.106709,0.136361 -0.076,0.170759 0.0307,0.0344 0.01333,0.03776 -0.03858,0.0075 -0.05192,-0.03029 -0.154533,-0.01588 -0.228019,0.032 -0.126345,0.08233 -0.126377,0.08479 -5.74e-4,0.04514 0.09277,-0.02924 0.133011,8.2e-5 0.133011,0.09695 0,0.07639 0.02103,0.160202 0.04672,0.186256 0.08216,0.08332 0.714264,-0.378681 0.712181,-0.520528 -5.74e-4,-0.04358 -0.03745,-0.02719 -0.08179,0.03639 -0.07167,0.102768 -0.07682,0.102768 -0.04634,0 0.01884,-0.06358 0.07233,-0.107089 0.118826,-0.09667 0.04649,0.01042 0.264538,-0.09756 0.484538,-0.239953 0.617561,-0.399704 1.194904,-0.67643 1.288665,-0.617669 0.04856,0.03043 0.06379,0.01858 0.0356,-0.02769 -0.06054,-0.09934 0.136774,-0.185276 0.289212,-0.125957 0.08503,0.03308 0.05842,0.08853 -0.112454,0.23433 -0.124944,0.106613 -0.263283,0.166264 -0.313135,0.135021 -0.05361,-0.0336 -0.06908,-0.02278 -0.03868,0.02708 0.02923,0.04796 -0.21471,0.271948 -0.577304,0.530089 -0.549653,0.391315 -0.787071,0.590262 -1.435241,1.202675 -0.07852,0.07418 -0.180616,0.134881 -0.226891,0.134881 -0.04628,0 -0.06377,0.05383 -0.03888,0.119617 0.02573,0.06803 0.01313,0.09948 -0.02923,0.07293 -0.07353,-0.04609 -0.745918,0.375249 -0.8531,0.534585 -0.0304,0.04519 -0.03705,0.141549 -0.01479,0.214132 0.05498,0.179245 -0.103393,0.46513 -0.218777,0.394921 -0.05015,-0.03053 -0.03989,0.0097 0.02281,0.08934 0.103428,0.131393 0.101665,0.140147 -0.01899,0.09429 -0.09039,-0.03435 -0.133011,-0.01282 -0.133011,0.0672 0,0.06476 0.0357,0.09537 0.07933,0.06802 0.04364,-0.02735 0.135708,-0.0034 0.204606,0.05326 0.09558,0.07857 0.111361,0.07952 0.06659,0.004 -0.04346,-0.0733 -0.0078,-0.08962 0.137423,-0.06291 0.107857,0.01982 0.196103,0.0016 0.196103,-0.04046 0,-0.04208 0.03421,-0.05508 0.076,-0.02888 0.0418,0.0262 0.076,0.0072 0.076,-0.04224 0,-0.04944 -0.04909,-0.07076 -0.109098,-0.04742 -0.06,0.02335 -0.125708,10e-4 -0.146012,-0.04956 -0.02037,-0.05075 -0.0396,-0.0326 -0.04291,0.04045 -0.0038,0.08476 -0.04689,0.116545 -0.119571,0.08827 -0.06246,-0.02431 -0.08902,-0.08391 -0.05902,-0.132462 0.03,-0.04855 0.05547,-0.139727 0.05657,-0.202619 0.0012,-0.0629 0.06497,-0.126741 0.141922,-0.141882 0.101735,-0.02001 0.132444,0.01119 0.11254,0.114352 -0.01721,0.08919 0.03992,0.177663 0.153796,0.238225 0.218613,0.116253 0.263642,0.120738 0.20234,0.02015 -0.02554,-0.04191 -1.47e-4,-0.05817 0.05643,-0.03616 0.111977,0.04358 0.861447,-0.333511 1.249062,-0.628449 0.241305,-0.183608 0.556115,-0.247682 0.556115,-0.113188 0,0.148938 -0.892102,0.868124 -1.416263,1.141747 -0.301384,0.157329 -0.537041,0.304352 -0.523677,0.326718 0.01336,0.02237 -0.102701,0.04806 -0.25792,0.05711 -0.313103,0.01824 -0.717989,0.19962 -0.634532,0.284253 0.02945,0.02986 -0.0017,0.03275 -0.06947,0.0064 -0.06765,-0.02633 -0.145585,-0.01082 -0.173183,0.03446 -0.0276,0.04528 -0.01195,0.08233 0.0348,0.08233 0.04726,0 0.05968,0.0415 0.02798,0.09353 -0.038,0.06236 -0.08993,0.01739 -0.155785,-0.134882 -0.09774,-0.225978 -0.09856,-0.226244 -0.07777,-0.02498 0.01155,0.111888 0.0645,0.256565 0.117641,0.321505 0.08251,0.100811 0.07334,0.111895 -0.06274,0.07581 -0.08765,-0.02325 -0.142117,-0.05976 -0.121026,-0.08114 0.02109,-0.02138 0.0037,-0.104509 -0.03862,-0.184719 -0.07031,-0.13322 -0.08741,-0.135248 -0.197657,-0.02345 -0.09771,0.09908 -0.102129,0.139791 -0.02321,0.213776 0.07685,0.07206 0.08471,0.06693 0.03714,-0.02423 -0.03318,-0.06359 0.01405,-0.03799 0.104961,0.05687 0.09091,0.09487 0.258405,0.193283 0.372209,0.218699 0.1138,0.02542 0.285865,0.06987 0.382366,0.09878 0.330826,0.09911 1.01518,0.0903 1.373806,-0.01771 z M 22.68294,27.537131 c 0.05487,-0.02226 0.120423,-0.01952 0.145679,0.0061 0.02525,0.02561 -0.01965,0.04383 -0.09976,0.04048 -0.08854,-0.0037 -0.106553,-0.02196 -0.04592,-0.04657 z m 0.318275,-1.180552 c 0,-0.04239 0.03622,-0.07707 0.0805,-0.07707 0.04427,0 0.05935,0.03469 0.03352,0.07707 -0.02582,0.04239 -0.06206,0.07707 -0.08049,0.07707 -0.01844,0 -0.03352,-0.03469 -0.03352,-0.07707 z m -0.494038,-0.308321 c -0.02582,-0.04239 -0.005,-0.07707 0.04618,-0.07707 0.05124,0 0.07065,-0.02282 0.04316,-0.05071 -0.06192,-0.06278 0.08973,-0.257586 0.200522,-0.257586 0.04467,0 0.01483,0.05157 -0.06631,0.114601 -0.145493,0.113015 -0.145432,0.114318 0.0045,0.09411 0.245156,-0.03304 0.359888,-0.132558 0.273923,-0.237599 -0.05403,-0.06601 -0.03505,-0.09224 0.06673,-0.09224 0.07822,0 0.124686,0.02877 0.103256,0.06393 -0.02143,0.03517 0.0067,0.123113 0.06258,0.195441 0.0892,0.115509 0.08687,0.119902 -0.0191,0.03613 -0.100029,-0.07908 -0.151013,-0.06261 -0.298269,0.09634 -0.186922,0.201767 -0.338637,0.243465 -0.417143,0.11465 z m 0.798065,-1.721346 c 0,-0.05652 0.05076,-0.102768 0.112801,-0.102768 0.08538,0 0.09236,0.02498 0.0287,0.102768 -0.04626,0.05652 -0.09702,0.102766 -0.112803,0.102766 -0.01578,0 -0.0287,-0.04624 -0.0287,-0.102766 z m -0.123936,-1.629865 c -0.02577,-0.0681 -0.02554,-0.145449 5.75e-4,-0.171882 0.02606,-0.02643 0.04791,0.01842 0.04856,0.09967 8.67e-4,0.123596 0.01319,0.128842 0.07484,0.03211 0.04426,-0.06947 0.07414,-0.07897 0.07484,-0.02381 0.0021,0.149785 -0.14804,0.197998 -0.198777,0.06392 z m 0.489712,-0.246901 c 0.05487,-0.02226 0.120422,-0.01952 0.14568,0.0061 0.02525,0.02561 -0.01961,0.04383 -0.09976,0.04049 -0.08855,-0.0037 -0.106553,-0.02196 -0.04592,-0.04656 z m 0.308776,-0.294186 c -0.0052,-0.0212 -0.01453,-0.0819 -0.02071,-0.134882 -0.0062,-0.05299 -0.07884,-0.08622 -0.161513,-0.07386 -0.12283,0.01838 -0.129581,0.0084 -0.03694,-0.0546 0.126001,-0.08566 0.246955,-0.0039 0.274363,0.185485 0.01517,0.104805 -0.03212,0.171496 -0.05521,0.07785 z m -1.282602,-0.530087 c 0,-0.01601 0.04825,-0.06972 0.107243,-0.119356 0.08211,-0.06911 0.120482,-0.06854 0.163757,0.0025 0.03583,0.05879 0.02439,0.0726 -0.03124,0.03773 -0.04827,-0.03024 -0.08775,-0.01827 -0.08775,0.02663 0,0.0449 -0.03421,0.08162 -0.07601,0.08162 -0.0418,0 -0.076,-0.01309 -0.076,-0.0291 z m -0.380031,-0.154599 c 0,-0.01625 0.06841,-0.04769 0.152013,-0.06986 0.08361,-0.02217 0.152013,-0.0089 0.152013,0.02955 0,0.03842 -0.06841,0.06986 -0.152013,0.06986 -0.08361,0 -0.152013,-0.0133 -0.152013,-0.02955 z m 0.58778,-0.442467 c 0.05156,-0.05267 0.112887,-0.07636 0.136291,-0.05263 0.02341,0.02373 -0.01878,0.06683 -0.09374,0.09577 -0.108326,0.04182 -0.117056,0.03298 -0.04255,-0.04314 z m -0.803779,-0.607038 c 0.152507,-0.209179 0.366803,-0.339232 0.254001,-0.15415 -0.02582,0.04239 -0.01075,0.07707 0.03352,0.07707 0.04427,0 0.0805,-0.0289 0.0805,-0.06423 0,-0.03532 0.05583,-0.06423 0.124065,-0.06423 0.106478,0 0.104092,0.01481 -0.01684,0.104468 -0.07749,0.05745 -0.193172,0.08627 -0.257078,0.06403 -0.06748,-0.02348 -0.05246,0.0099 0.03582,0.0797 0.14694,0.116116 0.145036,0.118866 -0.057,0.08236 -0.114961,-0.02077 -0.209018,-0.0054 -0.209018,0.03421 0,0.03959 -0.03522,0.07198 -0.07828,0.07198 -0.04306,0 -0.0023,-0.104051 0.0903,-0.231226 z m 1.031797,0.06751 c 0.05156,-0.05267 0.112887,-0.07636 0.136291,-0.05263 0.02341,0.02373 -0.01878,0.06683 -0.09374,0.09577 -0.108326,0.04182 -0.117056,0.03298 -0.04255,-0.04314 z m 0.671208,-0.04492 c -0.04125,-0.109847 -0.03252,-0.1187 0.04255,-0.04315 0.05194,0.05229 0.0753,0.114477 0.0519,0.138206 -0.02342,0.02373 -0.0659,-0.01905 -0.09444,-0.09506 z M 22.59585,20.062078 c -0.02786,-0.02826 -0.05067,-0.08722 -0.05067,-0.131028 0,-0.04829 0.0354,-0.04374 0.08994,0.01156 0.04946,0.05016 0.07227,0.109125 0.05067,0.131028 -0.0216,0.0219 -0.06207,0.0167 -0.08994,-0.01156 z m -0.278689,-0.107315 c 0,-0.0449 0.03421,-0.06019 0.076,-0.03398 0.04181,0.0262 0.076,0.06293 0.076,0.08162 0,0.01869 -0.03421,0.03399 -0.076,0.03399 -0.0418,0 -0.076,-0.03673 -0.076,-0.08162 z m 0.301823,-0.152612 c -0.09378,-0.06014 -0.09036,-0.07189 0.02121,-0.07288 0.115811,-0.001 0.163268,-0.07853 0.146233,-0.238828 -0.0026,-0.02473 0.04168,-0.04496 0.09846,-0.04496 0.08202,0 0.07807,0.04092 -0.01922,0.199111 -0.06735,0.109511 -0.125252,0.205897 -0.128665,0.21419 -0.0034,0.0083 -0.05652,-0.01719 -0.118012,-0.05662 z m 0.45824,-0.395212 c 0,-0.04945 0.02226,-0.06733 0.04949,-0.03973 0.02724,0.0276 0.09751,-0.01 0.156205,-0.0835 0.09576,-0.119958 0.09821,-0.115879 0.02385,0.03973 -0.08765,0.183428 -0.229535,0.23504 -0.229535,0.0835 z m -1.116449,-0.256631 c -0.140983,-0.154944 0.04603,-0.374138 0.210926,-0.247225 0.110078,0.08472 0.110078,0.103821 0,0.219663 -0.09781,0.10294 -0.13761,0.10814 -0.210926,0.02757 z m 0.16637,-0.115899 c 0.02582,-0.04239 0.01075,-0.07707 -0.03352,-0.07707 -0.04427,0 -0.08049,0.03469 -0.08049,0.07707 0,0.04239 0.01509,0.07707 0.03352,0.07707 0.01844,0 0.05465,-0.03468 0.08049,-0.07707 z m 0.342029,-0.45974 c 0,-0.04388 0.05333,-0.07979 0.118495,-0.07979 0.07021,0 0.0964,-0.03626 0.06426,-0.08899 -0.0336,-0.05513 -0.02086,-0.06806 0.03352,-0.03398 0.12067,0.07563 0.111314,0.104761 -0.06426,0.200048 -0.103065,0.05594 -0.152013,0.05681 -0.152013,0.0027 z m 3.171985,-1.630855 c 0.05156,-0.05267 0.112887,-0.07636 0.136291,-0.05263 0.02342,0.02373 -0.01878,0.06683 -0.09374,0.09577 -0.108326,0.04182 -0.117055,0.03298 -0.04255,-0.04314 z m -5.336148,11.200357 c -0.02341,-0.02373 -0.08473,-4.9e-5 -0.136289,0.05263 -0.07451,0.07612 -0.06577,0.08498 0.04255,0.04314 0.07496,-0.02894 0.117142,-0.07204 0.09374,-0.09577 z m 1.661121,-1.290629 c 0.02597,-0.06859 0.01322,-0.09953 -0.02987,-0.07252 -0.04132,0.0259 -0.07514,0.07972 -0.07514,0.119616 0,0.110867 0.05448,0.08644 0.105006,-0.04709 z m -0.076,-0.308301 c 0.02597,-0.06859 0.01322,-0.09953 -0.02987,-0.07252 -0.04132,0.0259 -0.07514,0.07972 -0.07514,0.119616 0,0.110867 0.05447,0.08644 0.105007,-0.04709 z m -3.175995,-0.200595 c 0.0336,-0.05513 0.02085,-0.06806 -0.03352,-0.03398 -0.04827,0.03024 -0.08775,0.01248 -0.08775,-0.03948 0,-0.05196 -0.02053,-0.07365 -0.04562,-0.04821 -0.04348,0.04409 0.02264,0.210662 0.08362,0.210662 0.01597,0 0.05344,-0.04004 0.08326,-0.08899 z m 3.983059,0.01191 c 0,-0.04239 -0.03421,-0.07707 -0.076,-0.07707 -0.0418,0 -0.07601,0.03469 -0.07601,0.07707 0,0.04239 0.03421,0.07707 0.07601,0.07707 0.04181,0 0.076,-0.03469 0.076,-0.07707 z m -3.766144,-0.256922 c -0.123297,-0.04097 -0.249304,-0.112641 -0.280016,-0.159275 -0.03762,-0.05711 -0.05622,-0.05098 -0.05701,0.01877 -6.36e-4,0.05695 0.06724,0.121699 0.150848,0.143871 0.08361,0.02217 0.152013,0.06986 0.152013,0.105978 0,0.03612 0.05813,0.04305 0.129167,0.0154 0.10295,-0.04006 0.08366,-0.06538 -0.09501,-0.12475 z m 0.480121,-0.155325 c 0.05294,-0.03347 0.07605,-0.094 0.05135,-0.134509 -0.02469,-0.04051 -0.0033,-0.06414 0.04751,-0.05248 0.23671,0.05425 0.68002,-1.22964 0.677632,-1.962532 -0.0017,-0.514176 -0.155019,-1.250457 -0.413983,-1.987694 -0.34307,-0.976679 -0.648612,-2.092317 -0.652214,-2.381462 l -0.0034,-0.275602 -0.183822,0.346838 c -0.101102,0.190761 -0.285355,0.606968 -0.409452,0.924903 -0.267789,0.686075 -0.636603,1.529959 -0.867168,1.984171 -0.127314,0.250808 -0.147074,0.358618 -0.08475,0.462451 0.0447,0.07447 0.161242,0.418702 0.258998,0.764963 0.132528,0.469428 0.222261,0.653728 0.352779,0.724562 0.09627,0.05225 0.155825,0.126529 0.132337,0.165068 -0.02349,0.03854 -0.08964,0.0073 -0.147001,-0.06943 -0.125885,-0.16837 -0.136461,-0.106816 -0.0303,0.17634 0.05992,0.1598 0.10004,0.188749 0.167214,0.12063 0.04861,-0.04929 0.124295,-0.08857 0.168188,-0.08728 0.04389,0.0013 0.01923,0.03811 -0.05481,0.08181 -0.07403,0.04371 -0.115013,0.111624 -0.09106,0.150924 0.02429,0.03986 -0.01412,0.04901 -0.08687,0.02071 -0.08503,-0.03308 -0.112339,-0.02108 -0.07845,0.03451 0.02858,0.0469 0.11733,0.08027 0.197217,0.07418 0.07989,-0.0061 0.130715,-0.03494 0.112949,-0.0641 -0.01777,-0.02915 0.01064,-0.06971 0.06314,-0.09013 0.05249,-0.02042 0.172037,-0.19268 0.265665,-0.38279 0.210511,-0.427436 0.290643,-1.299908 0.180907,-1.969712 -0.100002,-0.610397 -0.05137,-0.782572 0.148322,-0.525131 0.214591,0.276645 0.321312,0.919766 0.275797,1.661997 -0.03405,0.555253 -0.08441,0.74923 -0.321034,1.236618 -0.154358,0.317936 -0.312969,0.590108 -0.352469,0.604829 -0.04098,0.01527 -0.03321,0.07395 0.01811,0.136646 0.07216,0.08818 0.0668,0.100883 -0.02714,0.06433 -0.06439,-0.02506 -0.139409,-0.0089 -0.16671,0.03589 -0.03021,0.04957 -0.0035,0.06347 0.06832,0.03554 0.07965,-0.03099 0.117957,-9.17e-4 0.117957,0.09269 0,0.129663 0.0068,0.12916 0.105554,-0.0078 0.05805,-0.08051 0.08845,-0.191586 0.06755,-0.246831 -0.02632,-0.06954 0.0035,-0.08429 0.09693,-0.04794 0.09243,0.03596 0.117627,0.02411 0.07999,-0.03766 -0.03023,-0.04959 -0.01874,-0.09018 0.02554,-0.09018 0.111179,0 0.100788,0.122556 -0.02085,0.245906 -0.156422,0.158622 -0.124543,0.34683 0.05701,0.336556 0.08709,-0.005 0.201657,-0.03634 0.254592,-0.06981 z M 18.066822,24.1452 c -0.01032,-0.157871 0.124124,-0.182305 0.232407,-0.04224 0.09244,0.11957 0.09007,0.12329 -0.022,0.03448 -0.10266,-0.08136 -0.13282,-0.08136 -0.165013,0 -0.02704,0.06833 -0.04128,0.07077 -0.04539,0.0078 z m 0.222019,-0.207068 c 0,-0.01601 0.05985,-0.07671 0.133009,-0.134882 0.12055,-0.09587 0.123239,-0.09314 0.0287,0.0291 -0.09929,0.128387 -0.161706,0.169217 -0.161706,0.105782 z m -0.02028,-0.36584 c 0.05156,-0.05267 0.112887,-0.07636 0.136288,-0.05263 0.0234,0.02373 -0.01878,0.06683 -0.09374,0.09577 -0.108325,0.04182 -0.117054,0.03298 -0.04255,-0.04314 z m -0.03033,-0.389787 c 0.01342,-0.140684 -0.0083,-0.307815 -0.04842,-0.371402 -0.04005,-0.06358 0.03619,-1.36e-4 0.169429,0.141004 0.265813,0.28157 0.271714,0.423923 0.01914,0.461624 -0.144388,0.02155 -0.16157,-0.0068 -0.140152,-0.231226 z m 0.127725,-1.161423 0.0011,-0.250493 0.100639,0.192687 c 0.103985,0.199091 0.09288,0.308301 -0.03136,0.308301 -0.03934,0 -0.07102,-0.112723 -0.0704,-0.250495 z m -5.652713,3.217891 c -0.06271,-0.06358 -0.137743,-0.115613 -0.166749,-0.115613 -0.02901,0 -0.01017,0.05203 0.04188,0.115613 0.05204,0.06359 0.127075,0.115613 0.166747,0.115613 0.03967,0 0.02083,-0.05202 -0.04188,-0.115613 z m 1.015223,-0.03029 c 0,-0.109189 -0.217717,-0.164579 -0.275331,-0.07005 -0.03041,0.04989 -0.01777,0.06405 0.03031,0.03392 0.04537,-0.02844 0.103981,-0.01645 0.130239,0.02663 0.05896,0.09673 0.114775,0.101355 0.114775,0.0095 z M 11.47775,24.806196 c -0.158584,-0.164689 -0.317088,-0.299436 -0.352233,-0.299436 -0.03514,0 -0.1546,-0.08529 -0.265459,-0.189527 C 10.58339,24.057083 9.8092818,23.681041 9.3405767,23.579108 8.8574799,23.474045 7.619829,23.44656 6.963928,23.526328 c -0.2838809,0.03452 -0.4519177,0.03153 -0.3950196,-0.0071 0.054464,-0.03693 0.088663,-0.112923 0.076006,-0.168871 -0.057564,-0.254441 1.5553014,-0.444546 2.5691135,-0.302815 0.4226274,0.05908 0.7780292,0.172339 1.2016121,0.382917 0.330817,0.16446 0.635375,0.277778 0.676796,0.251819 0.04142,-0.02597 0.05342,-0.01129 0.02667,0.03262 -0.02675,0.0439 0.06799,0.160856 0.210537,0.259907 0.14255,0.09905 0.239378,0.212587 0.215172,0.252304 -0.0242,0.03972 -0.0043,0.04732 0.04428,0.01687 0.04942,-0.03097 0.10836,-0.0023 0.133884,0.06517 0.02508,0.06627 0.07816,0.120498 0.117958,0.120498 0.0398,0 0.05344,-0.03105 0.03031,-0.069 -0.02313,-0.03795 0.01129,-0.08976 0.0765,-0.115128 0.09086,-0.03536 0.107309,-0.01024 0.07045,0.107536 -0.02862,0.09142 -0.01342,0.153666 0.03752,0.153666 0.04709,0 0.06448,-0.03469 0.03864,-0.07707 -0.02583,-0.04239 0.0064,-0.07707 0.07152,-0.07707 0.06517,0 0.119019,-0.04336 0.119658,-0.09634 7.52e-4,-0.06396 0.02538,-0.05749 0.07322,0.01925 0.05207,0.08352 0.03593,0.130137 -0.05817,0.168002 -0.0937,0.03771 -0.06898,0.05393 0.08809,0.05783 0.19582,0.0049 0.207963,-0.0085 0.117811,-0.129465 -0.255066,-0.34228 -0.479962,-0.549204 -0.549525,-0.505608 -0.04187,0.02623 -0.05515,0.01331 -0.02955,-0.02872 0.06587,-0.108081 -0.168312,-0.423198 -0.268052,-0.360688 -0.04608,0.02888 -0.06094,0.01628 -0.03364,-0.02852 0.09081,-0.149007 -0.149018,-0.271781 -0.34359,-0.17589 -0.168503,0.08304 -0.169654,0.08163 -0.02748,-0.03383 0.144536,-0.117366 0.141574,-0.126409 -0.114009,-0.347957 -0.144321,-0.125103 -0.291324,-0.22887 -0.326674,-0.230592 -0.03535,-0.0017 -0.15506,-0.06754 -0.266021,-0.146254 C 9.9656251,22.1007 8.7820919,21.792236 7.7619902,21.787698 c -0.3344263,-0.0016 -0.5500896,-0.0168 -0.4792501,-0.03402 0.070839,-0.01722 0.1112155,-0.07778 0.089727,-0.134566 -0.060037,-0.158654 0.6283839,-0.276568 1.3173339,-0.225633 0.5509166,0.04073 1.2458731,0.219312 1.694398,0.435408 0.306176,0.147514 1.14009,0.758125 1.14009,0.8348 0,0.03867 0.05332,0.07031 0.118495,0.07031 0.07039,0 0.09642,0.03622 0.06412,0.08921 -0.03726,0.06114 -0.0028,0.07553 0.109628,0.04573 0.0902,-0.02392 0.146763,-0.0152 0.125691,0.01937 -0.02107,0.03457 0.06701,0.152733 0.195742,0.262575 0.128729,0.109843 0.205778,0.200246 0.171217,0.200895 -0.07155,0.0013 0.138716,0.149978 0.214724,0.151789 0.02725,6.41e-4 0.124497,-0.111542 0.216111,-0.249314 0.09161,-0.137772 0.146253,-0.186899 0.121422,-0.109172 -0.02913,0.09118 -0.01243,0.130262 0.04709,0.110144 0.05073,-0.01716 0.09351,-0.150112 0.09506,-0.295473 0.0021,-0.20172 -0.03767,-0.282308 -0.168193,-0.340377 -0.09406,-0.04185 -0.171014,-0.10459 -0.171014,-0.139432 0,-0.03485 0.03949,-0.0386 0.08775,-0.0083 0.05313,0.0333 0.06716,0.02122 0.03557,-0.03062 -0.08457,-0.138764 -0.267057,-0.01767 -0.234189,0.155402 0.0356,0.187461 0.11087,0.283207 0.11087,0.141032 0,-0.07958 0.02269,-0.08026 0.114009,-0.0034 0.06271,0.05277 0.11401,0.130634 0.11401,0.173026 0,0.04703 -0.03976,0.04361 -0.102001,-0.0088 -0.0561,-0.04722 -0.1237,-0.06384 -0.150223,-0.03695 -0.02652,0.02689 -0.06971,-0.0079 -0.09598,-0.0773 -0.02626,-0.06941 -0.07837,-0.107012 -0.115797,-0.08356 -0.03743,0.02346 -0.06804,0.006 -0.06804,-0.03898 0,-0.0449 0.0285,-0.08162 0.06334,-0.08162 0.03483,0 0.06334,-0.05353 0.06334,-0.11893 0,-0.06967 -0.04361,-0.101961 -0.10529,-0.07795 -0.06135,0.02388 -0.08457,0.007 -0.05565,-0.04048 0.0273,-0.0448 0.09639,-0.06325 0.153524,-0.04102 0.05713,0.02224 0.127369,0.0019 0.156069,-0.04519 0.0287,-0.04709 0.02014,-0.06554 -0.01903,-0.04099 -0.03917,0.02455 -0.151126,-0.07364 -0.248803,-0.218198 -0.09768,-0.144555 -0.213013,-0.24063 -0.256303,-0.213499 -0.04335,0.02718 -0.0561,0.01224 -0.02838,-0.03324 0.123063,-0.201922 -1.197528,-0.882488 -1.897127,-0.977683 -0.3378265,-0.04597 -0.6781833,-0.222414 -0.6769156,-0.350921 0.0026,-0.2659 1.5821076,0.0133 2.1875806,0.38669 0.129183,0.07967 0.268231,0.123944 0.308997,0.0984 0.04106,-0.02573 0.04993,-0.0068 0.01988,0.04253 -0.04924,0.0808 0.04548,0.124728 0.207408,0.0962 0.03446,-0.0061 0.04085,0.02476 0.01419,0.06849 -0.07718,0.126622 0.177731,0.183028 0.323162,0.07151 0.1122,-0.08603 0.117765,-0.08501 0.03703,0.0068 -0.113509,0.129081 -0.126425,0.260148 -0.019,0.192824 0.0418,-0.0262 0.076,8.54e-4 0.076,0.06015 0,0.05928 0.08551,0.147298 0.190016,0.195584 0.104508,0.04829 0.190014,0.135189 0.190014,0.193115 0,0.05793 0.05985,0.157181 0.133011,0.220566 0.115561,0.100127 0.157941,0.100938 0.323026,0.0061 l 0.190015,-0.109064 -0.209016,0.03362 c -0.11496,0.01849 -0.209018,0.0017 -0.209018,-0.03732 0,-0.03902 -0.04275,-0.04489 -0.09501,-0.01306 -0.06456,0.03933 -0.06157,0.01608 0.0093,-0.07252 0.06798,-0.08498 0.0746,-0.130408 0.019,-0.130408 -0.04692,0 -0.08262,-0.0607 -0.07931,-0.134882 0.0037,-0.08137 0.02127,-0.09647 0.0445,-0.03805 0.02117,0.05325 0.06799,0.07834 0.104035,0.05574 0.03605,-0.0226 0.05219,0.02922 0.03587,0.115133 -0.02326,0.12247 0.01043,0.156209 0.155986,0.156209 0.230358,0 0.243083,-0.173754 0.02355,-0.32157 -0.124042,-0.08352 -0.148859,-0.151453 -0.1057,-0.289347 0.04371,-0.139645 0.07138,-0.156227 0.122934,-0.07367 0.0366,0.0586 0.06654,0.141211 0.06654,0.183603 0,0.04239 -0.03316,0.02505 -0.07368,-0.03854 -0.06208,-0.09741 -0.07386,-0.09306 -0.07484,0.02762 -8.95e-4,0.113502 0.03731,0.133444 0.184193,0.09606 0.101947,-0.02594 0.206331,-0.01275 0.231966,0.0293 0.02783,0.04567 -0.0063,0.05591 -0.08454,0.02544 -0.106429,-0.04141 -0.119588,-0.02308 -0.0698,0.09723 0.03374,0.08155 0.0589,0.208959 0.05592,0.283144 -0.0031,0.07779 0.04888,0.134382 0.122863,0.133702 0.110607,-0.001 0.112574,-0.01148 0.01428,-0.0759 -0.09861,-0.06462 -0.09689,-0.07487 0.01267,-0.0759 0.06967,-6.4e-4 0.143928,0.04218 0.165014,0.09516 0.02291,0.05755 0.04075,0.04203 0.04434,-0.03854 0.0033,-0.07418 -0.04328,-0.134882 -0.103523,-0.134882 -0.06024,0 -0.133992,-0.04015 -0.163898,-0.08921 -0.03678,-0.06034 -0.0045,-0.07597 0.09989,-0.04831 0.123878,0.03285 0.146597,0.01119 0.115348,-0.109995 -0.0214,-0.083 -0.08547,-0.169021 -0.142377,-0.191165 -0.05691,-0.02214 -0.103463,-0.105917 -0.103463,-0.186164 0,-0.08025 -0.03421,-0.145905 -0.076,-0.145905 -0.0418,0 -0.076,-0.04998 -0.076,-0.111063 0,-0.06108 -0.03101,-0.130502 -0.06892,-0.154257 -0.0379,-0.02376 -0.05089,0.02674 -0.02884,0.112209 0.03149,0.122109 0.01232,0.144602 -0.08947,0.104993 -0.07125,-0.02772 -0.101022,-0.0716 -0.06617,-0.09749 0.142863,-0.106126 0.09096,-0.312037 -0.125145,-0.496431 -0.12623,-0.107711 -0.229511,-0.23154 -0.229511,-0.275177 0,-0.105969 -0.269613,-0.248115 -0.338367,-0.178394 -0.02989,0.0303 -0.04293,0.0052 -0.02899,-0.05581 0.03674,-0.160817 -1.048426,-0.689913 -1.599616,-0.779928 -0.665995,-0.108765 -1.8637145,-0.03457 -2.4033694,0.148867 -1.1120238,0.378007 -1.5970645,0.667146 -2.304755,1.373896 -0.8437464,0.842626 -1.1748785,1.441493 -1.1848066,2.142777 -0.011463,0.80989 0.4563751,1.52618 1.1751151,1.799168 0.3790326,0.143961 1.1671037,0.171349 1.8046649,0.06271 0.837974,-0.14278 2.166829,-0.118013 2.542943,0.04739 0.156763,0.06894 0.285024,0.107875 0.285024,0.08652 0,-0.02136 0.14536,0.06356 0.323025,0.188699 0.431291,0.303786 0.520507,0.220943 0.162477,-0.150872 z m 0.235593,-0.609315 c -0.0253,-0.04152 -0.01834,-0.07603 0.01548,-0.07668 0.03382,-6.41e-4 0.01509,-0.03099 -0.04162,-0.06744 -0.07189,-0.04619 -0.07764,-0.08223 -0.019,-0.118982 0.04627,-0.02899 0.08412,-0.01798 0.08412,0.02448 0,0.04246 0.06841,0.06384 0.152013,0.04751 0.193808,-0.03784 0.195621,0.05092 0.0035,0.17257 -0.09349,0.05921 -0.16553,0.06608 -0.194501,0.01854 z m -0.41707,-0.72239 c 0,-0.01666 0.05308,-0.05094 0.117955,-0.07619 0.06764,-0.02632 0.09815,-0.01341 0.07152,0.03029 -0.04464,0.07324 -0.189477,0.108325 -0.189477,0.0459 z m 1.14009,-0.192688 c 0,-0.03785 0.04956,-0.08811 0.110138,-0.111687 0.07361,-0.02864 0.09612,-0.0058 0.06788,0.06883 -0.04614,0.121912 -0.178013,0.153663 -0.178013,0.04286 z m -0.608041,-0.629401 c 0,-0.0449 0.03421,-0.06019 0.076,-0.03398 0.04181,0.0262 0.076,0.06292 0.076,0.08162 0,0.01869 -0.03421,0.03398 -0.076,0.03398 -0.0418,0 -0.076,-0.03674 -0.076,-0.08162 z m 0.152013,-0.268623 c 0,-0.0089 0.0456,-0.05463 0.101341,-0.101543 0.07573,-0.06373 0.101342,-0.05962 0.101342,0.01626 0,0.05585 -0.04561,0.101543 -0.101342,0.101543 -0.05574,0 -0.101341,-0.0073 -0.101341,-0.01626 z m 1.482117,-0.651731 c -0.02583,-0.04239 -0.01075,-0.07707 0.03352,-0.07707 0.04427,0 0.08049,0.03469 0.08049,0.07707 0,0.04239 -0.01509,0.07707 -0.03352,0.07707 -0.01843,0 -0.05465,-0.03469 -0.08049,-0.07707 z M 12.93041,21.500822 c 0.02583,-0.04239 0.06205,-0.07707 0.0805,-0.07707 0.01843,0 0.03352,0.03469 0.03352,0.07707 0,0.04239 -0.03622,0.07707 -0.0805,0.07707 -0.04426,0 -0.05935,-0.03469 -0.03352,-0.07707 z m 0.05513,-0.398916 c 0.01149,-0.05614 -0.03656,-0.102515 -0.106761,-0.103056 -0.07021,-5.53e-4 -0.155712,-0.03211 -0.190016,-0.07017 -0.03518,-0.03903 -0.02378,-0.04678 0.02615,-0.01781 0.04869,0.02826 0.100862,0.01381 0.115952,-0.0321 0.01558,-0.0474 0.08622,-0.0176 0.163455,0.06894 0.09095,0.101911 0.108569,0.169615 0.05318,0.20433 -0.04612,0.0289 -0.07359,0.0067 -0.06195,-0.05015 z m -0.54316,-0.18557 c 0.0037,-0.08979 0.02165,-0.108052 0.04592,-0.04657 0.02196,0.05564 0.01926,0.122116 -0.006,0.147727 -0.02526,0.02561 -0.04322,-0.01992 -0.03992,-0.101161 z m 0.602048,-0.109191 c -0.101342,-0.06642 -0.101342,-0.07497 0,-0.07707 0.0915,-0.0019 0.09399,-0.01522 0.01263,-0.06753 -0.08384,-0.0539 -0.08319,-0.07225 0.0038,-0.106098 0.0715,-0.02783 0.10518,0.01809 0.10518,0.143424 0,0.101394 -0.0017,0.183823 -0.0038,0.183174 -0.0021,-6.41e-4 -0.05511,-0.03481 -0.117809,-0.0759 z m -0.532049,-0.261518 c 0,-0.01666 0.05308,-0.05095 0.117957,-0.07619 0.06764,-0.02632 0.09815,-0.01341 0.07152,0.03029 -0.04464,0.07324 -0.189477,0.108326 -0.189477,0.0459 z m -0.76006,-0.11931 c 0,-0.03989 0.03381,-0.09372 0.07513,-0.119616 0.04308,-0.02701 0.05583,0.0039 0.02987,0.07252 -0.05053,0.133526 -0.105008,0.157957 -0.105008,0.04709 z m 1.089419,-0.270922 c 0,-0.06172 0.02906,-0.09401 0.06458,-0.07174 0.03551,0.02226 0.0449,0.07276 0.02085,0.112222 -0.06146,0.100844 -0.08542,0.08949 -0.08542,-0.04048 z m 9.906942,4.791774 c 0.07619,-0.0969 0.223094,-0.235638 0.326453,-0.308301 0.103359,-0.07266 0.144093,-0.132113 0.09052,-0.132113 -0.05357,0 -0.07626,-0.03468 -0.05043,-0.07707 0.02582,-0.04239 -0.01,-0.07707 -0.07965,-0.07707 -0.0801,0 -0.110896,0.04158 -0.08381,0.113145 0.02356,0.06223 0.0048,0.136956 -0.04162,0.166059 -0.05468,0.03427 -0.06277,0.01737 -0.02295,-0.04798 0.04069,-0.06676 0.0318,-0.08229 -0.02626,-0.0459 -0.04826,0.03024 -0.08775,0.02231 -0.08775,-0.01764 0,-0.03995 -0.08447,-0.08901 -0.187715,-0.109028 -0.103243,-0.02001 -0.169631,-0.0067 -0.147526,0.02955 0.02209,0.03627 0.08528,0.06594 0.140404,0.06594 0.159445,0 0.271841,0.182317 0.191654,0.310885 -0.0479,0.07679 -0.07087,0.08214 -0.07166,0.01669 -8.68e-4,-0.06346 -0.04894,-0.0503 -0.14112,0.03854 -0.137345,0.132368 -0.143519,0.250494 -0.0131,0.250494 0.0363,0 0.128342,-0.07928 0.204531,-0.176187 z m -10.06827,-0.04988 c 0.116039,-0.137429 0.116217,-0.156881 0.0023,-0.250494 -0.07234,-0.05944 -0.101614,-0.06446 -0.07067,-0.0121 0.0844,0.14277 -0.02263,0.329188 -0.162961,0.283849 -0.108684,-0.03511 -0.110494,-0.02911 -0.01272,0.04222 0.06271,0.04574 0.114958,0.08369 0.116119,0.08435 0.0012,6.41e-4 0.05872,-0.06587 0.127917,-0.147819 z m 0.744043,-0.116215 c 0,-0.01869 -0.03421,-0.05542 -0.076,-0.08162 -0.04181,-0.0262 -0.076,-0.0109 -0.076,0.03398 0,0.0449 0.03421,0.08162 0.076,0.08162 0.0418,0 0.076,-0.0153 0.076,-0.03398 z m 0.237312,-0.135461 c -0.03399,-0.0932 -0.109852,-0.182547 -0.168564,-0.198556 -0.06882,-0.01876 -0.07777,-0.0065 -0.0252,0.03457 0.04486,0.03502 0.103634,0.12437 0.130626,0.198555 0.027,0.07418 0.06615,0.134882 0.08702,0.134882 0.02087,0 0.01012,-0.07626 -0.02387,-0.16945 z m -1.263394,0.0153 c 0.02583,-0.04239 -0.0084,-0.07707 -0.076,-0.07707 -0.06764,0 -0.101842,0.03469 -0.076,0.07707 0.02583,0.04239 0.06004,0.07707 0.076,0.07707 0.01597,0 0.05017,-0.03468 0.076,-0.07707 z m 0.772462,-0.264783 c -0.02303,-0.06085 -0.0011,-0.127477 0.04887,-0.148064 0.0499,-0.02059 0.03089,-0.04017 -0.04227,-0.04352 -0.07316,-0.0034 -0.13301,0.0084 -0.13301,0.02615 0,0.07427 0.09523,0.276067 0.130272,0.276067 0.0209,0 0.01917,-0.04978 -0.0038,-0.110633 z m -0.223486,-0.271046 c -0.0584,-0.226465 0.109711,-0.239631 0.335758,-0.02629 0.1317,0.124293 0.21855,0.16007 0.25267,0.104087 0.0286,-0.04692 0.02379,-0.08034 -0.01067,-0.07427 -0.156513,0.02757 -0.204713,-0.01684 -0.100657,-0.09274 0.09759,-0.07119 0.09566,-0.07723 -0.01345,-0.04194 -0.0701,0.02268 -0.168031,-0.0083 -0.217628,-0.06896 -0.0496,-0.06059 -0.117415,-0.09311 -0.15071,-0.07224 -0.0333,0.02087 -0.113402,0.01737 -0.178017,-0.0078 -0.08828,-0.03435 -0.09612,-0.0689 -0.03154,-0.139017 0.09847,-0.106898 0.387607,-0.149199 0.325718,-0.04766 -0.02249,0.0369 -0.0079,0.08775 0.03239,0.113007 0.04126,0.02586 0.05973,-0.02541 0.04227,-0.117357 -0.02293,-0.120755 -0.0011,-0.151632 0.08393,-0.118555 0.07838,0.0305 0.09592,0.01437 0.05515,-0.05074 -0.03288,-0.0525 -0.06031,-0.12967 -0.06095,-0.17148 -6.36e-4,-0.04181 -0.06102,-0.08771 -0.134174,-0.101996 -0.07316,-0.01429 -0.133012,0.0153 -0.133012,0.06574 0,0.05439 -0.06315,0.07497 -0.155134,0.05057 -0.128338,-0.03404 -0.146626,-0.01396 -0.105875,0.116246 0.02995,0.0957 0.0089,0.184397 -0.05388,0.226302 -0.08502,0.05681 -0.08178,0.08559 0.01841,0.163797 0.127592,0.0996 0.14447,0.137692 0.14447,0.326105 0,0.06358 0.02109,0.115613 0.04687,0.115613 0.02578,0 0.02941,-0.0677 0.0081,-0.150455 z m -0.05494,-0.655379 c 0,-0.05948 0.226215,-0.107309 0.258321,-0.05463 0.01934,0.03174 -0.03086,0.06276 -0.111575,0.06892 -0.08071,0.0061 -0.146746,-2.66e-4 -0.146746,-0.01429 z m 0.988078,-0.434419 c -0.08626,-0.06185 -0.09076,-0.09131 -0.01853,-0.121015 0.05251,-0.02159 0.07472,-0.0733 0.04936,-0.114932 -0.02537,-0.04162 0.02572,-0.09473 0.113534,-0.11802 0.08782,-0.02329 0.159136,-0.09899 0.158496,-0.168232 -8.09e-4,-0.08694 -0.01902,-0.0974 -0.05889,-0.03382 -0.06243,0.09958 -0.22077,0.09649 -0.3851,-0.0075 -0.08682,-0.05495 -0.08682,-0.07672 0,-0.137763 0.06979,-0.04906 0.04171,-0.0553 -0.08689,-0.01933 -0.104509,0.02924 -0.199371,0.06123 -0.210805,0.07109 -0.04778,0.04121 0.08133,0.27122 0.152237,0.27122 0.04449,0 0.0371,-0.04898 -0.01744,-0.115613 -0.05278,-0.06449 -0.06101,-0.115612 -0.01861,-0.115612 0.151997,0 0.248798,0.197734 0.149814,0.306026 -0.07467,0.08169 -0.07174,0.08954 0.01473,0.03948 0.08138,-0.04711 0.09534,-0.02923 0.05677,0.07273 -0.0593,0.156711 -0.005,0.275964 0.124826,0.274271 0.05571,-7.23e-4 0.04669,-0.03262 -0.02349,-0.08294 z m 0.284487,-0.165398 c 0.01007,-0.13553 -0.0025,-0.147905 -0.05867,-0.05781 -0.08787,0.140923 -0.09328,0.230253 -0.01398,0.230253 0.03291,0 0.0656,-0.0776 0.07264,-0.172447 z m 8.176621,-0.401045 c 0.04927,0.02497 0.02913,-0.0048 -0.04476,-0.06614 -0.07794,-0.06472 -0.114728,-0.163338 -0.08763,-0.23496 0.02568,-0.06789 -0.008,-0.17882 -0.07469,-0.246524 -0.109526,-0.111068 -0.12139,-0.111261 -0.12139,-0.002 0,0.06662 0.02838,0.121118 0.06304,0.121118 0.03467,0 0.06278,0.0607 0.06246,0.134881 -2.88e-4,0.07418 0.01016,0.238934 0.02333,0.366108 0.02014,0.194877 0.0291,0.203785 0.05699,0.05667 0.01931,-0.10189 0.07037,-0.155663 0.12266,-0.129166 z M 14.1345,22.323628 c 0.02751,0.0279 0.05001,-0.01287 0.05001,-0.09059 0,-0.07772 -0.01968,-0.121351 -0.04372,-0.09697 -0.02405,0.02438 -0.143758,0.01525 -0.266022,-0.02031 -0.128129,-0.03727 -0.222296,-0.03531 -0.222296,0.0046 0,0.0381 -0.05692,0.04712 -0.126477,0.02005 -0.08239,-0.03206 -0.108156,-0.01915 -0.07392,0.03703 0.02891,0.04744 0.152097,0.07347 0.27375,0.05785 0.180645,-0.02318 0.212483,-0.0048 0.173694,0.100274 -0.03959,0.107241 -0.02814,0.112732 0.06874,0.03299 0.06392,-0.05262 0.138737,-0.07285 0.166243,-0.04496 z m 3.044365,-0.559997 c 0.02551,-0.06742 0.02389,-0.159481 -0.0036,-0.204597 -0.02812,-0.04614 -0.01428,-0.05965 0.03163,-0.03088 0.173006,0.108428 0.270218,-0.531501 0.279296,-1.838572 0.0089,-1.279683 0.01467,-1.324278 0.247244,-1.907716 0.252403,-0.633175 0.485848,-0.990903 1.775198,-2.720294 0.9888,-1.326268 1.338906,-1.920007 1.743919,-2.957483 0.492616,-1.261888 0.633547,-1.958778 0.632572,-3.1279978 C 21.884279,7.8035385 21.734296,7.1200148 21.25546,6.1042459 20.895411,5.3404652 20.534009,4.8817842 19.92412,4.4145495 18.947478,3.6663458 18.027615,3.3851467 16.51804,3.3733212 14.222231,3.3553298 11.827355,4.3355204 10.080216,6.0082231 9.8084948,6.2683681 9.3296563,6.6751951 9.0161313,6.9122832 8.2773014,7.4709869 7.4338674,8.3296496 7.0927673,8.8703757 6.8006449,9.3334612 6.3510134,10.43756 6.1444454,11.199042 c -0.1560862,0.575389 -0.1696313,1.830681 -0.026326,2.440105 0.1496926,0.636602 0.7894302,1.912518 1.1879153,2.369222 0.1956047,0.224183 0.5613369,0.520113 0.8221975,0.665275 0.4318579,0.240317 0.509836,0.258413 0.9639086,0.223685 0.2717221,-0.02078 0.5212389,-0.06333 0.5544828,-0.09455 0.033244,-0.03122 -0.200416,-0.172102 -0.5192436,-0.31307 -1.4700134,-0.649954 -2.2394151,-2.04658 -2.2394151,-4.065009 0,-0.983742 0.1747955,-1.793802 0.5349095,-2.4789495 C 7.8027277,9.2230472 8.5936113,8.2707301 9.1442063,7.8730639 9.419413,7.6742959 10.041874,7.1504049 10.527454,6.7088606 c 0.949957,-0.8638079 1.452418,-1.2247862 2.034164,-1.4613811 0.202856,-0.082502 0.577467,-0.239067 0.83247,-0.3479258 0.919575,-0.3925559 1.828603,-0.5942445 2.880625,-0.6391321 1.187155,-0.050655 1.71106,0.034314 2.432195,0.3944265 1.140955,0.569769 2.045369,1.7645421 2.250056,2.9724318 0.08258,0.487348 0.102519,2.1442603 0.03116,2.5895771 -0.231241,1.442987 -1.012378,3.113417 -2.050883,4.385731 -0.964698,1.181888 -1.792878,2.48348 -2.066391,3.247598 -0.15895,0.444066 -0.178099,0.630249 -0.178099,1.731667 0,1.237593 0.08143,1.84069 0.269948,1.999347 0.05558,0.04678 0.08232,0.134531 0.05943,0.195019 -0.02289,0.06048 -0.0074,0.109977 0.03439,0.109977 0.04181,0 0.09688,-0.05515 0.122388,-0.122567 z M 7.647992,21.616435 c 0,-0.06358 -0.01344,-0.115613 -0.029872,-0.115613 -0.016431,0 -0.049559,0.05203 -0.073621,0.115613 -0.02406,0.06358 -0.010618,0.115613 0.029872,0.115613 0.040491,0 0.073621,-0.05203 0.073621,-0.115613 z m 14.455086,-0.286463 c -0.05454,-0.0553 -0.08994,-0.05985 -0.08994,-0.01156 0,0.04381 0.02281,0.102766 0.05067,0.131027 0.02786,0.02826 0.06834,0.03346 0.08994,0.01156 0.0216,-0.0219 -0.0012,-0.08086 -0.05067,-0.131028 z m -0.01393,-0.253064 c 0,-0.06358 -0.0285,-0.115611 -0.06333,-0.115611 -0.03483,0 -0.06334,0.05202 -0.06334,0.115611 0,0.06359 0.0285,0.115614 0.06334,0.115614 0.03483,0 0.06333,-0.05202 0.06333,-0.115614 z m 0.304026,-0.03612 c 0,-0.04106 -0.05131,-0.05469 -0.11401,-0.0303 -0.06271,0.0244 -0.114008,0.05799 -0.114008,0.07465 0,0.01666 0.05131,0.03029 0.114008,0.03029 0.06271,0 0.11401,-0.0336 0.11401,-0.07465 z m -0.048,-0.193455 c 0.136537,-0.104863 0.135808,-0.108586 -0.01901,-0.09676 -0.08855,0.0068 -0.161004,0.03851 -0.161004,0.07055 0,0.03204 -0.05985,0.03873 -0.133013,0.01487 -0.11227,-0.03663 -0.115234,-0.03043 -0.01899,0.03978 0.144081,0.105102 0.159906,0.103746 0.332017,-0.02844 z M 21.93714,19.539908 c 0,-0.01574 -0.06841,-0.01047 -0.152013,0.0117 -0.08361,0.02217 -0.152014,0.07217 -0.152014,0.111109 0,0.03911 0.06803,0.03387 0.152014,-0.0117 0.08361,-0.04537 0.152013,-0.09537 0.152013,-0.111109 z m -0.07601,-0.206291 c 0,-0.04239 -0.03421,-0.05564 -0.076,-0.02943 -0.04181,0.0262 -0.076,0.08232 -0.076,0.12471 0,0.04239 0.03421,0.05564 0.076,0.02943 0.0418,-0.0262 0.076,-0.08232 0.076,-0.12471 z m -3.446804,-0.424691 c 0.07577,-0.124958 0.06305,-0.145764 -0.09501,-0.15539 -0.100368,-0.0061 -0.182488,0.02194 -0.182488,0.06236 0,0.0404 0.03184,0.05352 0.07075,0.02913 0.03891,-0.02438 0.09224,-0.0091 0.118494,0.03399 0.02625,0.04308 -0.0056,0.07833 -0.07075,0.07833 -0.07887,0 -0.118121,0.07088 -0.117374,0.211957 0.0011,0.205456 0.004,0.206926 0.09501,0.04793 0.05164,-0.09021 0.133253,-0.228951 0.181367,-0.308302 z m 0.119296,-0.294275 c 0.09523,0.09656 0.443565,-0.688196 0.619929,-1.396616 l 0.19061,-0.765641 -0.293279,0.346629 c -0.416472,0.492231 -0.725494,1.130865 -0.61345,1.267769 0.06063,0.07408 0.0624,0.12137 0.0059,0.156796 -0.04452,0.0279 -0.06316,0.07988 -0.04145,0.11552 0.0583,0.09567 -0.04177,0.316045 -0.120981,0.266402 -0.03743,-0.02346 -0.06804,-0.07733 -0.06804,-0.119719 0,-0.04239 0.04002,-0.05199 0.08892,-0.02134 0.05944,0.03725 0.07314,0.01403 0.04132,-0.07006 -0.02617,-0.06919 -0.01433,-0.146638 0.02632,-0.17212 0.04066,-0.02548 0.0539,-0.07918 0.02943,-0.119338 -0.07251,-0.118982 -0.163014,-0.01364 -0.215081,0.250365 -0.05203,0.263792 0.06909,0.421994 0.223538,0.292004 0.04705,-0.03959 0.103898,-0.05339 0.126325,-0.03065 z m -0.0047,-0.196839 c 0,-0.105977 0.01725,-0.149333 0.03833,-0.09634 0.02109,0.05299 0.02109,0.139698 0,0.192688 -0.02109,0.05298 -0.03833,0.0096 -0.03833,-0.09634 z m -3.822862,-0.02568 c 0.06285,-0.0768 0.0588,-0.102768 -0.01603,-0.102768 -0.05507,0 -0.100135,0.04624 -0.100135,0.102768 0,0.05652 0.0072,0.102767 0.01603,0.102767 0.0089,0 0.05388,-0.04625 0.100135,-0.102767 z m -0.07101,-0.495684 c 0.101651,-0.08289 0.102476,-0.09441 0.0055,-0.07707 -0.06271,0.01121 -0.104279,-0.02657 -0.09238,-0.08394 0.0405,-0.195382 -0.06949,-0.396664 -0.216763,-0.396664 -0.08079,0 -0.14689,-0.03673 -0.14689,-0.08162 0,-0.0449 0.03184,-0.06167 0.07075,-0.03729 0.13906,0.08715 0.160242,-0.109424 0.02703,-0.250815 -0.07468,-0.07926 -0.147027,-0.193253 -0.160771,-0.253307 -0.01374,-0.06005 -0.0736,-0.163947 -0.13301,-0.230871 -0.05941,-0.06692 -0.108803,-0.153635 -0.109757,-0.192689 -8.95e-4,-0.03905 -0.243847,-0.348477 -0.539763,-0.687608 -0.803619,-0.920976 -1.784425,-1.558713 -2.918379,-1.897579 -0.4794929,-0.14329 -0.8719558,-0.288586 -0.872138,-0.322883 -1.821e-4,-0.0343 0.033481,-0.04116 0.074804,-0.01527 0.043087,0.02701 0.055828,-0.0039 0.029872,-0.07252 -0.05672,-0.149883 0.026026,-0.150587 0.768456,-0.0065 0.644073,0.124966 1.68363,0.615358 2.275266,1.073317 0.198263,0.153466 0.391379,0.259662 0.429149,0.235991 0.03777,-0.02367 0.04651,0.01946 0.01943,0.09585 -0.02709,0.07639 -0.02347,0.115386 0.0081,0.08666 0.0315,-0.02872 0.160103,0.06655 0.285788,0.211707 0.125684,0.14516 0.264558,0.241339 0.308608,0.213731 0.04405,-0.02761 0.05888,-0.01538 0.03294,0.02717 -0.02593,0.04255 0.03165,0.146851 0.127958,0.23177 0.09631,0.08492 0.303054,0.367976 0.459427,0.629015 0.156372,0.261039 0.315433,0.455112 0.353467,0.431276 0.03804,-0.02383 0.04869,0.01076 0.02367,0.07687 -0.02502,0.06611 0.01718,0.215323 0.09378,0.331572 0.07659,0.116249 0.13068,0.240362 0.120183,0.275806 -0.0105,0.03544 0.04992,0.08274 0.134256,0.105107 0.08433,0.02237 0.132494,0.07486 0.107018,0.116665 -0.02663,0.04369 0.01939,0.04034 0.108265,-0.0079 0.125066,-0.06788 0.172292,-0.268735 0.08809,-0.374666 -0.0084,-0.01059 -0.01977,-0.06262 -0.02522,-0.115613 -0.0055,-0.05299 -0.08099,-0.09267 -0.167847,-0.08818 -0.210573,0.01088 -0.201992,-0.172425 0.01942,-0.414686 0.09754,-0.10673 0.177348,-0.227515 0.177348,-0.268413 0,-0.0409 -0.06727,0.0075 -0.149483,0.107599 -0.08221,0.100077 -0.150622,0.149316 -0.152013,0.10942 -0.0014,-0.0399 -0.05391,-0.0052 -0.116723,0.07707 -0.110712,0.145049 -0.112637,0.145113 -0.06309,0.0021 0.03533,-0.101975 0.02365,-0.130318 -0.03782,-0.0918 -0.05049,0.03165 -0.08943,0.01212 -0.09009,-0.04516 -8.68e-4,-0.07415 -0.02254,-0.07024 -0.08179,0.01472 -0.07167,0.102767 -0.07717,0.102767 -0.04951,0 0.03597,-0.133621 0.217041,-0.157632 0.310072,-0.04112 0.03746,0.04692 0.05038,0.0163 0.03145,-0.0745 -0.01768,-0.08479 0.02211,-0.20798 0.08841,-0.27377 0.152317,-0.15113 0.477958,-0.148617 0.519043,0.004 0.01858,0.06899 0.0058,0.08454 -0.03167,0.03854 -0.06988,-0.08579 -0.252806,-0.139117 -0.252806,-0.07371 0,0.02304 0.08186,0.131429 0.181917,0.240851 0.191954,0.209925 0.372397,0.189151 0.301634,-0.03473 -0.03435,-0.108685 -0.02785,-0.112355 0.03631,-0.02048 0.04299,0.06157 0.06276,0.137205 0.04393,0.168094 -0.01883,0.03089 5.46e-4,0.07794 0.04302,0.104572 0.04277,0.0268 0.07725,-0.02241 0.07725,-0.110287 0,-0.08729 0.03313,-0.158699 0.07362,-0.158699 0.04049,0 0.05178,0.05772 0.02509,0.128256 -0.03109,0.08215 -0.01864,0.109521 0.03464,0.07613 0.04574,-0.02867 0.09962,0.009 0.119726,0.0837 0.02011,0.07471 0.03125,-0.01153 0.02475,-0.191631 -0.0077,-0.212293 -0.0468,-0.327497 -0.111296,-0.327569 -0.05472,-6.3e-5 -0.08021,0.03153 -0.05665,0.0702 0.03372,0.05534 -0.08539,0.06155 -0.242896,0.01266 -0.01045,-0.0032 0.0494,-0.07527 0.13301,-0.160047 0.1875,-0.190139 0.197078,-0.384977 0.019,-0.386557 -0.11086,-0.001 -0.114527,-0.01304 -0.02202,-0.07237 0.09536,-0.06116 0.09187,-0.09261 -0.02475,-0.223285 -0.07465,-0.08365 -0.145084,-0.198493 -0.156511,-0.2552 -0.01143,-0.05671 -0.04625,-0.172472 -0.07738,-0.257255 -0.03113,-0.08479 -0.09157,-0.249091 -0.13431,-0.365128 -0.04274,-0.116037 -0.107544,-0.192274 -0.144017,-0.169416 -0.03647,0.02286 -0.05001,-0.0036 -0.03008,-0.05879 0.06887,-0.190753 -0.8566,-1.568345 -1.418269,-2.111127 -0.954138,-0.922055 -1.564829,-1.280808 -2.933048,-1.723041 -0.428485,-0.138493 -0.779062,-0.2870795 -0.779062,-0.3301918 0,-0.0456 0.04731,-0.03857 0.11311,0.0168 0.09193,0.07737 0.12242,0.07059 0.162832,-0.0362 0.04101,-0.108359 0.109537,-0.122303 0.390834,-0.07953 0.187611,0.02853 0.413611,0.08149 0.50222,0.117693 0.08861,0.03619 0.400529,0.1401328 0.693152,0.2309608 1.229946,0.381766 2.091652,1.161698 3.415815,3.091659 0.122957,0.179212 0.237038,0.284835 0.253511,0.23472 0.01647,-0.05011 0.06289,-0.07047 0.103156,-0.04524 0.04533,0.02841 0.04037,0.086 -0.01304,0.151254 -0.110004,0.134411 -0.01836,0.291026 0.135301,0.23123 0.09711,-0.03779 0.10069,-0.02555 0.02101,0.07182 -0.07095,0.08668 -0.07259,0.117378 -0.0063,0.117378 0.04938,0 0.07196,0.02927 0.05015,0.06505 -0.05417,0.08887 0.201838,0.755455 0.363821,0.947298 0.123108,0.145804 0.143408,0.147876 0.317222,0.03239 0.102133,-0.06786 0.186736,-0.09657 0.188009,-0.0638 0.0013,0.03277 0.03861,-0.0037 0.08297,-0.08108 0.04436,-0.07737 0.06042,-0.161184 0.03569,-0.186265 -0.02473,-0.02509 -0.04497,-0.0051 -0.04497,0.04432 0,0.04945 -0.03622,0.08992 -0.0805,0.08992 -0.04426,0 -0.05916,-0.03499 -0.0331,-0.07776 0.06951,-0.114047 -0.03612,-0.395228 -0.127058,-0.338233 -0.04273,0.02678 -0.06231,0.130285 -0.04351,0.230013 0.02099,0.111388 0.0041,0.16248 -0.04376,0.132471 -0.04637,-0.02906 -0.05945,2.8e-5 -0.03228,0.07181 0.03108,0.08212 0.0062,0.114777 -0.07797,0.102252 -0.06799,-0.01012 -0.136635,-0.0674 -0.152536,-0.127277 -0.02341,-0.08817 -0.01543,-0.08943 0.04196,-0.0066 0.05163,0.07449 0.101567,0.0077 0.183959,-0.246109 0.07309,-0.225113 0.08785,-0.383982 0.04176,-0.449077 -0.05557,-0.07847 -0.06377,-0.07517 -0.03712,0.01488 0.01882,0.06359 -0.03451,0.184981 -0.118496,0.269764 -0.123409,0.124579 -0.143994,0.129231 -0.107311,0.02425 0.02496,-0.07144 0.02166,-0.143801 -0.0073,-0.160788 -0.02901,-0.01699 -0.01336,-0.02163 0.03478,-0.01032 0.04814,0.01131 0.105949,-0.05089 0.128476,-0.138256 0.03035,-0.117667 0.0766,-0.144038 0.178503,-0.101758 0.149308,0.06195 0.245049,0.06932 0.593581,0.04571 0.221644,-0.01502 0.223016,-0.01748 0.04906,-0.08814 -0.112449,-0.04567 -0.163115,-0.114551 -0.13633,-0.185335 0.02344,-0.06196 0.0099,-0.133148 -0.03006,-0.158203 -0.0717,-0.04493 -0.09411,0.02559 -0.09291,0.292299 5.17e-4,0.113618 -0.01899,0.119977 -0.11818,0.03854 -0.09811,-0.08055 -0.107594,-0.07869 -0.05446,0.01072 0.04401,0.07404 0.0362,0.09063 -0.02465,0.05248 -0.04894,-0.03067 -0.06705,-0.09177 -0.04024,-0.135765 0.03212,-0.05271 -0.03221,-0.06196 -0.188701,-0.02711 -0.205119,0.04568 -0.230529,0.03459 -0.186607,-0.08148 0.03738,-0.09878 0.0242,-0.117658 -0.04982,-0.07128 -0.06428,0.04029 -0.08244,0.03318 -0.05022,-0.01968 0.02775,-0.04553 -0.0037,-0.137593 -0.06969,-0.204597 -0.109511,-0.111053 -0.107892,-0.122034 0.0183,-0.12417 0.130406,-0.0022 0.130722,-0.0069 0.0055,-0.08091 -0.07316,-0.04321 -0.133534,-0.137534 -0.134174,-0.209614 -8.67e-4,-0.101813 -0.01559,-0.107975 -0.06581,-0.02762 -0.04739,0.07583 -0.07445,0.05144 -0.101366,-0.09136 -0.0202,-0.107136 -0.0082,-0.24039 0.02665,-0.29612 0.05764,-0.09219 0.09716,-0.03366 0.07469,0.110631 -0.005,0.03179 0.03219,0.04913 0.08255,0.03854 0.05035,-0.01059 0.09432,0.01542 0.0977,0.05781 0.0033,0.04239 0.0546,0.163784 0.113809,0.269762 0.05922,0.105979 0.115993,0.244084 0.126178,0.306902 0.01018,0.06282 0.05846,0.127713 0.107263,0.144212 0.0626,0.02115 0.05822,0.04934 -0.01486,0.09564 -0.06767,0.04287 -0.01829,0.05969 0.142405,0.04848 0.135306,-0.0094 0.263972,-0.06443 0.285922,-0.122189 0.03115,-0.08197 0.06374,-0.08497 0.148502,-0.01364 0.05973,0.05027 0.08986,0.14088 0.06697,0.201368 -0.02721,0.07188 0.0072,0.10787 0.09953,0.103893 0.07763,-0.0034 0.102019,-0.02236 0.05421,-0.04224 -0.04782,-0.01988 -0.06948,-0.103852 -0.04814,-0.186603 0.02133,-0.08275 0.0047,-0.150455 -0.03705,-0.150455 -0.04171,0 -0.115904,-0.161316 -0.164862,-0.35848 -0.04896,-0.197165 -0.14521,-0.465966 -0.213893,-0.597334 -0.06868,-0.131368 -0.131481,-0.27677 -0.139553,-0.323115 -0.0081,-0.04634 -0.104424,-0.228435 -0.214117,-0.404645 -0.109693,-0.176209 -0.179582,-0.320381 -0.15531,-0.320381 0.02428,0 -0.02214,-0.09538 -0.10313,-0.211958 -0.081,-0.116575 -0.217506,-0.350691 -0.303358,-0.520256 -0.363217,-0.717394 -1.577292,-1.9439536 -2.466963,-2.4923384 -0.365778,-0.2254625 -0.665053,-0.426633 -0.665053,-0.4470462 0,-0.020412 0.03421,-0.015681 0.076,0.010527 0.04181,0.026198 0.076,-0.00853 0.076,-0.077073 0,-0.077394 -0.03605,-0.1040739 -0.09501,-0.070315 -0.07096,0.040623 -0.07352,0.030719 -0.01013,-0.039128 0.06593,-0.072644 0.167737,-0.052782 0.456037,0.088939 0.501584,0.2465763 1.372341,0.8359002 1.802758,1.2200978 0.310422,0.277089 1.266619,1.4028258 1.266619,1.4912008 0,0.01827 0.176209,0.339438 0.391575,0.713706 0.215366,0.374268 0.484827,0.900776 0.598802,1.170017 0.113975,0.269242 0.228601,0.454462 0.254722,0.411601 0.02613,-0.04286 0.02795,-0.129578 0.004,-0.192703 -0.02389,-0.06313 -0.0072,-0.137423 0.03689,-0.165109 0.0494,-0.03096 0.06511,0.0031 0.04083,0.08854 -0.02198,0.07734 5.16e-4,0.06171 0.05082,-0.03527 0.119744,-0.230955 0.02913,-0.309177 -0.158598,-0.1369 -0.145598,0.133619 -0.148738,0.132302 -0.108372,-0.04543 0.02286,-0.100669 0.04452,-0.224864 0.04813,-0.275989 0.0036,-0.05113 0.03507,-0.07509 0.0699,-0.05326 0.110455,0.06922 0.06901,-0.156726 -0.117066,-0.638213 -0.194715,-0.503835 -0.528671,-1.052853 -0.597796,-0.982757 -0.02347,0.0238 -0.03754,-0.01974 -0.03126,-0.09675 0.0064,-0.07947 -0.03212,-0.130861 -0.08925,-0.118841 -0.05536,0.01165 -0.08288,-0.008 -0.06116,-0.04364 0.05289,-0.086779 -0.102474,-0.5273548 -0.313224,-0.8882068 -0.202435,-0.3466154 -0.209802,-0.3926649 -0.05306,-0.3316694 0.07179,0.027932 0.09853,0.014021 0.06832,-0.035543 -0.0273,-0.044795 -0.09498,-0.063804 -0.150402,-0.042237 -0.11187,0.04353 -0.313832,-0.1579014 -0.236719,-0.2360978 0.02686,-0.027244 0.04884,-0.00908 0.04884,0.040403 0,0.049453 0.05985,0.091021 0.133011,0.092372 0.209431,0.00385 0.409343,0.1874862 0.311802,0.2864002 -0.08634,0.08755 -0.0282,0.250675 0.08933,0.250675 0.03802,0 0.04984,-0.0607 0.02624,-0.134882 -0.02359,-0.07418 0.04011,0.0039 0.141554,0.173419 0.101441,0.169566 0.293472,0.470375 0.426733,0.668465 0.133262,0.1980918 0.296497,0.4929028 0.362746,0.6551398 0.06625,0.162236 0.184407,0.438457 0.262574,0.613824 0.07817,0.175367 0.196306,0.487522 0.262533,0.693678 0.06622,0.206155 0.141136,0.426852 0.166466,0.49044 0.02533,0.06358 0.0492,0.132954 0.05306,0.15415 0.0038,0.0212 0.08871,0.17213 0.188554,0.33541 0.146924,0.240255 0.161754,0.309277 0.07777,0.361917 -0.05709,0.03577 -0.07813,0.09106 -0.04678,0.122848 0.08394,0.08512 0.288563,0.103037 0.238495,0.02089 -0.02357,-0.03867 -0.0024,-0.07031 0.04694,-0.07031 0.0665,0 0.06784,-0.02683 0.0052,-0.103435 -0.04655,-0.05689 -0.0593,-0.131818 -0.0283,-0.166508 0.03099,-0.03469 0.01359,-0.03813 -0.03866,-0.0076 -0.05226,0.0305 -0.09501,0.01871 -0.09501,-0.02618 0,-0.0449 0.04275,-0.08436 0.09501,-0.08771 0.0755,-0.0049 0.0754,-0.0141 -4.59e-4,-0.04513 -0.05251,-0.02147 -0.07615,-0.07076 -0.05252,-0.109528 0.02362,-0.03877 0.0096,-0.07049 -0.03119,-0.07049 -0.04078,0 -0.08812,0.04246 -0.105173,0.09436 -0.01705,0.0519 -0.0509,0.01725 -0.07521,-0.077 -0.0243,-0.09424 -0.0132,-0.190778 0.02469,-0.214518 0.03788,-0.02373 0.06887,-0.0064 0.06887,0.03846 0,0.0449 0.03421,0.08162 0.076,0.08162 0.09282,0 0.06672,-0.171299 -0.038,-0.249314 -0.04642,-0.03458 -0.03728,-0.05708 0.02349,-0.05781 0.05472,-6.41e-4 0.07777,-0.03684 0.0512,-0.08042 C 18.9072,12.129034 18.87157,11.981626 18.85459,11.845045 18.744983,10.963465 18.447244,10.031117 17.932993,8.9591452 17.547953,8.1569196 16.804318,7.2722501 16.179432,6.8732799 15.981016,6.7465966 15.670798,6.5502541 15.490061,6.4369634 15.240215,6.2803541 15.180847,6.2072763 15.242382,6.1320885 c 0.04452,-0.054387 0.05949,-0.1206431 0.03327,-0.1472285 -0.04784,-0.048509 0.258846,0.033168 0.543025,0.1446242 0.221781,0.086986 1.072739,0.7139742 1.486395,1.0951851 0.788342,0.7265058 1.59168,2.4147559 1.860383,3.9096757 0.06858,0.381521 0.164662,0.900955 0.213523,1.154295 l 0.08884,0.460619 0.27292,-0.576232 C 21.128308,9.2433662 20.46364,6.0515986 18.288876,5.2011146 17.776381,5.0006933 17.615237,4.9761454 16.692748,4.957966 15.546324,4.935371 15.169804,4.988658 14.070538,5.3290569 13.205101,5.5970487 12.431112,5.9708557 11.871105,6.3913018 11.536456,6.642552 10.491707,7.5640708 10.384245,7.7027841 10.363345,7.7297621 10.089721,7.9305125 9.7761968,8.1488913 8.844432,8.7978902 8.071134,9.8007792 7.721542,10.81357 c -0.2081799,0.603108 -0.2922324,2.137308 -0.1511082,2.758149 0.1526137,0.671388 0.5724094,1.487675 0.9204254,1.789754 0.3410786,0.296057 2.8052668,1.566374 3.1094828,1.602973 0.104508,0.01257 0.238053,-0.0074 0.296766,-0.04447 0.07304,-0.04608 0.08963,-0.03924 0.05252,0.02164 -0.03313,0.05436 -7.51e-4,0.09071 0.08326,0.09343 0.07562,0.0025 0.308509,0.08671 0.517526,0.187271 0.375963,0.180871 0.524828,0.147711 0.329134,-0.07331 -0.05561,-0.06281 -0.203724,-0.252379 -0.329134,-0.421257 -0.12541,-0.168879 -0.269029,-0.292981 -0.319155,-0.275785 -0.05229,0.01795 -0.07391,-0.01426 -0.05072,-0.07555 0.02521,-0.06663 -0.13643,-0.246084 -0.429602,-0.476955 -0.547017,-0.430773 -1.059578,-0.699909 -1.461707,-0.767516 -0.156763,-0.02636 -0.285023,-0.08022 -0.285023,-0.119692 0,-0.03948 -0.03673,-0.04876 -0.08162,-0.02061 -0.04489,0.02813 -0.03666,-0.02185 0.01829,-0.111065 0.05494,-0.08921 0.156475,-0.162215 0.225623,-0.162215 0.213434,0 1.160988,0.317585 1.28781,0.431626 0.066,0.05934 0.144391,0.1079 0.174209,0.1079 0.123125,0 0.716861,0.518504 1.035904,0.904642 0.188114,0.227677 0.379914,0.456698 0.42622,0.508938 0.04631,0.05224 0.186012,0.275767 0.310458,0.496728 0.124445,0.220961 0.249021,0.378671 0.276835,0.350465 0.02781,-0.02821 0.05057,0.02264 0.05057,0.113002 0,0.233262 0.271026,0.368332 0.425257,0.211931 0.169865,-0.172255 0.258798,-0.147036 0.258798,0.07339 0,0.105979 -0.03622,0.192688 -0.08049,0.192688 -0.04427,0 -0.05664,0.03914 -0.02749,0.08698 0.03528,0.05789 0.07941,0.03856 0.131979,-0.05781 0.04343,-0.07963 0.132759,-0.188637 0.198499,-0.24224 z m -0.711655,-0.149712 c -0.04125,-0.109848 -0.03252,-0.118701 0.04255,-0.04314 0.05194,0.05229 0.0753,0.114475 0.0519,0.138205 -0.0234,0.02373 -0.0659,-0.01905 -0.09444,-0.09506 z m 0.448948,-0.08459 c -0.0406,-0.02949 -0.08462,-0.105641 -0.09785,-0.169229 -0.01927,-0.09266 0.0025,-0.0892 0.109486,0.01743 0.134535,0.134052 0.125535,0.251445 -0.01163,0.151795 z m -0.62431,-0.382156 c 0.0071,-0.09485 0.03973,-0.172448 0.07264,-0.172448 0.07931,0 0.07389,0.08933 -0.01398,0.230254 -0.05617,0.09009 -0.06874,0.07772 -0.05867,-0.05781 z m 0.251804,-0.0096 c -0.02291,-0.03759 0.01783,-0.115626 0.09052,-0.173418 0.116759,-0.09282 0.12117,-0.09076 0.03782,0.01762 -0.05189,0.06749 -0.07184,0.145526 -0.04434,0.17342 0.02751,0.0279 0.02923,0.05071 0.0038,0.05071 -0.0254,0 -0.06493,-0.03076 -0.08783,-0.06834 z m 1.055697,-0.06986 c 0.02186,-0.02217 0.0017,-0.08686 -0.0449,-0.143743 -0.06411,-0.07834 -0.05826,-0.103436 0.02413,-0.103436 0.108298,0 0.438263,0.215201 0.365861,0.238612 -0.112585,0.0364 -0.379066,0.04302 -0.345093,0.0085 z m -1.555059,-0.09758 c 0,-0.0449 0.03421,-0.06019 0.076,-0.03398 0.04181,0.0262 0.076,0.06293 0.076,0.08162 0,0.01869 -0.03421,0.03399 -0.076,0.03399 -0.0418,0 -0.076,-0.03674 -0.076,-0.08162 z m 0.152013,-0.149602 c -0.06851,-0.0449 -0.07788,-0.07518 -0.02349,-0.0759 0.04978,-6.5e-4 0.111661,0.0335 0.137496,0.0759 0.05832,0.09569 0.03201,0.09569 -0.114008,0 z m 0.202017,-0.111687 c -0.0282,-0.0745 -0.0057,-0.09747 0.06744,-0.069 0.06034,0.02348 0.09078,0.07374 0.06765,0.111688 -0.05825,0.09558 -0.0861,0.08678 -0.135088,-0.04269 z m 2.021455,-1.176994 c 0.0062,-0.08251 0.05506,-0.150016 0.108726,-0.150016 0.07679,0 0.07813,0.026 0.0063,0.122035 -0.05021,0.06712 -0.09914,0.134628 -0.108725,0.150017 -0.0096,0.01539 -0.01242,-0.03952 -0.0063,-0.122036 z m -1.656553,-0.02669 c -0.02755,-0.04521 -0.0338,-0.09873 -0.01388,-0.118936 0.01993,-0.0202 0.05648,0.01679 0.08123,0.0822 0.0514,0.135814 0.0076,0.159705 -0.06736,0.03673 z m 1.224109,-0.357655 c -0.04125,-0.109847 -0.03252,-0.118701 0.04255,-0.04314 0.05194,0.05229 0.0753,0.114475 0.0519,0.138205 -0.0234,0.02373 -0.0659,-0.01905 -0.09444,-0.09506 z m -1.34926,-0.07525 c 0.05487,-0.02227 0.120422,-0.01952 0.145678,0.0061 0.02526,0.02561 -0.01963,0.04382 -0.09976,0.04048 -0.08854,-0.0037 -0.106553,-0.02196 -0.04592,-0.04657 z m 0.964327,-0.02443 c 0.02583,-0.04239 0.06205,-0.07707 0.08049,-0.07707 0.01843,0 0.03352,0.03468 0.03352,0.07707 0,0.04239 -0.03622,0.07707 -0.0805,0.07707 -0.04427,0 -0.05935,-0.03469 -0.03352,-0.07707 z m -0.625431,-0.142785 c 0.02862,-0.09258 -0.456227,-0.740382 -0.905007,-1.20919 -0.389294,-0.406666 -1.222859,-0.985674 -1.974045,-1.371204 -0.356273,-0.18285 -1.144757,-0.450194 -1.7276335,-0.585772 -0.2858578,-0.06649 -0.5081755,-0.155579 -0.49404,-0.19797 0.041318,-0.123898 0.9756475,-0.06047 1.5701385,0.106586 0.600832,0.168841 1.271053,0.492189 1.913403,0.923119 0.500297,0.335632 1.520557,1.300669 1.520557,1.438254 0,0.05366 0.05347,0.118376 0.118826,0.143808 0.06536,0.02543 0.09517,0.08504 0.06627,0.132476 -0.0289,0.04744 -0.01669,0.108721 0.02716,0.136198 0.04385,0.02748 0.10207,0.140276 0.129391,0.25066 0.03976,0.160672 0.01875,0.2089 -0.105386,0.241818 -0.08528,0.02261 -0.148116,0.01866 -0.139633,-0.0088 z m 2.442445,-1.564568 c -0.03621,-0.05942 -0.02076,-0.06813 0.04631,-0.02611 0.071,0.0445 0.08771,0.02885 0.05668,-0.05313 -0.03372,-0.08909 -4.88e-4,-0.107793 0.142293,-0.08012 0.207349,0.0402 0.207618,0.03843 -0.02453,0.160818 -0.124984,0.06589 -0.179932,0.06553 -0.220761,-0.0015 z m -0.112694,-0.701246 c -0.0032,-0.05299 -0.01725,-0.156903 -0.03123,-0.230919 -0.01398,-0.07402 0.0039,-0.152982 0.03985,-0.175479 0.03589,-0.0225 0.05131,0.03257 0.03425,0.122378 -0.02359,0.124261 -0.0019,0.151959 0.09073,0.115907 0.09591,-0.03732 0.103469,-0.02505 0.03564,0.05783 -0.04735,0.05786 -0.06359,0.128022 -0.03609,0.155914 0.02751,0.02789 0.01011,0.05072 -0.03866,0.05072 -0.04877,0 -0.09129,-0.04336 -0.09449,-0.09634 z m 1.791817,-0.443415 c -0.04055,-0.06654 -0.0316,-0.08202 0.02641,-0.04567 0.129194,0.08097 0.106721,-0.03631 -0.03804,-0.198528 -0.07526,-0.08434 -0.09053,-0.140951 -0.038,-0.140951 0.04828,0 0.08779,0.03214 0.08779,0.07142 0,0.03928 0.05302,0.08264 0.117819,0.09634 0.102157,0.02161 0.103699,0.0444 0.0116,0.171478 -0.08261,0.113984 -0.119851,0.124185 -0.167565,0.0459 z M 18.413187,11.72922 c -0.02567,-0.04211 0.0043,-0.119431 0.06651,-0.171816 0.123578,-0.104004 0.149385,-0.02244 0.04551,0.143814 -0.03969,0.06353 -0.08366,0.07451 -0.112008,0.02801 z m -2.974574,-0.248187 c -0.02583,-0.04239 -0.01075,-0.07707 0.03352,-0.07707 0.04427,0 0.08049,0.03469 0.08049,0.07707 0,0.04239 -0.01509,0.07707 -0.03352,0.07707 -0.01843,0 -0.05465,-0.03469 -0.08049,-0.07707 z m 2.840533,-0.134881 c -0.0923,-0.119341 -0.09037,-0.123858 0.01669,-0.0392 0.06656,0.05262 0.148992,0.06997 0.1832,0.03854 0.03421,-0.03143 0.03759,-0.01378 0.0075,0.0392 -0.07067,0.124531 -0.08308,0.122224 -0.20741,-0.03854 z m -3.54004,-0.371293 C 14.255797,10.274556 14.087875,10.093566 13.612753,9.7608552 13.063826,9.3764592 11.871318,8.7562423 11.505299,8.6647779 11.39034,8.6360486 11.296282,8.5795802 11.296282,8.5392785 c 0,-0.040293 0.04275,-0.047225 0.09501,-0.015387 0.06456,0.03933 0.06157,0.016084 -0.0093,-0.072525 -0.09096,-0.1137198 -0.0861,-0.1304568 0.038,-0.1307896 0.212611,-5.823e-4 1.261781,0.3650314 1.54843,0.5395771 0.702231,0.4276002 1.135817,0.7157292 1.298726,0.8630382 0.272764,0.2466453 0.577612,0.7457208 0.638662,1.0455768 0.03314,0.162756 0.0824,0.232157 0.139961,0.197161 0.04886,-0.0297 0.04188,0.0047 -0.0155,0.0764 -0.132916,0.166165 -0.129365,0.166988 -0.291168,-0.06746 z M 19.176897,8.4458416 C 18.991156,8.048223 18.700058,7.5319183 18.530013,7.2984999 18.359968,7.0650806 18.244691,6.8472438 18.273842,6.8144191 c 0.02915,-0.032828 0.01483,-0.037597 -0.03185,-0.0106 -0.104532,0.060457 -0.365613,-0.2170986 -0.302153,-0.321224 0.02526,-0.041439 0.0059,-0.088866 -0.04292,-0.1053788 C 17.79141,6.3415453 17.73999,6.085778 17.838329,6.085778 c 0.07033,0 0.847945,0.8053396 1.129386,1.1696494 0.296397,0.3836693 0.627834,1.1597944 0.657202,1.5389704 0.01595,0.2059134 -0.0023,0.3743894 -0.04066,0.3743894 -0.03831,0 -0.221625,-0.3253239 -0.407366,-0.7229434 z m -4.010875,-0.820359 c -0.276962,-0.07777 -0.60814,-0.3102944 -0.558338,-0.3920093 0.023,-0.037762 -0.0135,-0.068646 -0.08115,-0.068646 -0.07361,0 -0.101206,-0.035726 -0.06875,-0.088985 0.03373,-0.05534 0.02084,-0.06805 -0.0341,-0.033617 -0.04858,0.030453 -0.141818,0.0011 -0.207188,-0.065171 -0.06537,-0.066289 -0.162016,-0.1205266 -0.214768,-0.1205266 -0.05275,0 -0.09591,-0.05148 -0.09591,-0.1143901 0,-0.070535 0.03157,-0.089599 0.08234,-0.049719 0.04528,0.03557 0.187526,0.1004693 0.316089,0.1442263 0.128561,0.043759 0.459998,0.2366333 0.736526,0.4286147 0.485719,0.3372145 0.533588,0.4748907 0.125243,0.3602236 z M 14.249632,18.04089 c 0.05672,-0.03644 0.07382,-0.0843 0.038,-0.106343 -0.03582,-0.02205 -0.109221,0.0083 -0.163124,0.06744 -0.108604,0.119152 -0.03526,0.141955 0.12512,0.0389 z m 1.336612,-0.309568 c 0.02342,-0.03843 -0.02586,-0.05174 -0.109523,-0.02954 -0.177474,0.04706 -0.199908,0.09943 -0.04259,0.09943 0.06024,0 0.128691,-0.03145 0.152117,-0.06988 z m 0.04238,-0.195327 c 0,-0.01869 -0.03421,-0.05542 -0.076,-0.08162 -0.0418,-0.0262 -0.076,-0.0109 -0.076,0.03399 0,0.0449 0.03421,0.08162 0.076,0.08162 0.04181,0 0.076,-0.0153 0.076,-0.03399 z M 15.93562,17.07692 c -0.0381,-0.10162 -0.0458,-0.211232 -0.01712,-0.243583 0.02868,-0.03235 0.0089,-0.03353 -0.04409,-0.0027 -0.05294,0.03092 -0.08386,0.07983 -0.06873,0.1087 0.01514,0.02887 0.04883,0.113178 0.07486,0.187363 0.02604,0.07418 0.06467,0.134882 0.08585,0.134882 0.02118,0 0.0073,-0.08314 -0.03076,-0.184763 z m 0.351723,-0.23576 c 0,-0.06172 -0.02906,-0.09401 -0.06458,-0.07174 -0.03551,0.02226 -0.0449,0.07276 -0.02085,0.112222 0.06146,0.100843 0.08542,0.08949 0.08542,-0.04048 z m -1.000747,-0.196079 c 0.02583,-0.04239 0.01277,-0.07707 -0.02903,-0.07707 -0.04181,0 -0.09714,0.03469 -0.122981,0.07707 -0.02583,0.04239 -0.01277,0.07707 0.02904,0.07707 0.04181,0 0.09714,-0.03469 0.122981,-0.07707 z m 0.825551,-0.115613 c 0.02406,-0.06358 0.01062,-0.115612 -0.02988,-0.115612 -0.04049,0 -0.07362,0.05203 -0.07362,0.115612 0,0.06359 0.01344,0.115613 0.02987,0.115613 0.01643,0 0.04956,-0.05202 0.07362,-0.115613 z m -0.179499,-0.05039 c 0,-0.03088 -0.03421,-0.07756 -0.076,-0.10376 -0.0418,-0.0262 -0.076,-0.01199 -0.076,0.03157 0,0.04357 -0.05692,0.05706 -0.126477,0.02999 -0.08169,-0.03179 -0.108076,-0.01903 -0.07451,0.03606 0.05643,0.09258 0.352999,0.09775 0.352999,0.0061 z M 15.148499,16.0911 c -0.02427,-0.06148 -0.04227,-0.04323 -0.04592,0.04657 -0.0033,0.08125 0.01466,0.126773 0.03992,0.101161 0.02526,-0.02561 0.02796,-0.09209 0.006,-0.147728 z m 1.890111,-0.477042 c 0.0076,-0.145012 -0.02075,-0.173198 -0.142061,-0.141029 -0.102144,0.02708 -0.133868,0.0111 -0.09723,-0.04901 0.0299,-0.04907 0.01816,-0.08921 -0.02612,-0.08921 -0.04427,0 -0.0805,0.05203 -0.0805,0.115613 0,0.06782 0.0707,0.116582 0.171014,0.117957 0.150059,0.002 0.155102,0.01176 0.04116,0.07911 -0.07494,0.04431 -0.110849,0.126991 -0.08491,0.195525 0.06136,0.16215 0.206023,0.01066 0.218645,-0.228949 z m 0.152228,-0.503768 c -0.06259,-0.102696 -0.34612,-0.111823 -0.34612,-0.01114 0,0.03996 -0.06841,0.05929 -0.152012,0.04297 -0.08361,-0.01633 -0.152013,0.0055 -0.152013,0.04848 0,0.09637 0.378044,0.0637 0.527272,-0.04556 0.08832,-0.06467 0.09837,-0.05047 0.05251,0.07417 -0.04329,0.117624 -0.03563,0.132913 0.03235,0.06453 0.049,-0.04929 0.06611,-0.127335 0.03802,-0.17342 z m -6.996643,-0.237936 c 0.02583,-0.04239 0.01277,-0.07707 -0.02904,-0.07707 -0.0418,0 -0.09714,0.03469 -0.12298,0.07707 -0.02583,0.04239 -0.01277,0.07707 0.02904,0.07707 0.0418,0 0.09714,-0.03469 0.12298,-0.07707 z m 7.229837,-0.409645 c 0.05761,0.02242 0.104747,0.0061 0.104747,-0.03632 0,-0.04239 -0.05347,-0.09788 -0.118826,-0.123316 -0.06536,-0.02543 -0.100592,-0.07616 -0.0783,-0.112724 0.02229,-0.03657 -0.04355,-0.05019 -0.146308,-0.03027 -0.102757,0.01992 -0.175401,0.05827 -0.161432,0.08521 0.01397,0.02694 0.04889,0.115491 0.07761,0.196764 0.03765,0.10657 0.0753,0.124366 0.134991,0.06382 0.04553,-0.04617 0.129912,-0.0656 0.187523,-0.04317 z m -0.275283,-0.129883 c 0,-0.04239 0.03421,-0.07707 0.076,-0.07707 0.04181,0 0.076,0.03469 0.076,0.07707 0,0.04239 -0.03421,0.07707 -0.076,0.07707 -0.0418,0 -0.076,-0.03469 -0.076,-0.07707 z M 17.650597,14.1921 c -0.114456,-0.116066 -0.116565,-0.10984 -0.02783,0.08213 0.05281,0.114241 0.108542,0.170755 0.123845,0.125586 0.0153,-0.04517 -0.02791,-0.13864 -0.09602,-0.207712 z m 3.642497,-0.442667 c 0.03491,-0.225686 0.0348,-0.225645 -0.113364,0.04387 -0.179507,0.326529 -0.196568,0.460895 -0.03813,0.300219 0.0641,-0.06501 0.132272,-0.219842 0.151487,-0.344085 z m -2.776235,0.01357 c 0,-0.01666 -0.05308,-0.05095 -0.117957,-0.07619 -0.06764,-0.02632 -0.09815,-0.0134 -0.07152,0.03029 0.04464,0.07324 0.189478,0.108326 0.189477,0.0459 z m 3.539225,-0.170542 c 0.210521,-0.05358 0.830685,-1.16169 0.913922,-1.633002 0.09081,-0.51415 0.411241,-0.711043 0.411241,-0.252688 0,0.272302 -0.27357,1.151607 -0.408011,1.311426 -0.211435,0.251344 -0.2283,0.33213 -0.05789,0.277285 0.08865,-0.02853 0.409307,-0.09383 0.712574,-0.145107 l 0.551392,-0.09323 0.0382,-0.383409 c 0.0438,-0.439696 -0.09574,-1.481113 -0.266998,-1.992639 -0.119153,-0.355893 -0.848622,-1.5176238 -1.108782,-1.7658128 -0.140963,-0.1344778 -0.144533,-0.1278112 -0.144475,0.269762 1.11e-4,0.7711773 -0.328769,2.2564468 -0.644932,2.9125928 -0.188775,0.391771 -0.330305,0.900083 -0.371407,1.3339 -0.02204,0.232681 -0.0048,0.284443 0.08327,0.250166 0.06109,-0.02377 0.192443,-0.06393 0.291905,-0.08924 z m 1.586283,-1.321402 c -0.0252,-0.116577 -0.05831,-0.253545 -0.07359,-0.304375 -0.01528,-0.05083 0.01322,-0.0763 0.06335,-0.0566 0.116921,0.04595 0.35732,0.470002 0.299622,0.528511 -0.106854,0.108359 -0.247351,0.02702 -0.289393,-0.167535 z m -5.359272,1.115826 c 0.09115,-0.120633 0.08717,-0.130388 -0.03397,-0.08324 -0.101797,0.03961 -0.121164,0.02704 -0.07501,-0.04868 0.03523,-0.05781 0.03239,-0.08371 -0.0065,-0.05972 -0.101508,0.06254 -0.237595,-0.117971 -0.213651,-0.283399 0.01143,-0.07899 0.06144,-0.169096 0.11111,-0.20023 0.04968,-0.03113 0.07457,-0.103975 0.05531,-0.161867 -0.02182,-0.0656 -0.08422,-0.0091 -0.165609,0.149906 -0.11092,0.216723 -0.116062,0.288455 -0.03413,0.476161 0.05306,0.121548 0.123411,0.20411 0.156345,0.18347 0.03293,-0.02064 0.05988,0.02233 0.05988,0.09548 0,0.07316 0.0097,0.118556 0.02151,0.100893 0.01183,-0.01766 0.06797,-0.09361 0.124759,-0.168761 z m -0.0386,-0.468924 c -0.02636,-0.06965 -0.07876,-0.126645 -0.116442,-0.126645 -0.03769,0 -0.02677,0.06779 0.02426,0.150645 0.107585,0.174696 0.162012,0.160525 0.09219,-0.024 z"
         id="path1" /></g></g></svg>
