<?xml version="1.0" encoding="UTF-8" standalone="no"?>
<!-- Created with Inkscape (http://www.inkscape.org/) -->

<svg
   width="128mm"
   height="128mm"
   viewBox="0 0 128 128"
   version="1.1"
   id="svg5"
   xml:space="preserve"
   inkscape:version="1.2.2 (b0a8486541, 2022-12-01)"
   sodipodi:docname="otherFungi_puro.svg"
   xmlns:inkscape="http://www.inkscape.org/namespaces/inkscape"
   xmlns:sodipodi="http://sodipodi.sourceforge.net/DTD/sodipodi-0.dtd"
   xmlns="http://www.w3.org/2000/svg"
   xmlns:svg="http://www.w3.org/2000/svg"><sodipodi:namedview
     id="namedview7"
     pagecolor="#ffffff"
     bordercolor="#000000"
     borderopacity="0.25"
     inkscape:showpageshadow="2"
     inkscape:pageopacity="0.0"
     inkscape:pagecheckerboard="0"
     inkscape:deskcolor="#d1d1d1"
     inkscape:document-units="mm"
     showgrid="false"
     inkscape:zoom="0.60881013"
     inkscape:cx="177.39521"
     inkscape:cy="294.83741"
     inkscape:window-width="1854"
     inkscape:window-height="1011"
     inkscape:window-x="0"
     inkscape:window-y="0"
     inkscape:window-maximized="1"
     inkscape:current-layer="layer1" /><defs
     id="defs2" /><g
     inkscape:label="Camada 1"
     inkscape:groupmode="layer"
     id="layer1"><path
       style="fill:#616161;stroke-width:0.493587;fill-opacity:1"
       d="m 49.826013,112.23042 c -1.68941,-1.59784 -2.06753,-1.74047 -3.76224,-1.41922 -2.46556,0.46737 -5.47351,0.41116 -8.87442,-0.16585 -2.32669,-0.39476 -3.02668,-0.78471 -4.53652,-2.52723 -0.98192,-1.13324 -3.41785,-2.95824 -5.41316,-4.05555 -3.81215,-2.09646 -5.99911,-4.614696 -8.21079,-9.454547 -3.24359,-7.098002 -3.56967,-24.315808 -0.51359,-27.11961 0.51482,-0.472321 0.93603,-1.443683 0.93603,-2.158578 0,-0.714895 0.56534,-2.037606 1.25631,-2.939359 1.45764,-1.902297 1.38561,-2.305515 -1.70787,-9.560432 -2.00134,-4.693617 -3.03091,-9.670511 -2.59337,-12.536274 0.59939,-3.92587 1.81022,-7.174504 3.52084,-9.446331 0.96392,-1.280164 2.18287,-3.259915 2.70877,-4.399447 1.39446,-3.021524 5.67494,-7.139397 9.6221,-9.256569 3.61114,-1.93694 10.4101,-3.578709 12.92395,-3.120794 5.08902,0.926998 6.64982,1.804584 10.04535,5.648177 l 2.56939,2.908442 1.43425,-1.849164 c 1.74907,-2.255065 3.98235,-3.053304 6.47789,-2.315385 2.17048,0.641804 5.08322,3.323348 5.08322,4.679754 0,0.891562 0.39679,0.981876 4.3569,0.991674 5.79115,0.01433 9.33941,0.899282 13.31275,3.320274 3.8105,2.321774 8.81642,7.691493 10.67281,11.44845 1.655457,3.350285 2.744647,8.677545 2.744647,13.424056 0,3.545494 -0.1083,3.964643 -1.46184,5.657515 -1.381147,1.727399 -1.405447,1.828333 -0.440064,1.828333 1.341274,0 2.451864,0.683178 4.425314,2.722217 2.3633,2.441828 3.13199,4.480567 3.10812,8.2434 -0.0221,3.483079 -0.82171,6.622407 -2.07373,8.141638 -0.7268,0.881911 -0.66351,0.982658 1.10571,1.760025 1.61628,0.710168 2.10912,1.34277 3.55224,4.559571 1.90735,4.25158 1.97738,5.028658 0.89477,9.928167 -0.81859,3.704648 -1.51557,4.57159 -6.71424,8.351577 -0.7825,0.56896 -3.30167,2.45272 -5.598137,4.18614 -8.12244,6.13095 -12.80401,6.28806 -23.08287,0.77462 -1.37411,-0.73706 -3.22874,-2.13535 -4.1214,-3.10733 -1.58706,-1.72808 -1.62309,-1.73954 -1.62612,-0.51724 -0.004,1.59532 -1.14921,3.43889 -3.52952,5.68165 -3.07441,2.89676 -3.7221,3.12554 -9.35233,3.3034 l -5.26098,0.1662 z"
       id="path9773"
       inkscape:transform-center-x="159.25549"
       inkscape:transform-center-y="2.2476497" /></g></svg>
