<?xml version="1.0" encoding="UTF-8" standalone="no"?>
<!-- Created with Inkscape (http://www.inkscape.org/) -->

<svg
   width="128"
   height="128"
   viewBox="0 0 33.866666 33.866666"
   version="1.1"
   id="svg1"
   xml:space="preserve"
   inkscape:version="1.4.2 (f4327f4, 2025-05-13)"
   sodipodi:docname="otherFungi.svg"
   xmlns:inkscape="http://www.inkscape.org/namespaces/inkscape"
   xmlns:sodipodi="http://sodipodi.sourceforge.net/DTD/sodipodi-0.dtd"
   xmlns="http://www.w3.org/2000/svg"
   xmlns:svg="http://www.w3.org/2000/svg"><sodipodi:namedview
     id="namedview1"
     pagecolor="#ffffff"
     bordercolor="#000000"
     borderopacity="0.25"
     inkscape:showpageshadow="2"
     inkscape:pageopacity="0.0"
     inkscape:pagecheckerboard="0"
     inkscape:deskcolor="#d1d1d1"
     inkscape:document-units="mm"
     inkscape:zoom="1.07"
     inkscape:cx="49.53271"
     inkscape:cy="58.411215"
     inkscape:window-width="1600"
     inkscape:window-height="837"
     inkscape:window-x="-8"
     inkscape:window-y="-8"
     inkscape:window-maximized="1"
     inkscape:current-layer="layer1" /><defs
     id="defs1" /><g
     inkscape:label="Camada 1"
     inkscape:groupmode="layer"
     id="layer1"><g
       id="g2"><path
         style="fill:#626262;fill-opacity:1"
         d="m 8.1343715,32.108998 c -0.02394,-0.05536 0.166976,-0.378518 0.42525,-0.719815 1.1975028,-1.582448 2.1790435,-3.157276 2.7058115,-4.341323 0.1031,-0.231745 0.213941,-0.452956 0.246313,-0.491581 0.176357,-0.210419 0.857241,-2.224415 1.141863,-3.377534 0.03186,-0.129088 -0.01932,-0.157779 -0.417101,-0.233818 -0.24938,-0.04767 -0.605571,-0.181452 -0.791535,-0.297293 -0.237898,-0.148191 -0.49043,-0.229763 -0.851993,-0.275206 -0.8250717,-0.103699 -1.2627197,-0.415807 -1.6198225,-1.155172 -0.08873,-0.183704 -0.298819,-0.452434 -0.466873,-0.597176 -0.18492,-0.15927 -0.374555,-0.425671 -0.480334,-0.674778 -0.151893,-0.357706 -0.167875,-0.491612 -0.122044,-1.022509 0.04419,-0.51189 0.02938,-0.65416 -0.09136,-0.877823 -0.177295,-0.328416 -0.190393,-1.043591 -0.02435,-1.329518 0.06435,-0.110809 0.250669,-0.388081 0.414045,-0.616158 0.248175,-0.34646 0.297047,-0.476568 0.297047,-0.790806 0,-0.488901 0.242846,-0.948364 0.7206678,-1.363501 l 0.370352,-0.321766 -0.07644,-0.380493 C 9.4718283,13.033457 9.3954823,12.828507 9.3442153,12.787284 9.2929453,12.746064 8.8949275,12.590229 8.4597245,12.440989 6.3712665,11.724817 5.1095675,10.785755 4.1584385,9.2396123 3.7619235,8.5950427 3.7435095,8.4310584 4.0606995,8.3692292 L 4.2906485,8.3244058 4.1055455,7.9201123 C 3.8338325,7.3266506 3.6624795,6.4087448 3.6890735,5.6891445 l 0.02299,-0.6219803 0.237383,0.0086 0.237384,0.0086 -0.02759,-0.426201 c -0.03818,-0.5896915 0.270561,-2.7074907 0.427578,-2.9329679 0.172191,-0.2472683 1.031118,0.1790384 2.606869,1.2938548 0.994843,0.7038333 1.428143,1.0685482 1.640662,1.3809683 0.09196,0.1351848 0.175348,0.2558806 0.185313,0.2682128 0.01,0.012332 0.09438,-0.019269 0.1875818,-0.070226 0.150888,-0.082492 0.185991,-0.073402 0.320209,0.082916 0.381007,0.4437458 1.2443357,2.0866181 1.4392417,2.7388089 0.141409,0.4731787 0.298972,1.3016675 0.300501,1.580082 0.0019,0.3453816 -0.182814,1.2221629 -0.355901,1.6893769 -0.07074,0.190945 -0.351053,0.757994 -0.622921,1.260109 -0.4460147,0.823746 -0.4872287,0.936949 -0.4218617,1.158727 l 0.07245,0.24579 0.1202607,-0.316016 c 0.129877,-0.341283 0.359722,-0.663724 0.614358,-0.861861 0.247902,-0.192896 0.728346,-0.402205 0.923216,-0.402205 0.113587,0 0.33234,-0.149668 0.616392,-0.421729 0.696603,-0.667195 1.638093,-0.887118 2.399699,-0.560547 0.181289,0.07774 0.532656,0.170358 0.780814,0.205826 0.248158,0.03547 0.552105,0.111378 0.675438,0.168687 0.490972,0.22814 0.920908,0.781019 1.127934,1.450474 0.108373,0.350441 0.83532,1.118541 0.95625,1.010382 0.138303,-0.123697 0.711684,-1.102704 0.710559,-1.213229 -6.33e-4,-0.06224 -0.05764,-0.255377 -0.126682,-0.429186 -0.328999,-0.828242 -0.375142,-1.088618 -0.373361,-2.1067756 0.0017,-0.9581263 0.01676,-1.0576829 0.255382,-1.6854208 0.13948,-0.3669302 0.380144,-0.8725564 0.53481,-1.1236139 0.400791,-0.6505742 1.366856,-1.8258726 1.500821,-1.8258726 0.06224,0 0.14934,0.084446 0.193556,0.1876581 l 0.08039,0.187658 0.209262,-0.2754404 c 0.455986,-0.600189 1.910643,-1.7799344 2.60234,-2.1105312 0.321423,-0.1536241 0.406332,-0.098775 0.517523,0.3343038 0.284943,1.1098317 0.388501,2.4988095 0.231148,3.1002996 l -0.06938,0.265221 0.26909,-0.044802 c 0.255303,-0.042507 0.26902,-0.034507 0.267716,0.1561341 -0.002,0.2947688 -0.205358,1.0981294 -0.403011,1.5922064 -0.68456,1.7112015 -2.244859,2.9495425 -4.65979,3.6982695 -0.282882,0.0877 -0.571043,0.203402 -0.640359,0.257103 -0.06932,0.0537 -0.312799,0.414606 -0.541073,0.802008 -0.39062,0.662919 -0.41182,0.72517 -0.360264,1.057858 l 0.05478,0.353489 0.169782,-0.134901 c 0.09338,-0.0742 0.383633,-0.248016 0.645007,-0.386268 0.261373,-0.138251 0.549665,-0.34067 0.640648,-0.44982 0.367262,-0.440594 1.356921,-1.317476 1.812665,-1.606102 0.99145,-0.627892 2.43331,-1.015107 3.780021,-1.015133 0.648621,-1.3e-5 0.822023,0.09008 0.60992,0.316899 -0.08316,0.08893 -0.05803,0.104459 0.169185,0.10454 0.376273,1.36e-4 1.459022,0.177285 1.928537,0.31553 0.217601,0.06407 0.760615,0.27224 1.206698,0.462598 0.608585,0.259704 0.811059,0.379522 0.811059,0.479961 0,0.159767 -0.919027,0.882329 -1.675538,1.31735 -0.290502,0.167049 -0.54413,0.303726 -0.563618,0.303726 -0.01949,0 -0.203012,0.06579 -0.407833,0.146199 -0.332444,0.130512 -0.357697,0.155741 -0.235353,0.235137 0.467932,0.303666 -1.118012,0.70654 -2.735727,0.694951 -1.251089,-0.009 -1.994398,-0.192146 -3.399714,-0.837833 -0.738989,-0.339536 -1.042039,-0.444913 -1.189562,-0.413637 -0.274178,0.05813 -1.094436,0.502494 -1.404651,0.760956 -0.315709,0.263041 -0.327383,0.465013 -0.05374,0.929738 0.124157,0.210852 0.220688,0.514377 0.247722,0.778922 0.0393,0.384606 0.01638,0.486389 -0.203427,0.903265 -0.2143,0.406429 -0.247723,0.547428 -0.247723,1.045063 0,0.709442 -0.226765,1.172868 -0.765693,1.564798 -0.227313,0.165311 -0.449715,0.425035 -0.618167,0.721904 -0.417626,0.735999 -0.966847,1.125157 -1.587942,1.125157 -0.470647,0 -0.619403,0.09434 -0.734303,0.465685 -0.05819,0.188052 -0.134602,0.420916 -0.169814,0.517477 -0.03521,0.09656 -0.141365,0.412577 -0.235897,0.702258 -0.09453,0.289682 -0.202922,0.605699 -0.240868,0.702259 -0.217128,0.552519 -0.642997,1.556221 -0.784,1.847754 l -0.163428,0.337898 0.256442,-0.15895 c 0.141043,-0.08742 0.275584,-0.183078 0.29898,-0.212568 0.06459,-0.08142 1.314647,-0.583828 1.896092,-0.762059 0.70326,-0.215572 1.591267,-0.643382 2.125555,-1.024018 0.01577,-0.01123 0.03359,-0.535669 0.03961,-1.165411 0.0083,-0.87403 0.04606,-1.261317 0.159347,-1.636568 0.274742,-0.910021 0.762173,-1.710625 1.568498,-2.576249 0.603106,-0.647461 0.756039,-0.735458 0.831731,-0.478576 0.04009,0.136061 0.181182,0.200045 0.181182,0.08216 0,-0.109748 0.800062,-0.775941 1.250821,-1.04153 0.472781,-0.278564 1.645581,-0.752145 2.008083,-0.810872 0.350853,-0.05684 0.405964,0.0277 0.444665,0.682085 0.04254,0.719236 -0.100179,1.754175 -0.309837,2.246879 -0.08218,0.193121 -0.149432,0.361291 -0.149454,0.373711 -2.2e-5,0.01242 0.09788,0.01242 0.217561,0 0.356362,-0.03698 0.334255,0.215631 -0.105573,1.206371 -0.378877,0.853442 -1.267968,1.752758 -2.24185,2.267631 -0.787245,0.416201 -1.809471,0.729972 -3.133728,0.961892 -0.320469,0.05612 -0.56643,0.151849 -0.751713,0.292557 l -0.275392,0.209139 0.276947,-0.0431 c 0.152321,-0.02371 0.739844,-0.06057 1.305607,-0.08191 0.81345,-0.03069 1.136266,-0.01424 1.542991,0.07865 0.639027,0.145945 1.234401,0.398313 1.588639,0.673395 0.247896,0.192503 0.25915,0.217569 0.13272,0.295623 -0.125482,0.07747 -0.106545,0.111079 0.206616,0.366732 0.189618,0.154796 0.458162,0.422501 0.596764,0.5949 0.355923,0.442708 0.798626,1.309752 0.798626,1.564126 v 0.214751 l -0.929751,-0.04245 c -0.511363,-0.02334 -1.125592,-0.09082 -1.364953,-0.149951 -0.526867,-0.13015 -0.530286,-0.130357 -0.411464,-0.0249 0.333503,0.295983 -0.237755,0.358731 -0.938049,0.103036 -1.249224,-0.456124 -2.130378,-1.158775 -2.910252,-2.320695 -0.274579,-0.409091 -0.530769,-0.761098 -0.569311,-0.782239 -0.11155,-0.06119 -1.557097,0.378848 -2.284072,0.695286 -0.857475,0.373242 -1.637736,1.003245 -1.988838,1.605838 -0.244115,0.418974 -0.523956,0.879189 -0.907432,1.492326 -0.904379,1.446006 -1.8088187,2.703696 -1.9443027,2.703696 -0.180011,0 -0.151754,-0.222167 0.06427,-0.505275 1.5371387,-2.01452 3.2288427,-4.996926 3.9879047,-7.030519 0.292717,-0.784215 0.769601,-2.225602 0.736341,-2.225602 -0.01324,0 -0.249173,0.113515 -0.524294,0.252256 -0.27512,0.138741 -0.547805,0.273231 -0.605966,0.298867 -0.05816,0.02564 -0.241097,0.520453 -0.406525,1.099592 -0.579084,2.027291 -1.327187,3.629615 -2.687397,5.755995 -0.5809187,0.908134 -1.7249475,2.424912 -1.8289885,2.424912 -0.04403,0 -0.0996,-0.04521 -0.123487,-0.100464 z M 20.530524,28.391069 c -0.109419,-0.255417 0.0346,-0.332878 0.380351,-0.204578 0.497221,0.184505 1.073697,0.292901 1.825634,0.343279 l 0.726245,0.04866 -0.206224,-0.414153 c -0.43678,-0.877168 -0.855898,-1.344839 -1.540025,-1.71843 -0.406157,-0.221796 -0.458152,-0.38804 -0.134668,-0.430577 0.144046,-0.01894 0.114613,-0.05214 -0.184728,-0.208365 -0.5833,-0.304421 -1.09802,-0.428746 -1.918328,-0.46335 -0.838556,-0.03537 -1.66924,0.0289 -1.602994,0.12403 0.02286,0.03283 0.228083,0.113973 0.456053,0.180325 1.318089,0.383641 3.777419,1.593486 3.777419,1.858268 0,0.18588 -0.270383,0.124858 -0.72786,-0.164271 -0.492457,-0.311235 -1.885627,-0.982581 -1.939614,-0.934668 -0.01532,0.0136 0.11621,0.261758 0.292287,0.55147 0.270009,0.444264 0.302586,0.53968 0.208035,0.609323 -0.132854,0.09785 -0.257189,-0.041 -0.717307,-0.801071 -0.361638,-0.597391 -0.472426,-0.679448 -1.1853,-0.87791 -0.307568,-0.08563 -0.643593,-0.184885 -0.746722,-0.220575 -0.247057,-0.0855 -0.207127,0.0048 0.346383,0.78334 0.669299,0.941398 1.535801,1.620257 2.531468,1.98327 0.420437,0.153288 0.443224,0.150501 0.359895,-0.04401 z m -1.163625,-4.217905 c 1.871701,-0.421381 3.191917,-1.29436 3.907313,-2.58367 0.392563,-0.707489 0.48626,-1.00571 0.295578,-0.94077 -0.537856,0.183175 -0.726807,0.06263 -0.450455,-0.287385 0.389316,-0.493085 0.651606,-1.520214 0.651606,-2.551689 v -0.573524 l -0.217601,0.04731 c -0.119681,0.02602 -0.577909,0.203646 -1.018284,0.394724 -1.015988,0.440834 -1.739949,1.006598 -2.061575,1.611088 -0.246931,0.464103 -0.499678,0.578363 -0.501883,0.226889 -0.0025,-0.397619 -0.114822,-0.390045 -0.488492,0.03294 -0.81518,0.922758 -1.243831,1.713417 -1.451768,2.677829 -0.117071,0.542969 -0.14326,1.524893 -0.04862,1.822726 0.05108,0.160735 0.05327,0.160216 0.295923,-0.07023 0.134456,-0.127687 0.40834,-0.414505 0.608631,-0.637373 0.391746,-0.435903 0.375714,-0.382123 0.527194,-1.768485 0.08509,-0.778796 0.164352,-0.977977 0.330484,-0.830535 0.06545,0.05809 0.06545,0.253268 0,0.74583 -0.04876,0.366931 -0.08852,0.724965 -0.08835,0.795631 1.71e-4,0.07066 0.626768,-0.708961 1.392439,-1.732503 0.765671,-1.023542 1.441819,-1.907034 1.502552,-1.963315 0.08674,-0.08038 0.131076,-0.084 0.206717,-0.01687 0.10538,0.09352 0.0056,0.283516 -0.431289,0.821455 -0.594574,0.732048 -2.022484,2.741219 -1.96166,2.760197 0.0807,0.02518 1.289151,-0.503698 1.608206,-0.703831 0.178492,-0.111962 0.242804,-0.121735 0.338289,-0.0514 0.19465,0.143371 -0.02252,0.282718 -1.35145,0.867134 -0.685045,0.30126 -1.258373,0.598457 -1.305611,0.676792 -0.04632,0.07682 -0.350589,0.4237 -0.676149,0.770851 -0.32556,0.347152 -0.542287,0.631184 -0.481617,0.631184 0.06067,0 0.452109,-0.07695 0.869863,-0.171 z M 13.542104,22.40839 c 0.772872,-0.396641 1.000241,-0.47508 1.513362,-0.522083 0.889454,-0.08148 1.127293,-0.240969 1.623278,-1.088549 0.187827,-0.320974 0.387031,-0.551586 0.573981,-0.664478 0.157476,-0.09509 0.37102,-0.291976 0.474542,-0.437516 0.161517,-0.227075 0.188222,-0.352667 0.188222,-0.885195 0,-0.560217 0.02415,-0.6611 0.248255,-1.037227 0.342184,-0.574292 0.352664,-1.047458 0.03553,-1.604262 -0.20885,-0.366689 -0.229075,-0.463789 -0.214947,-1.03196 0.02114,-0.850039 -0.07113,-1.104654 -0.585867,-1.616627 -0.277082,-0.275596 -0.461032,-0.532966 -0.514086,-0.719272 -0.267729,-0.940167 -0.899985,-1.519068 -1.659073,-1.519068 -0.13327,0 -0.462746,-0.08234 -0.732169,-0.182984 -0.79851,-0.298278 -1.525566,-0.128929 -2.008672,0.467867 -0.261815,0.32343 -0.381124,0.389758 -1.01037,0.561699 -0.456959,0.124864 -0.928833,0.582365 -1.099259,1.065778 -0.109632,0.310971 -0.21595,0.4547 -0.4675227,0.632032 -0.79236,0.558533 -1.0122258,0.88437 -1.0876008,1.611808 -0.03827,0.369342 -0.100551,0.53393 -0.292311,0.772484 -0.134022,0.166729 -0.301997,0.404279 -0.373277,0.52789 -0.183066,0.317464 -0.165895,0.913532 0.03811,1.322827 0.151016,0.30299 0.159212,0.382501 0.08236,0.798968 -0.132464,0.717839 0.07044,1.269009 0.607518,1.650224 0.104097,0.07389 0.2944698,0.342439 0.4230488,0.596779 0.36872,0.729353 0.582859,0.875505 1.4407527,0.98333 0.356993,0.04487 0.6194,0.128515 0.855576,0.272728 0.431772,0.263647 0.553895,0.292566 1.109777,0.262792 0.314047,-0.01682 0.569417,-0.08382 0.830842,-0.217985 z m -1.462286,-0.780171 c -0.178919,-0.110766 -0.238343,-0.332626 -0.10821,-0.404004 0.03841,-0.02107 0.164341,0.02768 0.279859,0.108324 0.211334,0.147534 0.603615,0.160578 0.935472,0.03111 0.204409,-0.07975 0.287015,0.163869 0.09731,0.28698 -0.202045,0.131118 -0.979819,0.11665 -1.204431,-0.0224 z M 9.9048083,20.619097 c -0.29356,-0.214754 -0.489218,-0.61082 -0.401719,-0.813187 0.07622,-0.176282 0.292787,-0.07252 0.347912,0.166685 0.06691,0.290354 0.2057447,0.43669 0.5275697,0.55608 0.320921,0.119055 0.343934,0.304196 0.03781,0.304196 -0.127684,0 -0.341476,-0.08934 -0.5115727,-0.213774 z M 13.506,20.12399 c -0.14439,-0.13148 0.0256,-0.274281 0.326492,-0.274281 0.300624,0 0.585188,-0.163747 0.68354,-0.393329 0.110763,-0.258556 0.329279,-0.220011 0.298706,0.05269 -0.04718,0.420815 -1.019956,0.877881 -1.308738,0.61492 z m -2.155739,-0.293957 c -0.293753,-0.131827 -0.556269,-0.522426 -0.556269,-0.827676 0,-0.333103 0.06517,-0.48694 0.206285,-0.48694 0.07801,0 0.110226,0.09308 0.110226,0.318488 0,0.362396 0.174518,0.646938 0.454789,0.741509 0.115691,0.03904 0.17978,0.10964 0.164209,0.180898 -0.03439,0.157356 -0.144973,0.178853 -0.37924,0.07372 z m 4.78301,-0.544778 c -0.02791,-0.04008 0.07681,-0.198179 0.232714,-0.351332 0.24552,-0.241188 0.28346,-0.325428 0.28346,-0.629385 0,-0.258731 0.02996,-0.350928 0.114021,-0.350928 0.422113,0 0.191955,1.113793 -0.276097,1.336107 -0.185163,0.08795 -0.290672,0.08662 -0.354098,-0.0045 z M 9.4156363,17.984353 c -0.08827,-0.07834 -0.125071,-0.244871 -0.125071,-0.56594 0,-0.521063 0.15931,-0.86932 0.397671,-0.86932 0.189727,0 0.195803,0.0795 0.02808,0.367359 -0.09786,0.167947 -0.116177,0.323623 -0.07751,0.658623 0.05387,0.466611 -0.01541,0.593662 -0.22317,0.409278 z m 5.2905007,-0.107686 c -0.02947,-0.04232 0.06219,-0.170787 0.203687,-0.285486 0.244474,-0.198172 0.255066,-0.227477 0.212995,-0.589254 -0.0457,-0.392962 0.02764,-0.525039 0.214948,-0.387079 0.301924,0.222385 0.187174,0.958848 -0.186161,1.194779 -0.256833,0.162307 -0.367526,0.178966 -0.445469,0.06704 z m -2.546582,-0.796428 c -0.33074,-0.246991 -0.474821,-0.674757 -0.339958,-1.009316 0.100602,-0.249567 0.206753,-0.36119 0.345647,-0.363465 0.0361,-5.91e-4 0.04089,0.204047 0.01064,0.454752 -0.05417,0.448902 -0.05113,0.45904 0.199961,0.667206 0.154592,0.128164 0.237044,0.252823 0.209444,0.316657 -0.06357,0.147019 -0.160853,0.131975 -0.425735,-0.06583 z m 4.529169,-0.812459 c -0.02705,-0.03885 -0.0041,-0.181343 0.05105,-0.316653 0.07705,-0.189114 0.07965,-0.314478 0.01122,-0.541993 -0.09463,-0.314653 -0.07495,-0.40501 0.08824,-0.40501 0.153493,0 0.284978,0.318327 0.284978,0.689937 0,0.435666 -0.27726,0.800934 -0.435488,0.573719 z m -6.03702,-1.17575 c 0.04306,-0.397673 0.228587,-0.658237 0.595863,-0.836838 0.20405,-0.09923 0.275671,-0.106695 0.354265,-0.03694 0.07859,0.06975 0.02896,0.140586 -0.24549,0.350368 -0.262267,0.20047 -0.356123,0.329146 -0.395032,0.54159 -0.03567,0.194776 -0.09561,0.286267 -0.199129,0.30396 -0.132462,0.02264 -0.144124,-0.01136 -0.110477,-0.322136 z m 3.914044,0.216406 c -0.02901,-0.02575 -0.05275,-0.184823 -0.05275,-0.353498 0,-0.276052 -0.02766,-0.321163 -0.276947,-0.4517 -0.398717,-0.208783 -0.345185,-0.52073 0.05771,-0.336296 0.355248,0.162622 0.529087,0.363571 0.581168,0.671799 0.06179,0.365676 -0.118234,0.639159 -0.309179,0.469695 z m 1.372754,-1.706828 c -0.04418,-0.07327 -0.08033,-0.187593 -0.08033,-0.254049 0,-0.06646 -0.14243,-0.241076 -0.316511,-0.388046 -0.360513,-0.304366 -0.395887,-0.413294 -0.134213,-0.413294 0.327896,0 0.846363,0.600465 0.846363,0.98022 0,0.183485 -0.218565,0.235592 -0.315304,0.07517 z m -3.720211,-0.391731 c 0,-0.412746 0.412462,-0.816213 0.970819,-0.949649 0.259833,-0.06209 0.338919,-0.05646 0.437687,0.0312 0.131034,0.116293 0.14691,0.106348 -0.527677,0.330574 -0.272153,0.09046 -0.56349,0.423127 -0.564022,0.644033 -1.83e-4,0.07599 -0.0607,0.122895 -0.158551,0.122895 -0.116876,0 -0.158256,-0.04682 -0.158256,-0.179053 z m 13.926482,1.957918 c 0.282882,-0.061 0.528277,-0.121992 0.545322,-0.135535 0.01704,-0.01354 -0.05093,-0.0835 -0.151063,-0.155459 -0.229394,-0.164854 -0.155007,-0.276298 0.221757,-0.332232 0.643546,-0.09554 1.806778,-0.685353 2.585204,-1.310824 l 0.387823,-0.311617 -0.746079,-0.321085 c -1.116105,-0.480331 -1.543513,-0.575175 -2.622217,-0.58188 -0.509633,-0.0032 -0.950648,-0.0271 -0.980033,-0.05318 -0.02939,-0.02608 0.0077,-0.130149 0.0823,-0.231266 0.07465,-0.101117 0.114889,-0.202348 0.08941,-0.224958 -0.02548,-0.02261 -0.38725,-0.0015 -0.803943,0.04686 -1.734119,0.201353 -2.943576,0.763638 -4.04792,1.881904 l -0.430415,0.435841 0.264362,-0.07425 c 0.550043,-0.154485 1.694689,-0.409894 1.839836,-0.41053 0.08315,-3.64e-4 0.563847,-0.217684 1.068225,-0.482932 1.226055,-0.644775 1.253223,-0.65651 1.314898,-0.567945 0.09304,0.133609 -0.02242,0.254589 -0.450325,0.47186 -0.370287,0.188014 -0.884987,0.51209 -0.651628,0.410291 0.283611,-0.12372 3.903638,-0.331969 4.048227,-0.232882 0.233369,0.159928 -0.06858,0.245953 -0.992914,0.282884 -1.429952,0.05713 -2.884784,0.177278 -2.960515,0.244489 -0.03839,0.03407 0.201599,0.175227 0.547423,0.321985 0.852673,0.361853 0.850095,0.360417 0.878745,0.489608 0.04421,0.199344 -0.237094,0.132706 -1.139868,-0.270029 -0.961719,-0.429031 -1.362498,-0.481948 -2.185439,-0.288556 -0.426344,0.100191 -1.190316,0.321799 -1.235272,0.358319 -0.0673,0.05467 1.793108,0.850564 2.282934,0.976649 1.032614,0.265803 2.199827,0.289018 3.241157,0.06446 z M 9.2139113,11.851962 C 9.0665443,11.253126 8.5308685,10.819188 6.6900105,9.8074103 6.2332295,9.5563528 5.8451635,9.3114567 5.8276425,9.2631967 c -0.130101,-0.3583359 0.989246,0.1423159 2.374916,1.0622313 0.380803,0.252806 0.692368,0.421316 0.692368,0.374466 0,-0.07126 -0.229672,-0.7997987 -0.559996,-1.7763685 C 8.2511155,8.6757353 7.9983285,8.46102 7.1678295,7.9321978 6.0904065,7.2461468 5.2550505,6.6405902 5.2550505,6.545609 c 0,-0.2177436 0.244019,-0.1401871 0.796829,0.2532559 0.697412,0.4963584 1.817235,1.2038838 1.853169,1.1708679 0.09267,-0.085145 -1.02103,-2.3444072 -1.706602,-3.4620198 -0.430672,-0.7020784 -0.515622,-0.950405 -0.325121,-0.950405 0.136684,0 0.324361,0.260065 0.86154,1.1938398 0.761696,1.3240531 1.308583,2.4343171 1.530668,3.1074946 0.06053,0.1834651 0.130155,0.3335729 0.15473,0.3335729 0.06256,0 0.224598,-0.8432522 0.286003,-1.4883666 0.05102,-0.5360472 0.162533,-0.7102442 0.3359448,-0.5248028 0.09665,0.1033596 -0.07641,1.4840572 -0.2666618,2.127369 l -0.127229,0.4302161 0.313027,0.9743013 c 0.1721638,0.5358657 0.3924568,1.2903177 0.4895408,1.6765597 0.09708,0.386242 0.19287,0.749661 0.212861,0.807597 0.05035,0.145933 0.6842067,-0.965599 0.9240617,-1.620443 C 11.018793,9.3979919 11.001402,8.445088 10.526044,7.1902451 10.33344,6.681813 9.7386913,5.556511 9.4707913,5.1936409 L 9.3532833,5.0344771 9.2155573,5.1854267 c -0.158207,0.1733976 -0.3997578,0.1337675 -0.3997578,-0.065586 0,-0.2583098 -0.557428,-0.9111571 -1.163671,-1.362868 -1.321928,-0.9849665 -2.66314,-1.8128162 -2.775464,-1.7131286 -0.05617,0.049854 -0.142205,0.5219913 -0.288939,1.5856726 -0.117632,0.8527269 -0.107842,1.0897848 0.07715,1.8680421 0.06974,0.2933806 -0.07611,0.3634812 -0.363674,0.1747959 -0.2976,-0.1952718 -0.312193,-0.1908685 -0.312193,0.0942 0,0.7784533 0.310191,1.8987576 0.687503,2.4830254 0.239711,0.3711918 0.195417,0.5323208 -0.13452,0.4893441 -0.13811,-0.01799 -0.236472,7.741e-4 -0.236472,0.04511 0,0.041752 0.184868,0.3418185 0.410818,0.666815 0.74731,1.0748978 1.712256,1.8372028 3.031239,2.3946718 0.803069,0.339418 1.4981978,0.552765 1.5333908,0.470623 0.01648,-0.03846 -0.01369,-0.247347 -0.06705,-0.464182 z M 19.754618,11.231506 c 0.858195,-1.2578548 0.802513,-1.07192 0.746949,-2.4942397 -0.04619,-1.1823909 -0.04111,-1.2473097 0.09767,-1.2473097 0.203823,0 0.241652,0.1831941 0.242899,1.1762833 5.95e-4,0.4731468 0.02779,0.8595895 0.06043,0.8587616 0.03264,-8.279e-4 0.33419,-0.4985538 0.670112,-1.1060574 0.539715,-0.9760578 0.880945,-1.6890103 1.360534,-2.8426424 0.132199,-0.3179976 0.293003,-0.4206306 0.405633,-0.2588936 0.09116,0.1309095 -0.574273,1.6264247 -1.350951,3.0361587 -0.278713,0.5058872 -0.492794,0.9321815 -0.475736,0.9473207 0.0355,0.031507 0.886318,-0.4692736 1.330469,-0.7830977 0.233194,-0.1647683 0.319013,-0.1921655 0.39386,-0.1257385 0.160402,0.1423562 -0.0096,0.2880771 -1.159621,0.9940038 -1.060351,0.6508829 -1.09763,0.6825529 -1.529291,1.2991779 -0.243346,0.347618 -0.543432,0.771758 -0.666859,0.942533 -0.370626,0.512803 -0.332345,0.518407 0.750326,0.109839 0.99565,-0.375728 1.47304,-0.661447 2.229935,-1.334617 0.571962,-0.5086934 0.777336,-0.7506142 1.043292,-1.2289522 0.279492,-0.5026827 0.657955,-1.5096721 0.657955,-1.7506457 0,-0.038032 -0.126893,-0.0027 -0.281985,0.078509 -0.391464,0.2049852 -0.499522,0.099272 -0.321472,-0.3144961 0.206194,-0.4791711 0.295581,-1.3931946 0.20725,-2.119227 -0.09553,-0.7852321 -0.248578,-1.5108683 -0.318659,-1.5108683 -0.101125,0 -1.068742,0.6890579 -1.541963,1.0980595 -0.570624,0.4931833 -0.906941,0.8695358 -1.136748,1.2720639 -0.195589,0.3425926 -0.378234,0.3850122 -0.453556,0.1053388 -0.08145,-0.3024411 -0.107281,-0.3115731 -0.298674,-0.1056056 -1.293556,1.3920621 -1.942432,3.1186882 -1.725828,4.5923417 0.09684,0.658829 0.385832,1.557673 0.483581,1.504057 0.0352,-0.01931 0.296404,-0.375734 0.580448,-0.792057 z"
         id="path2" /></g></g></svg>
