<?xml version="1.0" encoding="UTF-8" standalone="no"?>
<!-- Created with Inkscape (http://www.inkscape.org/) -->

<svg
   width="128"
   height="128"
   viewBox="0 0 33.866666 33.866666"
   version="1.1"
   id="svg1"
   xml:space="preserve"
   inkscape:version="1.4.2 (f4327f4, 2025-05-13)"
   sodipodi:docname="veined.svg"
   xmlns:inkscape="http://www.inkscape.org/namespaces/inkscape"
   xmlns:sodipodi="http://sodipodi.sourceforge.net/DTD/sodipodi-0.dtd"
   xmlns="http://www.w3.org/2000/svg"
   xmlns:svg="http://www.w3.org/2000/svg"><sodipodi:namedview
     id="namedview1"
     pagecolor="#ffffff"
     bordercolor="#000000"
     borderopacity="0.25"
     inkscape:showpageshadow="2"
     inkscape:pageopacity="0.0"
     inkscape:pagecheckerboard="0"
     inkscape:deskcolor="#d1d1d1"
     inkscape:document-units="mm"
     inkscape:zoom="2.62"
     inkscape:cx="49.80916"
     inkscape:cy="57.824427"
     inkscape:window-width="1600"
     inkscape:window-height="837"
     inkscape:window-x="-8"
     inkscape:window-y="-8"
     inkscape:window-maximized="1"
     inkscape:current-layer="layer1" /><defs
     id="defs1" /><g
     inkscape:label="Camada 1"
     inkscape:groupmode="layer"
     id="layer1"><g
       id="g1"><path
         style="fill:#626262;fill-opacity:1"
         d="m 15.416587,30.624543 c -0.280393,-0.09198 -0.632337,-0.249508 -0.7821,-0.350065 -0.237227,-0.159285 -0.487697,-0.187603 -1.944857,-0.219888 -1.540606,-0.03413 -1.644513,-0.04714 -1.317049,-0.164823 0.195532,-0.07027 0.83263,-0.200853 1.415774,-0.290181 0.885957,-0.135714 1.051036,-0.186771 1.004145,-0.31057 -0.383288,-1.011938 -0.427411,-2.406432 -0.141262,-4.464489 0.209256,-1.505021 0.250579,-3.421044 0.09334,-4.327817 -0.308117,-1.776847 -1.463577,-4.417913 -2.621081,-5.991075 -0.939943,-1.277476 -2.1238559,-2.403177 -2.5274483,-2.403177 -0.1609922,0 -0.5302982,-0.128071 -0.8206801,-0.284601 -0.2903819,-0.156531 -0.5717649,-0.256863 -0.6252956,-0.22296 -0.053531,0.0339 -0.3694781,0.05791 -0.7021054,0.05335 -0.5069252,-0.0069 -0.718259,-0.06686 -1.3061563,-0.370299 C 4.3278742,10.857845 4.0789349,10.542033 3.9840698,9.8092045 3.9299946,9.3914757 3.8497636,9.2329949 3.4963576,8.8458235 L 3.0733678,8.3824201 3.1201435,7.7852702 C 3.251173,6.1125145 4.8238981,4.830068 6.9538344,4.6591652 7.7521774,4.5951075 7.8236992,4.5699573 8.469779,4.1260934 9.6446718,3.3189292 10.395594,3.078527 11.768645,3.0699858 c 1.359363,-0.00846 2.048024,0.1725561 3.787231,0.995462 l 1.018915,0.4821 1.204174,-0.038873 c 1.984664,-0.064068 2.185662,-0.041552 3.376729,0.3782645 1.011415,0.3564943 1.130258,0.378648 1.533937,0.2859426 0.64852,-0.1489338 2.227662,-0.1241307 2.85167,0.04479 0.627924,0.169981 0.973897,0.3401038 1.546849,0.7606207 0.229256,0.1682619 0.625244,0.3581085 0.879973,0.4218812 1.493305,0.3738567 2.825176,1.9487804 2.825176,3.3407418 0,0.5280114 -0.187329,1.0620534 -0.490722,1.3989584 -0.112196,0.12459 -0.620823,0.431622 -1.130281,0.682294 -0.575944,0.283386 -1.048221,0.589817 -1.248674,0.810187 -0.476102,0.523409 -1.00212,0.72463 -2.038467,0.77979 l -0.881151,0.0469 -0.658561,0.550899 c -2.400677,2.008212 -4.120175,5.125103 -4.769947,8.64636 -0.0512,0.277477 -0.124712,1.615084 -0.163356,2.972461 -0.06781,2.381971 -0.07893,2.489184 -0.31895,3.077195 -0.136778,0.33508 -0.231236,0.62712 -0.209907,0.648977 0.02133,0.02186 0.365145,0.08081 0.764033,0.131008 0.727125,0.0915 1.753431,0.329131 1.928566,0.446536 0.05142,0.03447 -0.679618,0.08403 -1.624525,0.110132 -1.408167,0.0389 -1.761397,0.07663 -1.958561,0.209181 -0.367335,0.246962 -1.323931,0.550801 -1.716126,0.545086 -0.192654,-0.0028 -0.579691,-0.08036 -0.860083,-0.172337 z m 1.85292,-0.636304 c 1.322738,-0.629265 1.572604,-1.315285 1.568254,-4.30572 -0.0028,-1.918867 0.04063,-2.361359 0.391834,-3.992994 0.653452,-3.035828 2.258535,-5.888347 4.499904,-7.997133 l 0.479225,-0.450877 h -0.323312 c -0.482862,0 -1.155151,0.396457 -1.690868,0.997126 -0.694652,0.778872 -1.700328,2.365678 -2.334064,3.6828 -0.304228,0.63229 -0.553142,1.117545 -0.553142,1.078345 0,-0.158785 0.691567,-1.954721 0.974598,-2.530941 0.16668,-0.339344 0.536054,-0.977084 0.820831,-1.4172 0.284776,-0.440116 0.500057,-0.818367 0.478401,-0.840559 -0.02166,-0.02219 -0.294678,-0.01 -0.606718,0.02713 l -0.567344,0.06748 -0.629359,1.34261 c -0.346147,0.738436 -0.849303,1.995378 -1.118125,2.793205 -0.268822,0.797827 -0.501862,1.437175 -0.517868,1.420774 -0.111438,-0.114197 0.886891,-3.552498 1.30349,-4.489292 0.169583,-0.381335 0.280874,-0.724763 0.247313,-0.763173 -0.03356,-0.03841 -0.01328,-0.04188 0.04506,-0.0077 0.08873,0.05197 0.274352,-0.203155 0.197144,-0.270965 -0.06565,-0.05766 -1.114776,-0.337095 -1.14589,-0.305211 -0.03837,0.03932 -0.895741,3.238355 -1.006341,3.754865 -0.03713,0.173406 -0.08259,0.29983 -0.101021,0.280943 -0.0338,-0.03463 0.240702,-2.25367 0.420139,-3.396408 0.05329,-0.339344 0.106687,-0.694077 0.11867,-0.788295 0.01638,-0.128776 -0.102112,-0.216535 -0.477262,-0.353483 -0.274478,-0.100197 -0.528291,-0.163658 -0.564029,-0.141024 -0.03574,0.02263 -0.09225,1.035994 -0.125576,2.251912 -0.05953,2.17164 -0.152497,3.810617 -0.212661,3.748963 -0.01677,-0.01719 -0.05294,-0.861535 -0.08037,-1.876325 -0.05789,-2.142038 -0.124971,-3.408939 -0.201156,-3.799296 -0.05216,-0.26727 -0.0718,-0.276431 -0.592678,-0.276431 -0.2963,0 -0.558636,0.03301 -0.582969,0.07336 -0.02433,0.04035 0.0185,0.350028 0.09519,0.688181 0.22932,1.011181 0.371846,2.061569 0.377611,2.782921 0.003,0.37375 -0.01387,0.572759 -0.03747,0.442242 -0.07875,-0.435633 -0.666121,-2.792755 -0.83791,-3.362551 l -0.169541,-0.562379 -0.507783,-0.116032 c -0.279281,-0.06382 -0.60701,-0.148229 -0.728287,-0.187583 l -0.220503,-0.07155 0.234684,0.417727 c 0.490564,0.873179 1.213891,3.13907 1.549164,4.852907 0.196716,1.005569 0.199184,1.348481 0.0041,0.574648 -0.68045,-2.699733 -1.747217,-5.201349 -2.631207,-6.170381 -0.487279,-0.534156 -0.580522,-0.595496 -0.905215,-0.595496 h -0.361979 l 0.500766,0.735641 c 0.473325,0.695331 1.175228,2.0236 1.359875,2.573403 0.09953,0.296365 0.102078,0.300013 -0.643592,-0.922121 -0.55043,-0.902142 -1.098835,-1.654806 -1.644685,-2.257267 -0.267219,-0.294933 -0.441826,-0.4022 -0.702896,-0.431817 -0.1910471,-0.02167 -0.3460485,-0.01594 -0.3444479,0.01273 0.0016,0.02867 0.3348499,0.415205 0.7405549,0.858963 0.945905,1.034626 1.698997,2.152659 2.35835,3.501181 1.524177,3.117275 1.849525,5.190518 1.349777,8.601305 -0.221899,1.514461 -0.228961,3.159941 -0.01654,3.853357 0.231225,0.754791 1.307092,1.494279 2.187899,1.503833 0.210006,0.0023 0.591214,-0.100975 0.879973,-0.238345 z m -0.508626,-0.966031 c 0.07605,-0.195775 0.19918,-0.654958 0.273619,-1.020406 l 0.135344,-0.66445 -0.04942,0.61699 c -0.02718,0.339344 -0.127459,0.798526 -0.222846,1.020405 -0.214049,0.497898 -0.326899,0.537078 -0.136701,0.04746 z m 0.6042,0.303749 c -0.0016,-0.05482 0.04013,-0.143809 0.09278,-0.19776 0.05265,-0.05395 0.175746,-0.308103 0.273553,-0.564783 0.09781,-0.25668 0.17978,-0.390568 0.182163,-0.297529 0.0024,0.09304 -0.05374,0.306612 -0.124723,0.474607 -0.151517,0.358605 -0.419532,0.728884 -0.423771,0.585465 z m -2.751412,-2.083526 c 4.11e-4,-0.365448 0.01715,-0.503318 0.03721,-0.306378 0.02005,0.19694 0.01972,0.495943 -7.47e-4,0.66445 -0.02046,0.168508 -0.03687,0.0074 -0.03646,-0.358072 z m 3.309577,-2.713172 c 0.0029,-0.439407 0.04222,-0.969781 0.08731,-1.178608 0.05499,-0.254701 0.06488,-0.0047 0.03004,0.759371 -0.02856,0.626482 -0.06785,1.156856 -0.08731,1.178609 -0.01946,0.02175 -0.03298,-0.319965 -0.03004,-0.759372 z m 4.038122,-11.223083 c 0.211545,-0.07954 0.552794,-0.258663 0.758332,-0.398048 0.576687,-0.391079 0.953978,-0.443421 1.955954,-0.271349 1.072424,0.184169 1.687884,0.140693 2.282403,-0.161229 0.330334,-0.167758 0.502133,-0.331112 0.629618,-0.598668 0.167418,-0.351362 0.168311,-0.390756 0.01982,-0.873476 -0.122549,-0.398403 -0.26632,-0.606738 -0.678499,-0.9832 -0.28765,-0.2627238 -0.501321,-0.4998955 -0.474824,-0.527048 0.06158,-0.063104 1.094183,0.623768 1.296592,0.862475 0.08423,0.09934 0.244755,0.362158 0.35671,0.584037 0.235163,0.46606 0.447083,0.513208 0.999041,0.222266 0.634855,-0.334637 0.867404,-0.678008 0.920794,-1.3596012 C 30.084783,9.0686079 29.963652,8.7840775 29.277141,8.0402259 28.536293,7.237499 27.702734,6.8901234 26.486064,6.8770784 l -0.648401,-0.00695 0.462804,-0.214019 0.462804,-0.214019 -0.601747,-0.2990569 C 25.120784,5.6258034 23.772978,5.5264543 22.503029,5.8733576 21.838848,6.0547876 20.634532,6.5636154 20.094683,6.8908929 L 19.631539,7.1716684 20.094683,6.7337658 C 20.349411,6.4929194 20.78151,6.1645243 21.054902,6.003999 21.545541,5.7159137 21.549112,5.7105964 21.330706,5.5933292 21.209006,5.5279861 20.839432,5.3800089 20.50943,5.264491 19.972614,5.0765776 19.709447,5.0532131 18.010536,5.0426336 L 16.111648,5.0308088 15.046418,4.4942795 C 13.670824,3.8014277 12.86958,3.6147347 11.539823,3.6772282 10.358854,3.7327293 9.7430969,3.9443548 8.9680144,4.5611167 8.6761751,4.7933439 8.4030005,4.9833481 8.3609596,4.9833481 c -0.1425152,0 -0.077397,0.176722 0.085662,0.2324756 0.089155,0.030484 0.2650259,0.1367186 0.390824,0.2360765 0.2276298,0.1797866 0.2260788,0.1800055 -0.3242003,0.045766 -0.7620014,-0.185889 -2.1142785,-0.182829 -2.6340352,0.00596 -1.2278443,0.4459856 -2.2261242,1.5294444 -2.2261242,2.4160697 0,0.2023556 0.1191771,0.4221531 0.4122433,0.7602975 0.2610365,0.3011882 0.4361009,0.6069925 0.4772876,0.8337313 0.1659892,0.9137933 0.7622356,1.3547543 1.8318372,1.3547543 0.5919699,0 1.0986716,-0.19389 1.8637363,-0.713158 0.2672781,-0.1814077 0.2641469,-0.1713383 -0.082149,0.264181 -0.3425939,0.430863 -0.3523872,0.461419 -0.2023427,0.63132 0.2262745,0.256219 0.7173524,0.322773 1.232697,0.167062 0.4041196,-0.122104 0.5191743,-0.114941 1.3675299,0.08514 1.361919,0.321207 1.642828,0.298399 2.149838,-0.174553 l 0.204635,-0.190889 -0.04574,0.321402 c -0.06736,0.473332 0.121982,0.740717 0.790073,1.115731 0.525727,0.295101 0.693308,0.339898 1.389431,0.371414 0.508056,0.023 1.005654,-0.01644 1.389201,-0.11012 l 0.597603,-0.14596 1.162343,0.484026 c 0.730559,0.304221 1.3688,0.505525 1.718115,0.5419 0.681164,0.07093 1.53843,-0.01672 2.051943,-0.209802 z M 14.907475,9.9223311 C 14.122717,9.7847732 13.397674,9.4719522 12.843866,9.0319847 12.003252,8.3641669 11.770112,8.2733637 10.785497,8.2302934 10.170718,8.203401 9.7340035,8.2375542 9.3363813,8.3436213 8.6008712,8.5398212 8.5448053,8.5346668 8.9128968,8.3046881 9.3031421,8.060868 10.441426,7.7370002 10.922578,7.7328877 l 0.372377,-0.00318 -0.358945,-0.305312 C 10.73859,7.2564713 10.321761,6.9811125 10.009723,6.8124844 9.352853,6.4575063 9.3611134,6.4346779 10.057579,6.6802283 c 0.675716,0.2382348 1.160696,0.4994843 1.607891,0.866141 0.203783,0.1670825 0.578929,0.4119925 0.833658,0.5442445 0.254729,0.132252 0.582046,0.342441 0.72737,0.4670867 0.426702,0.3659849 1.04884,0.6099324 1.97331,0.7737582 0.923992,0.1637409 1.11421,0.1477611 3.737016,-0.3139373 0.433039,-0.076229 1.067297,-0.1394519 1.409462,-0.1404957 0.566126,-0.00173 0.673289,-0.03579 1.190666,-0.3784634 0.884972,-0.5861426 1.500462,-0.7901467 2.216565,-0.7346798 0.331147,0.02565 0.747977,0.1133601 0.926287,0.1949121 0.318625,0.1457265 0.311335,0.1473149 -0.42391,0.09236 -0.817906,-0.061134 -1.103662,0.00296 -2.055872,0.4611532 -0.54984,0.2645751 -0.678234,0.4577418 -0.30425,0.4577418 0.310853,0 1.090013,0.3032118 1.359626,0.5291016 l 0.266547,0.2233212 -0.323589,-0.091447 c -0.177974,-0.050296 -1.163355,-0.091447 -2.189736,-0.091447 -1.525303,0 -2.032961,0.035649 -2.779472,0.1951838 C 17.201719,9.9543304 15.60455,10.04452 14.907475,9.9223311 Z M 14.009759,8.3293296 C 13.933262,8.2379677 13.737387,7.9605615 13.57448,7.7128715 13.411573,7.4651814 12.894561,6.8693516 12.425563,6.3888053 11.882936,5.8328156 11.684518,5.5823636 11.87994,5.7000933 c 0.610892,0.3680254 1.492975,1.3176941 1.913124,2.0597075 0.421055,0.7436129 0.469864,0.8718961 0.216695,0.5695288 z m 1.535253,-0.4034162 c 0.006,-0.3393443 -0.01867,-0.8519201 -0.05477,-1.1390576 -0.06467,-0.5144537 -0.06376,-0.5172226 0.06242,-0.1898429 0.139408,0.3616772 0.173731,1.4515079 0.0553,1.756047 -0.04689,0.120579 -0.06986,-0.035265 -0.06296,-0.4271465 z m 1.831916,0.4271465 c 0.119564,-0.3407527 0.932304,-1.8612841 0.972733,-1.8198552 0.06128,0.062802 -0.448111,1.1023192 -0.769531,1.5703725 -0.130079,0.1894223 -0.22152,0.3016895 -0.203202,0.2494827 z M 5.2727702,6.6388087 C 5.7789698,6.2455104 7.1708093,6.0237689 7.960321,6.2106404 8.1459688,6.2545818 7.8999997,6.2935892 7.2192913,6.3281576 6.5281285,6.3632569 6.0216012,6.4445278 5.6446032,6.580812 5.2583405,6.7204453 5.1449321,6.7381342 5.2727702,6.6388087 Z"
         id="path1" /></g></g></svg>
