<?xml version="1.0" encoding="UTF-8" standalone="no"?>
<!-- Created with Inkscape (http://www.inkscape.org/) -->

<svg
   width="128"
   height="128"
   viewBox="0 0 33.866666 33.866666"
   version="1.1"
   id="svg5"
   xml:space="preserve"
   inkscape:version="1.2.2 (b0a8486541, 2022-12-01)"
   sodipodi:docname="veined_puro.svg"
   xmlns:inkscape="http://www.inkscape.org/namespaces/inkscape"
   xmlns:sodipodi="http://sodipodi.sourceforge.net/DTD/sodipodi-0.dtd"
   xmlns="http://www.w3.org/2000/svg"
   xmlns:svg="http://www.w3.org/2000/svg"><sodipodi:namedview
     id="namedview7"
     pagecolor="#ffffff"
     bordercolor="#000000"
     borderopacity="0.25"
     inkscape:showpageshadow="2"
     inkscape:pageopacity="0.0"
     inkscape:pagecheckerboard="0"
     inkscape:deskcolor="#d1d1d1"
     inkscape:document-units="mm"
     showgrid="false"
     inkscape:zoom="1.0636576"
     inkscape:cx="395.80406"
     inkscape:cy="60.639814"
     inkscape:window-width="1854"
     inkscape:window-height="1011"
     inkscape:window-x="0"
     inkscape:window-y="0"
     inkscape:window-maximized="1"
     inkscape:current-layer="layer1" /><defs
     id="defs2" /><g
     inkscape:label="Camada 1"
     inkscape:groupmode="layer"
     id="layer1"><path
       id="path374"
       style="fill:#686868;stroke-width:0.105474;fill-opacity:1"
       d="M 20.391128,9.1677464e-4 C 19.964337,0.01023981 19.516728,0.08971741 18.947951,0.23031439 17.995006,0.46587655 17.588125,0.66307035 16.634873,1.3511618 14.494289,2.8962958 14.327465,2.938511 13.218912,2.214595 12.280569,1.6018258 11.766575,1.5180341 11.145647,1.8766986 10.704561,2.1314839 10.107468,2.2878159 8.4746399,2.5759692 8.0656219,2.6481507 7.6354927,2.7431301 7.51863,2.7869271 6.9221546,3.0104487 5.7299161,3.3119122 5.0218792,3.4182792 4.0493509,3.5643743 3.2284016,3.9591879 2.5420737,4.611055 2.2591563,4.8797731 1.7745558,5.2593297 1.4652147,5.4543738 0.7890132,5.8807299 0.16945513,6.5677905 0.03796193,7.037202 -0.02444043,7.2599643 -0.00961056,7.7397629 0.08024332,8.4053945 0.2542521,9.6944291 0.31891314,9.9368847 0.65761556,10.570778 c 0.33275605,0.622759 1.26694564,1.31021 1.89318954,1.393003 0.35915,0.04748 0.4719402,0.0092 0.7949342,-0.270321 0.4319211,-0.373792 0.5085163,-0.381707 1.6383125,-0.167521 0.4590915,0.08704 1.0976653,0.20776 1.419036,0.26831 0.7410758,0.139618 2.7457999,0.905572 3.0332126,1.158905 0.262218,0.231126 0.8508106,1.370903 1.0617956,2.056218 0.174293,0.566118 0.206013,2.370633 0.05512,3.133465 -0.05468,0.276402 -0.178578,0.926648 -0.27542,1.444984 -0.4474689,2.39503 -0.9700364,4.159626 -1.6436178,5.550049 -0.8357941,1.725263 -2.9471338,4.531612 -3.6122954,4.80148 -0.5555702,0.225406 -1.3486607,0.962278 -1.490075,1.384616 -0.1746842,0.521707 -0.056013,0.84993 0.5147218,1.423863 0.4747603,0.477423 0.5238465,0.50002 1.0816512,0.499047 0.3213757,-9.3e-4 0.703801,-0.06845 0.8498819,-0.150751 0.2990855,-0.168521 1.1237413,-0.208725 1.2173935,-0.05936 0.1124897,0.179399 1.1672889,0.337981 1.4767225,0.222025 0.1568866,-0.05879 0.7743394,-0.114162 1.3719643,-0.123086 1.089547,-0.01626 1.665216,0.116543 2.09586,0.48362 0.08765,0.07471 0.254926,0.158903 0.371792,0.186973 0.390342,0.09373 0.974179,0.07641 1.309313,-0.03873 0.546271,-0.187696 0.60093,-0.31232 2.016609,-4.598234 0.237793,-0.719919 0.558446,-1.77714 0.712597,-2.349342 0.436489,-1.620215 1.806412,-5.084959 2.679567,-6.777209 1.164846,-2.257583 2.356452,-3.646526 3.590041,-4.184379 0.457518,-0.199481 0.622263,-0.216495 1.425883,-0.147733 1.780006,0.152308 2.394083,0.143714 3.351937,-0.04696 l 0.956179,-0.190332 0.318732,0.289606 c 1.001394,0.910064 2.048941,1.118951 2.963028,0.590941 0.831191,-0.480119 1.267842,-1.206319 1.392336,-2.315973 0.110829,-0.987881 0.104906,-1.218492 -0.05135,-2.034753 -0.115854,-0.605149 -0.111638,-0.743036 0.03119,-1.015201 0.130773,-0.249272 0.152501,-0.527104 0.103731,-1.3328036 -0.06128,-1.0123893 -0.0062,-1.2873821 0.348859,-1.743144 C 34.298459,7.0932968 33.389649,5.6319631 31.847369,4.9965861 31.438348,4.8280888 30.697338,4.5039912 30.200674,4.2763568 29.704005,4.0487217 28.984774,3.7339159 28.602416,3.5769217 28.220054,3.4199332 27.670346,3.1035592 27.380739,2.8737971 26.186538,1.926368 25.056336,1.2956057 24.038727,1.0084074 23.775785,0.93419686 23.226077,0.74208428 22.817057,0.58147008 21.756104,0.16484969 21.102479,-0.0146183 20.39117,9.2669874e-4 Z" /></g></svg>
