<?xml version="1.0" encoding="UTF-8" standalone="no"?>
<!-- Created with Inkscape (http://www.inkscape.org/) -->

<svg
   width="128"
   height="128"
   viewBox="0 0 33.866666 33.866666"
   version="1.1"
   id="svg1"
   xml:space="preserve"
   inkscape:version="1.4.2 (f4327f4, 2025-05-13)"
   sodipodi:docname="corals.svg"
   xmlns:inkscape="http://www.inkscape.org/namespaces/inkscape"
   xmlns:sodipodi="http://sodipodi.sourceforge.net/DTD/sodipodi-0.dtd"
   xmlns="http://www.w3.org/2000/svg"
   xmlns:svg="http://www.w3.org/2000/svg"><sodipodi:namedview
     id="namedview1"
     pagecolor="#ffffff"
     bordercolor="#000000"
     borderopacity="0.25"
     inkscape:showpageshadow="2"
     inkscape:pageopacity="0.0"
     inkscape:pagecheckerboard="0"
     inkscape:deskcolor="#d1d1d1"
     inkscape:document-units="mm"
     inkscape:zoom="2.28"
     inkscape:cx="49.561404"
     inkscape:cy="57.675439"
     inkscape:window-width="1600"
     inkscape:window-height="837"
     inkscape:window-x="-8"
     inkscape:window-y="-8"
     inkscape:window-maximized="1"
     inkscape:current-layer="layer1" /><defs
     id="defs1" /><g
     inkscape:label="Camada 1"
     inkscape:groupmode="layer"
     id="layer1"><g
       id="g2"><path
         style="fill:#626262;fill-opacity:1"
         d="m 9.2160938,31.61117 c 0,-0.07019 0.537264,-0.278363 1.1939182,-0.462609 0.656655,-0.184247 1.228643,-0.370837 1.271085,-0.414645 0.04244,-0.04381 0.111812,-0.396927 0.154157,-0.784709 0.06147,-0.562923 -0.01727,-0.898519 -0.390592,-1.664719 -1.053076,-2.161316 -2.1628682,-5.026064 -3.1894812,-8.233129 -0.705063,-2.202564 -1.475161,-4.214305 -2.19341,-5.729886 -1.217091,-2.568186 -1.395286,-3.435986 -0.874263,-4.257598 0.241913,-0.381476 0.380596,-0.4378198 1.077642,-0.4378198 0.711435,0 0.857221,0.062627 1.316891,0.5657138 0.28429,0.311143 0.556857,0.565714 0.605702,0.565714 0.04885,0 0.0892,-0.272755 0.08968,-0.606122 0.0028,-1.953351 0.993205,-2.9984824 2.2555182,-2.3801862 0.845456,0.4141146 1.005709,1.170787 0.911011,4.3015662 -0.08644,2.857898 0.04156,4.304431 0.334988,3.785671 0.444007,-0.784964 0.855406,-1.060113 1.585064,-1.060113 h 0.717171 l -0.09829,-0.848571 C 13.679534,11.330795 12.892044,8.7781289 11.87417,7.1142815 11.262748,6.114834 11.095176,5.6964118 11.095176,5.1691608 c 0,-0.9890513 0.46042,-1.5235129 1.312452,-1.5235129 0.364849,0 0.800144,0.1067888 0.967323,0.2373084 0.396972,0.3099229 0.538847,0.3064314 0.538847,-0.013261 0,-0.5440592 0.676513,-1.5091238 1.177549,-1.679805 0.56561,-0.1926793 0.93776,-0.095072 1.448858,0.380004 0.349087,0.3244837 0.355375,0.3916971 0.330899,3.5366531 -0.03155,4.0542456 0.07514,4.3097456 0.704499,1.6871555 0.206593,-0.8608864 0.49268,-1.7496511 0.635749,-1.9750325 0.698593,-1.1005217 2.056202,-0.8522445 2.491824,0.4557007 0.28131,0.8446258 0.08445,2.3055309 -0.669445,4.9680089 -0.737746,2.605442 -1.109917,4.554732 -1.106651,5.796223 0.0046,1.736482 0.361559,1.696031 1.431047,-0.162155 1.294626,-2.249351 1.867874,-4.262519 2.087559,-7.3312096 0.05728,-0.8000815 0.174403,-1.689944 0.260281,-1.9774722 0.222183,-0.7438976 0.819031,-1.174364 1.628273,-1.174364 0.555496,0 0.738709,0.084754 1.075013,0.4972992 0.374508,0.4594102 0.405395,0.6154908 0.405395,2.0485827 v 1.5512829 l 0.366401,-0.3553 c 0.465415,-0.4513137 1.27494,-0.6953539 1.718996,-0.5182097 0.187963,0.074983 0.509796,0.322826 0.715185,0.5507627 0.586728,0.651139 0.409568,1.642433 -0.503909,2.819614 -1.251677,1.613014 -4.387946,6.192464 -5.50195,8.033721 -1.951241,3.225065 -2.938138,5.983017 -2.932544,8.195194 0.0017,0.684745 0.04708,1.318356 0.100765,1.408025 0.05369,0.08967 0.359391,0.208267 0.679337,0.263551 0.905731,0.156504 2.069326,0.568763 2.069326,0.733157 0,0.08508 -1.238806,0.148643 -2.896917,0.148643 -1.593305,0 -2.896917,-0.05928 -2.896917,-0.131742 0,-0.07246 0.441254,-0.292534 0.980566,-0.489058 l 0.980566,-0.357316 0.0031,-1.652575 c 0.0028,-1.480561 0.06367,-1.8347 0.584938,-3.402309 1.09072,-3.280116 3.093908,-6.712045 7.209678,-12.35186 1.424306,-1.951719 1.65129,-2.390377 1.381172,-2.669193 -0.28858,-0.297872 -1.439668,0.405105 -2.21256,1.351225 -0.804527,0.984845 -1.171945,1.050499 -1.039165,0.185687 0.198946,-1.295756 0.273415,-3.3840943 0.142652,-4.0004066 -0.293655,-1.3840625 -1.296848,-0.3619738 -1.297337,1.3217735 -8.8e-4,3.0265391 -1.113212,6.4988321 -2.936727,9.1673841 -0.525407,0.768887 -1.343652,1.256686 -1.816522,1.082924 -0.184896,-0.06794 -0.464668,-0.371946 -0.621717,-0.675563 C 17.673463,18.341359 17.814871,15.455929 18.37952,13.262788 19.667547,8.2600292 19.948174,6.7494442 19.647242,6.4388218 19.366596,6.1491383 18.967026,6.7978916 18.520182,8.2687496 17.577077,11.373131 17.095926,12.116942 16.432049,11.496795 15.937422,11.03475 15.741443,9.9863709 15.795298,8.0905452 15.914102,3.908434 15.893066,3.4129033 15.594187,3.3530105 15.263937,3.2868313 14.937833,3.9946308 14.772923,5.1355416 14.59324,6.3786571 14.327837,6.4427073 13.444463,5.4561415 12.636833,4.5541684 12.491754,4.4842179 12.194764,4.8535924 12.03981,5.0463133 12.08547,5.2390137 12.434129,5.8637963 c 1.418302,2.5415365 1.732752,3.3696779 2.257081,5.9442997 0.690231,3.389251 1.196532,11.650797 0.804376,13.125377 -0.332808,1.251423 -0.867322,1.48368 -1.586264,0.689265 -0.742775,-0.820747 -1.007428,-1.911512 -0.998835,-4.116685 0.0065,-1.666874 0.0679,-2.128347 0.436701,-3.282042 0.428348,-1.339964 0.484979,-2.136703 0.159692,-2.246724 -0.361008,-0.122103 -0.87074,0.563499 -1.28652,1.730399 -0.336935,0.945622 -0.499563,1.212245 -0.739413,1.212245 -0.81297,0 -1.266413,-2.916182 -1.087332,-6.99285 0.09372,-2.1334102 0.07387,-2.5214929 -0.146706,-2.8689789 -0.5519882,-0.869568 -0.7804452,-0.4172749 -1.1099502,2.1974509 -0.139122,1.10398 -0.314425,2.071445 -0.389562,2.149923 -0.264333,0.276086 -0.573505,-0.03894 -1.079579,-1.100027 -0.532014,-1.115474 -1.086662,-1.655307 -1.523114,-1.482432 -0.383387,0.151857 -0.192726,0.832089 0.810798,2.892738 0.487219,1.00046 1.376925,3.329229 2.01621,5.277346 1.4118002,4.302227 1.7452022,5.166459 3.0183242,7.823966 0.95649,1.996573 1.008337,2.163556 0.958555,3.087209 -0.05054,0.937673 -0.03707,0.978419 0.338847,1.025545 0.754292,0.09456 2.035671,0.527203 2.035671,0.687321 0,0.102939 -1.109062,0.154387 -3.053507,0.141648 -1.679429,-0.011 -3.0535082,-0.07743 -3.0535082,-0.14762 z M 14.540159,21.312094 c 0,-2.867948 -0.144887,-3.241201 -0.553628,-1.426234 -0.229352,1.018414 -0.200289,2.398401 0.07242,3.43856 0.343679,1.310859 0.48121,0.735733 0.48121,-2.012326 z"
         id="path2" /></g></g></svg>
