<?xml version="1.0" encoding="UTF-8" standalone="no"?>
<!-- Created with Inkscape (http://www.inkscape.org/) -->

<svg
   width="128"
   height="128"
   viewBox="0 0 33.866667 33.866666"
   version="1.1"
   id="svg5"
   xml:space="preserve"
   inkscape:version="1.2.2 (b0a8486541, 2022-12-01)"
   sodipodi:docname="coral_puro.svg"
   xmlns:inkscape="http://www.inkscape.org/namespaces/inkscape"
   xmlns:sodipodi="http://sodipodi.sourceforge.net/DTD/sodipodi-0.dtd"
   xmlns="http://www.w3.org/2000/svg"
   xmlns:svg="http://www.w3.org/2000/svg"><sodipodi:namedview
     id="namedview7"
     pagecolor="#ffffff"
     bordercolor="#000000"
     borderopacity="0.25"
     inkscape:showpageshadow="2"
     inkscape:pageopacity="0.0"
     inkscape:pagecheckerboard="0"
     inkscape:deskcolor="#d1d1d1"
     inkscape:document-units="mm"
     showgrid="false"
     inkscape:zoom="3.0009657"
     inkscape:cx="74.642639"
     inkscape:cy="118.12864"
     inkscape:window-width="1854"
     inkscape:window-height="1011"
     inkscape:window-x="0"
     inkscape:window-y="0"
     inkscape:window-maximized="1"
     inkscape:current-layer="g3129" /><defs
     id="defs2" /><g
     inkscape:label="Camada 1"
     inkscape:groupmode="layer"
     id="layer1"><g
       id="g3129"
       transform="translate(29.321626,-0.72853262)"><g
         id="g3298"><path
           style="fill:#606060;stroke-width:0.0663415;fill-opacity:1"
           d="m -11.492226,32.431552 c -0.800726,-0.0754 -2.035424,-0.101092 -2.330774,-0.04849 -0.161222,0.02871 -0.341225,0.0222 -0.460182,-0.01663 -0.107459,-0.03509 -0.419358,-0.08204 -0.693107,-0.104341 -0.30597,-0.02493 -0.545322,-0.07813 -0.621265,-0.138097 -0.06795,-0.05365 -0.171533,-0.100864 -0.230193,-0.104916 -0.274617,-0.01897 -0.602737,-0.147771 -0.656077,-0.25753 -0.02911,-0.05989 -0.111648,-0.08976 -0.215493,-0.07798 -0.09257,0.0105 -0.233444,-0.02743 -0.313045,-0.08429 -0.0796,-0.05686 -0.192005,-0.103387 -0.249786,-0.103387 -0.05778,0 -0.19423,-0.0368 -0.303221,-0.08178 -0.10899,-0.04498 -0.290554,-0.110731 -0.403475,-0.146114 -0.210658,-0.06601 -0.281029,-0.258755 -0.122682,-0.336029 0.05875,-0.02867 0.05588,-0.05338 -0.0099,-0.08549 -0.110325,-0.05384 0.06262,-0.280353 0.290046,-0.379884 0.170732,-0.07472 0.682467,-0.428754 0.682467,-0.472154 0,-0.0172 -0.0373,-0.03128 -0.08289,-0.03128 -0.115402,0 -0.813008,0.362602 -0.813008,0.422586 0,0.02696 -0.04571,0.04902 -0.101589,0.04902 -0.06466,0 -0.119106,-0.101796 -0.149776,-0.280018 -0.0265,-0.15401 -0.06924,-0.355235 -0.09498,-0.447166 -0.04158,-0.148542 -0.02801,-0.164948 0.121897,-0.147378 0.119807,0.01404 0.186887,-0.01867 0.231492,-0.11287 0.05619,-0.118672 0.03975,-0.13264 -0.15614,-0.13264 -0.231829,0 -0.489439,-0.234768 -0.309561,-0.282112 0.04695,-0.01236 0.08536,-0.06005 0.08536,-0.105982 0,-0.110737 0.1425,-0.107184 0.196976,0.0049 0.0454,0.09342 0.176316,0.122698 0.176316,0.03944 0,-0.09288 -0.362675,-0.207897 -0.46407,-0.147168 -0.154343,0.09244 -0.463643,0.06031 -0.491145,-0.05102 -0.01817,-0.07354 0.04533,-0.11017 0.241305,-0.1392 0.200273,-0.02967 0.265959,-0.06872 0.265959,-0.158108 0,-0.09944 -0.03501,-0.113182 -0.215607,-0.08466 -0.320793,0.05066 -0.459772,-0.100784 -0.426456,-0.464702 0.03044,-0.332525 0.200433,-0.7228 0.345707,-0.793695 0.06718,-0.03278 0.02912,-0.05426 -0.119914,-0.06767 -0.12008,-0.0108 -0.210808,-0.05072 -0.201618,-0.0887 0.238894,-0.987326 0.17661,-1.94957 -0.167241,-2.583745 -0.205506,-0.379023 -0.374321,-0.649804 -0.4234,-0.679138 -0.02823,-0.01687 -0.08521,-0.101055 -0.126629,-0.187075 -0.04578,-0.09508 -0.142742,-0.163948 -0.247311,-0.175654 -0.143075,-0.01602 -0.178745,-0.06387 -0.212084,-0.284534 -0.04118,-0.272559 -0.251893,-0.589511 -0.391914,-0.589511 -0.174268,0 -0.344612,-0.191031 -0.308153,-0.345576 0.04303,-0.182376 -0.207417,-0.538689 -0.378632,-0.538689 -0.0622,0 -0.113085,-0.03795 -0.113085,-0.08433 0,-0.04638 -0.07525,-0.0928 -0.167219,-0.103165 -0.221722,-0.02498 -0.256099,-0.204709 -0.06944,-0.363065 l 0.150145,-0.127381 -0.321977,-0.530561 c -0.181883,-0.299711 -0.450878,-0.633159 -0.61823,-0.766364 -0.16294,-0.129693 -0.317733,-0.289821 -0.343985,-0.355841 -0.0497,-0.124981 -0.604331,-0.479512 -0.985031,-0.62965 -0.217063,-0.0856 -0.516405,-0.152015 -1.283859,-0.284835 -0.215576,-0.03731 -0.391957,-0.09172 -0.391957,-0.120906 0,-0.02919 -0.04293,-0.05307 -0.09539,-0.05307 -0.122119,0 -0.352555,-0.211008 -0.352555,-0.322831 0,-0.148137 0.290369,-0.231145 0.499467,-0.142783 0.247828,0.104729 0.313642,0.0092 0.239254,-0.347449 -0.09202,-0.441107 -0.07853,-0.601908 0.05383,-0.642015 0.142774,-0.04326 0.541292,0.305213 0.676274,0.591352 0.09826,0.208296 0.09477,0.219547 0.123098,-0.397009 0.01011,-0.220054 0.04848,-0.303539 0.162551,-0.353706 0.213273,-0.09379 0.258868,-0.158967 0.260161,-0.371873 6.94e-4,-0.113741 0.07299,-0.253798 0.182596,-0.353707 0.293197,-0.267264 0.37815,-0.129052 0.380291,0.618699 0.0018,0.62298 0.05459,0.796214 0.289676,0.95027 0.180246,0.118119 0.208634,-0.101028 0.160431,-1.238497 -0.09062,-2.138492 -0.07944,-2.316791 0.151418,-2.414349 0.159309,-0.06732 0.180583,-0.116807 0.180583,-0.420057 0,-0.265144 0.03414,-0.370705 0.149317,-0.461647 0.08212,-0.06485 0.182913,-0.117903 0.223975,-0.117903 0.11179,0 0.08845,-0.519942 -0.03814,-0.849422 -0.207924,-0.5412 -0.124709,-0.919112 0.202385,-0.919112 0.08739,0 0.134386,-0.04396 0.134386,-0.125682 0,-0.214996 0.28929,-0.52278 0.491368,-0.52278 0.141658,0 0.180557,0.031 0.180557,0.143898 0,0.186208 0.133338,0.249599 0.253065,0.120311 0.07186,-0.0776 0.150497,-0.09147 0.33604,-0.0593 0.133225,0.0231 0.258926,0.07637 0.279333,0.118362 0.02058,0.04235 0.101449,0.06307 0.181602,0.04652 0.07947,-0.01641 0.144495,-10e-4 0.144495,0.03414 0,0.03519 0.05039,0.04871 0.111988,0.03004 0.09053,-0.02743 0.111988,0.02374 0.111988,0.26713 0,0.220594 0.0283,0.301063 0.105881,0.301063 0.05823,0 0.159024,0.0161 0.223975,0.03578 0.075,0.02273 0.118094,0.0038 0.118094,-0.05173 0,-0.149052 0.204553,-0.247019 0.335963,-0.160903 0.09172,0.0601 0.111988,0.05608 0.111988,-0.02226 0,-0.0526 0.03148,-0.09564 0.06996,-0.09564 0.03848,0 0.05059,-0.0943 0.0269,-0.209552 -0.04681,-0.227767 0.08845,-0.497861 0.249332,-0.497861 0.05334,0 0.14711,0.07295 0.208371,0.162115 0.109685,0.159645 0.111427,0.156906 0.114371,-0.179781 0.0017,-0.200026 -0.04572,-0.4162794 -0.114408,-0.5211554 -0.07152,-0.1092114 -0.122576,-0.3542346 -0.130652,-0.6270416 -0.01281,-0.4326666 -0.007,-0.4489695 0.173391,-0.4829395 0.102655,-0.019337 0.21981,-0.093979 0.260344,-0.1658714 0.04389,-0.077841 0.140252,-0.1307147 0.238233,-0.1307147 0.0905,0 0.186716,-0.028337 0.213824,-0.06297 0.02711,-0.034634 0.09628,-0.04873 0.153723,-0.031326 0.06638,0.020114 0.104436,-0.00826 0.104436,-0.077877 0,-0.060237 0.06334,-0.1712878 0.140759,-0.2467801 0.120675,-0.1176729 0.157961,-0.1259868 0.261305,-0.058264 0.0663,0.043447 0.120545,0.1224214 0.120545,0.1754987 0,0.1543293 0.302697,0.2644518 0.683979,0.2488345 0.269602,-0.011043 0.366328,0.00991 0.429286,0.093003 0.077,0.1016294 0.08538,0.1018445 0.159638,0.00409 0.08297,-0.1092194 0.294924,-0.1424849 0.294924,-0.046287 0,0.031282 0.06719,0.085272 0.149316,0.1199762 0.196974,0.083238 0.447951,-0.020172 0.447951,-0.1845695 0,-0.1643876 0.231814,-0.463893 0.35905,-0.463893 0.05658,0 0.120451,0.053056 0.141927,0.1179023 0.04482,0.13532 0.119977,0.149898 0.22795,0.044213 0.09,-0.088089 -0.04733,-0.8034473 -0.277109,-1.4435033 -0.142993,-0.3983113 -0.145442,-0.4432613 -0.03694,-0.6779381 0.225893,-0.4885813 0.261828,-0.6079455 0.266584,-0.8855283 0.0031,-0.1783346 0.0541,-0.3285464 0.140159,-0.4124662 l 0.135353,-0.1319865 0.09344,0.1619239 c 0.113164,0.1961138 0.218369,0.210122 0.219927,0.029284 0.0015,-0.1781506 0.108036,-0.3004434 0.232863,-0.2673934 0.102696,0.027191 0.506637,-0.3385919 0.510502,-0.4622775 0.0011,-0.036557 0.05247,-0.099493 0.114064,-0.139856 0.06159,-0.040363 0.111988,-0.1355261 0.111988,-0.2114731 0,-0.076348 0.06478,-0.1654621 0.144899,-0.1993181 0.11697,-0.04943 0.167337,-0.035938 0.261305,0.069994 0.06402,0.072175 0.116405,0.097633 0.116405,0.056574 0,-0.041059 0.05859,-0.066857 0.130202,-0.05733 0.09774,0.013003 0.149257,-0.044668 0.206628,-0.2313129 0.1009,-0.3282566 0.235589,-0.4371273 0.367017,-0.2966631 0.05309,0.056741 0.151617,0.1031645 0.218949,0.1031645 0.06733,0 0.122422,0.031598 0.122422,0.070218 0,0.03862 0.04517,0.021444 0.100371,-0.038168 0.14643,-0.1581231 0.464167,-0.081207 0.535174,0.1295524 0.03013,0.089446 0.07025,0.1294688 0.08914,0.08894 0.05582,-0.1197672 0.2881741,-0.084208 0.3852051,0.058951 0.0549,0.081 0.159673,0.13264 0.269113,0.13264 0.144635,0 0.188383,-0.0386 0.226744,-0.2000625 0.104675,-0.4405749 0.5593501,-0.4951076 0.5593501,-0.067087 0,0.073484 0.07029,0.114536 0.227263,0.1327275 0.124994,0.014485 0.244564,0.00423 0.265711,-0.022785 0.09117,-0.1164845 0.326666,-0.044648 0.370412,0.1129935 0.07833,0.2822532 0.09448,0.3012826 0.34136,0.4020893 0.193789,0.079129 0.270177,0.0848 0.384284,0.028532 0.114448,-0.056437 0.167827,-0.052072 0.271797,0.022224 0.07116,0.050849 0.190074,0.092453 0.264256,0.092453 0.157254,0 0.487962,0.2617541 0.487962,0.3862196 0,0.054697 0.07694,0.085389 0.214054,0.085389 0.166828,0 0.257423,0.051747 0.410622,0.2345407 0.108112,0.1289973 0.196567,0.3122098 0.196567,0.4071389 0,0.143575 0.02511,0.1674137 0.149317,0.1417662 0.08212,-0.016958 0.149317,-0.06753 0.149317,-0.1123832 0,-0.1154626 0.225885,-0.1012713 0.344022,0.021613 0.06057,0.063004 0.100104,0.074478 0.101554,0.029476 0.0016,-0.048876 0.128071,-0.073689 0.375666,-0.073689 0.336673,0 0.373515,0.013012 0.375563,0.1326401 0.002,0.1184565 0.01041,0.1216084 0.07837,0.029476 0.108868,-0.1475903 0.325735,-0.1272805 0.439928,0.0412 0.06922,0.1021244 0.08666,0.2992682 0.05962,0.6737857 -0.0393,0.5443109 0.0027,0.6556284 0.247681,0.6556284 0.08563,0 0.142241,0.068038 0.176461,0.212073 0.0476,0.200358 0.05786,0.206733 0.185668,0.1154024 0.125912,-0.089975 0.163129,-0.086946 0.537363,0.043738 l 0.40208,0.140408 -0.01603,0.5612915 c -0.01562,0.5468891 -0.01124,0.5630128 0.170538,0.6284132 0.165609,0.059581 0.181225,0.091963 0.138993,0.2882321 l -0.04758,0.2211098 0.181562,-0.17204 c 0.28049202,-0.2657801 0.48298002,-0.1571927 0.43074202,0.2309911 -0.01886,0.1401139 -0.48105302,0.6638093 -0.71300902,0.8078791 -0.142924,0.08877 -0.170195,0.1814804 -0.216923,0.7374258 -0.06985,0.831052 -0.177199,1.163719 -0.601191,1.863031 -0.324342,0.534955 -0.341855,0.586531 -0.231772,0.68258 0.161244,0.140688 0.151152,0.259776 -0.07365,0.869123 -0.213639,0.579077 -0.275994,1.201476 -0.124562,1.243335 0.05319,0.0147 0.09332,-0.02195 0.09332,-0.08523 0,-0.06106 0.03986,-0.142496 0.08857,-0.180961 0.122521,-0.09674 0.359379,0.07678 0.359379,0.263281 0,0.09435 0.05991,0.157687 0.184561,0.195107 0.103203,0.03098 0.205503,0.121294 0.232069,0.20487 0.02613,0.0822 0.07818,0.149463 0.115674,0.149463 0.03749,0 0.106433,0.06632 0.153206,0.147378 0.04677,0.08106 0.138552,0.147378 0.203953,0.147378 0.231162,0 0.50767302,0.311436 0.56409102,0.635338 0.06502,0.373306 0.188932,0.464282 0.188932,0.138717 0,-0.218966 0.14319,-0.420349 0.298882,-0.420349 0.119353,0 0.359869,0.326681 0.41378803,0.562026 0.08136,0.35512 0.162109,0.446576 0.359722,0.407413 0.120791,-0.02394 0.239666,0.01412 0.407635,0.130499 0.23358195,0.161842 0.23711095,0.172224 0.23669995,0.696461 -2.24e-4,0.292695 -0.03631,0.638283 -0.08018,0.767976 -0.13702495,0.405087 -0.61017495,1.39587 -0.80075795,1.676803 -0.36170203,0.533174 -0.54884203,1.009053 -0.96337703,2.449776 -0.163221,0.567281 -0.39440802,1.162383 -0.79623302,2.049599 -0.310018,0.68451 -0.635543,1.568145 -0.913755,2.480383 -0.152677,0.500617 -0.770387,1.976987 -0.934036,2.232411 -0.07711,0.12035 -0.213694,0.272886 -0.303526,0.338969 -0.08983,0.06608 -0.125382,0.120152 -0.079,0.120152 0.04638,0 0.105094,-0.02653 0.130472,-0.05895 0.07218,-0.09222 0.313906,-0.06983 0.684232,0.06338 0.320169,0.115166 0.337347,0.133115 0.293414,0.306562 -0.05618,0.221789 -0.123333,0.258843 -0.563455,0.310884 -0.186743,0.02208 -0.507514,0.115008 -0.712825,0.206504 -0.20531,0.0915 -0.65886,0.277574 -1.007889,0.413507 -0.349028,0.135933 -0.661463,0.28351 -0.6943,0.327949 -0.03284,0.04444 -0.09304,0.0808 -0.133773,0.0808 -0.04074,0 -0.146194,0.05306 -0.234344,0.117902 -0.130355,0.09589 -0.263469,0.117903 -0.713123,0.117903 -0.470561,0 -0.558106,-0.01587 -0.58816,-0.10662 -0.03111,-0.09394 -0.08576,-0.101355 -0.459626,-0.06234 -0.468294,0.04887 -0.848879,0.149192 -1.13357,0.298807 -0.1231991,0.06475 -0.4833371,0.119637 -1.0594361,0.161476 -0.4800341,0.03486 -0.9167861,0.07254 -0.9705591,0.08372 -0.05377,0.01118 -0.332945,-0.0018 -0.62038,-0.02888 z m 4.9036892,-2.650989 c 0.08418,-0.03558 0.258356,-0.161583 0.387049,-0.280018 0.128692,-0.118434 0.322714,-0.287436 0.431158,-0.375559 0.163274,-0.132679 0.362766,-0.443609 0.362766,-0.565412 0,-0.05202 -1.074172,0.880473 -1.25322,1.087925 -0.182516,0.211468 -0.169596,0.235264 0.07225,0.133064 z m -6.8677942,-3.266057 c 0.03485,-0.09727 0.137617,-0.357205 0.228367,-0.577634 0.17871,-0.434081 0.146537,-0.510019 -0.216941,-0.512059 -0.142424,-8.02e-4 -0.156728,-0.02626 -0.124703,-0.221969 0.02898,-0.177103 0.0063,-0.235326 -0.114035,-0.292762 -0.142016,-0.06778 -0.15271,-0.05331 -0.196044,0.26528 -0.02521,0.185336 -0.09468,0.501595 -0.154374,0.702798 -0.141597,0.47724 -0.138741,0.510431 0.05944,0.690708 0.217469,0.19782 0.436147,0.174883 0.518287,-0.05436 z m 5.2500412,-1.345464 c 0.453159,-0.729192 0.462682,-0.908956 0.08019,-1.513666 -0.153812,-0.243173 -0.306033,-0.463739 -0.338267,-0.490145 -0.06412,-0.05253 -0.12707,0.374922 -0.231095,1.569117 -0.03727,0.427894 -0.09004,0.897365 -0.117261,1.043269 l -0.04949,0.26528 0.1480231,-0.147378 c 0.08141,-0.08106 0.309969,-0.407973 0.507904,-0.726477 z m -5.1150672,-1.251865 c 0,-0.360665 -0.02688,-0.5504 -0.07466,-0.527081 -0.04106,0.02004 -0.07721,0.107821 -0.08034,0.195071 -0.0031,0.08725 -0.04884,0.251484 -0.101598,0.364965 -0.08502,0.182896 -0.07956,0.224741 0.04809,0.368445 0.0792,0.08916 0.158521,0.162115 0.176255,0.162115 0.01774,0 0.03225,-0.253582 0.03225,-0.563515 z m 12.60141322,-3.666229 c -0.0087,-0.02432 0.02043,-0.09727 0.06479,-0.162115 0.137579,-0.201117 0.239813,-0.68286 0.272463,-1.283887 0.01722,-0.31706 0.02298,-0.569076 0.01279,-0.560036 -0.052,0.04613 -0.408843,0.802478 -0.408843,0.866556 0,0.04098 -0.06719,0.141953 -0.149316,0.224391 -0.08212,0.08244 -0.14931702,0.207906 -0.14931702,0.278815 0,0.181306 0.22421502,0.68049 0.30565102,0.68049 0.0372,0 0.0605,-0.0199 0.05178,-0.04421 z M -17.352912,18.796729 c 0,-0.143252 0.02093,-0.309052 0.04651,-0.368444 0.04033,-0.09362 0.0318,-0.0923 -0.06406,0.0099 -0.127752,0.136209 -0.232188,0.520043 -0.157536,0.578989 0.119026,0.09398 0.175086,0.0234 0.175086,-0.220461 z m -0.237205,-4.218565 c -0.04658,-0.26008 -0.108353,-0.472872 -0.137273,-0.472872 -0.07868,0 -0.146905,0.639074 -0.09819,0.919729 0.04149,0.239003 0.04607,0.242431 0.181357,0.135607 0.127407,-0.100602 0.131846,-0.148387 0.0541,-0.582464 z m 10.4898262,0.05769 c 0.04408,-0.382082 0.04388,-0.382601 -0.07052,-0.180861 -0.07352,0.129648 -0.09752,0.274744 -0.06683,0.403944 0.06349,0.267247 0.08477,0.232696 0.13735,-0.223083 z m 0.586392,-1.93065 c 0.05065,-0.168794 -0.02246,-0.722151 -0.0954,-0.722151 -0.0371,0 -0.06782,0.08622 -0.06827,0.191591 -4.48e-4,0.105375 -0.02165,0.291071 -0.0471,0.412658 -0.03647,0.174213 -0.02232,0.221066 0.06677,0.221066 0.06218,0 0.126978,-0.04642 0.144004,-0.103164 z M -11.686314,4.8906975 c -0.0053,-0.3021503 -0.02461,-0.3815836 -0.06722,-0.2765388 -0.08917,0.2198526 -0.08917,0.7804044 0,0.7368892 0.04106,-0.020039 0.07131,-0.2271962 0.06722,-0.4603504 z"
           id="path3295" /></g></g></g></svg>
