<?xml version="1.0" encoding="UTF-8" standalone="no"?>
<!-- Created with Inkscape (http://www.inkscape.org/) -->

<svg
   width="128"
   height="128"
   viewBox="0 0 33.866666 33.866666"
   version="1.1"
   id="svg1"
   xml:space="preserve"
   inkscape:version="1.4.2 (f4327f4, 2025-05-13)"
   sodipodi:docname="bolletes.svg"
   xmlns:inkscape="http://www.inkscape.org/namespaces/inkscape"
   xmlns:sodipodi="http://sodipodi.sourceforge.net/DTD/sodipodi-0.dtd"
   xmlns="http://www.w3.org/2000/svg"
   xmlns:svg="http://www.w3.org/2000/svg"><sodipodi:namedview
     id="namedview1"
     pagecolor="#ffffff"
     bordercolor="#000000"
     borderopacity="0.25"
     inkscape:showpageshadow="2"
     inkscape:pageopacity="0.0"
     inkscape:pagecheckerboard="0"
     inkscape:deskcolor="#d1d1d1"
     inkscape:document-units="mm"
     inkscape:zoom="1.07"
     inkscape:cx="49.53271"
     inkscape:cy="58.411215"
     inkscape:window-width="1600"
     inkscape:window-height="837"
     inkscape:window-x="-8"
     inkscape:window-y="-8"
     inkscape:window-maximized="1"
     inkscape:current-layer="layer1" /><defs
     id="defs1" /><g
     inkscape:label="Camada 1"
     inkscape:groupmode="layer"
     id="layer1"><g
       id="g2"><path
         style="fill:#626262;fill-opacity:1"
         d="m 17.874211,32.885353 c -0.210801,-0.03639 -0.573293,-0.08769 -0.805538,-0.114006 -0.232244,-0.02632 -0.473707,-0.08308 -0.536585,-0.126138 -0.0982,-0.06725 -0.09269,-0.09583 0.03899,-0.202598 0.08432,-0.06837 0.14735,-0.149465 0.140065,-0.180212 -0.02247,-0.09485 0.841937,-0.106075 1.226801,-0.01593 0.412861,0.0967 0.971111,0.449981 0.971111,0.614549 0,0.124107 -0.402066,0.133562 -1.034842,0.02434 z M 13.313238,32.50896 c -0.393504,-0.08478 -1.107041,-0.130123 -2.261322,-0.143716 -2.0932556,-0.02465 -1.9522416,-0.01135 -1.7630646,-0.166311 0.318013,-0.260499 0.8226106,-0.423759 1.7002486,-0.550106 0.498311,-0.07174 0.934563,-0.159805 0.969447,-0.195704 0.03488,-0.0359 -0.07719,-0.258966 -0.249066,-0.495705 -1.001689,-1.379749 -1.488348,-3.099754 -1.481885,-5.237444 0.0054,-1.784081 0.327739,-3.537966 1.170607,-6.369288 0.37514,-1.26015 0.997766,-3.708959 1.104495,-4.34401 0.06043,-0.359566 0.115697,-0.340443 -1.3358,-0.462197 C 8.4018544,14.312543 5.7543404,13.702137 4.6608364,13.044454 4.4764014,12.933526 4.1893224,12.714182 4.0228814,12.557022 2.6530304,11.263554 3.4534914,8.643563 6.0135394,6.0413898 7.8570604,4.1675341 10.015117,2.8248052 12.443187,2.0409048 13.812534,1.5988125 14.776909,1.460394 16.532748,1.4539233 c 1.959458,-0.00722 2.927187,0.1534002 4.637628,0.7697423 0.744461,0.26826 2.401693,1.1205174 3.104527,1.5965516 2.518198,1.7055918 4.636841,4.2353494 5.323991,6.3570918 0.201498,0.622177 0.289871,1.656854 0.190661,2.232272 -0.0995,0.577093 -0.395239,1.18564 -0.711256,1.463559 -0.882965,0.776519 -2.827098,1.137393 -6.489806,1.20465 l -2.184667,0.04012 0.01902,0.494024 c 0.02555,0.663324 0.292236,2.259118 0.51771,3.097822 0.100692,0.374546 0.428796,1.456123 0.729121,2.403505 0.717098,2.262107 0.978044,3.339886 1.088703,4.496654 0.194976,2.038163 -0.286276,3.962521 -1.34769,5.388933 -0.193115,0.259523 -0.332776,0.502878 -0.310358,0.540788 0.02242,0.03791 0.168079,0.06956 0.323692,0.07033 0.67981,0.0034 2.467599,0.404243 2.467599,0.553318 0,0.112582 -1.178543,0.188761 -2.019713,0.130551 -0.563764,-0.03901 -0.92605,-0.02134 -1.314779,0.06414 -0.899337,0.197756 -1.499495,0.234574 -1.830276,0.112281 l -0.297177,-0.109868 0.653271,-0.383206 c 2.28962,-1.343082 3.316686,-4.312506 2.649185,-7.659245 -0.08349,-0.418611 -0.352044,-1.39203 -0.596785,-2.163155 -0.798002,-2.514334 -1.051831,-3.484274 -1.299907,-4.967243 -0.208387,-1.245715 -0.322203,-2.648875 -0.307609,-3.792322 0.0067,-0.521496 -0.01774,-0.978874 -0.05421,-1.016395 -0.333847,-0.343441 -5.20435,-0.276853 -5.568112,0.07612 -0.03261,0.03165 -0.158152,0.559622 -0.27898,1.173282 -0.368569,1.871894 -0.865503,3.885938 -1.421812,5.762523 -0.932635,3.146032 -1.161504,4.540404 -1.091466,6.649697 0.04647,1.399552 0.255731,2.495299 0.62874,3.29228 0.25275,0.540032 1.100667,1.696789 1.453568,1.983004 0.378707,0.307146 1.456441,0.895737 1.874552,1.023764 l 0.33876,0.103729 -0.223777,0.09982 c -0.299829,0.13374 -1.1661,0.11797 -1.87186,-0.03408 z M 25.982377,14.033832 c 0.412108,-0.07027 0.946777,-0.186276 1.188153,-0.257786 0.54182,-0.160518 1.320398,-0.514004 1.320398,-0.599482 0,-0.261497 -1.120977,-0.76431 -2.658229,-1.192346 -4.243861,-1.18167 -8.595234,-1.861976 -11.906221,-1.861452 -2.13921,3.39e-4 -5.3313346,0.36981 -7.3972056,0.856187 -0.758465,0.178568 -1.740283,0.592475 -1.851488,0.780534 -0.07043,0.119112 0.284115,0.451312 0.697137,0.653194 1.351399,0.660553 3.563057,1.115167 6.6791846,1.37293 l 0.618915,0.05119 0.09799,-0.573064 c 0.05389,-0.315185 0.08416,-0.587512 0.06726,-0.605172 -0.0169,-0.01766 -0.270513,0.0072 -0.563592,0.05515 -0.708387,0.116006 -2.4826056,0.03974 -3.0049926,-0.129168 -0.641475,-0.207416 -0.498978,-0.2956 0.383275,-0.237188 1.0845136,0.07181 2.0510876,-0.06635 3.1236896,-0.446462 1.309462,-0.464055 2.141249,-0.58903 3.909405,-0.587382 1.611641,0.0015 2.849894,0.14083 5.122084,0.576337 0.661075,0.126707 1.477912,0.279165 1.815194,0.338796 l 0.61324,0.10842 -0.574913,0.06367 c -0.567182,0.06282 -2.485977,0.01589 -2.970381,-0.07264 -0.228067,-0.04168 -0.249129,-0.02802 -0.249129,0.161617 0,0.250116 0.208926,0.376984 0.91986,0.558574 0.520583,0.132969 2.028167,0.284293 3.142855,0.315464 l 0.651568,0.01822 -0.45993,0.114134 c -0.712193,0.176735 -2.817552,0.146307 -3.621949,-0.05235 l -0.632404,-0.156178 v 0.476871 0.476871 l 2.395469,-0.03987 c 1.66288,-0.02767 2.624618,-0.07894 3.144755,-0.167636 z M 11.887624,11.176869 c 0.484299,-0.246164 1.142494,-0.372425 1.435229,-0.275319 l 0.179505,0.05955 -0.18677,0.07221 c -0.298226,0.115303 -1.517174,0.386404 -1.707112,0.379671 -0.121392,-0.0043 -0.0378,-0.07501 0.279148,-0.236109 z m 17.176683,0.468795 C 28.948618,10.603855 28.390841,9.294613 27.580875,8.1636741 25.54724,5.3241526 22.529533,3.2970309 19.15779,2.5055306 18.497945,2.3506353 18.187219,2.3301762 16.494421,2.330167 14.787002,2.3301577 14.490285,2.350049 13.773168,2.5125983 9.7976034,3.4137405 5.9692624,6.2474394 4.5186784,9.3626771 c -0.248272,0.5331816 -0.534457,1.6263739 -0.449116,1.7155689 0.02072,0.02166 0.35842,-0.124984 0.750437,-0.325873 0.766772,-0.392934 1.648339,-0.628554 3.472337,-0.9280663 5.2460646,-0.861436 8.8785116,-0.6744417 15.5992916,0.8030353 2.183395,0.47999 3.179906,0.765929 4.13937,1.187748 0.400523,0.176085 0.809223,0.321264 0.908223,0.322619 0.175543,0.0024 0.17864,-0.0098 0.125086,-0.492045 z m -1.824399,-1.50773 C 27.12101,9.8309457 26.860529,9.3176411 26.661062,8.9972563 26.178026,8.2214001 26.174241,8.2144464 26.235014,8.2144464 c 0.144711,0 0.88111,0.9167392 1.093888,1.3617763 0.22384,0.4681723 0.331794,1.1233853 0.184675,1.1208593 -0.03162,-5.43e-4 -0.154771,-0.25216 -0.273669,-0.559148 z M 25.524424,9.4879231 c -0.201083,-0.425171 -0.49854,-0.8821102 -0.792505,-1.2174094 -0.50232,-0.5729516 -0.51345,-0.6932602 -0.02679,-0.2895876 0.376201,0.3120491 0.478751,0.428633 0.769187,0.8744549 0.269966,0.4143979 0.432371,0.8794457 0.396684,1.1359017 -0.01812,0.1302013 -0.110158,-0.0035 -0.346576,-0.5033596 z M 14.001026,31.311001 C 13.752239,31.130738 13.566746,30.891943 13.21742,30.30222 12.884114,29.739544 12.805193,29.311 13.12581,29.804798 c 0.107718,0.165899 0.437135,0.603561 0.732038,0.972582 0.50843,0.636213 0.562405,0.83738 0.143175,0.533621 z m 5.185593,-0.04294 c 0.03116,-0.05508 0.270127,-0.388567 0.531044,-0.741081 0.260918,-0.352514 0.566518,-0.821198 0.679113,-1.041519 l 0.204717,-0.400584 -0.04547,0.320467 c -0.07163,0.504847 -0.411507,1.129571 -0.850753,1.563752 -0.376392,0.372053 -0.648825,0.52909 -0.518651,0.298965 z m -2.47551,-0.473431 c 0.06027,-0.147208 0.20234,-0.429887 0.31572,-0.628176 0.241752,-0.4228 0.187063,-0.142459 -0.08095,0.414944 -0.211117,0.439077 -0.395967,0.606967 -0.234772,0.213232 z m 0.74188,0.162645 c -2.09e-4,-0.02772 0.08373,-0.244039 0.186538,-0.480701 0.102805,-0.236662 0.261697,-0.754768 0.353093,-1.151347 0.159091,-0.690308 0.303193,-1.038402 0.303193,-0.732392 0,0.379244 -0.187241,1.328916 -0.318159,1.613678 -0.141527,0.307838 -0.523878,0.854957 -0.524665,0.750762 z m -2.331324,-0.684264 c -0.152204,-0.328456 -0.351327,-1.030499 -0.348355,-1.228188 0.0031,-0.203058 0.213966,0.24503 0.385703,0.819428 0.187846,0.628276 0.16751,0.850843 -0.03735,0.40876 z m 3.792803,0.132014 c -0.003,-0.06708 0.08055,-0.553787 0.185615,-1.081577 0.105066,-0.52779 0.191303,-0.988786 0.191637,-1.024434 3.35e-4,-0.03565 0.0351,-0.04253 0.07726,-0.0153 0.104614,0.06757 0.09422,0.382291 -0.03306,1.00146 -0.110114,0.535642 -0.411801,1.337261 -0.421454,1.119852 z m -4.884595,-0.769326 c -0.282917,-0.532671 -0.486761,-1.364567 -0.485496,-1.981331 8.19e-4,-0.399149 0.02367,-0.536033 0.07548,-0.452232 0.04087,0.0661 0.07484,0.256038 0.07548,0.422094 6.45e-4,0.166056 0.124135,0.699455 0.274422,1.185332 0.300406,0.971215 0.326319,1.327348 0.06011,0.826137 z m 3.000629,-1.802042 c 0.01511,-0.457498 0.0651,-0.921945 0.111077,-1.032106 0.06461,-0.154796 0.07685,0.01483 0.05388,0.746781 -0.01635,0.52089 -0.06633,0.985338 -0.111078,1.032106 -0.05737,0.05996 -0.07326,-0.160182 -0.05388,-0.746781 z m 3.602202,0.249764 c 0.02937,-0.154225 0.105072,-0.442646 0.168237,-0.640935 0.06719,-0.210916 0.132649,-0.818251 0.15775,-1.46354 0.0236,-0.606658 0.05385,-1.091572 0.06724,-1.077585 0.01338,0.01399 0.05796,0.334785 0.09907,0.712887 0.08809,0.81025 0.0057,1.569784 -0.236024,2.175323 -0.212585,0.532592 -0.326625,0.663356 -0.256268,0.29385 z m -8.421889,0.02284 c -0.134762,-0.140848 -0.361048,-0.809109 -0.432686,-1.277794 -0.07341,-0.480297 -0.05538,-1.103017 0.05646,-1.949716 l 0.04762,-0.360525 0.05857,0.320467 c 0.03222,0.176257 0.05937,0.735072 0.06034,1.241811 0.0014,0.70822 0.03931,1.048228 0.164053,1.469874 0.154256,0.521398 0.167548,0.683298 0.04564,0.555883 z m 7.344249,-2.440893 c -0.005,-1.256386 -0.02438,-1.451808 -0.204752,-2.068132 -0.109557,-0.374352 -0.185405,-0.695052 -0.168551,-0.712667 0.0658,-0.06877 0.421032,0.862557 0.537943,1.410352 0.149059,0.698424 0.122677,2.08767 -0.04732,2.492082 -0.103616,0.246488 -0.112163,0.164769 -0.117315,-1.121635 z m -0.952631,0.221396 c 0,-0.415006 -0.02311,-0.817499 -0.05135,-0.894427 -0.03279,-0.08931 -0.02172,-0.12073 0.03063,-0.08692 0.146753,0.0948 0.270181,0.839375 0.215277,1.298659 -0.0827,0.691805 -0.194548,0.509378 -0.194548,-0.317315 z m -5.182612,-0.741332 c -0.100401,-0.912101 -0.06996,-2.669487 0.05264,-3.038864 0.100085,-0.301548 0.109071,-0.171767 0.109071,1.575319 0,1.047168 -0.02284,1.927947 -0.05074,1.957288 -0.02791,0.02934 -0.07784,-0.192843 -0.110966,-0.493743 z m 3.400384,-1.174547 c -0.03162,-0.08072 -0.0575,-0.279006 -0.0575,-0.440643 -7e-6,-0.161637 -0.05175,-0.576464 -0.114982,-0.921839 -0.122452,-0.668819 -0.139711,-1.599524 -0.04184,-2.256252 0.04907,-0.329298 0.06152,-0.237737 0.06994,0.514516 0.0056,0.503305 0.06368,1.21318 0.129002,1.577501 0.118103,0.658739 0.129794,1.818762 0.01539,1.526717 z m 3.710714,-1.185158 c -0.13391,-0.581227 -0.230012,-1.070846 -0.21356,-1.088041 0.0432,-0.04516 0.405948,1.062767 0.512452,1.565178 0.05732,0.270385 0.06376,0.455078 0.01756,0.503366 -0.0462,0.04829 -0.162313,-0.311474 -0.316452,-0.980503 z m -8.422099,-0.03007 c 0.04374,-0.751835 0.198639,-1.412597 0.394745,-1.683846 0.10592,-0.146506 0.109026,-0.137066 0.04,0.121567 -0.04116,0.154225 -0.144149,0.710679 -0.228863,1.236565 -0.08471,0.525885 -0.175131,0.976543 -0.200926,1.00146 -0.0258,0.02492 -0.02803,-0.279168 -0.005,-0.675746 z m 6.683108,-1.822658 c -0.01961,-0.05508 -0.0671,-0.262383 -0.105524,-0.460672 -0.03843,-0.198289 -0.160585,-0.721052 -0.271465,-1.161694 -0.143705,-0.571096 -0.214823,-1.100263 -0.247648,-1.842687 -0.02533,-0.572836 -0.02701,-1.023493 -0.0037,-1.001461 0.02327,0.02203 0.09787,0.541492 0.165773,1.154354 0.06791,0.612863 0.206094,1.460098 0.307081,1.882746 0.100988,0.422647 0.19941,0.9397 0.218717,1.149005 0.0342,0.370755 0.0089,0.482929 -0.06319,0.280409 z M 16.93508,19.871451 c -10e-4,-0.659116 0.02317,-1.039043 0.05863,-0.921344 0.07982,0.264925 0.08284,1.318898 0.0049,1.722512 -0.04325,0.224089 -0.06237,-0.01686 -0.06357,-0.801168 z m 2.587213,0.0032 c 0,-0.02027 -0.08844,-0.40252 -0.196544,-0.849452 -0.223642,-0.924641 -0.204537,-1.134596 0.03464,-0.380658 0.203044,0.640044 0.316192,1.266958 0.228664,1.266958 -0.03672,0 -0.06676,-0.01658 -0.06676,-0.03685 z m -5.868169,-0.644145 c 0.02045,-0.373555 0.107023,-0.761456 0.259261,-1.161694 0.125704,-0.330482 0.289424,-0.934362 0.363822,-1.341957 0.150113,-0.822411 0.26363,-0.997491 0.18181,-0.280409 -0.08625,0.755937 -0.231238,1.393762 -0.429421,1.889126 -0.102771,0.256879 -0.236204,0.68951 -0.296517,0.961402 l -0.109662,0.49435 z m 3.440856,-2.223242 c -0.08133,-0.239012 -0.04685,-2.906954 0.04219,-3.264761 0.04817,-0.193547 0.07221,0.296603 0.07763,1.582308 0.0043,1.024494 -0.0071,1.862716 -0.02532,1.862716 -0.01824,0 -0.06076,-0.08112 -0.0945,-0.180263 z m 1.855594,-0.596534 c -0.179127,-0.534322 -0.322459,-2.45786 -0.217336,-2.916669 l 0.08075,-0.352429 0.0093,0.480701 c 0.01326,0.68773 0.150217,2.169519 0.246799,2.670238 0.106154,0.550346 0.04551,0.610322 -0.119482,0.118164 z m -5.133475,-0.665301 c 0.104731,-0.902506 0.47347,-2.598313 0.487781,-2.243271 0.01146,0.28433 -0.311789,2.107068 -0.415691,2.344003 l -0.113927,0.259794 z m 1.844536,-0.131357 c -0.06476,-0.493781 -0.05234,-1.503275 0.024,-1.951681 0.04326,-0.254096 0.06421,0.03563 0.07097,0.981432 0.0053,0.738076 -0.003,1.341956 -0.01831,1.341956 -0.01535,0 -0.04984,-0.167268 -0.07665,-0.371707 z m 2.368068,-0.930191 c -0.02707,-0.319466 -0.01735,-0.887294 0.0216,-1.26184 0.06942,-0.667507 0.07103,-0.656004 0.08101,0.580847 0.0056,0.694012 -0.0041,1.26184 -0.0216,1.26184 -0.01748,0 -0.05394,-0.261381 -0.08101,-0.580847 z m -3.178506,-0.428335 c -0.01185,-0.605025 0.09957,-1.70631 0.168143,-1.662012 0.08362,0.05401 0.0019,1.484079 -0.09983,1.746418 -0.05405,0.139417 -0.06417,0.126911 -0.06831,-0.08441 z"
         id="path2" /></g></g></svg>
