<?xml version="1.0" encoding="UTF-8" standalone="no"?>
<!-- Created with Inkscape (http://www.inkscape.org/) -->

<svg
   width="128"
   height="128"
   viewBox="0 0 33.866667 33.866666"
   version="1.1"
   id="svg5"
   xml:space="preserve"
   inkscape:version="1.2.2 (b0a8486541, 2022-12-01)"
   sodipodi:docname="birdsnestfungi_puro.svg"
   xmlns:inkscape="http://www.inkscape.org/namespaces/inkscape"
   xmlns:sodipodi="http://sodipodi.sourceforge.net/DTD/sodipodi-0.dtd"
   xmlns="http://www.w3.org/2000/svg"
   xmlns:svg="http://www.w3.org/2000/svg"><sodipodi:namedview
     id="namedview7"
     pagecolor="#ffffff"
     bordercolor="#000000"
     borderopacity="0.25"
     inkscape:showpageshadow="2"
     inkscape:pageopacity="0.0"
     inkscape:pagecheckerboard="0"
     inkscape:deskcolor="#d1d1d1"
     inkscape:document-units="mm"
     showgrid="false"
     inkscape:zoom="4.8658515"
     inkscape:cx="94.741896"
     inkscape:cy="79.636626"
     inkscape:window-width="1854"
     inkscape:window-height="1011"
     inkscape:window-x="0"
     inkscape:window-y="0"
     inkscape:window-maximized="1"
     inkscape:current-layer="g7782" /><defs
     id="defs2" /><g
     inkscape:label="Camada 1"
     inkscape:groupmode="layer"
     id="layer1"><g
       id="g7782"
       transform="translate(44.331275,-0.25027221)"><path
         style="fill:#6c6c6c;stroke-width:0.062298;fill-opacity:1"
         d="m -25.826095,28.692418 c -1.269889,-0.130456 -1.508243,-0.190805 -2.057734,-0.520996 -0.275291,-0.165425 -0.555792,-0.366241 -0.623337,-0.446259 -0.06754,-0.08002 -0.14397,-0.145488 -0.169836,-0.145488 -0.02587,0 -0.130992,-0.108698 -0.233612,-0.241553 -0.232169,-0.300571 -0.487234,-0.456296 -0.747377,-0.456296 h -0.200149 v -0.496414 -0.496415 l -0.172429,0.03176 c -0.149414,0.02752 -0.21604,-0.02113 -0.499163,-0.364465 -0.279717,-0.339204 -0.335903,-0.450588 -0.390448,-0.774022 -0.03504,-0.207791 -0.142723,-0.519116 -0.239291,-0.691833 -0.301173,-0.538664 -0.446463,-1.129635 -0.434464,-1.767191 0.0063,-0.335807 -0.01746,-0.526765 -0.08066,-0.647801 -0.07089,-0.135758 -0.08074,-0.255016 -0.04712,-0.570601 0.06519,-0.611985 0.0491,-1.271283 -0.03104,-1.271283 -0.02854,0 -0.05189,0.04033 -0.05189,0.08963 0,0.117997 -0.241583,0.286145 -0.571745,0.397949 -0.186692,0.06322 -0.302398,0.154693 -0.388535,0.307165 -0.373307,0.660792 -1.156219,1.116401 -2.102196,1.223354 -0.438105,0.04953 -0.598048,0.103771 -0.969569,0.328788 -0.43071,0.260867 -0.46356,0.26941 -1.028867,0.267565 -0.636941,-0.0021 -0.934749,-0.12171 -1.301316,-0.522747 -0.09486,-0.103776 -0.228122,-0.210478 -0.296147,-0.237116 -0.06802,-0.02664 -0.168131,-0.118172 -0.222458,-0.203408 -0.05433,-0.08524 -0.216952,-0.26079 -0.361389,-0.39012 -0.161728,-0.144812 -0.371255,-0.442793 -0.545419,-0.77567 -0.270877,-0.517725 -0.293621,-0.54256 -0.539174,-0.588766 -0.33958,-0.0639 -0.486439,-0.194964 -0.627157,-0.559715 -0.14451,-0.374579 -0.239852,-0.478074 -0.386581,-0.419638 -0.0812,0.03234 -0.113897,0.01444 -0.113897,-0.06233 0,-0.181238 -0.193285,-0.519037 -0.393754,-0.688153 -0.180738,-0.15247 -0.293025,-0.469686 -0.166258,-0.469686 0.117497,0 0.0559,-0.177164 -0.10918,-0.314032 -0.09259,-0.07676 -0.183123,-0.211733 -0.201189,-0.299932 -0.01807,-0.0882 -0.0352,-0.826174 -0.03807,-1.639944 -0.0058,-1.654332 -0.003,-1.670948 0.511027,-2.963927 0.11794,-0.296678 0.230886,-0.624905 0.250991,-0.729392 0.05541,-0.287953 0.246044,-0.472979 0.487327,-0.472979 0.25419,0 0.298674,-0.07666 0.298674,-0.514728 0,-0.448305 0.08764,-0.523061 0.469302,-0.400319 0.281255,0.09045 0.282041,0.09023 0.557195,-0.15782 0.151549,-0.1366181 0.474118,-0.3736778 0.716821,-0.5267989 0.242702,-0.1531211 0.566579,-0.3952411 0.719725,-0.5380445 0.298209,-0.2780677 0.675151,-0.4362793 1.051287,-0.4412494 0.128193,-0.00169 0.248546,-0.034483 0.267451,-0.072865 0.0189,-0.038382 0.169614,-0.069785 0.33491,-0.069785 0.170633,0 0.424034,-0.061081 0.58625,-0.1413118 0.24865,-0.1229812 0.384929,-0.1381971 1.050584,-0.1173007 0.703724,0.022092 0.784475,0.038427 1.010095,0.2043387 0.134873,0.09918 0.370035,0.2032545 0.522582,0.2312761 0.326637,0.06 0.781955,0.2717324 0.898307,0.4177311 0.04743,0.059518 0.184984,0.1031151 0.325332,0.1031151 0.234301,0 0.264603,0.026684 0.832083,0.7327409 0.426127,0.5301874 0.626609,0.7327404 0.725246,0.7327404 0.161106,0 0.464118,0.324462 0.488786,0.523387 0.0095,0.07676 0.07441,0.277343 0.144202,0.445733 0.120026,0.28959 0.123993,0.383753 0.03185,0.756016 -0.03442,0.139046 -0.01438,0.159785 0.194926,0.201783 0.128306,0.02575 0.245025,0.0852 0.259375,0.132122 0.01435,0.04692 -0.02848,0.216696 -0.09519,0.377273 -0.107998,0.259993 -0.11189,0.301144 -0.03555,0.375859 0.117722,0.115209 0.143817,0.329136 0.06557,0.537501 -0.05392,0.143576 -0.04675,0.227356 0.04049,0.473239 l 0.106011,0.298777 0.155014,-0.138504 c 0.08526,-0.07618 0.187137,-0.187074 0.226401,-0.246438 0.03926,-0.05936 0.101984,-0.107935 0.139381,-0.107935 0.09498,0 0.252074,-0.231747 0.252074,-0.371865 0,-0.07658 0.04583,-0.116629 0.133475,-0.116629 0.07839,0 0.213806,-0.1008 0.328125,-0.244247 0.166037,-0.208343 0.232256,-0.244247 0.450477,-0.244247 0.211586,0 0.255826,-0.02227 0.255826,-0.128753 0,-0.138006 0.132694,-0.310918 0.293638,-0.382636 0.08661,-0.03859 0.09464,-0.103197 0.06424,-0.516548 -0.01911,-0.25984 -0.05966,-0.645155 -0.09009,-0.856254 -0.09256,-0.641945 -0.114427,-1.11673 -0.05555,-1.206138 0.03074,-0.04669 0.07396,-0.2061961 0.09605,-0.3544689 0.04333,-0.290934 0.441745,-1.0070423 0.824146,-1.4813254 0.126574,-0.1569868 0.349233,-0.4473501 0.494796,-0.6452517 0.145564,-0.1979017 0.350501,-0.4148929 0.455417,-0.4822028 0.104916,-0.06731 0.398756,-0.3002953 0.652977,-0.5177455 0.349385,-0.2988488 0.530103,-0.4069161 0.740293,-0.4426862 0.152939,-0.026027 0.307944,-0.078162 0.344453,-0.1158543 0.130854,-0.1350934 0.656105,-0.2611442 1.083274,-0.2599663 0.239214,6.629e-4 0.463544,-0.020987 0.49851,-0.048104 0.03497,-0.027117 0.529334,-0.073432 1.098595,-0.1029228 1.300728,-0.067385 2.04991,0.010485 2.647838,0.2752158 0.244704,0.1083415 0.612678,0.2645531 0.817721,0.3471367 0.205043,0.082584 0.65552,0.3176582 1.00106,0.5223878 0.345539,0.2047297 0.747708,0.4272515 0.893708,0.494493 0.579166,0.2667391 0.889764,0.610507 1.378353,1.525551 0.250191,0.4685655 0.564551,0.9997571 0.698577,1.1804256 0.209199,0.282 0.243715,0.370885 0.243894,0.628064 1.11e-4,0.189336 0.04567,0.389453 0.123749,0.543822 0.08488,0.167813 0.132676,0.396225 0.152732,0.729903 0.02689,0.447444 0.04013,0.488842 0.168226,0.526147 0.190052,0.05535 0.211284,0.331934 0.04428,0.576859 -0.07024,0.103009 -0.188658,0.332166 -0.263158,0.50924 -0.111166,0.264218 -0.123632,0.345708 -0.06952,0.454435 0.09719,0.195277 0.08205,0.285715 -0.08726,0.521229 -0.08398,0.116813 -0.18704,0.28953 -0.229033,0.383817 -0.145108,0.32581 -0.425051,0.785965 -0.661472,1.087292 -0.130512,0.166341 -0.261281,0.381607 -0.290599,0.478368 -0.03989,0.13164 -0.09348,0.175928 -0.212906,0.175928 -0.09156,0 -0.20471,0.06255 -0.265414,0.146714 -0.0582,0.08069 -0.180952,0.194045 -0.272788,0.251895 -0.09184,0.05785 -0.242054,0.207916 -0.333818,0.333483 -0.16048,0.219596 -0.886715,0.698291 -1.321269,0.870908 -0.11494,0.04566 -0.234696,0.143305 -0.266125,0.216995 -0.04934,0.115675 -0.120512,0.133981 -0.520958,0.133981 -0.887327,0 -1.000747,0.101554 -0.774863,0.693799 0.129931,0.340667 0.138049,0.417361 0.102994,0.973108 -0.03508,0.556138 -0.02898,0.613599 0.07805,0.735137 0.17845,0.202643 0.162755,0.785116 -0.02725,1.011345 -0.120574,0.143559 -0.136137,0.207719 -0.10553,0.435037 0.0283,0.210218 0.01136,0.305789 -0.08007,0.451634 -0.06378,0.101746 -0.115966,0.24247 -0.115966,0.312722 0,0.07025 -0.07254,0.231402 -0.161203,0.358112 -0.08866,0.126709 -0.188853,0.359226 -0.222646,0.516704 -0.03379,0.157478 -0.107969,0.36108 -0.164834,0.452449 -0.05686,0.09137 -0.122199,0.244635 -0.145188,0.340589 -0.06101,0.254647 -0.258136,0.648232 -0.380498,0.75971 -0.05841,0.05322 -0.172173,0.190921 -0.252807,0.306013 -0.56065,0.800243 -0.973472,1.213051 -1.70381,1.703756 -0.959253,0.644509 -1.41251,0.858246 -1.824085,0.860161 -0.09792,4.89e-4 -0.314015,0.04624 -0.480214,0.101739 -0.386224,0.128976 -1.320172,0.176267 -2.033625,0.102973 z"
         id="path12499" /></g></g></svg>
