<?xml version="1.0" encoding="UTF-8" standalone="no"?>
<!-- Created with Inkscape (http://www.inkscape.org/) -->

<svg
   width="128"
   height="128"
   viewBox="0 0 33.866666 33.866666"
   version="1.1"
   id="svg1"
   xml:space="preserve"
   inkscape:version="1.4.2 (f4327f4, 2025-05-13)"
   sodipodi:docname="birds.svg"
   xmlns:inkscape="http://www.inkscape.org/namespaces/inkscape"
   xmlns:sodipodi="http://sodipodi.sourceforge.net/DTD/sodipodi-0.dtd"
   xmlns="http://www.w3.org/2000/svg"
   xmlns:svg="http://www.w3.org/2000/svg"><sodipodi:namedview
     id="namedview1"
     pagecolor="#ffffff"
     bordercolor="#000000"
     borderopacity="0.25"
     inkscape:showpageshadow="2"
     inkscape:pageopacity="0.0"
     inkscape:pagecheckerboard="0"
     inkscape:deskcolor="#d1d1d1"
     inkscape:document-units="mm"
     inkscape:zoom="1.5"
     inkscape:cx="49.666667"
     inkscape:cy="57.666667"
     inkscape:window-width="1600"
     inkscape:window-height="837"
     inkscape:window-x="-8"
     inkscape:window-y="-8"
     inkscape:window-maximized="1"
     inkscape:current-layer="layer1" /><defs
     id="defs1" /><g
     inkscape:label="Camada 1"
     inkscape:groupmode="layer"
     id="layer1"><g
       id="g1"><path
         style="fill:#626262;fill-opacity:1"
         d="m 15.925778,31.201143 c -0.556249,-0.07632 -1.551926,-0.409885 -1.812211,-0.607122 -0.109295,-0.08282 -0.224806,-0.151829 -0.256693,-0.153355 -0.03189,-0.0015 -0.148734,-0.126941 -0.259662,-0.278699 -0.227296,-0.31096 -0.252854,-0.58594 -0.09168,-0.986344 0.169275,-0.420517 0.134287,-0.878692 -0.119917,-1.570323 -0.126461,-0.34407 -0.252254,-0.659838 -0.279541,-0.701707 -0.02729,-0.04187 -0.143588,-0.324486 -0.258447,-0.628038 -0.114858,-0.303551 -0.240077,-0.551911 -0.278263,-0.551911 -0.03819,0 -0.272213,0.05464 -0.520059,0.121418 -0.689547,0.185792 -2.6138198,0.117391 -3.3094408,-0.117638 -0.973534,-0.32893 -1.491708,-0.842829 -1.516674,-1.504162 -0.0079,-0.208784 0.08285,-0.51102 0.300927,-1.002415 0.399644,-0.90052 0.447358,-1.352209 0.229794,-2.175352 -0.08722,-0.329994 -0.141046,-0.647424 -0.119612,-0.705401 0.02143,-0.05798 0.01212,-0.08818 -0.02071,-0.06713 -0.03282,0.02106 -0.145789,-0.225525 -0.251043,-0.547957 -0.105254,-0.322432 -0.324648,-0.976406 -0.487544,-1.453274 -0.162895,-0.476868 -0.280363,-0.893586 -0.26104,-0.926038 0.01932,-0.03245 0.0091,-0.0705 -0.02269,-0.08454 -0.0318,-0.01404 -0.277617,-0.710664 -0.546252,-1.548047 -0.523828,-1.632863 -0.94556,-2.874943 -1.266529,-3.730162 -0.729337,-1.94331 -0.907563,-2.3832854 -1.310583,-3.2353441 -0.44509,-0.941004 -0.450068,-0.958758 -0.44826,-1.598641 0.0016,-0.561512 0.03056,-0.707432 0.219159,-1.103601 0.397927,-0.835897 1.249475,-1.595531 2.455947,-2.19086 1.036542,-0.511477 2.075815,-0.8292352 3.813714,-1.1660433 0.5600648,-0.1085417 3.5479468,-0.1071396 4.3313058,0.00203 1.882296,0.2623246 3.365569,0.7904918 4.567004,1.6262288 1.620678,1.12737 1.973781,2.866278 0.924,4.55038 -0.313064,0.5022302 -0.376235,0.7713072 -0.159679,0.6801512 1.448815,-0.6098522 3.574063,-0.8926312 5.482214,-0.7294462 2.097912,0.179413 3.539722,0.6374142 4.797418,1.5239326 0.867909,0.611768 1.327112,1.364049 1.384193,2.267628 0.04031,0.638145 0.01318,0.72345 -0.58762,1.84767 -0.234944,0.439626 -0.473945,0.953475 -0.531113,1.141886 -0.05717,0.188411 -0.191329,0.59949 -0.298135,0.913509 -0.106806,0.314019 -0.20154,0.6052 -0.21052,0.647069 -0.04954,0.230964 -0.278913,1.011435 -0.335593,1.141886 -0.03638,0.08374 -0.146588,0.426304 -0.244901,0.761258 -0.21922,0.746889 -0.637429,1.950085 -1.151007,3.31147 -0.443221,1.174882 -0.538032,1.90049 -0.347019,2.655797 0.135159,0.534449 0.09128,0.731737 -0.238998,1.074556 -0.515822,0.53541 -1.821301,0.91466 -3.140435,0.912317 -0.700477,-0.0012 -1.784542,-0.228026 -2.330748,-0.487584 -0.227485,-0.108101 -0.422741,-0.196547 -0.433902,-0.196547 -0.01116,0 -0.18869,0.352612 -0.39451,0.783582 -0.419131,0.877623 -0.465083,1.228435 -0.265584,2.027562 0.07902,0.316542 0.0892,0.505507 0.03733,0.693236 -0.260354,0.942274 -2.497433,1.630137 -4.436392,1.364113 z m 2.526862,-0.872122 c 0.608962,-0.141129 0.996995,-0.322109 1.206725,-0.562821 0.126879,-0.145621 0.13094,-0.190643 0.04365,-0.483886 -0.224392,-0.75384 -0.143768,-1.483247 0.265756,-2.404291 0.136567,-0.307147 0.226507,-0.595057 0.199867,-0.639799 -0.02664,-0.04474 -0.01457,-0.05962 0.02684,-0.03306 0.04252,0.02728 0.131531,-0.108384 0.204563,-0.311772 0.07111,-0.198033 0.190746,-0.503534 0.265859,-0.678891 0.07511,-0.175357 0.146861,-0.380897 0.159439,-0.456755 0.01258,-0.07586 0.09378,-0.279272 0.18044,-0.452032 0.08666,-0.17276 0.136985,-0.335479 0.111822,-0.361597 -0.02516,-0.02612 -0.01377,-0.04749 0.02532,-0.04749 0.03909,0 0.133362,-0.179847 0.209488,-0.39966 0.07613,-0.219814 0.179968,-0.482846 0.230757,-0.584517 0.05079,-0.101671 0.0743,-0.215163 0.05224,-0.252205 -0.02206,-0.03704 0.01034,-0.125203 0.07199,-0.195912 0.06165,-0.07071 0.147525,-0.225301 0.190834,-0.343537 l 0.07874,-0.214975 -0.19354,0.15802 c -0.106447,0.08691 -0.221043,0.158019 -0.254659,0.158019 -0.03362,0 -0.326195,0.134455 -0.650176,0.298788 -0.32398,0.164333 -0.589055,0.283352 -0.589055,0.264485 0,-0.01887 -0.09076,0.01362 -0.201687,0.07219 -0.269404,0.142251 -1.044308,0.331924 -1.631829,0.399421 -0.622869,0.07156 -3.043638,0.03694 -3.043638,-0.04352 0,-0.0074 -0.05435,-0.02433 -0.120773,-0.03772 -0.955445,-0.192625 -1.48088,-0.363836 -2.19656,-0.715741 -0.266099,-0.130842 -0.517055,-0.237896 -0.55768,-0.237896 -0.04063,0 -0.164625,-0.08731 -0.275554,-0.194018 -0.310383,-0.298577 -0.353255,-0.193457 -0.1257,0.308207 0.212602,0.468696 0.787946,2.061793 0.989737,2.740527 0.06224,0.209346 0.294122,0.860221 0.515295,1.446389 0.534668,1.417018 0.617331,1.846758 0.497556,2.586643 -0.05087,0.314256 -0.07111,0.607289 -0.04497,0.651185 0.111011,0.186441 0.665335,0.469054 1.192141,0.607793 0.467996,0.123251 0.745174,0.143808 1.593325,0.118168 0.57418,-0.01736 1.267732,-0.08688 1.573433,-0.157732 z m -3.048068,-0.906984 c -0.02194,-0.05934 0.01078,-0.204933 0.07271,-0.323535 l 0.112594,-0.21564 0.0029,0.323535 c 0.0028,0.312367 -0.10627,0.437355 -0.188237,0.21564 z m 1.627525,-0.440904 c -0.07083,-0.355364 -0.09202,-0.967304 -0.03672,-1.060193 0.0667,-0.11202 0.110353,0.06168 0.177729,0.7072 0.02758,0.264248 0.01574,0.449129 -0.03066,0.478899 -0.04157,0.02667 -0.09123,-0.02999 -0.110349,-0.125906 z m 1.212016,-0.0534 c -0.117721,-0.07738 -0.169677,-0.524373 -0.0803,-0.690866 0.04736,-0.08822 0.06899,-0.07147 0.0983,0.07613 0.06531,0.328878 0.117538,0.6841 0.100412,0.68289 -0.0091,-6.41e-4 -0.06236,-0.03131 -0.118408,-0.06815 z m 0.798643,-1.07257 c -0.0661,-0.04434 -0.07515,-0.07426 -0.02266,-0.07496 0.04804,-6.42e-4 0.107745,0.03309 0.132675,0.07496 0.05627,0.09451 0.03088,0.09451 -0.110011,0 z m -3.358991,-0.308395 c -0.125218,-0.208119 -0.114474,-0.655865 0.01574,-0.655865 0.07209,0 0.111262,0.114522 0.128346,0.375231 0.02744,0.418764 -0.01327,0.498057 -0.144083,0.280634 z m 3.305815,-0.376737 c -0.0061,-0.08374 0.0199,-0.152252 0.05773,-0.152252 0.03783,0 0.06487,-0.02569 0.0601,-0.05709 -0.02162,-0.142126 0.01411,-0.252916 0.07,-0.217062 0.05199,0.03335 0.05794,0.301681 0.0095,0.426408 -0.0081,0.02093 -0.01089,0.06376 -0.0061,0.09516 0.0048,0.0314 -0.0338,0.05709 -0.08572,0.05709 -0.05192,0 -0.09938,-0.06851 -0.105453,-0.152251 z m -4.603956,-0.228377 c -0.02493,-0.04187 -0.01038,-0.07613 0.03234,-0.07613 0.04272,0 0.07767,0.03426 0.07767,0.07613 0,0.04187 -0.01455,0.07612 -0.03234,0.07612 -0.01779,0 -0.05274,-0.03426 -0.07767,-0.07612 z m 3.239212,-0.05075 c -0.07626,-0.07916 -0.0574,-1.381199 0.02074,-1.431324 0.106852,-0.06855 0.166114,0.407616 0.117984,0.947983 -0.04572,0.513291 -0.06044,0.564596 -0.138726,0.483341 z m -3.349223,-0.182119 c 0,-0.04434 0.033,-0.05945 0.07334,-0.03357 0.04034,0.02588 0.07334,0.06216 0.07334,0.08062 0,0.01846 -0.033,0.03357 -0.07334,0.03357 -0.04034,0 -0.07334,-0.03628 -0.07334,-0.08062 z m 4.840483,-0.152252 c 0,-0.04434 0.033,-0.05945 0.07334,-0.03357 0.04034,0.02588 0.07334,0.06216 0.07334,0.08062 0,0.01846 -0.033,0.03357 -0.07334,0.03357 -0.04034,0 -0.07334,-0.03628 -0.07334,-0.08062 z m 0.739197,-0.268291 c 0.0035,-0.08868 0.0209,-0.106721 0.04431,-0.04599 0.02119,0.05495 0.01858,0.120612 -0.0058,0.145908 -0.02437,0.0253 -0.04171,-0.01967 -0.03852,-0.09991 z m -3.558938,-0.888134 c -0.01551,-0.05234 -0.04596,-0.323328 -0.06767,-0.602204 -0.03119,-0.400684 -0.0171,-0.515957 0.06717,-0.549522 0.08091,-0.03223 0.108196,0.02582 0.11309,0.240606 0.0035,0.155696 0.02118,0.445802 0.03918,0.64468 0.02049,0.226407 0.0035,0.361597 -0.04542,0.361597 -0.04298,0 -0.09084,-0.04282 -0.106344,-0.09516 z m 2.4974,-0.04418 c -0.0207,-0.03476 0.05053,-0.391768 0.158299,-0.793342 0.154446,-0.575535 0.222824,-0.728033 0.322931,-0.720206 0.0766,0.006 0.103345,0.04138 0.06739,0.08918 -0.03278,0.04359 -0.06351,0.130634 -0.06828,0.193438 -0.02191,0.288279 -0.149114,0.989256 -0.192846,1.062703 -0.02674,0.04492 -0.07897,0.0622 -0.11606,0.03841 -0.03709,-0.02379 -0.04778,0.0099 -0.02376,0.07488 0.04491,0.121484 -0.08031,0.168068 -0.147676,0.05494 z m -4.056791,-0.184201 c -0.08616,-0.117143 -0.263529,-1.125187 -0.208097,-1.182723 0.02206,-0.0229 0.04011,-0.0017 0.04011,0.04718 0,0.156201 0.01124,0.201348 0.06946,0.279127 0.09534,0.127347 0.264046,0.951572 0.194775,0.951572 -0.01444,0 -0.05775,-0.04282 -0.09625,-0.09516 z m 5.403007,-0.551912 c -0.01913,-0.100584 -0.01909,-0.101189 0.03028,-0.479769 0.04825,-0.369994 0.247467,-0.852431 0.352,-0.852431 0.03812,0 0.04891,-0.03426 0.02398,-0.07613 -0.02493,-0.04187 0.0023,-0.07613 0.06049,-0.07613 0.08463,0 0.07148,0.08823 -0.06567,0.440679 -0.09432,0.242373 -0.179591,0.565598 -0.189497,0.718276 -0.0099,0.152678 -0.04159,0.262469 -0.07042,0.243979 -0.02882,-0.01849 -0.06912,0.0094 -0.08955,0.06201 -0.02043,0.0526 -0.04366,0.06137 -0.05162,0.0195 z m -6.779578,-0.53288 c -0.06989,-0.167477 -0.143944,-0.458658 -0.164565,-0.647069 -0.03324,-0.303675 -0.02509,-0.329602 0.07173,-0.228377 0.173073,0.180942 0.349946,0.818894 0.280499,1.011716 -0.05616,0.155938 -0.06988,0.145978 -0.187663,-0.13627 z m 7.117221,-0.01575 c -0.0398,-0.108495 -0.03138,-0.117239 0.04106,-0.04261 0.05012,0.05164 0.07266,0.113065 0.05008,0.136503 -0.02258,0.02344 -0.06359,-0.01881 -0.09113,-0.09389 z m 0.765361,-1.161812 c 0,-0.04056 0.0495,-0.05402 0.110011,-0.02992 0.06051,0.0241 0.110011,0.05728 0.110011,0.07374 0,0.01646 -0.0495,0.02992 -0.110011,0.02992 -0.06051,0 -0.110011,-0.03318 -0.110011,-0.07374 z m 3.881077,3.289605 c 0.02346,-0.03469 0.16325,-0.06163 0.310651,-0.05986 0.147402,0.0018 0.254375,-0.01969 0.237718,-0.04769 -0.01666,-0.02799 0.06901,-0.07354 0.190375,-0.101205 0.121365,-0.02767 0.220662,-0.08184 0.220662,-0.120383 0,-0.03854 0.02475,-0.0628 0.05501,-0.05391 0.03025,0.0089 0.132403,-0.02831 0.226999,-0.08268 0.149692,-0.08603 0.165293,-0.135021 0.120315,-0.37777 -0.102857,-0.555123 -0.118962,-0.713837 -0.132185,-1.302651 -0.0074,-0.32923 0.01131,-0.582683 0.04156,-0.563229 0.03025,0.01945 0.05501,-0.034 0.05501,-0.118791 0,-0.08479 0.04617,-0.266658 0.102607,-0.404153 0.210571,-0.51303 1.024849,-2.840716 1.112728,-3.180833 0.01623,-0.0628 0.07871,-0.298547 0.13885,-0.523873 0.06014,-0.225327 0.08848,-0.444724 0.06298,-0.487548 -0.0255,-0.04283 -0.01209,-0.05588 0.0298,-0.02901 0.04189,0.02687 0.111344,-0.04491 0.154345,-0.159521 0.153269,-0.408499 0.302362,-1.027579 0.263279,-1.093219 -0.02185,-0.0367 -0.01162,-0.06673 0.02275,-0.06673 0.03436,0 0.123302,-0.196975 0.197638,-0.437723 0.07434,-0.240748 0.199756,-0.626134 0.278711,-0.856415 0.152655,-0.44523 0.211604,-0.685131 0.16835,-0.685131 -0.107502,0 -0.250223,0.10453 -0.217578,0.159356 0.02203,0.037 -0.01239,0.04639 -0.07649,0.02085 -0.0641,-0.02553 -0.173078,0.0046 -0.242166,0.06694 -0.115222,0.103986 -1.408794,0.531984 -1.87052,0.618891 -0.107911,0.02031 -0.227394,0.05694 -0.265516,0.08139 -0.05783,0.0371 -0.582591,0.10326 -1.124892,0.141823 -0.07059,0.005 -0.128346,0.03238 -0.128346,0.06079 0,0.02842 -0.05122,0.07207 -0.11382,0.097 -0.0626,0.02493 -0.0972,0.01743 -0.0769,-0.01668 0.02031,-0.03411 -0.151246,-0.03435 -0.381229,-5.39e-4 -0.229984,0.03381 -0.682179,0.04418 -1.004878,0.02305 -0.686472,-0.04496 -0.938221,-0.07706 -1.833516,-0.233802 l -0.220022,-0.03852 0.256692,0.174551 c 0.244217,0.166068 0.516814,0.401912 0.952584,0.824149 0.524048,0.507774 0.905544,1.424843 0.837848,2.014084 -0.07222,0.628645 -0.08118,0.665093 -0.309308,1.259323 -0.529376,1.378888 -0.967739,2.562038 -0.967739,2.611944 0,0.02976 -0.0641,0.199334 -0.142443,0.376822 -0.501538,1.136239 -0.733269,1.825654 -0.660856,1.966095 0.04128,0.08006 0.123397,0.145564 0.182484,0.145564 0.05909,0 0.10743,0.03426 0.10743,0.07613 0,0.04187 0.05145,0.07613 0.11434,0.07613 0.06289,0 0.09904,0.02569 0.08034,0.05709 -0.0187,0.0314 0.03711,0.06342 0.124017,0.07115 0.08691,0.0077 0.372535,0.06681 0.634728,0.131276 0.50562,0.124328 2.401526,0.114757 2.487604,-0.01256 z M 22.60883,25.358212 c -0.02991,-0.05023 -0.02861,-0.134151 0.0029,-0.186487 0.0315,-0.05234 0.06416,-0.142455 0.07259,-0.200264 0.02071,-0.142133 0.147155,-0.265967 0.19094,-0.186998 0.05914,0.106653 -0.205369,0.676279 -0.266418,0.573749 z m 2.075102,-0.414864 c -0.04761,-0.74839 -0.04636,-0.946804 0.0066,-1.044988 0.09039,-0.16764 0.219501,0.217513 0.219501,0.654776 0,0.248639 0.02505,0.328934 0.09168,0.293902 0.05042,-0.02651 0.02761,0.0057 -0.05069,0.07163 -0.171667,0.1445 -0.258928,0.152563 -0.267064,0.02468 z m -1.166251,-1.09748 c 6.3e-4,-0.118629 0.04558,-0.411681 0.09989,-0.651227 0.05431,-0.239545 0.07955,-0.45546 0.0561,-0.479809 -0.02346,-0.02435 0.009,-0.02371 0.07208,0.0014 0.1181,0.04704 0.118067,0.407231 -9.5e-5,1.022513 -0.06312,0.328699 -0.229566,0.406889 -0.227974,0.107096 z m 2.317379,0.112947 c 0.02118,-0.03557 0.06923,-0.04497 0.106785,-0.02088 0.09596,0.06156 0.08515,0.08556 -0.03851,0.08556 -0.05873,0 -0.08946,-0.02911 -0.06827,-0.06468 z m 0.09072,-0.90594 c -0.08507,-0.09186 -0.09797,-0.154579 -0.04345,-0.211178 0.108535,-0.112656 -0.06648,-0.318369 -0.225943,-0.265573 -0.102778,0.03403 -0.105314,0.02775 -0.01543,-0.03823 0.07376,-0.05415 0.13612,-0.05434 0.198474,-6.28e-4 0.109267,0.09413 0.244029,0.02256 0.244029,-0.129589 0,-0.06033 0.0495,-0.109696 0.110011,-0.109696 0.143985,0 0.133676,0.266261 -0.02377,0.614064 -0.115469,0.255069 -0.13023,0.263591 -0.243919,0.140833 z M 25.095729,22.20539 c 0.02537,-0.176531 0.07321,-0.373507 0.106321,-0.437723 0.03311,-0.06422 0.06346,-0.14245 0.06743,-0.173852 0.004,-0.0314 0.02373,-0.05709 0.0439,-0.05709 0.0368,0 0.04281,0.02715 0.02951,0.13322 -0.0039,0.0314 -0.0082,0.170404 -0.0094,0.308894 -0.0017,0.185965 -0.02956,0.240928 -0.106661,0.210218 -0.06951,-0.02769 -0.08543,-0.01008 -0.04764,0.0527 0.09818,0.163113 0.08858,0.284599 -0.02249,0.284599 -0.08422,0 -0.09722,-0.06848 -0.06094,-0.320965 z m 1.028631,-0.813822 c -0.0226,-0.03796 0.02495,-0.0511 0.105683,-0.02918 0.171249,0.04648 0.192896,0.09821 0.0411,0.09821 -0.05813,0 -0.124177,-0.03106 -0.146783,-0.06903 z m 0.203649,-0.711262 c 0.02007,-0.136075 0.09027,-0.428015 0.155989,-0.648756 0.06572,-0.220741 0.0964,-0.440137 0.06817,-0.487548 -0.03144,-0.05281 -0.01852,-0.06516 0.03335,-0.03188 0.05287,0.03392 0.08467,-0.0011 0.08467,-0.09311 0,-0.08108 0.0484,-0.189115 0.107553,-0.240073 0.0929,-0.08003 0.103592,-0.03202 0.07848,0.352276 -0.01599,0.24471 -0.03551,0.453491 -0.04338,0.463958 -0.0079,0.01047 -0.01844,0.05043 -0.02348,0.08881 -0.005,0.03838 -0.03363,0.09518 -0.06354,0.126215 -0.0299,0.03104 -0.0134,0.108983 0.03667,0.173209 0.05733,0.07354 0.06007,0.09751 0.0074,0.06475 -0.08228,-0.05117 -0.368527,0.308697 -0.33603,0.422456 0.009,0.0314 -0.01939,0.05709 -0.06301,0.05709 -0.04809,0 -0.06495,-0.09743 -0.04283,-0.247409 z m 0.48886,0.207975 c 0,-0.06162 0.210183,-0.09005 0.289508,-0.03916 0.05937,0.03809 0.02392,0.05957 -0.09833,0.05957 -0.10515,0 -0.191182,-0.0092 -0.191182,-0.0204 z m -2.638811,-0.239694 c 0.002,-0.196201 0.140287,-1.178109 0.188456,-1.338545 0.022,-0.07327 0.07453,-0.13322 0.116724,-0.13322 0.05028,0 0.05796,0.124639 0.02229,0.361598 -0.02994,0.198878 -0.07494,0.547241 -0.100003,0.77414 -0.02506,0.226898 -0.08682,0.426728 -0.137241,0.444067 -0.05132,0.01765 -0.09104,-0.02991 -0.09022,-0.10804 z m 2.938062,-0.786633 c 0.106917,-0.233023 0.140793,-0.27621 0.140793,-0.179489 0,0.04085 -0.05133,0.14076 -0.114057,0.222033 -0.107545,0.139334 -0.109072,0.136905 -0.02674,-0.04254 z m -0.08858,-0.513849 c -0.09311,-0.123229 -0.08966,-0.124844 0.04602,-0.02154 0.08068,0.06142 0.160433,0.121373 0.17724,0.13322 0.01681,0.01185 -0.0039,0.02154 -0.04603,0.02154 -0.04212,0 -0.121879,-0.05995 -0.17724,-0.13322 z m -1.434871,-0.304503 c 0.02305,-0.157009 0.0565,-0.353984 0.07435,-0.437723 0.01785,-0.08374 0.05574,-0.297842 0.08421,-0.475786 0.05315,-0.332225 0.153566,-0.426732 0.202204,-0.190314 0.01507,0.07327 0.0035,0.253118 -0.02575,0.39966 -0.07496,0.375741 -0.145125,0.782572 -0.154262,0.894478 -0.0043,0.05234 -0.05612,0.09516 -0.115213,0.09516 -0.08271,0 -0.0978,-0.06571 -0.06554,-0.285472 z m 0.334761,0.152252 c -0.09123,-0.12074 -0.08863,-0.123432 0.02769,-0.02874 0.122167,0.09945 0.161018,0.161962 0.100656,0.161962 -0.01523,0 -0.07299,-0.05995 -0.128346,-0.13322 z m -1.393285,-0.983291 c -0.02541,-0.492343 -0.025,-0.619096 0.0019,-0.591158 0.01618,0.0168 0.06568,-0.02058 0.110011,-0.08306 0.0618,-0.0871 0.08225,-0.001 0.08772,0.369124 0.0053,0.35766 -0.01847,0.482719 -0.09168,0.482719 -0.05434,0 -0.10293,-0.07993 -0.107972,-0.177627 z m 2.253192,-0.376093 c -0.02488,-0.06729 -0.01296,-0.247135 0.02648,-0.399661 0.03944,-0.152525 0.07961,-0.386283 0.08927,-0.519461 0.01791,-0.247052 0.121461,-0.280845 0.12818,-0.04183 0.002,0.07245 0.0072,0.183106 0.01151,0.24591 0.0043,0.0628 -0.0095,0.234087 -0.03076,0.380629 -0.02121,0.146542 -0.04079,0.309261 -0.04351,0.361597 -0.0071,0.135796 -0.1276,0.117709 -0.181167,-0.02718 z m 0.982964,-0.208866 c 0,-0.306448 0.134027,-0.734554 0.229966,-0.734554 0.0397,0 0.04868,0.137228 0.02119,0.323534 -0.02626,0.177944 -0.05226,0.400612 -0.05778,0.494818 -0.01632,0.278699 -0.193381,0.201973 -0.193381,-0.0838 z m -0.07334,-1.23625 c 0,-0.0069 0.05584,-0.05956 0.124089,-0.11702 0.06825,-0.05746 0.101047,-0.06458 0.07288,-0.01582 -0.02816,0.04876 -0.0097,0.105218 0.04093,0.125461 0.05067,0.02024 0.01788,0.03301 -0.07288,0.02837 -0.09076,-0.0046 -0.165016,-0.01409 -0.165016,-0.02098 z m -15.762065,8.802463 c 0.296444,-0.09404 0.351264,-0.136072 0.277039,-0.212399 -0.07445,-0.07655 -0.07259,-0.09516 0.0095,-0.09516 0.07006,0 0.05742,-0.03755 -0.04034,-0.119833 -0.0783,-0.06591 -0.101109,-0.09814 -0.05069,-0.07163 0.118368,0.06224 0.11652,-0.09934 -0.0039,-0.341413 -0.05207,-0.104673 -0.171405,-0.404418 -0.265183,-0.6661 -0.09378,-0.261682 -0.200932,-0.475786 -0.238119,-0.475786 -0.03719,0 -0.06022,-0.04282 -0.05118,-0.09516 0.01643,-0.09513 -0.120429,-0.645339 -0.231962,-0.932541 -0.03252,-0.08374 -0.101471,-0.312771 -0.153227,-0.508962 -0.05176,-0.19619 -0.120525,-0.339759 -0.152821,-0.319041 -0.05401,0.03464 -0.08884,-0.07976 -0.067,-0.219998 0.005,-0.0321 -0.105466,-0.308947 -0.245484,-0.615211 -0.639569,-1.398945 -0.209204,-2.654968 1.265112,-3.692232 0.53149,-0.373934 1.455018,-0.817788 1.843222,-0.885865 0.164491,-0.02885 0.299075,-0.08572 0.299075,-0.126375 0,-0.04066 0.03224,-0.05324 0.07165,-0.02796 0.03941,0.02528 0.212673,0.0055 0.385038,-0.04394 0.370887,-0.106401 0.534312,-0.136565 1.120137,-0.206752 l 0.440044,-0.05272 0.293363,-0.919204 c 0.35898,-1.124808 0.327682,-1.021833 0.380047,-1.25038 0.02398,-0.104673 0.06329,-0.224571 0.08735,-0.26644 0.02406,-0.04187 0.04555,-0.09325 0.04777,-0.114189 0.0022,-0.02093 0.07676,-0.235718 0.165655,-0.477296 0.0889,-0.241578 0.155356,-0.464246 0.147686,-0.494817 -0.0077,-0.03057 0.06247,-0.225341 0.155863,-0.43282 0.09339,-0.20748 0.174145,-0.455435 0.179446,-0.551012 0.0053,-0.09558 0.05089,-0.190235 0.101315,-0.21035 0.05042,-0.02012 0.09168,-0.08529 0.09168,-0.144838 0,-0.05954 0.06528,-0.257596 0.14507,-0.440112 0.194284,-0.4444224 0.188634,-0.5678684 -0.01672,-0.3653974 -0.285086,0.2810784 -1.027823,0.7403434 -1.393473,0.8616404 -0.07059,0.02342 -0.12784,0.08647 -0.127223,0.140123 8.78e-4,0.07626 0.01466,0.07539 0.06313,-0.004 0.05012,-0.08207 0.07039,-0.07889 0.105684,0.01659 0.05033,0.136126 -0.06312,0.240833 -0.133271,0.12301 -0.02574,-0.04323 -0.08263,-0.05563 -0.126411,-0.02754 -0.04751,0.03048 -0.05851,0.01563 -0.02727,-0.03682 0.05922,-0.09945 0.03246,-0.107855 -0.133258,-0.04185 -0.06357,0.02532 -0.09756,0.07631 -0.07553,0.113316 0.02203,0.037 -0.01116,0.04688 -0.07376,0.02194 -0.0626,-0.02494 -0.11382,-0.01042 -0.11382,0.03224 0,0.04267 -0.132154,0.100755 -0.293675,0.12908 -0.16152,0.02833 -0.279103,0.07597 -0.261295,0.10588 0.01781,0.02991 -0.07161,0.04691 -0.198711,0.03777 -0.1271,-0.0091 -0.318865,0.03051 -0.426143,0.08809 -0.107279,0.05758 -0.215738,0.08322 -0.241021,0.05698 -0.02528,-0.02624 -0.04597,-0.01074 -0.04597,0.03446 0,0.04918 -0.09148,0.06721 -0.227833,0.0449 -0.125308,-0.0205 -0.210968,-0.0089 -0.190355,0.02567 0.02061,0.03462 -0.06663,0.06839 -0.193876,0.07505 -0.127245,0.0067 -0.379869,0.03434 -0.561387,0.06151 -0.61684,0.09232 -2.454162,0.08821 -3.174752,-0.0071 -0.3948128,-0.05223 -1.0949238,-0.18276 -1.5558018,-0.290074 -0.460878,-0.107314 -0.931579,-0.195116 -1.046002,-0.195116 -0.114423,0 -0.239394,-0.02995 -0.277715,-0.06656 -0.03834,-0.03662 -0.350222,-0.17639 -0.693089,-0.310615 -0.342868,-0.134226 -0.86267,-0.376908 -1.155115,-0.539293 -0.292446,-0.162385 -0.53172,-0.2784364 -0.53172,-0.25789 0,0.02055 0.05309,0.164717 0.117967,0.320381 0.113875,0.27321 0.971588,2.862289 2.691323,8.123979 l 0.821072,2.512149 -0.0016,0.837384 c -0.0015,0.799613 -0.01393,0.866315 -0.275027,1.478824 -0.150388,0.352793 -0.273433,0.730557 -0.273433,0.839476 0,0.437054 0.501009,0.819202 1.400797,1.068467 0.669166,0.185377 2.0605528,0.187423 2.6391218,0.0039 z m -0.812931,-1.330761 c 0,-0.288514 0.03485,-0.512681 0.08467,-0.544643 0.04657,-0.02987 0.06654,-0.02333 0.04437,0.01454 -0.04254,0.07268 0.125647,0.273939 0.180954,0.216532 0.01774,-0.01842 0.03226,0.01639 0.03226,0.07735 0,0.06096 -0.01925,0.09846 -0.04278,0.08334 -0.02353,-0.01513 -0.0379,0.106137 -0.03194,0.269474 0.006,0.163337 -0.01879,0.277969 -0.05501,0.254736 -0.03621,-0.02323 -0.06585,-0.006 -0.06585,0.03838 0,0.04434 -0.033,0.08062 -0.07334,0.08062 -0.0413,0 -0.07334,-0.214192 -0.07334,-0.490324 z m -1.040833,0.256215 c -0.04758,-0.148144 0.244474,-0.971751 0.361044,-1.018182 0.11485,-0.04575 0.112999,-0.02497 -0.05821,0.653449 -0.07655,0.303341 -0.253942,0.516988 -0.302837,0.364733 z M 8.8218002,23.91353 c -0.02021,-0.03394 0.02794,-0.211669 0.107002,-0.394958 0.09954,-0.230781 0.167204,-0.308901 0.220041,-0.254058 0.05284,0.05484 0.04323,0.161347 -0.03125,0.346361 -0.11346,0.28186 -0.234461,0.405667 -0.295797,0.302655 z m 2.5201868,-0.697543 c 0,-0.0394 0.03263,-0.09256 0.0725,-0.118143 0.04157,-0.02667 0.05387,0.0039 0.02882,0.07163 -0.04876,0.131882 -0.101325,0.156011 -0.101325,0.04651 z M 9.1193702,21.868733 c -0.07284,-0.07561 -0.06087,-0.502352 0.01771,-0.631242 0.04926,-0.0808 0.07919,-0.03819 0.115916,0.165008 0.0491,0.271687 -0.03577,0.567809 -0.133626,0.466234 z m 0.682463,-1.341001 c 0,-0.01065 -0.07751,-0.241881 -0.172249,-0.513849 -0.214039,-0.614453 -0.299586,-1.065431 -0.202106,-1.065431 0.09488,0 0.160802,0.116622 0.230993,0.408639 0.03152,0.131137 0.109676,0.437077 0.173678,0.679867 0.137459,0.521456 0.136504,0.510135 0.04303,0.510135 -0.04034,0 -0.07334,-0.0087 -0.07334,-0.01936 z m -1.285614,-1.526357 c -0.02598,-0.143746 -0.03377,-0.342921 -0.0173,-0.442611 0.02911,-0.176273 0.03248,-0.174977 0.122522,0.04712 0.123733,0.305206 0.13694,0.585012 0.02948,0.624612 -0.05191,0.01913 -0.10667,-0.074 -0.134706,-0.229123 z M 10.058884,17.33078 C 9.9479972,16.845104 9.9047252,16.451691 9.9480802,16.323401 c 0.08025,-0.237458 0.1655768,0.02891 0.2617358,0.817065 0.04556,0.373384 -0.07456,0.524835 -0.150932,0.190314 z M 8.7867672,16.683711 c -0.107416,-0.214226 -0.147397,-1.008666 -0.050762,-1.008666 0.08568,0 0.321038,0.910893 0.273556,1.058748 -0.03997,0.124469 -0.147377,0.100326 -0.222794,-0.05008 z m -1.231412,-0.647069 c -0.03088,-0.0942 -0.0496,-0.196975 -0.04161,-0.228377 0.008,-0.0314 -0.02205,-0.05709 -0.06676,-0.05709 -0.05079,0 -0.06345,-0.0738 -0.03373,-0.196693 0.03434,-0.142 0.0232,-0.181065 -0.04005,-0.14049 -0.05577,0.03577 -0.06832,0.02381 -0.03454,-0.03293 0.07036,-0.118173 0.189616,-0.03579 0.189616,0.130999 0,0.07289 0.03103,0.165077 0.06895,0.204853 0.09434,0.09895 0.156475,0.491011 0.07781,0.491011 -0.03495,0 -0.08881,-0.07708 -0.119685,-0.171283 z m 4.5942498,-0.228377 c 4.79e-4,-0.09421 0.05289,-0.359694 0.11647,-0.589975 0.06358,-0.23028 0.114154,-0.486772 0.112387,-0.569983 -0.0026,-0.123994 0.0094,-0.130861 0.06666,-0.03806 0.03843,0.06228 0.05154,0.318769 0.02914,0.569984 -0.05931,0.665224 -0.0957,0.79932 -0.216913,0.79932 -0.064,0 -0.108256,-0.07035 -0.107743,-0.171283 z m 2.167394,-0.155535 c 0.02754,-0.07508 0.06855,-0.117326 0.09113,-0.09389 0.02258,0.02344 4.6e-5,0.08487 -0.05008,0.136503 -0.07243,0.07462 -0.08086,0.06588 -0.04106,-0.04261 z M 13.30363,15.63041 c -0.06066,-0.06296 0.01815,-0.737542 0.09787,-0.837815 0.03635,-0.04572 0.04438,-0.105671 0.01784,-0.13322 -0.02654,-0.02755 -0.0095,-0.05009 0.03783,-0.05009 0.08548,0 0.06713,0.60657 -0.02292,0.75781 -0.02229,0.03743 0.01764,0.0838 0.08873,0.103045 0.09592,0.02597 0.08558,0.03727 -0.0401,0.04382 -0.09314,0.0049 -0.148948,0.04309 -0.124018,0.08496 0.04936,0.0829 0.01383,0.103166 -0.05523,0.03149 z m 1.338687,-0.255375 c 0,-0.0394 0.03263,-0.09256 0.0725,-0.118143 0.04157,-0.02667 0.05387,0.0039 0.02882,0.07163 -0.04876,0.131882 -0.101324,0.156011 -0.101324,0.04651 z m 1.320131,0.0092 c -0.06051,-0.02846 -0.120703,-0.102167 -0.133771,-0.163796 -0.01772,-0.08355 0.01492,-0.07571 0.128346,0.03083 0.206379,0.193863 0.207777,0.228142 0.0054,0.132966 z m -5.03092,-0.19599 c -0.125846,-0.142029 -0.122275,-1.266885 0.0047,-1.492457 0.120694,-0.214349 0.119837,-0.218153 0.137582,0.610881 0.01541,0.720046 -0.03096,1.007261 -0.14232,0.881576 z m 3.090525,0.03532 c -0.04877,-0.08191 0.09478,-0.195449 0.160652,-0.127072 0.02421,0.02513 0.0036,0.04569 -0.04588,0.04569 -0.04944,0 -0.06949,0.03426 -0.04456,0.07613 0.02493,0.04187 0.02882,0.07613 0.0087,0.07613 -0.02017,0 -0.05566,-0.03189 -0.07886,-0.07087 z m 1.036497,0.02078 c -0.06154,-0.06388 0.08855,-0.255156 0.197807,-0.252098 0.04548,0.0013 0.02098,0.03953 -0.05445,0.08502 -0.110736,0.06678 -0.117797,0.09543 -0.03667,0.148771 0.05526,0.03634 0.06472,0.06659 0.02102,0.06723 -0.0437,6.41e-4 -0.101168,-0.02138 -0.12771,-0.04893 z m 0.361398,-0.69848 c -0.02078,-0.03489 0.0088,-0.06344 0.06579,-0.06344 0.05696,0 0.08656,0.02855 0.06579,0.06344 -0.02077,0.03489 -0.05038,0.06344 -0.06579,0.06344 -0.01541,0 -0.04501,-0.02855 -0.06579,-0.06344 z m -0.777631,-0.228377 c 0,-0.03489 0.02296,-0.08727 0.05102,-0.116392 0.02806,-0.02913 0.05758,-0.09478 0.06561,-0.145908 0.008,-0.05112 0.03711,-0.2451 0.06463,-0.431058 0.02752,-0.185957 0.101125,-0.494266 0.163568,-0.685131 0.124304,-0.379951 0.154469,-0.510123 0.162947,-0.703188 0.0031,-0.07028 0.05354,-0.177536 0.11213,-0.238346 0.05858,-0.06081 0.09159,-0.13177 0.07334,-0.157689 -0.01825,-0.02592 -0.0084,-0.02715 0.02183,-0.0027 0.03025,0.02441 0.05758,0.135748 0.06072,0.247408 0.0034,0.120337 0.04294,0.1945 0.09713,0.182102 0.05028,-0.01151 0.07018,0.01475 0.04422,0.05834 -0.02595,0.04359 -0.07624,0.06061 -0.111756,0.03783 -0.03551,-0.02278 -0.08519,0.08799 -0.110404,0.246167 -0.02521,0.158173 -0.08998,0.45887 -0.143927,0.668216 -0.05395,0.209346 -0.135611,0.527208 -0.18147,0.70636 -0.04586,0.179153 -0.114771,0.305593 -0.153141,0.280979 -0.03837,-0.02461 -0.06976,-0.0085 -0.06976,0.03587 0,0.04434 -0.033,0.08062 -0.07334,0.08062 -0.04034,0 -0.07334,-0.02855 -0.07334,-0.06344 z m -5.2203168,-0.92639 c -0.01295,-0.376919 0.002,-0.685228 0.03328,-0.685132 0.110046,3.39e-4 0.199871,0.396083 0.199871,0.880577 0,0.373869 -0.02482,0.489861 -0.104806,0.489861 -0.08134,0 -0.110076,-0.15342 -0.128345,-0.685306 z m -1.464587,0.494992 c -0.06033,-0.09653 -0.209015,-0.668724 -0.243569,-0.937322 -0.01447,-0.11251 -0.04872,-0.273078 -0.0761,-0.356816 -0.04069,-0.124446 -0.02205,-0.117495 0.102093,0.03806 0.08353,0.104673 0.152612,0.252516 0.153509,0.328539 8.97e-4,0.07602 0.03654,0.205936 0.07921,0.288695 0.08156,0.158177 0.06704,0.770356 -0.01515,0.638841 z m 6.4648818,-0.114189 c -0.0661,-0.04434 -0.07515,-0.07426 -0.02266,-0.07496 0.04804,-6.41e-4 0.107745,0.03309 0.132675,0.07496 0.05627,0.09451 0.03089,0.09451 -0.110011,0 z m 2.059426,-0.07613 c 0.106917,-0.233024 0.140793,-0.276211 0.140793,-0.179489 0,0.04084 -0.05132,0.140759 -0.114057,0.222033 -0.107545,0.139333 -0.109071,0.136904 -0.02674,-0.04254 z m -2.716797,-0.123899 c 0.0035,-0.285343 0.180847,-1.233875 0.242671,-1.298047 0.121624,-0.126242 0.137312,0.102801 0.0479,0.699374 -0.05345,0.356631 -0.1413,0.686426 -0.195224,0.73288 -0.07803,0.06722 -0.0975,0.03982 -0.09535,-0.134207 z m -1.348572,0.0049 c -0.04384,-0.145824 0.112335,-0.985899 0.200254,-1.077158 0.09631,-0.09996 0.117393,0.04643 0.07184,0.498799 -0.05345,0.530826 -0.195565,0.832897 -0.272094,0.578359 z m 3.479833,-0.17156 c 0.09772,-0.436576 0.08633,-0.486664 -0.09875,-0.434141 -0.142989,0.04058 -0.147807,0.03563 -0.03609,-0.03705 0.07091,-0.04613 0.158886,-0.06466 0.195502,-0.04117 0.08248,0.05291 0.245198,-0.698793 0.177738,-0.821119 -0.02693,-0.04884 -0.02072,-0.06212 0.0138,-0.02951 0.05662,0.05349 0.247788,-0.493692 0.274696,-0.786261 0.006,-0.06488 0.08628,-0.124447 0.178485,-0.132368 0.185178,-0.01591 0.198401,0.0097 0.102209,0.198245 -0.03598,0.07052 -0.08103,0.250284 -0.100105,0.399479 -0.01907,0.149196 -0.0733,0.346171 -0.120506,0.437723 -0.04721,0.09155 -0.06412,0.166459 -0.0376,0.166459 0.02653,0 0.01526,0.04282 -0.02504,0.09516 -0.0403,0.05234 -0.09522,0.283864 -0.122056,0.514505 -0.05433,0.466992 -0.08416,0.530778 -0.308856,0.660368 -0.150731,0.08693 -0.153996,0.08028 -0.09342,-0.190315 z m -0.479076,-0.188521 c 0.02754,-0.07508 0.06855,-0.117326 0.09113,-0.09389 0.02258,0.02344 4.7e-5,0.08487 -0.05008,0.136503 -0.07243,0.07462 -0.08086,0.06588 -0.04105,-0.04262 z m 0.985383,-0.282188 c 0,-0.04187 0.03495,-0.07613 0.07767,-0.07613 0.04272,0 0.05727,0.03426 0.03234,0.07613 -0.02493,0.04187 -0.05988,0.07613 -0.07767,0.07613 -0.01779,0 -0.03234,-0.03426 -0.03234,-0.07613 z M 6.4734992,12.471462 c -0.01805,-0.05934 -0.08504,-0.276415 -0.148872,-0.482394 -0.126528,-0.408293 -0.09253,-0.549756 0.07499,-0.311967 0.178392,0.253229 0.286135,0.715995 0.189947,0.815835 -0.06211,0.06447 -0.09158,0.05901 -0.116064,-0.02147 z m 7.6708768,-0.267817 c -0.05201,-0.05858 -0.06221,-0.10651 -0.02266,-0.10651 0.07616,0 0.186412,0.144807 0.14291,0.187701 -0.01412,0.01393 -0.06823,-0.02261 -0.120246,-0.08119 z m 2.551479,-0.03038 c -0.04318,-0.08374 -0.062,-0.152252 -0.04183,-0.152252 0.02017,0 0.072,0.06851 0.115172,0.152252 0.04317,0.08374 0.062,0.152251 0.04183,0.152251 -0.02017,0 -0.072,-0.06851 -0.115172,-0.152251 z m 0.176017,-0.255332 c 0,-0.136532 0.03214,-0.170484 0.134946,-0.142577 0.127171,0.03452 0.127784,0.04484 0.01064,0.179206 -0.153759,0.176353 -0.145581,0.178411 -0.145581,-0.03663 z m -0.95763,-0.335484 c -0.0099,-0.174111 -0.0012,-0.183188 0.06261,-0.06491 0.04095,0.07595 0.04611,0.166572 0.01153,0.202418 -0.03456,0.03583 -0.06777,-0.02577 -0.07414,-0.137513 z m 0.268228,-0.327186 c 0,-0.04434 0.033,-0.05945 0.07334,-0.03357 0.04034,0.02588 0.07334,0.06215 0.07334,0.08062 0,0.01846 -0.033,0.03357 -0.07334,0.03357 -0.04034,0 -0.07334,-0.03628 -0.07334,-0.08062 z m 3.01142,11.1297 c 1.154355,-0.262887 1.784957,-0.548184 2.502077,-1.131986 1.086793,-0.884751 1.311963,-2.078742 0.593917,-3.149326 -0.247403,-0.36887 -1.31247,-1.131516 -1.90169,-1.361714 -1.95279,-0.762922 -4.524831,-0.805377 -6.540314,-0.107956 -0.648853,0.224524 -1.635822,0.793455 -2.004905,1.155714 -0.404909,0.397423 -0.671402,1.072738 -0.6337,1.60585 0.03954,0.559074 0.326529,1.174904 0.753352,1.616557 0.646957,0.669435 2.047086,1.292022 3.403012,1.513195 0.751902,0.122647 3.042132,0.03869 3.828251,-0.140334 z M 15.735506,22.06704 c -1.556619,-0.188879 -3.266428,-1.024071 -3.750818,-1.832166 -0.443674,-0.74017 -0.341052,-1.459455 0.303708,-2.128699 1.414803,-1.468529 4.935655,-1.949688 7.539677,-1.030369 2.431841,0.858532 3.090124,2.493363 1.519771,3.77432 -0.604899,0.493423 -1.072831,0.730027 -1.885476,0.953366 -1.148325,0.315593 -2.50644,0.411633 -3.726862,0.263548 z m 2.403939,-0.500841 c 0.135722,-0.03778 0.148764,-0.07047 0.08556,-0.214441 -0.112516,-0.256324 -0.635703,-0.576562 -0.938775,-0.574616 -0.33413,0.0021 -0.830335,0.23601 -0.984036,0.463783 -0.234921,0.348134 -0.184807,0.372004 0.778694,0.370889 0.494133,-5.72e-4 0.970481,-0.0211 1.058552,-0.04562 z m 1.209361,-0.223198 c 0.240479,-0.06468 0.613896,-0.204424 0.829817,-0.310539 l 0.392582,-0.192938 -0.09051,-0.279436 c -0.06853,-0.211571 -0.168848,-0.321033 -0.413062,-0.450718 -0.545898,-0.289889 -1.062883,-0.189827 -1.507386,0.291752 -0.178067,0.19292 -0.196068,0.247529 -0.118037,0.358086 0.05064,0.07175 0.148723,0.258564 0.217964,0.415148 0.06924,0.156583 0.154132,0.285046 0.188647,0.285472 0.03452,4.25e-4 0.25951,-0.05215 0.499988,-0.116827 z m -3.862333,-0.26427 c 0.02534,-0.04255 0.07142,-0.0611 0.102417,-0.04122 0.03099,0.01988 0.165605,-0.05852 0.299138,-0.174237 0.21557,-0.1868 0.237422,-0.240078 0.194922,-0.475227 -0.06668,-0.36896 -0.50842,-0.828068 -0.807267,-0.839017 -0.404824,-0.01483 -0.589322,0.02085 -0.866318,0.167524 -0.336246,0.178054 -0.501156,0.414518 -0.498122,0.714255 0.0047,0.464616 0.389606,0.724111 1.075113,0.724819 0.249728,2.58e-4 0.474781,-0.03435 0.500117,-0.0769 z m 5.784516,-0.926806 c -0.03081,-0.05174 -0.01748,-0.06381 0.03399,-0.03079 0.04657,0.02988 0.08467,0.01602 0.08467,-0.03079 0,-0.04681 0.03382,-0.06342 0.07516,-0.0369 0.04134,0.02652 0.06919,0.01998 0.06189,-0.01454 -0.02095,-0.09905 0.198184,-0.564865 0.243569,-0.517757 0.08037,0.08342 -0.06482,-0.539226 -0.177916,-0.763007 -0.06348,-0.125608 -0.200046,-0.310434 -0.303479,-0.410726 -0.103432,-0.100292 -0.167475,-0.216919 -0.142317,-0.259171 0.02627,-0.04412 0.0091,-0.05329 -0.04043,-0.02154 -0.04826,0.03096 -0.184259,-0.03039 -0.309126,-0.139446 -0.387008,-0.338012 -1.324442,-0.577804 -2.987665,-0.764233 -0.812201,-0.09104 -1.802257,-0.04739 -2.390884,0.105413 -0.319368,0.0829 -0.605866,0.13457 -0.636662,0.114814 -0.0308,-0.01976 -0.07495,-0.0041 -0.09812,0.03482 -0.02317,0.03891 -0.174103,0.09389 -0.335412,0.122176 -0.182756,0.03205 -0.274818,0.08246 -0.244277,0.133749 0.03091,0.05192 0.0048,0.06471 -0.07068,0.03464 -0.06583,-0.02622 -0.14059,-0.01258 -0.166131,0.03032 -0.02554,0.0429 -0.0926,0.0596 -0.14903,0.03713 -0.05643,-0.02248 -0.102593,-0.002 -0.102593,0.04556 0,0.04753 -0.02084,0.06479 -0.04631,0.03835 -0.05913,-0.06137 -0.283312,0.06085 -0.632088,0.344611 -0.248191,0.201926 -0.397018,0.45046 -0.190355,0.317885 0.05368,-0.03444 0.06471,-0.02079 0.03014,0.03727 -0.03697,0.06209 -0.08292,0.06712 -0.142699,0.01563 -0.06178,-0.05322 -0.11425,-0.0326 -0.175321,0.0689 -0.05838,0.09703 -0.06226,0.160822 -0.01175,0.193222 0.05013,0.03216 0.04575,0.08545 -0.01306,0.159007 -0.067,0.0838 -0.06787,0.132013 -0.0036,0.198762 0.05627,0.05841 0.0849,0.06067 0.0849,0.0067 0,-0.141588 0.326669,-0.06994 0.406017,0.08905 0.04422,0.08861 0.143862,0.148441 0.238357,0.143136 0.0893,-0.005 0.162373,0.02435 0.162373,0.06524 0,0.04089 -0.04677,0.05572 -0.103942,0.03295 -0.127918,-0.05095 -0.18625,0.08942 -0.118794,0.285871 0.04848,0.14118 0.05641,0.140264 0.215543,-0.02492 0.09087,-0.09432 0.14654,-0.222004 0.123715,-0.283746 -0.02408,-0.06514 -0.01002,-0.09206 0.0335,-0.06414 0.0481,0.03085 0.05845,-0.02917 0.02885,-0.167329 -0.02538,-0.118493 -0.06325,-0.309648 -0.08416,-0.424788 -0.02091,-0.11514 -0.07081,-0.209346 -0.11088,-0.209346 -0.04007,0 -0.05541,-0.04721 -0.03408,-0.104912 0.02133,-0.0577 0.0059,-0.139097 -0.0344,-0.180877 -0.04869,-0.05054 -0.01608,-0.07275 0.09741,-0.06637 0.181848,0.01023 0.296867,0.143726 0.334805,0.388595 0.01283,0.08284 0.06025,0.185613 0.105373,0.228377 0.05919,0.05611 0.06761,0.03536 0.03023,-0.0745 -0.04061,-0.119341 -0.03252,-0.132379 0.03744,-0.06032 0.06751,0.06955 0.06871,0.117611 0.0049,0.197397 -0.06692,0.0837 -0.04479,0.124168 0.10723,0.19606 0.168581,0.07973 0.185904,0.0753 0.144429,-0.03688 -0.0395,-0.106842 -0.02905,-0.111902 0.06456,-0.03126 0.08249,0.07106 0.11169,0.0727 0.11169,0.0063 0,-0.04947 0.03056,-0.07033 0.06792,-0.04637 0.06425,0.04122 0.05267,-0.263711 -0.02299,-0.605526 -0.01854,-0.08374 -0.03623,-0.197094 -0.03931,-0.251902 -0.0033,-0.05895 -0.04306,-0.0763 -0.09729,-0.04248 -0.06872,0.04285 -0.06783,0.02661 0.0036,-0.06486 0.06085,-0.07797 0.06863,-0.139093 0.02154,-0.169302 -0.109072,-0.06997 -0.01818,-0.249924 0.149182,-0.295352 0.117309,-0.03184 0.129395,-0.01906 0.06185,0.06542 -0.0655,0.08192 -0.04379,0.146679 0.09873,0.294621 0.11437,0.118712 0.151053,0.203146 0.0981,0.225784 -0.06128,0.0262 -0.05864,0.05517 0.0096,0.105136 0.05179,0.03794 0.07291,0.126451 0.04694,0.196698 -0.05833,0.157779 0.151759,0.507175 0.304962,0.507175 0.06196,0 0.09192,-0.03482 0.06658,-0.07737 -0.02534,-0.04255 -0.08189,-0.05439 -0.125671,-0.0263 -0.04903,0.03145 -0.05837,0.01541 -0.02432,-0.04178 0.04154,-0.06977 0.08993,-0.0603 0.194684,0.0381 0.10898,0.102371 0.139645,0.107606 0.140523,0.02399 9.17e-4,-0.08738 0.01522,-0.08606 0.07814,0.0072 0.06281,0.09312 0.07036,0.0861 0.04091,-0.03806 -0.01986,-0.08374 -0.05817,-0.299329 -0.08513,-0.47909 -0.04283,-0.285618 -0.06352,-0.314421 -0.164046,-0.228378 -0.10165,0.08701 -0.105104,0.07912 -0.02969,-0.06782 0.149932,-0.292104 0.09088,-0.374385 -0.09919,-0.138225 -0.101098,0.125608 -0.179534,0.194121 -0.174302,0.152252 0.02374,-0.19002 -0.01358,-0.271859 -0.09953,-0.218257 -0.05946,0.03708 -0.0554,0.01077 0.01156,-0.07486 0.07008,-0.08962 0.127228,-0.107124 0.17794,-0.05449 0.08883,0.09221 0.268879,-0.03509 0.268879,-0.190105 0,-0.05521 0.0381,-0.124818 0.08467,-0.154692 0.05045,-0.03236 0.06484,-0.02101 0.03561,0.02809 -0.02699,0.04532 0.01305,0.102871 0.08897,0.127883 0.07592,0.02501 0.13523,0.104555 0.131797,0.176763 -0.01521,0.319895 0.109376,0.702411 0.230667,0.708242 0.08126,0.0039 0.09186,0.01982 0.03029,0.04547 -0.07742,0.03225 -0.07742,0.06164 0,0.160855 0.07209,0.09238 0.07277,0.107701 0.0028,0.06409 -0.100125,-0.06244 -0.09575,0.143205 0.0067,0.313556 0.08503,0.141421 0.207333,0.112769 0.445233,-0.104303 0.163866,-0.149519 0.211121,-0.255512 0.203818,-0.457154 -0.0052,-0.144378 -0.03889,-0.317004 -0.0748,-0.383614 -0.07811,-0.144871 0.04775,-0.727947 0.149529,-0.692732 0.03805,0.01317 0.0695,0.04801 0.06989,0.07743 3.89e-4,0.02942 0.04523,0.228668 0.09964,0.442771 0.05441,0.214104 0.0792,0.442664 0.05508,0.507911 -0.03647,0.09865 -0.0079,0.107987 0.169888,0.05542 0.335101,-0.09909 1.081697,-0.08568 1.190748,0.02139 0.0533,0.05234 0.15037,0.09516 0.215704,0.09516 0.101403,0 0.09901,-0.01501 -0.01635,-0.102568 -0.105514,-0.08008 -0.114142,-0.116039 -0.03936,-0.164014 0.06676,-0.04283 0.07815,-0.03182 0.03757,0.03632 -0.03904,0.06557 -0.02466,0.08511 0.04367,0.05934 0.05604,-0.02113 0.09363,-0.07696 0.08355,-0.124064 -0.01008,-0.0471 0.01045,-0.08564 0.04563,-0.08564 0.03518,0 0.0845,-0.133287 0.109598,-0.296193 0.0251,-0.162907 0.09532,-0.315986 0.156054,-0.340177 0.165966,-0.06611 0.142669,0.366911 -0.04092,0.760552 -0.11944,0.256098 -0.134356,0.357448 -0.07076,0.48079 0.04432,0.08596 0.109195,0.156286 0.144167,0.156286 0.03497,0 0.09907,0.105661 0.142444,0.234803 0.07294,0.217167 0.09689,0.230502 0.318872,0.177534 0.356373,-0.08504 0.738871,-0.08285 0.86341,0.0049 0.09534,0.0672 0.09659,0.05978 0.0094,-0.05568 -0.08072,-0.106832 -0.08257,-0.155838 -0.0094,-0.247409 0.05022,-0.0628 0.06251,-0.114713 0.02732,-0.115354 -0.03519,-6.41e-4 -0.02993,-0.02633 0.01169,-0.05709 0.04162,-0.03076 0.176801,-0.201089 0.300396,-0.378507 0.123594,-0.177419 0.246305,-0.300171 0.27269,-0.272784 0.10115,0.104991 0.03854,0.307435 -0.216814,0.701008 l -0.264786,0.408117 0.209744,0.173595 c 0.219308,0.181511 0.358758,0.174813 0.288998,-0.01388 -0.02246,-0.06074 -0.01326,-0.09275 0.02045,-0.07113 0.0337,0.02162 0.155011,-0.06224 0.269574,-0.186361 0.114562,-0.124119 0.251626,-0.22567 0.304585,-0.22567 0.122027,0 0.124686,0.185279 0.0046,0.321532 -0.4287,0.486471 -0.418923,0.463462 -0.337833,0.795065 0.07623,0.311744 0.07851,0.313485 0.219277,0.167378 0.07823,-0.0812 0.119436,-0.185943 0.09156,-0.232754 z m -8.278318,-0.898098 c -0.02651,-0.04453 0.006,-0.05502 0.07962,-0.02569 0.07827,0.03117 0.161303,-0.0028 0.223831,-0.09155 0.08239,-0.116953 0.09941,-0.120465 0.09941,-0.02051 0,0.179495 -0.314059,0.286886 -0.402855,0.137755 z m 6.29945,-0.0313 c -0.04573,-0.123708 0.122812,-0.741604 0.292795,-1.073393 0.06435,-0.125608 0.117205,-0.290348 0.117454,-0.36609 2.48e-4,-0.07574 0.03346,-0.116541 0.07379,-0.09067 0.116167,0.07452 0.08599,0.433475 -0.07741,0.920724 -0.08291,0.247247 -0.169272,0.509489 -0.191905,0.58276 -0.04946,0.160121 -0.160296,0.173884 -0.214723,0.02666 z M 12.703107,18.90797 c -0.0783,-0.06147 -0.105,-0.111767 -0.05933,-0.111767 0.04567,0 0.10376,0.03482 0.129096,0.07737 0.02534,0.04255 0.08189,0.05439 0.125671,0.0263 0.04751,-0.03048 0.05851,-0.01564 0.02727,0.03682 -0.06321,0.10616 -0.04848,0.108059 -0.222708,-0.02872 z m 0.350162,-0.0015 c 0,-0.05697 0.03311,-0.08234 0.07358,-0.05638 0.04429,0.02841 0.05436,-0.0048 0.02529,-0.08343 -0.02869,-0.07759 -0.01886,-0.111747 0.02421,-0.08412 0.104558,0.06707 0.08914,0.242983 -0.02529,0.288561 -0.05378,0.02142 -0.09779,-0.0077 -0.09779,-0.06463 z m 0.92916,-0.110279 c -0.06001,-0.200348 -0.05388,-0.314568 0.01315,-0.244988 0.04208,0.04368 0.0589,0.125232 0.03738,0.181232 -0.02152,0.056 -0.04426,0.08469 -0.05053,0.06376 z m 0.146503,-0.156745 c 0,-0.04434 0.033,-0.05945 0.07334,-0.03357 0.04034,0.02588 0.07334,0.06216 0.07334,0.08062 0,0.01846 -0.033,0.03357 -0.07334,0.03357 -0.04034,0 -0.07334,-0.03628 -0.07334,-0.08062 z m -0.366703,-0.147758 c 0.04318,-0.08374 0.09075,-0.152252 0.105725,-0.152252 0.01497,0 0.01,0.06851 -0.01113,0.152252 -0.0211,0.08374 -0.06867,0.152251 -0.105725,0.152251 -0.03722,0 -0.03224,-0.06814 0.01113,-0.152251 z m -0.825083,0.02571 c 0.05042,-0.02112 0.13293,-0.02112 0.183352,0 0.05042,0.02112 0.0092,0.0384 -0.09168,0.0384 -0.100843,0 -0.142097,-0.01728 -0.09168,-0.0384 z m 2.996187,-0.165273 c -0.02077,-0.03489 0.0088,-0.06344 0.06579,-0.06344 0.05696,0 0.08656,0.02855 0.06579,0.06344 -0.02078,0.03489 -0.05038,0.06344 -0.06579,0.06344 -0.01541,0 -0.04501,-0.02855 -0.06579,-0.06344 z m 1.027508,-0.102743 c 0.02118,-0.03557 0.06923,-0.04497 0.106785,-0.02088 0.09596,0.06156 0.08515,0.08556 -0.03851,0.08556 -0.05873,0 -0.08945,-0.02911 -0.06827,-0.06468 z m 0.576155,0.01011 c -0.06736,-0.11313 -0.01379,-0.15318 0.103906,-0.07768 0.06305,0.04045 0.07055,0.07968 0.02128,0.111291 -0.04186,0.02685 -0.09819,0.01173 -0.125185,-0.03361 z m -3.592155,-0.14967 c -0.02534,-0.04255 -0.07451,-0.05912 -0.109272,-0.03682 -0.03476,0.0223 -0.08162,0.0096 -0.104118,-0.02817 -0.0225,-0.03779 0.02799,-0.08742 0.112198,-0.110273 0.08421,-0.02286 0.133631,-0.02134 0.109822,0.0034 -0.02381,0.02471 -0.0065,0.0909 0.0384,0.147094 0.04493,0.05619 0.06309,0.102162 0.04036,0.102162 -0.02273,0 -0.06205,-0.03482 -0.08739,-0.07737 z m 1.876716,-0.05585 c 0.0037,-0.08472 0.01963,-0.09742 0.0438,-0.03489 0.02949,0.0763 0.06144,0.07815 0.14257,0.0083 0.0846,-0.07288 0.09574,-0.06622 0.05836,0.03489 -0.06163,0.166713 -0.25206,0.160283 -0.244735,-0.0083 z m 1.731467,0.0079 c -0.07754,-0.08049 -0.05974,-0.544876 0.02292,-0.597904 0.04034,-0.02588 0.07579,-0.01933 0.07879,0.01454 0.006,0.06755 0.05508,0.347726 0.08538,0.487151 0.02237,0.102962 -0.113343,0.172758 -0.187086,0.09621 z m -3.057389,-0.17472 c 0,-0.0394 0.03263,-0.09256 0.0725,-0.118142 0.04157,-0.02667 0.05387,0.0039 0.02882,0.07163 -0.04876,0.131882 -0.101325,0.156011 -0.101325,0.04651 z m -1.69947,2.107641 c -0.08053,-0.219617 -0.164716,-0.462149 -0.187078,-0.538959 -0.03174,-0.109006 -0.05428,-0.11736 -0.102701,-0.03806 -0.05144,0.08423 -0.06223,0.08394 -0.06317,-0.0017 -6.99e-4,-0.06435 -0.04652,-0.08522 -0.121507,-0.05535 -0.100658,0.04009 -0.105196,0.02895 -0.02769,-0.06798 0.05098,-0.06376 0.07485,-0.115932 0.05304,-0.115932 -0.02181,0 -0.0942,-0.02172 -0.16086,-0.04828 -0.100991,-0.04023 -0.116377,-0.0053 -0.09225,0.209345 0.02593,0.230693 0.05139,0.256353 0.243555,0.245462 0.118028,-0.0067 0.176846,0.0035 0.130707,0.02268 -0.04614,0.01916 -0.07563,0.09315 -0.06553,0.164414 0.0101,0.07126 0.0041,0.08633 -0.01334,0.03348 -0.01743,-0.05285 -0.0673,-0.07325 -0.110817,-0.04533 -0.0509,0.03265 -0.05816,0.01262 -0.02036,-0.05616 0.04703,-0.08558 0.03939,-0.08829 -0.03827,-0.01356 -0.08001,0.07698 -0.07375,0.120067 0.03571,0.245614 0.07301,0.08374 0.157882,0.136131 0.188602,0.116425 0.03072,-0.01971 0.07489,0.01568 0.09817,0.07863 0.02327,0.06295 0.08299,0.105575 0.132698,0.09472 0.04971,-0.01085 0.09601,0.02308 0.102884,0.07542 0.02236,0.170181 0.02994,0.180842 0.09773,0.137357 0.03717,-0.02385 0.0018,-0.220334 -0.07953,-0.442216 z m 5.219822,0.305906 c 0,-0.03174 0.118181,-0.193482 0.262624,-0.359436 0.144444,-0.165953 0.251704,-0.359396 0.238357,-0.429874 -0.06363,-0.335971 -0.752005,-0.569157 -1.341385,-0.45439 -0.28025,0.05457 -0.738929,0.421032 -0.807446,0.645106 -0.02275,0.07442 0.0058,0.252526 0.06349,0.395799 l 0.10486,0.260497 h 0.739751 c 0.406862,0 0.73975,-0.02597 0.73975,-0.0577 z M 12.368811,18.8419 c -0.05711,-0.05928 -0.09794,-0.05156 -0.144951,0.0274 -0.09214,0.154752 -0.01003,0.257123 0.117864,0.146948 0.07657,-0.06596 0.0842,-0.115065 0.02709,-0.174344 z m 2.502628,-0.979541 c -0.07243,-0.07462 -0.08086,-0.06588 -0.04106,0.04261 0.02754,0.07508 0.06855,0.117327 0.09113,0.09389 0.02258,-0.02344 4.7e-5,-0.08487 -0.05008,-0.136504 z m 11.02608,-2.038069 c 1.602926,-0.32108 3.052971,-1.025264 3.709553,-1.801468 0.287105,-0.339412 0.510122,-0.866648 0.510122,-1.20598 0,-0.429708 -0.286069,-1.096804 -0.618155,-1.441501 -0.678036,-0.703784 -2.124232,-1.4179684 -3.452251,-1.7048474 -2.073017,-0.447813 -5.085337,-0.219419 -6.521258,0.4944414 -0.725223,0.360541 -0.996169,0.628103 -1.185718,1.17091 -0.122618,0.351141 -0.137708,0.443249 -0.05197,0.317217 0.162368,-0.238674 0.886908,-0.742091 1.448353,-1.006329 1.78645,-0.8407764 4.934388,-0.9007094 7.108916,-0.135346 0.693824,0.244203 1.607057,0.726006 1.944679,1.025973 0.756416,0.672051 0.843053,1.570366 0.219204,2.272864 -0.570299,0.642197 -2.100355,1.298943 -3.532817,1.516393 -3.055468,0.463824 -6.503328,-0.395171 -7.53823,-1.878063 l -0.205932,-0.295077 -0.07763,0.290165 c -0.0427,0.15959 -0.07781,0.348921 -0.07804,0.420736 -0.0019,0.5906 1.949497,1.595225 3.813305,1.96323 1.052744,0.207862 3.462443,0.206088 4.507862,-0.0033 z m -7.001445,-0.18081 c 0,-0.01734 -0.165016,-0.136925 -0.366703,-0.265737 -0.399802,-0.255342 -0.405434,-0.254881 -0.28337,0.02319 0.07525,0.17143 0.165225,0.213754 0.558398,0.262672 0.05042,0.0063 0.09167,-0.0028 0.09167,-0.02013 z m -1.34672,-0.296444 c -0.02337,-0.09665 -0.09515,-0.306551 -0.15952,-0.46645 -0.115409,-0.286703 -0.118553,-0.288466 -0.227253,-0.127382 -0.09178,0.136009 -0.153731,0.339424 -0.185194,0.608069 -0.01573,0.134305 0.03698,0.161488 0.313144,0.161488 0.278108,0 0.298041,-0.01353 0.258823,-0.175725 z m 8.424093,-0.665256 c 0.495743,-0.136588 0.478459,-0.12074 0.396811,-0.363849 -0.151151,-0.45006 -1.017947,-0.629637 -1.586176,-0.328614 -0.345581,0.183074 -0.507422,0.366048 -0.576012,0.651229 l -0.0533,0.221607 0.762657,-0.04977 c 0.419462,-0.02738 0.894671,-0.08615 1.05602,-0.130601 z m -2.872859,-0.155827 c 0.371028,-0.255091 0.406675,-0.371438 0.240378,-0.784557 -0.338168,-0.840083 -1.66851,-0.976903 -2.218694,-0.228182 -0.160892,0.21895 -0.185524,0.315859 -0.15402,0.60597 0.02062,0.189936 0.05357,0.362014 0.0732,0.382395 0.07309,0.07587 0.984562,0.248032 1.344063,0.253873 0.299573,0.0049 0.439512,-0.04004 0.715071,-0.229499 z m 4.596365,-0.515539 c 0,-0.02732 -0.07426,-0.0962 -0.165017,-0.15306 -0.129668,-0.08124 -0.145378,-0.08191 -0.07334,-0.0031 0.115205,0.126048 0.120089,0.249318 0.007,0.176773 -0.05127,-0.03289 -0.06481,-0.02096 -0.03432,0.03024 0.05027,0.08443 0.265676,0.04318 0.265676,-0.05087 z m -0.56913,-0.03694 c 0.04673,0.02998 0.05697,0.01429 0.02534,-0.03883 -0.0624,-0.104803 -0.192192,-0.04187 -0.183826,0.08913 0.0041,0.06489 0.01635,0.06348 0.04293,-0.005 0.02043,-0.0526 0.07243,-0.073 0.115552,-0.04533 z m -7.029258,-0.144507 c -0.0298,-0.09421 -0.04999,-0.239365 -0.04486,-0.322575 0.0078,-0.125743 -0.0035,-0.132171 -0.0667,-0.03806 -0.05721,0.08521 -0.0662,0.05671 -0.03633,-0.115148 0.02183,-0.125608 0.02175,-0.185557 -1.79e-4,-0.13322 -0.02193,0.05234 -0.07157,0.09516 -0.110316,0.09516 -0.08816,0 -0.05292,-0.246934 0.046,-0.322369 0.04317,-0.03292 0.02808,-0.05689 -0.03667,-0.05826 -0.09779,-0.0021 -0.09779,-0.01053 0,-0.07613 0.07994,-0.05362 0.08377,-0.07411 0.01401,-0.07496 -0.0528,-6.41e-4 -0.07561,-0.03542 -0.05068,-0.07729 0.02493,-0.04187 0.01698,-0.07613 -0.01767,-0.07613 -0.03465,0 -0.06406,-0.07708 -0.06535,-0.171283 -0.0013,-0.09421 -0.0264,-0.291181 -0.05579,-0.437723 -0.034,-0.169533 -0.02883,-0.229465 0.01422,-0.164781 0.03721,0.05591 0.08872,0.09873 0.114461,0.09516 0.139043,-0.01931 0.193487,0.0018 0.193487,0.07506 0,0.120164 0.208386,0.315515 0.28449,0.266694 0.03608,-0.02314 0.102638,0.0043 0.147915,0.06088 0.06571,0.08218 0.04707,0.09894 -0.09234,0.08306 -0.167602,-0.0191 -0.170545,-0.01132 -0.07274,0.192172 0.09753,0.202927 0.351481,0.340726 0.478161,0.259461 0.03298,-0.02116 0.01356,-0.153735 -0.04316,-0.294622 -0.05671,-0.140888 -0.08747,-0.272399 -0.06835,-0.292249 0.01912,-0.01985 -0.01853,-0.226376 -0.08366,-0.458949 -0.08178,-0.291976 -0.148923,-0.410714 -0.216944,-0.383621 -0.05418,0.02158 -0.123452,-0.0026 -0.153933,-0.05384 -0.03616,-0.06073 -0.02488,-0.07349 0.03246,-0.0367 0.04834,0.03101 0.132448,0.01799 0.186913,-0.02893 0.07447,-0.06415 0.126069,-0.05724 0.208079,0.02788 0.05998,0.06226 0.126176,0.09541 0.147107,0.07369 0.02093,-0.02173 0.06296,0.0023 0.0934,0.05345 0.03537,0.0594 0.02478,0.07334 -0.02933,0.03863 -0.05068,-0.03251 -0.08467,-0.0049 -0.08467,0.06886 0,0.06775 0.03262,0.102245 0.0725,0.07667 0.04016,-0.02576 0.05464,0.0018 0.03245,0.06182 -0.02203,0.05958 0.01961,0.170246 0.09252,0.245925 0.07291,0.07568 0.123721,0.148763 0.112914,0.162409 -0.01081,0.01365 0.0018,0.113554 0.02803,0.222017 0.03524,0.145741 0.064,0.170485 0.110202,0.09482 0.04828,-0.07908 0.06277,-0.07206 0.06364,0.03083 6.18e-4,0.07327 -0.03738,0.13322 -0.08444,0.13322 -0.04706,0 -0.06376,0.02263 -0.03712,0.05028 0.02665,0.02766 0.106403,-0.0042 0.17724,-0.0707 0.13008,-0.122191 0.155127,-0.131834 0.34242,-0.131834 0.119484,0 0.09864,-0.261352 -0.07075,-0.887163 -0.05841,-0.21579 -0.1062,-0.429893 -0.1062,-0.475786 0,-0.142109 0.207605,-0.09172 0.254542,0.06178 0.02442,0.07987 0.0921,0.164215 0.150387,0.187433 0.05829,0.02322 0.08699,0.09359 0.06378,0.156373 -0.02321,0.06279 0.0087,0.219996 0.07083,0.349352 0.06217,0.129355 0.09554,0.282504 0.07417,0.340331 -0.04104,0.111007 0.369791,0.380552 0.476089,0.312361 0.0323,-0.02072 0.06536,-0.333111 0.07348,-0.694206 0.01101,-0.489929 -0.0073,-0.64238 -0.07221,-0.600749 -0.0521,0.03342 -0.06761,0.02327 -0.03867,-0.02532 0.08892,-0.149347 0.296673,-0.04553 0.357192,0.178489 0.07245,0.268171 0.08744,1.060895 0.02214,1.170563 -0.08277,0.139014 0.04334,0.08469 0.31789,-0.136934 0.146985,-0.118652 0.325002,-0.237475 0.395592,-0.264051 0.07059,-0.02658 0.128347,-0.08568 0.128347,-0.131329 0,-0.04565 -0.0275,-0.06536 -0.06112,-0.0438 -0.03361,0.02156 -0.06112,-0.01067 -0.06112,-0.07163 0,-0.06096 0.02922,-0.11084 0.06494,-0.11084 0.03572,0 0.05745,-0.128462 0.04829,-0.285472 -0.02225,-0.381409 0.132961,-0.827633 0.268357,-0.771518 0.10476,0.04342 0.0639,0.43066 -0.111488,1.056487 -0.09157,0.326754 -0.09158,0.324927 6.76e-4,0.265748 0.141041,-0.09048 1.16268,-0.04279 1.405987,0.06563 0.133274,0.05939 0.321184,0.186311 0.417578,0.282051 0.09639,0.09574 0.158754,0.12546 0.138577,0.06604 -0.03667,-0.107981 0.195265,-0.601434 0.474504,-1.009542 0.108852,-0.159087 0.163531,-0.190383 0.206512,-0.118198 0.0694,0.116554 -0.07244,0.49822 -0.373766,1.005711 -0.173863,0.292823 -0.202242,0.396584 -0.140969,0.515422 0.04219,0.08183 0.05796,0.180298 0.03503,0.218806 -0.02293,0.03851 0.03064,0.139953 0.119032,0.225433 0.121283,0.117284 0.184667,0.134789 0.258318,0.07134 0.05368,-0.04624 0.0976,-0.124185 0.0976,-0.173207 0,-0.04902 0.163706,-0.290096 0.363791,-0.535721 0.200085,-0.245624 0.3435,-0.480666 0.318701,-0.522316 -0.0248,-0.04165 -0.013,-0.05514 0.02623,-0.02998 0.03923,0.02516 0.154893,-0.03469 0.257039,-0.132997 0.104621,-0.100695 0.223494,-0.154517 0.272224,-0.123257 0.09892,0.06346 -0.01904,0.24155 -0.629952,0.951163 -0.213406,0.247883 -0.388011,0.494221 -0.388011,0.547419 0,0.0532 -0.0381,0.121166 -0.08467,0.151041 -0.05246,0.03365 -0.06476,0.02088 -0.03234,-0.03357 0.02878,-0.04834 0.01738,-0.08789 -0.02534,-0.08789 -0.121512,0 -0.09113,0.192135 0.05158,0.32619 0.107883,0.101341 0.670717,0.174275 0.574546,0.07445 -0.07605,-0.07894 0.591734,-0.777231 0.964705,-1.008785 0.228974,-0.142155 0.238357,-0.142455 0.238357,-0.0076 0,0.0772 -0.05501,0.187378 -0.122238,0.244841 -0.06723,0.05746 -0.215746,0.23808 -0.330033,0.401372 -0.114287,0.163291 -0.2083,0.266061 -0.208918,0.228377 -6.17e-4,-0.03768 -0.03173,-0.01828 -0.06914,0.04312 -0.04321,0.07091 -0.03925,0.147626 0.01085,0.210285 0.112628,0.140862 0.272524,-0.01659 0.233126,-0.229562 l -0.03117,-0.168484 0.07305,0.171283 c 0.04018,0.09421 0.09256,0.171283 0.116408,0.171283 0.02385,0 0.02297,-0.03426 -0.002,-0.07613 -0.02493,-0.04187 0.01751,-0.07613 0.09432,-0.07613 0.165635,0 0.406572,-0.251503 0.327553,-0.341918 -0.03034,-0.03472 -0.01441,-0.0388 0.03541,-0.0091 0.08298,0.04952 0.523908,-0.335065 0.538847,-0.469995 0.0033,-0.02996 0.01971,-0.140111 0.03642,-0.244784 0.08328,-0.52148 -0.690548,-1.17229 -1.802631,-1.51606 -0.30253,-0.09352 -0.632563,-0.19925 -0.733406,-0.234958 -0.166053,-0.0588 -1.131707,-0.224143 -1.980198,-0.339062 -0.532783,-0.07216 -2.676933,-0.04534 -2.676933,0.03348 0,0.0063 -0.115512,0.02689 -0.256693,0.04572 -0.14118,0.01883 -0.268938,0.07178 -0.283905,0.117665 -0.01815,0.05564 -0.0427,0.05741 -0.07371,0.0053 -0.03038,-0.05102 -0.135362,-0.03671 -0.30282,0.04127 -0.140977,0.06565 -0.300809,0.111767 -0.355182,0.102491 -0.05437,-0.0093 -0.161634,0.0421 -0.238357,0.114171 -0.07672,0.07207 -0.139497,0.10329 -0.139497,0.06938 0,-0.03391 -0.06601,3.44e-4 -0.146681,0.07613 -0.08318,0.07814 -0.146682,0.09972 -0.146682,0.04986 0,-0.147821 -0.144256,-0.09848 -0.334263,0.114322 -0.09932,0.111236 -0.202252,0.179749 -0.228743,0.152252 -0.02649,-0.0275 -0.0042,-0.05 0.04962,-0.05 0.05378,0 0.08051,-0.01793 0.05939,-0.03985 -0.06247,-0.06485 -0.282253,0.04963 -0.237993,0.123958 0.02232,0.03748 -0.0131,0.06815 -0.0787,0.06815 -0.08591,0 -0.106255,0.0426 -0.07273,0.152251 0.02775,0.09074 0.01318,0.152252 -0.03606,0.152252 -0.04544,0 -0.06221,-0.03426 -0.03728,-0.07613 0.02493,-0.04187 -0.0073,-0.07613 -0.07159,-0.07613 -0.09459,0 -0.101773,0.02938 -0.03761,0.153825 0.105528,0.204668 0.02946,0.313716 -0.180656,0.258978 -0.09954,-0.02593 -0.194232,-0.0053 -0.226859,0.04955 -0.03386,0.05687 -0.02577,0.07466 0.02045,0.04501 0.04486,-0.02878 0.09044,0.04987 0.110302,0.190304 0.02921,0.206582 0.02126,0.221486 -0.05809,0.108857 -0.0585,-0.08304 -0.109401,-0.101155 -0.13997,-0.04981 -0.02642,0.04437 -0.01086,0.08068 0.03457,0.08068 0.05086,0 0.0636,0.06218 0.03314,0.161785 -0.03161,0.103363 -0.02198,0.144149 0.02666,0.112947 0.04187,-0.02686 0.09686,-0.01402 0.122196,0.02853 0.02534,0.04255 0.0056,0.07737 -0.04383,0.07737 -0.04944,0 -0.06869,0.02201 -0.04277,0.04891 0.02592,0.0269 0.09395,0.0086 0.151185,-0.04073 0.05723,-0.04931 0.13229,-0.07988 0.166789,-0.06794 0.0345,0.01194 0.06273,-0.01255 0.06273,-0.05442 0,-0.04187 -0.0272,-0.06671 -0.06046,-0.05521 -0.03325,0.0115 -0.04187,-0.01031 -0.01914,-0.04847 0.02272,-0.03816 -0.0078,-0.111718 -0.06789,-0.163458 -0.06006,-0.05174 -0.109204,-0.130682 -0.109204,-0.175427 0,-0.04474 0.04447,-0.01823 0.09882,0.05892 0.07715,0.109521 0.111793,0.118476 0.158013,0.04085 0.03913,-0.06571 0.03049,-0.081 -0.02548,-0.0451 -0.04657,0.02988 -0.08467,0.02204 -0.08467,-0.01742 0,-0.03946 0.06927,-0.09054 0.153936,-0.113523 0.08466,-0.02298 0.135331,-0.02247 0.112592,0.0011 -0.02274,0.0236 -0.0024,0.115488 0.04515,0.204188 0.04757,0.0887 0.08767,0.184222 0.0891,0.212269 0.0014,0.02805 0.07419,0.136461 0.161695,0.24092 0.0875,0.104459 0.170795,0.269923 0.185093,0.367697 0.0143,0.09777 0.06308,0.170378 0.10841,0.161342 0.04664,-0.0093 0.06699,0.04479 0.04687,0.124629 -0.01955,0.07758 -3.8e-5,0.163831 0.04335,0.191665 0.04339,0.02783 0.06928,0.006 0.05754,-0.0485 -0.01174,-0.05451 0.01151,-0.02203 0.05167,0.07217 0.04016,0.0942 0.10187,0.171283 0.137139,0.171283 0.03527,0 0.03974,-0.07708 0.0099,-0.171283 z m 8.079817,-0.339283 c -0.0398,-0.108494 -0.03138,-0.117239 0.04106,-0.04262 0.05012,0.05164 0.07266,0.113065 0.05008,0.136503 -0.02258,0.02344 -0.06359,-0.01881 -0.09113,-0.09389 z M 19.373308,12.78311 c -0.02569,-0.04315 0.0037,-0.05591 0.06901,-0.02992 0.127057,0.05061 0.150304,0.105172 0.04481,0.105172 -0.03796,0 -0.08918,-0.03386 -0.11382,-0.07525 z m 1.218998,0.0068 c -0.05534,-0.03639 -0.08823,-0.104712 -0.0731,-0.151837 0.0154,-0.04795 0.06805,-0.0183 0.119572,0.06732 0.102744,0.170767 0.09795,0.179479 -0.04647,0.08452 z m -1.182847,-0.30282 c 0,-0.03674 0.05776,-0.11382 0.128346,-0.171283 0.113559,-0.09244 0.117857,-0.09051 0.03731,0.01671 -0.05007,0.06666 -0.06932,0.143734 -0.04278,0.171283 0.02654,0.02755 0.0098,0.05009 -0.03731,0.05009 -0.04706,0 -0.08556,-0.03006 -0.08556,-0.0668 z m 1.869447,-0.162815 c -0.02534,-0.04255 -0.07679,-0.05766 -0.114339,-0.03357 -0.104613,0.06711 -0.08109,-0.01163 0.03278,-0.109723 0.0794,-0.0684 0.109359,-0.05408 0.139815,0.06681 0.04186,0.166149 0.01563,0.200583 -0.05826,0.07649 z m 0.217746,-0.0038 c -0.02659,-0.04465 -0.02882,-0.101452 -0.005,-0.126215 0.02386,-0.02476 0.0091,-0.08795 -0.03289,-0.14041 -0.05354,-0.06696 -0.04997,-0.112251 0.01197,-0.151986 0.05594,-0.03589 0.06908,-0.02443 0.0359,0.03129 -0.02878,0.04834 -0.02087,0.08789 0.01758,0.08789 0.03845,0 0.06515,0.08562 0.05933,0.190261 -0.01192,0.21439 -0.019,0.223278 -0.08693,0.109177 z m -2.233874,-0.181836 c 0,-0.05874 0.218281,-0.105987 0.249262,-0.05395 0.01867,0.03135 -0.02978,0.06198 -0.107662,0.06807 -0.07788,0.0061 -0.1416,-2.63e-4 -0.1416,-0.01412 z m 3.178095,-0.07619 c 0,-0.06096 0.02804,-0.09285 0.06231,-0.07087 0.03427,0.02199 0.04333,0.07186 0.02012,0.11084 -0.05931,0.0996 -0.08243,0.08839 -0.08243,-0.03997 z m -2.114656,-0.04141 c -0.119575,-0.05333 -0.123763,-0.06641 -0.02266,-0.07077 0.06821,-0.0029 0.144415,0.02891 0.169344,0.07077 0.05212,0.08753 0.04957,0.08753 -0.146681,0 z m 0.74312,-0.05981 c -0.01959,-0.0329 0.02555,-0.05981 0.100298,-0.05981 0.07475,0 0.119885,0.02692 0.100298,0.05981 -0.01959,0.0329 -0.06472,0.05981 -0.100298,0.05981 -0.03558,0 -0.08071,-0.02692 -0.100298,-0.05981 z m 3.76733,-0.05143 c 0,-0.01191 0.06562,-0.175634 0.145828,-0.363837 0.146365,-0.343449 0.336447,-0.572217 0.411083,-0.494747 0.06302,0.06541 -0.129164,0.657279 -0.246146,0.758053 -0.0963,0.08296 -0.310765,0.152334 -0.310765,0.100531 z m -4.693801,-0.12166 c 0,-0.04434 0.03861,-0.05585 0.0858,-0.02557 0.05989,0.03842 0.06965,0.01103 0.03233,-0.09066 -0.0408,-0.11116 -0.0331,-0.124718 0.03249,-0.05718 0.04728,0.04869 0.06379,0.125765 0.03669,0.171283 -0.06311,0.105982 -0.187301,0.107401 -0.187301,0.0021 z M 19.55614,11.64038 c 0.04318,-0.08374 0.095,-0.152251 0.115172,-0.152251 0.02017,0 0.0013,0.06851 -0.04183,0.152251 -0.04318,0.08374 -0.095,0.152252 -0.115172,0.152252 -0.02017,0 -0.0013,-0.06851 0.04183,-0.152252 z m 1.40198,0.06159 c -0.01066,-0.161364 0.110214,-0.246257 0.181108,-0.127192 0.03182,0.05343 0.02138,0.0688 -0.02605,0.03837 -0.04352,-0.02792 -0.09429,0.0096 -0.112835,0.08339 -0.03014,0.119934 -0.03461,0.120508 -0.04222,0.0054 z m 1.368552,-0.151126 c 0.06612,-0.06864 0.06527,-0.11751 -0.0037,-0.209346 -0.07946,-0.105864 -0.07489,-0.107557 0.03932,-0.01455 0.09919,0.08077 0.109892,0.129469 0.04603,0.209346 -0.04577,0.05725 -0.102286,0.104088 -0.125584,0.104088 -0.0233,0 -0.0035,-0.04029 0.04391,-0.08954 z m -1.120774,-0.291556 c -0.07323,-0.08399 -0.119603,-0.166281 -0.103043,-0.182859 0.01656,-0.01658 0.08941,0.05215 0.161879,0.152719 0.160058,0.222113 0.124447,0.240356 -0.05884,0.03014 z m 2.867661,2.580641 c 0.192409,-0.220832 0.614126,-0.433422 1.054048,-0.531352 0.427614,-0.09519 0.484749,-0.260963 0.193969,-0.562785 -0.228631,-0.237314 -0.611889,-0.306379 -1.068802,-0.192605 -0.610014,0.151897 -0.912551,0.515312 -0.630942,0.757902 0.09864,0.08497 0.233032,0.505437 0.202037,0.632098 -0.02745,0.112164 0.112375,0.05434 0.24969,-0.103258 z m -5.014403,-0.485848 c -0.08525,-0.117814 -0.143955,-0.146397 -0.180294,-0.08778 -0.0389,0.06274 -0.05419,0.06045 -0.055,-0.0082 -6.18e-4,-0.05234 -0.04073,-0.09516 -0.08913,-0.09516 -0.119979,0 0.06094,0.189597 0.183352,0.192151 0.0484,10e-4 0.08386,0.05825 0.07879,0.1272 -0.0056,0.07599 0.02975,0.109841 0.08974,0.08595 0.07924,-0.03156 0.07377,-0.07423 -0.02745,-0.214112 z M 20.65625,13.08677 c 0,-0.04187 -0.01455,-0.07613 -0.03234,-0.07613 -0.01779,0 -0.05274,0.03426 -0.07767,0.07613 -0.02493,0.04187 -0.01038,0.07612 0.03234,0.07612 0.04272,0 0.07767,-0.03426 0.07767,-0.07612 z m -1.686835,-0.07613 c 0,-0.04187 -0.03495,-0.07613 -0.07767,-0.07613 -0.04272,0 -0.05727,0.03426 -0.03234,0.07613 0.02493,0.04187 0.05988,0.07613 0.07767,0.07613 0.01779,0 0.03234,-0.03426 0.03234,-0.07613 z m 0,-0.976947 c 0,-0.109149 -0.08332,-0.156188 -0.196671,-0.111037 -0.08884,0.03538 -0.0909,0.05531 -0.01117,0.107777 0.125409,0.08252 0.207836,0.08381 0.207836,0.0033 z m -5.867252,-1.086222 c 1.240915,-0.13899 2.504225,-0.495111 3.395042,-0.9570444 0.273948,-0.142056 0.534822,-0.234717 0.579722,-0.205914 0.04624,0.02966 0.06123,0.01809 0.03457,-0.02668 -0.02589,-0.04348 0.05977,-0.124338 0.190355,-0.179685 0.65629,-0.278165 1.552795,-1.2350067 1.778063,-1.8977297 0.524058,-1.541758 -0.97462,-3.184047 -3.588249,-3.932088 -1.519118,-0.434783 -3.838516,-0.604415 -5.5625528,-0.406824 -2.421006,0.277471 -4.955627,1.442288 -5.743682,2.639582 -0.962132,1.461769 -0.185257,2.86022 2.226584,4.0080677 1.956046,0.9309254 4.1407438,1.2438694 6.6901478,0.9583194 z M 10.244469,10.415714 C 8.9169482,10.28306 7.1488692,9.7640616 6.2391532,9.2400006 5.3518872,8.7288729 4.6828712,8.0318379 4.5180712,7.4468379 c -0.253352,-0.899334 0.766093,-2.057984 2.386806,-2.712725 1.268188,-0.512326 2.316217,-0.754209 3.7655978,-0.869092 0.902245,-0.07151 1.257467,-0.06513 2.211666,0.03976 1.824968,0.200613 2.573999,0.399141 3.793648,1.005492 1.38288,0.687502 2.064305,1.852847 1.642907,2.809628 -0.166357,0.377712 -1.09764,1.300788 -1.587639,1.5736477 -0.403766,0.22484 -1.728441,0.697722 -2.429086,0.8671344 -1.173633,0.283778 -2.76734,0.383948 -4.057502,0.255028 z m 2.770198,-0.6384094 c 0.05675,-0.05891 -0.287822,-0.307757 -0.482205,-0.348248 -0.257814,-0.0537 -0.73595,0.05271 -0.970453,0.215978 l -0.183351,0.127657 0.256692,0.05234 c 0.245765,0.05011 1.320897,0.01291 1.379317,-0.04773 z M 11.06699,9.4783436 c 0.223402,-0.24201 0.416234,-0.369547 0.66183,-0.4377277 0.190615,-0.05292 0.346574,-0.135355 0.346574,-0.183192 0,-0.188985 -0.463504,-0.736923 -0.719619,-0.850709 -0.348415,-0.154794 -1.074077,-0.154143 -1.4239888,0.0013 -0.503059,0.22344 -0.712893,0.875655 -0.454614,1.4130467 0.06346,0.13204 0.164418,0.240073 0.22435,0.240073 0.05993,0 0.09398,0.02569 0.07567,0.05709 -0.01831,0.0314 0.193467,0.06712 0.4706218,0.07937 l 0.503919,0.02228 z m 3.418499,0.05363 c 0.296949,-0.0721 0.556733,-0.176598 0.577297,-0.232223 0.07077,-0.191422 -0.193177,-0.7432427 -0.422869,-0.8840767 -0.292783,-0.179519 -0.932624,-0.244189 -1.270576,-0.12842 -0.253285,0.08677 -0.707222,0.477798 -0.707222,0.609219 0,0.03357 0.0978,0.103082 0.217332,0.154474 0.119533,0.05139 0.325803,0.2093387 0.458379,0.3509907 0.279713,0.298864 0.397392,0.312197 1.147659,0.130036 z M 8.5151712,9.3373366 c -0.02383,-0.06445 -0.122616,-0.132921 -0.219529,-0.152151 -0.09691,-0.01923 -0.158754,-0.0057 -0.137426,0.03017 0.02133,0.03582 0.08281,0.06513 0.136616,0.06513 0.05381,0 0.118645,0.05629 0.144079,0.125085 0.02543,0.0688 0.06275,0.107956 0.08291,0.08702 0.02017,-0.02094 0.01718,-0.0908 -0.0066,-0.155251 z M 15.980875,8.9646539 c -0.06344,-0.06585 -0.05764,-0.140866 0.02349,-0.303705 0.05926,-0.118941 0.113123,-0.242307 0.119703,-0.274148 0.0066,-0.03184 0.162677,-0.304139 0.346882,-0.605108 0.184205,-0.30097 0.427427,-0.708519 0.540494,-0.905666 0.159484,-0.278083 0.225237,-0.338041 0.293271,-0.267424 0.06803,0.07062 0.03016,0.203868 -0.168905,0.594322 -0.32554,0.638511 -0.664608,1.185043 -0.782459,1.261218 -0.05029,0.03251 -0.07278,0.109586 -0.04997,0.171283 0.02702,0.07309 -0.006,0.114269 -0.09472,0.118185 -0.07491,0.0033 -0.09677,0.02266 -0.04858,0.043 0.04819,0.02034 0.163697,-0.0065 0.256693,-0.05967 0.093,-0.05316 0.225413,-0.08774 0.294262,-0.07683 0.06885,0.0109 0.167548,-0.05059 0.219329,-0.136654 0.05178,-0.08606 0.142832,-0.15648 0.202333,-0.15648 0.111457,0 0.80996,-0.670447 0.80996,-0.777427 0,-0.03298 0.06836,-0.130912 0.151912,-0.217637 0.171521,-0.178034 0.183527,-0.652374 0.02491,-0.984205 -0.103235,-0.215956 -0.473938,-0.587747 -0.80023,-0.802569 -0.456715,-0.300691 -1.327163,-0.664494 -1.796846,-0.750992 -0.100843,-0.01857 -0.183351,-0.04068 -0.183351,-0.04914 0,-0.0185 -0.06871,-0.03092 -1.10011,-0.198762 -0.610904,-0.09941 -1.290038,-0.132311 -2.797597,-0.135515 -1.8894408,-0.004 -1.9993558,0.0035 -2.1578208,0.148022 -0.09183,0.08374 -0.142031,0.108057 -0.111549,0.05404 0.04063,-0.072 0.0097,-0.08819 -0.115739,-0.06066 -0.09414,0.02065 -0.442554,0.0953 -0.774257,0.165874 -0.36417,0.07749 -0.584856,0.158953 -0.557058,0.20564 0.02688,0.04514 0.0095,0.05385 -0.04185,0.02094 -0.04834,-0.03101 -0.142279,-0.01061 -0.208762,0.04533 -0.08619,0.07253 -0.105073,0.07441 -0.0658,0.0066 0.03029,-0.05234 0.02013,-0.09516 -0.02259,-0.09516 -0.04272,0 -0.07767,0.03426 -0.07767,0.07613 0,0.04187 -0.02475,0.0696 -0.05501,0.06162 -0.114084,-0.03008 -0.531719,0.105648 -0.531719,0.172801 0,0.03854 0.0385,0.07008 0.08556,0.07008 0.04706,0 0.06436,0.02201 0.03844,0.04891 -0.02592,0.0269 -0.08917,0.01433 -0.14057,-0.02794 -0.06575,-0.05407 -0.184662,-0.02596 -0.40114,0.09481 -0.169231,0.09441 -0.287493,0.192626 -0.262804,0.218252 0.02469,0.02563 -0.02309,0.04659 -0.10617,0.04659 -0.136356,0 -0.280015,0.182431 -0.252615,0.320795 0.0059,0.02989 -0.03501,0.03612 -0.09095,0.01384 -0.121593,-0.04843 -0.224519,0.09092 -0.117746,0.159413 0.041,0.0263 0.07403,0.08862 0.07341,0.13848 -7.54e-4,0.06084 -0.02181,0.05678 -0.06401,-0.01235 -0.04906,-0.08035 -0.09721,-0.08395 -0.218899,-0.01635 -0.08581,0.04766 -0.160134,0.119715 -0.165176,0.160111 -0.01897,0.15197 -0.03148,0.19048 -0.09662,0.297332 -0.04461,0.07319 -0.03538,0.120592 0.02776,0.142435 0.07557,0.02615 0.07603,0.04467 0.0023,0.09197 -0.0589,0.03778 -0.07096,0.110243 -0.03333,0.200131 0.03245,0.0775 0.05601,0.15959 0.05236,0.18243 -0.0037,0.02284 0.08187,0.03582 0.190043,0.02885 0.325271,-0.02097 0.348006,-0.03153 0.233358,-0.108438 -0.07692,-0.0516 -0.08175,-0.07415 -0.01603,-0.07496 0.05169,-6.41e-4 0.112175,0.04806 0.134416,0.108217 0.02228,0.06026 0.09535,0.09187 0.162715,0.07038 0.104307,-0.03327 0.10333,-0.02637 -0.0067,0.04699 -0.07091,0.0473 -0.165205,0.06272 -0.209544,0.03428 -0.0551,-0.03535 -0.06344,0.0055 -0.02634,0.1291 0.0525,0.174915 0.04958,0.176468 -0.08959,0.0476 -0.177673,-0.164519 -0.251512,-0.170504 -0.194298,-0.01575 0.02389,0.06461 0.06107,0.09916 0.08263,0.07679 0.05214,-0.05412 0.243004,0.113095 0.203951,0.178683 -0.01676,0.02815 0.02936,0.05119 0.102486,0.05119 0.07313,0 0.11871,-0.03856 0.101289,-0.08568 -0.01742,-0.04712 0.02758,-0.133988 0.100008,-0.193033 0.116087,-0.09464 0.121323,-0.09353 0.0442,0.0094 -0.0546,0.07286 -0.06297,0.157906 -0.02228,0.226244 0.05482,0.09207 0.07292,0.08863 0.113663,-0.02158 0.02665,-0.0721 0.02303,-0.191035 -0.0081,-0.264307 -0.03108,-0.07327 -0.06349,-0.158912 -0.07202,-0.190314 -0.0085,-0.0314 -0.02341,-0.06566 -0.03307,-0.07613 -0.03653,-0.03958 -0.05235,-0.745016 -0.01586,-0.707137 0.02105,0.02184 0.08786,-0.0028 0.148469,-0.05478 0.09669,-0.08291 0.09819,-0.07446 0.01221,0.06886 -0.08367,0.139471 -0.0808,0.181213 0.01965,0.285471 0.141479,0.146852 0.188591,0.154109 0.17498,0.02696 -0.01229,-0.114814 0.03262,-0.13322 0.325085,-0.13322 0.204783,0 0.214784,0.01088 0.110011,0.119626 -0.06339,0.06579 -0.115249,0.151436 -0.115249,0.190315 0,0.03888 -0.03417,0.07069 -0.07592,0.07069 -0.05147,0 -0.05064,-0.04903 0.0026,-0.152252 0.09955,-0.193067 -0.0109,-0.19779 -0.176763,-0.0076 -0.08404,0.09639 -0.09968,0.161681 -0.04684,0.195575 0.04362,0.02798 0.06033,0.08277 0.03712,0.121746 -0.02321,0.03898 -0.0072,0.07087 0.03547,0.07087 0.04272,0 0.07767,0.04894 0.07767,0.108751 0,0.178328 0.221481,0.357783 0.377951,0.306235 0.07836,-0.02581 0.187456,-0.0082 0.242435,0.03918 0.06005,0.05173 0.117009,0.05748 0.142655,0.01441 0.02349,-0.03943 -0.03958,-0.09313 -0.140146,-0.119333 -0.18326,-0.04774 -0.27102,-0.349236 -0.101657,-0.349236 0.04465,0 0.06219,0.05139 0.03897,0.114189 -0.02322,0.0628 -0.0064,0.114188 0.03738,0.114188 0.04675,0 0.06135,-0.07068 0.03537,-0.171282 -0.02432,-0.09421 -0.04467,-0.216126 -0.04522,-0.270933 -5.51e-4,-0.05481 -0.03028,-0.08087 -0.06606,-0.05791 -0.03578,0.02295 -0.06359,-7.16e-4 -0.06179,-0.0526 0.0099,-0.286751 -0.03024,-0.442176 -0.11151,-0.431222 -0.195086,0.02629 -0.370283,-0.0083 -0.31781,-0.06278 0.03025,-0.0314 0.09036,-0.05709 0.133578,-0.05709 0.04322,0 0.08742,-0.0626 0.09824,-0.139111 0.01334,-0.09435 -0.01445,-0.12552 -0.08638,-0.09687 -0.08507,0.03389 -0.0907,0.01246 -0.02843,-0.108297 0.07473,-0.144934 0.04509,-0.185876 -0.110894,-0.15321 -0.04034,0.0084 -0.04792,-0.01103 -0.01684,-0.04329 0.09416,-0.09773 0.346874,-0.08733 0.346874,0.01427 0,0.05232 0.02475,0.106542 0.05501,0.120498 0.03025,0.01396 0.106771,0.128145 0.17004,0.253753 0.06697,0.132965 0.16852,0.22362 0.243058,0.216991 0.119905,-0.01066 0.119587,-0.0014 -0.005,0.146128 -0.123562,0.146285 -0.123897,0.154051 -0.0047,0.108933 0.07059,-0.02672 0.128346,-0.0154 0.128346,0.02515 0,0.04055 -0.03197,0.07374 -0.07104,0.07374 -0.03907,0 -0.05476,0.04404 -0.03485,0.09788 0.056,0.151469 0.320615,0.115511 0.371366,-0.05046 0.04096,-0.133937 0.05199,-0.136049 0.113609,-0.02175 0.03754,0.06962 0.124367,0.125499 0.192953,0.124168 0.110397,-0.0021 0.111866,-0.01306 0.01281,-0.09516 -0.06155,-0.05101 -0.111049,-0.158397 -0.110015,-0.238646 0.001,-0.08025 -0.04397,-0.161771 -0.100004,-0.181159 -0.05621,-0.01945 -0.08123,-5.67e-4 -0.05581,0.04213 0.02534,0.04256 -1.32e-4,0.117178 -0.0566,0.165824 -0.07211,0.06212 -0.117158,0.06412 -0.151325,0.0067 -0.02676,-0.04494 -0.0064,-0.0723 0.04514,-0.06079 0.05159,0.0115 0.09814,-0.01334 0.103461,-0.05521 0.0053,-0.04187 0.03638,-0.139532 0.06903,-0.217029 0.03265,-0.0775 0.0298,-0.163138 -0.0063,-0.190315 -0.06238,-0.04692 -0.08393,-0.109053 -0.140861,-0.406068 -0.01352,-0.07055 -0.05999,-0.196937 -0.103254,-0.280851 -0.05849,-0.113446 -0.05511,-0.166648 0.01321,-0.20746 0.05053,-0.03019 0.06844,-0.02792 0.03979,0.005 -0.07697,0.08856 0.148232,0.497371 0.273985,0.497371 0.05947,0 0.09988,0.02755 0.08979,0.06121 -0.02387,0.07968 0.256581,0.623918 0.32151,0.623918 0.02739,0 0.03253,0.06851 0.01144,0.152251 -0.02145,0.08512 -0.0023,0.152252 0.04354,0.152252 0.04504,0 0.08294,0.05995 0.08423,0.13322 0.0031,0.175924 0.191085,0.429802 0.247776,0.334591 0.02429,-0.0408 0.01191,-0.08567 -0.02751,-0.09971 -0.03942,-0.01404 -0.08184,-0.09404 -0.09425,-0.177783 -0.01242,-0.08374 -0.046,-0.191177 -0.07464,-0.238754 -0.03067,-0.05096 0.0079,-0.102782 0.0939,-0.12612 0.08028,-0.02179 0.128401,-0.01013 0.106942,0.02591 -0.0622,0.104461 0.04705,0.456856 0.125946,0.406245 0.04059,-0.02604 0.06098,0.0287 0.04718,0.12667 -0.01337,0.09489 0.01695,0.187132 0.06737,0.20498 0.122065,0.04321 0.115296,-0.121747 -0.01569,-0.382402 -0.05855,-0.116519 -0.07485,-0.191575 -0.03622,-0.166791 0.111454,0.0715 0.08148,-0.169761 -0.03627,-0.291989 -0.05859,-0.06081 -0.08751,-0.130293 -0.06428,-0.154406 0.02323,-0.02411 0.01667,-0.105269 -0.01457,-0.180345 -0.03124,-0.07508 -0.06653,-0.187267 -0.07841,-0.24931 -0.01188,-0.06204 -0.05614,-0.124757 -0.09835,-0.139362 -0.04837,-0.01673 -0.05252,-0.07355 -0.01123,-0.153633 0.03604,-0.06989 0.0663,-0.160479 0.06726,-0.201301 0.0048,-0.206714 0.161689,-0.08781 0.239417,0.181475 0.04878,0.168988 0.151027,0.376707 0.227221,0.461596 0.07666,0.08541 0.100488,0.154346 0.05336,0.154346 -0.06294,0 -0.06385,0.02667 -0.0035,0.102161 0.04493,0.05619 0.05722,0.130194 0.02732,0.164457 -0.0299,0.03426 -0.01258,0.03731 0.0385,0.0068 0.05108,-0.03054 0.07529,-0.08505 0.05381,-0.121134 -0.02148,-0.03608 -0.01102,-0.08359 0.02325,-0.10558 0.06025,-0.03865 0.07442,0.007 0.104222,0.335842 0.008,0.08865 0.05298,0.1386 0.105781,0.117568 0.06646,-0.02647 0.08067,0.03081 0.05145,0.207461 -0.03081,0.186253 -0.0218,0.216994 0.03803,0.129841 0.06099,-0.08885 0.07864,-0.09126 0.07952,-0.01089 6.73e-4,0.06191 0.04673,0.08514 0.114943,0.05797 0.06527,-0.026 0.09471,-0.01323 0.06901,0.02992 -0.02464,0.04139 0.027,0.07525 0.114755,0.07525 0.129683,0 0.151282,-0.03208 0.115341,-0.171283 -0.02432,-0.09421 -0.04467,-0.196127 -0.04522,-0.226493 -5.51e-4,-0.03037 -0.07801,-0.02482 -0.17213,0.01232 -0.125568,0.04955 -0.171128,0.04085 -0.171128,-0.03269 0,-0.05512 0.04067,-0.08403 0.09037,-0.06423 0.0497,0.0198 0.112685,-0.0015 0.139959,-0.04729 0.02921,-0.04906 -0.04306,-0.116809 -0.175853,-0.164859 -0.123989,-0.04486 -0.204848,-0.116149 -0.179685,-0.15841 0.02905,-0.04878 0.06627,-0.04237 0.101952,0.01755 0.08836,0.148396 0.162195,-0.327107 0.08396,-0.540694 -0.03717,-0.10148 -0.07226,-0.218765 -0.07798,-0.260634 -0.0057,-0.04187 -0.04249,-0.196024 -0.08172,-0.342566 -0.09422,-0.352014 -0.09137,-0.380629 0.03788,-0.380629 0.06051,0 0.110011,0.03203 0.110011,0.07117 0,0.03914 0.03849,0.167606 0.08553,0.285472 0.04704,0.117866 0.0897,0.23143 0.0948,0.252364 0.05765,0.236612 0.223688,0.681801 0.3037388,0.814382 0.05556,0.09202 0.07148,0.186262 0.03538,0.209422 -0.07217,0.0463 -0.01919,0.34646 0.06116,0.34646 0.02757,0 0.08832,-0.03966 0.135019,-0.08812 0.09507,-0.09868 0.312063,0.03614 0.310016,0.192603 -7.75e-4,0.05921 -0.01844,0.05757 -0.05694,-0.0053 -0.03305,-0.05397 -0.09561,-0.06561 -0.153389,-0.02855 -0.11717,0.07517 -0.01316,0.16093 0.233978,0.192941 0.527022,0.06826 0.857563,0.141347 0.857563,0.189609 0,0.105041 0.34097,0.219424 0.446797,0.149884 0.136498,-0.08969 0.213268,-0.08755 0.213268,0.0059 0,0.04187 -0.02475,0.06756 -0.055,0.05709 -0.112509,-0.03893 -0.08724,0.09976 0.04277,0.234705 0.07394,0.07675 0.191297,0.130887 0.260785,0.120301 0.102261,-0.01558 0.109606,0.0017 0.03853,0.09057 -0.07068,0.0884 -0.06627,0.10124 0.02264,0.06583 0.06075,-0.0242 0.147924,-0.129362 0.193725,-0.233702 0.10007,-0.227971 0.104513,-0.28128 0.01886,-0.226336 -0.07367,0.04726 -0.175731,-0.393711 -0.114805,-0.496035 0.02208,-0.03709 -0.01088,-0.04711 -0.07325,-0.02227 -0.06237,0.02484 -0.09199,0.08113 -0.06582,0.125079 0.02712,0.04554 0.01254,0.05743 -0.03389,0.02765 -0.0859,-0.0551 -0.03932,-0.275765 0.05821,-0.275765 0.06624,0 0.208614,-0.987923 0.230397,-1.59864 0.01952,-0.547188 0.05476,-0.650588 0.167315,-0.490819 0.09274,0.131642 0.09125,1.19671 -0.0027,1.937208 -0.02922,0.23028 -0.04566,0.449809 -0.03654,0.487841 0.0091,0.03803 -0.02642,0.09746 -0.07897,0.132054 -0.07737,0.05094 -0.07659,0.06313 0.0041,0.06407 0.07107,8.32e-4 0.08563,0.05905 0.0508,0.203096 l -0.04883,0.20193 0.205892,-0.140276 c 0.143195,-0.09756 0.388553,-0.150281 0.805723,-0.173129 0.493246,-0.02701 0.599536,-0.05488 0.598173,-0.156811 -0.0023,-0.174846 0.05265,-0.386302 0.180704,-0.694901 0.06081,-0.146542 0.191024,-0.463148 0.28937,-0.703569 0.09835,-0.24042 0.202298,-0.412747 0.231006,-0.382949 0.02871,0.0298 0.03156,-0.0016 0.0063,-0.06985 -0.02522,-0.06822 0.0094,-0.234879 0.07687,-0.370362 0.09475,-0.190175 0.137725,-0.222113 0.188528,-0.140091 0.110565,0.178511 0.0064,0.525537 -0.497111,1.655421 -0.09982,0.224011 -0.194682,0.478418 -0.210811,0.565348 -0.01613,0.08693 -0.07043,0.184423 -0.120663,0.21665 -0.06561,0.04209 -0.0506,0.07241 0.05329,0.107655 0.07954,0.02698 0.215736,0.08425 0.302649,0.127263 0.08691,0.04301 0.194991,0.05449 0.240174,0.0255 0.04622,-0.02965 0.07334,-0.01059 0.062,0.04359 -0.01108,0.05296 0.0397,0.109824 0.11285,0.126359 0.08158,0.01844 0.126155,-0.0092 0.115292,-0.0716 -0.0097,-0.05592 0.09086,-0.341465 0.223555,-0.63455 0.318262,-0.702945 0.374809,-0.843446 0.52085,-1.294137 0.101133,-0.312103 0.134016,-0.354492 0.182648,-0.235451 0.121685,0.297865 -0.510782,2.168211 -0.714596,2.113219 -0.05173,-0.01396 -0.0714,-0.0019 -0.04373,0.02686 0.02768,0.02873 0.02131,0.131439 -0.01415,0.228245 -0.0474,0.12941 -0.03645,0.187169 0.04135,0.21816 0.0582,0.02318 0.105824,0.08999 0.105824,0.148462 0,0.112768 0.272243,0.507473 0.350024,0.507473 0.02531,0 0.0081,-0.03935 -0.03824,-0.08745 z m 0.622082,-0.607128 c 0.04975,-0.05203 0.108928,-0.07542 0.131509,-0.05198 0.02258,0.02344 -0.01812,0.06601 -0.09045,0.09459 -0.104525,0.04131 -0.112949,0.03257 -0.04106,-0.04261 z M 6.4921492,7.7008729 c -0.09311,-0.123229 -0.08966,-0.124845 0.04603,-0.02154 0.08067,0.06142 0.160433,0.121372 0.17724,0.13322 0.01681,0.01185 -0.0039,0.02154 -0.04603,0.02154 -0.04212,0 -0.121879,-0.05995 -0.17724,-0.13322 z m 5.3168018,-0.152252 c 0.0311,-0.05372 0.01898,-0.09516 -0.02783,-0.09516 -0.139962,0 -0.294552,-0.210245 -0.247725,-0.336909 0.02437,-0.06592 0.0067,-0.119845 -0.03918,-0.119845 -0.04592,0 -0.102413,0.05119 -0.125542,0.113751 -0.02313,0.06256 -0.07402,0.09324 -0.113096,0.06818 -0.03907,-0.02507 -4.77e-4,-0.09688 0.08577,-0.159579 0.105788,-0.07691 0.15018,-0.179609 0.136434,-0.315632 -0.01121,-0.110894 0.0012,-0.237896 0.02762,-0.282224 0.0731,-0.12277 0.005,-1.170672 -0.08325,-1.281045 -0.05926,-0.07411 -0.03888,-0.09415 0.08613,-0.08469 0.19471,0.01473 0.25811,0.327349 0.262145,1.292603 0.0015,0.358577 0.03444,0.618476 0.08042,0.634382 0.04283,0.01482 0.07788,0.06037 0.07788,0.101219 0,0.04085 -0.02925,0.05551 -0.065,0.03257 -0.03575,-0.02294 -0.08169,0.02453 -0.102083,0.10548 -0.02676,0.106221 0.0049,0.153649 0.113776,0.170427 0.145923,0.02249 0.146403,0.02698 0.01466,0.137436 -0.07854,0.06585 -0.112877,0.07391 -0.08112,0.01903 z m 1.170977,-0.05375 c 0,-0.06096 0.02804,-0.09285 0.06231,-0.07087 0.03427,0.02199 0.04333,0.07186 0.02012,0.11084 -0.05931,0.0996 -0.08243,0.08839 -0.08243,-0.03997 z m 0.606652,0.02178 c 0.03545,-0.05953 0.01335,-0.07326 -0.06666,-0.04139 -0.06583,0.02622 -0.142351,0.0096 -0.170044,-0.03689 -0.0328,-0.05508 -0.01648,-0.06284 0.04678,-0.02225 0.07206,0.04622 0.08402,0.02683 0.04632,-0.07513 -0.04488,-0.121402 -0.03626,-0.125081 0.07386,-0.03152 0.111372,0.09462 0.116692,0.09093 0.04986,-0.03455 -0.07663,-0.143867 -0.0451,-0.528794 0.0389,-0.47491 0.02564,0.01645 0.05007,-0.06103 0.05429,-0.17217 0.01095,-0.288292 0.564542,-1.711419 0.652392,-1.677109 0.147332,0.05754 -0.02242,0.794745 -0.466856,2.027507 -0.07936,0.220124 -0.119544,0.384349 -0.0893,0.364946 0.03025,-0.0194 0.05499,0.01309 0.05499,0.07221 0,0.05912 -0.0275,0.08985 -0.06112,0.06828 -0.03361,-0.02156 -0.06112,-0.0029 -0.06112,0.04141 0,0.04434 -0.03495,0.08062 -0.07767,0.08062 -0.04272,0 -0.0538,-0.04008 -0.02464,-0.08906 z M 6.5377722,7.3394299 c 0.05369,-0.250065 0.09047,-0.312671 0.148395,-0.252547 0.02089,0.02168 -0.01498,0.138726 -0.0797,0.260096 l -0.117686,0.220672 z m -1.3564,-0.03822 c -0.09401,-0.06306 -0.09135,-0.07396 0.01834,-0.07496 0.07059,-6.41e-4 0.128346,0.03309 0.128346,0.07496 0,0.09284 -0.0083,0.09284 -0.146681,0 z m 8.9475598,-0.07613 c -0.0661,-0.04434 -0.07515,-0.07426 -0.02266,-0.07496 0.04804,-6.41e-4 0.107744,0.03309 0.132674,0.07496 0.05627,0.09451 0.03088,0.09451 -0.110011,0 z m -8.6305358,-0.053 c -0.222752,-0.04501 -0.344172,-0.214668 -0.262303,-0.366516 0.06048,-0.112171 0.0748,-0.112368 0.162848,-0.0022 0.08299,0.1038 0.07825,0.113454 -0.03385,0.0688 -0.09289,-0.037 -0.120491,-0.02108 -0.09597,0.05535 0.01893,0.05901 0.09769,0.119177 0.175024,0.133708 0.07733,0.01453 0.171957,0.05735 0.210278,0.09516 0.03832,0.03781 0.05482,0.06407 0.03667,0.05837 -0.01815,-0.0057 -0.104864,-0.02489 -0.192694,-0.04263 z m 5.3226718,-0.0019 c -0.07944,-0.01898 -0.106895,-0.08592 -0.0847,-0.206453 0.01807,-0.0981 -0.0058,-0.253263 -0.05297,-0.344809 -0.0472,-0.09155 -0.0993,-0.307119 -0.115782,-0.47905 -0.01648,-0.17193 -0.05526,-0.332099 -0.08617,-0.355931 -0.03092,-0.02383 -0.05621,-0.09472 -0.05621,-0.157519 0,-0.06861 -0.06441,-0.111938 -0.16137,-0.108551 -0.08875,0.0031 -0.144561,-0.02259 -0.124018,-0.05709 0.02054,-0.0345 0.08698,-0.06273 0.147645,-0.06273 0.06112,0 0.104472,-0.05939 0.09724,-0.13322 -0.0072,-0.07327 -0.0083,-0.184605 -0.0024,-0.247408 0.0085,-0.09118 0.02592,-0.08702 0.08629,0.02063 0.04159,0.07415 0.101093,0.118479 0.132228,0.09851 0.03114,-0.01997 0.05996,0.005 0.06405,0.05549 0.009,0.111332 0.160973,0.732379 0.218024,0.891129 0.04141,0.115235 0.07528,0.269499 0.112798,0.513848 0.01125,0.07327 0.04479,0.173674 0.07454,0.223117 0.02974,0.04944 0.02,0.11176 -0.02165,0.138481 -0.04165,0.02672 -0.05816,0.07811 -0.03667,0.114188 0.05084,0.08538 -0.04229,0.132886 -0.190886,0.09737 z m 2.353042,-0.06105 c -0.07751,-0.09693 -0.07297,-0.108074 0.02769,-0.06798 0.06621,0.02637 0.120385,0.07854 0.120385,0.115931 0,0.09789 -0.04246,0.08415 -0.148075,-0.047951 z M 5.5480752,6.9250519 c 0,-0.0394 0.03263,-0.09256 0.0725,-0.118143 0.04157,-0.02667 0.05387,0.0039 0.02882,0.07163 -0.04876,0.131882 -0.101324,0.156011 -0.101325,0.04651 z m 5.0269668,-0.07536 c -0.02321,-0.03898 -0.01415,-0.08885 0.02012,-0.11084 0.03427,-0.02199 0.06231,0.0099 0.06231,0.07087 0,0.128361 -0.02313,0.139576 -0.08243,0.03997 z m 1.35367,0.04095 c 0,-0.01646 0.05122,-0.05032 0.113821,-0.07525 0.06527,-0.026 0.09471,-0.01323 0.06901,0.02992 -0.04307,0.07234 -0.182833,0.10699 -0.182833,0.04534 z M 5.3463892,6.6203529 c -0.09076,-0.07859 -0.165017,-0.167285 -0.165017,-0.197102 0,-0.02982 0.04429,-0.01606 0.09842,0.03057 0.05413,0.04663 0.12014,0.06795 0.146681,0.04738 0.02654,-0.02057 0.03204,-0.01486 0.01222,0.01269 -0.01982,0.02755 7.24e-4,0.09606 0.04565,0.152251 0.113544,0.142006 0.0574,0.12337 -0.137961,-0.04579 z m 5.0788398,-0.0043 c 0.02493,-0.04187 0.05988,-0.07613 0.07767,-0.07613 0.01779,0 0.03234,0.03426 0.03234,0.07613 0,0.04187 -0.03495,0.07613 -0.07767,0.07613 -0.04272,0 -0.05727,-0.03426 -0.03234,-0.07613 z M 7.1346122,6.4039919 c -0.01959,-0.0329 0.02555,-0.05981 0.100298,-0.05981 0.07475,0 0.119886,0.02692 0.100298,0.05981 -0.01959,0.0329 -0.06472,0.05981 -0.100298,0.05981 -0.03558,0 -0.08071,-0.02692 -0.100298,-0.05981 z m 3.3198468,0.04078 c -0.03269,-0.08361 -0.0498,-0.59864 -0.01882,-0.566483 0.04862,0.05047 0.101091,0.585515 0.05742,0.585515 -0.01713,0 -0.0345,-0.0086 -0.0386,-0.01903 z M 6.1884282,6.2415279 c -0.0319,-0.126623 -0.02236,-0.156345 0.03207,-0.09985 0.04262,0.04424 0.06306,0.125366 0.04542,0.180286 -0.01831,0.05701 -0.05155,0.02251 -0.07749,-0.08043 z m 3.271149,0.03531 c 0,-0.06096 0.02804,-0.09285 0.06231,-0.07087 0.03427,0.02199 0.04333,0.07186 0.02012,0.11084 -0.0593,0.0996 -0.08243,0.08839 -0.08243,-0.03997 z m -2.454305,-0.06745 c 0.04493,-0.05619 0.05722,-0.130195 0.02732,-0.164457 -0.0299,-0.03426 -0.01151,-0.03663 0.04087,-0.0053 0.07338,0.04395 0.07552,0.0817 0.0094,0.164457 -0.04724,0.05908 -0.102384,0.107411 -0.122552,0.107411 -0.02017,0 8.7e-5,-0.04597 0.04501,-0.102162 z m 4.2633748,0.02154 c 0,-0.04434 0.033,-0.05945 0.07334,-0.03357 0.04034,0.02588 0.07334,0.06216 0.07334,0.08062 0,0.01846 -0.033,0.03357 -0.07334,0.03357 -0.04034,0 -0.07334,-0.03628 -0.07334,-0.08062 z m -5.3905388,-0.07163 c -0.02493,-0.04187 -0.01038,-0.07613 0.03234,-0.07613 0.04272,0 0.07767,0.03426 0.07767,0.07613 0,0.04187 -0.01455,0.07613 -0.03234,0.07613 -0.01779,0 -0.05274,-0.03426 -0.07767,-0.07613 z m 3.077292,-0.0051 c -0.02659,-0.04466 -0.03261,-0.09752 -0.01339,-0.117477 0.01923,-0.01996 0.0545,0.01658 0.07838,0.08119 0.04959,0.134142 0.0073,0.157737 -0.06499,0.03628 z m -0.730391,-0.07107 c -0.02493,-0.04187 -0.01038,-0.07613 0.03234,-0.07613 0.04272,0 0.07767,0.03426 0.07767,0.07613 0,0.04187 -0.01455,0.07613 -0.03234,0.07613 -0.01779,0 -0.05274,-0.03426 -0.07767,-0.07613 z m 0.943645,-0.09516 c 0.02265,-0.154988 0.122223,-0.285637 0.215799,-0.283157 0.04804,0.0013 0.02776,0.03829 -0.04506,0.08227 -0.104595,0.06316 -0.114265,0.102654 -0.04603,0.187999 0.06822,0.08532 0.06273,0.108044 -0.02611,0.108044 -0.06188,0 -0.106243,-0.04282 -0.09859,-0.09516 z m -3.293561,-0.06216 c -0.02659,-0.04466 -0.03261,-0.09752 -0.01339,-0.117472 0.01922,-0.01996 0.0545,0.01658 0.07838,0.08119 0.04959,0.134142 0.0073,0.157737 -0.06499,0.03628 z m 5.3202128,0.05245 c 0,-0.01581 0.05776,-0.07576 0.128346,-0.13322 0.116322,-0.09469 0.118917,-0.092 0.02769,0.02874 -0.09581,0.126806 -0.156036,0.167132 -0.156036,0.104478 z m -1.09432,-0.167917 c 0.0035,-0.08868 0.0209,-0.106721 0.04431,-0.04599 0.02119,0.05495 0.01858,0.120612 -0.0058,0.145908 -0.02437,0.0253 -0.0417,-0.01967 -0.03852,-0.09991 z M 8.8484052,5.6218779 c 0,-0.04434 0.033,-0.05945 0.07334,-0.03357 0.04034,0.02588 0.07334,0.06215 0.07334,0.08062 0,0.01846 -0.033,0.03357 -0.07334,0.03357 -0.04034,0 -0.07334,-0.03628 -0.07334,-0.08062 z m -1.320132,-0.04962 c 0,-0.04372 0.05776,-0.126507 0.128346,-0.18397 0.118721,-0.09664 0.120277,-0.09306 0.02075,0.04777 -0.05918,0.08374 -0.116932,0.166525 -0.128346,0.18397 -0.01141,0.01745 -0.02075,-0.004 -0.02075,-0.04777 z m 1.613494,-0.02201 c -0.170682,-0.05674 -0.172248,-0.06147 -0.02266,-0.06854 0.08838,-0.0042 0.181085,0.02667 0.206015,0.06854 0.02493,0.04187 0.03513,0.07271 0.02266,0.06854 -0.01246,-0.0042 -0.105172,-0.03501 -0.206015,-0.06854 z m -2.108543,-0.202669 c -0.121472,-0.05088 -0.117398,-0.152585 0.0061,-0.152585 0.05378,0 0.09779,0.04567 0.09779,0.101501 0,0.05583 -0.0027,0.0988 -0.0061,0.09549 -0.0034,-0.0033 -0.04737,-0.02329 -0.09779,-0.04441 z m 1.353674,3.440933 c -0.04584,-0.08534 -0.08452,-0.178009 -0.08595,-0.205922 -0.0014,-0.02791 -0.03264,-0.0793 -0.06936,-0.114189 -0.03819,-0.03628 -0.04622,-0.02612 -0.01876,0.02374 0.0264,0.04795 -0.0096,0.110376 -0.07992,0.138725 -0.11251,0.04533 -0.105831,0.06527 0.05543,0.165487 0.100843,0.06267 0.125596,0.09552 0.05501,0.07301 -0.07059,-0.02251 -0.128346,-0.0081 -0.128346,0.03195 0,0.04009 0.07993,0.06602 0.177624,0.05762 0.156027,-0.0134 0.16749,-0.03413 0.09427,-0.170431 z m -0.101011,-0.454755 c 0.04719,0.02444 0.02174,-0.0095 -0.05656,-0.0754 -0.08058,-0.06782 -0.10257,-0.119834 -0.05068,-0.119834 0.05043,0 0.07218,-0.03276 0.04834,-0.0728 -0.07995,-0.134281 -0.244064,1.48e-4 -0.202343,0.165748 0.02711,0.107603 0.01286,0.141754 -0.04393,0.105318 -0.05622,-0.03607 -0.06806,-0.01066 -0.03576,0.07671 0.03255,0.08803 0.02059,0.112857 -0.03667,0.07613 -0.0555,-0.03561 -0.06983,-0.01356 -0.04131,0.06358 0.03567,0.09649 0.07012,0.08317 0.188384,-0.0729 0.0796,-0.105039 0.183341,-0.170986 0.230532,-0.146547 z m -2.088087,0.08263 c 0.14468,-0.159853 0.149764,-0.18935 0.04778,-0.277207 -0.09666,-0.08326 -0.106898,-0.07875 -0.06689,0.02947 0.02758,0.07461 -0.007,0.189968 -0.08303,0.277207 -0.185389,0.212632 -0.0928,0.185917 0.102142,-0.02947 z m 0.26979,0.08721 c 0.02402,-0.02493 0.01221,-0.06551 -0.02624,-0.09018 -0.03845,-0.02467 -0.108495,0.0034 -0.155654,0.06239 -0.06765,0.08461 -0.06211,0.103638 0.02624,0.09018 0.06159,-0.0094 0.131634,-0.03746 0.155654,-0.06239 z m 0.723096,-0.04789 c 0.02078,-0.03489 -0.01028,-0.06344 -0.06901,-0.06344 -0.05873,0 -0.106785,0.02855 -0.106785,0.06344 0,0.03489 0.03106,0.06344 0.06901,0.06344 0.03796,0 0.08601,-0.02855 0.106785,-0.06344 z m -1.071988,-0.391892 c 0.0035,-0.127854 -0.02445,-0.212696 -0.0621,-0.188536 -0.03766,0.02416 -0.06847,0.09531 -0.06847,0.158114 0,0.0628 -0.0275,0.09655 -0.06112,0.07498 -0.03361,-0.02156 -0.06112,0.0092 -0.06112,0.06828 0,0.05912 0.0275,0.08985 0.06112,0.06828 0.03361,-0.02156 0.06112,-9.07e-4 0.06112,0.0459 0,0.200656 0.124807,-0.01634 0.130578,-0.227032 z m 2.745573,0.10153 c -0.02042,-0.110896 -0.0076,-0.183696 0.0285,-0.161778 0.0361,0.02192 0.131646,0.01229 0.212321,-0.0214 0.136062,-0.05682 0.136739,-0.06164 0.0093,-0.0666 -0.113621,-0.0044 -0.121564,-0.02506 -0.04602,-0.119539 0.05021,-0.0628 0.07901,-0.11681 0.06399,-0.120013 -0.227561,-0.04852 -0.278149,-0.04592 -0.243358,0.01251 0.07817,0.131278 -0.05391,0.06931 -0.175575,-0.08237 -0.07414,-0.09244 -0.15706,-0.128258 -0.212008,-0.09159 -0.06938,0.0463 -0.057,0.147406 0.05354,0.437285 0.134005,0.351415 0.141978,0.358937 0.11724,0.110616 -0.0146,-0.146542 -0.04796,-0.334953 -0.07415,-0.418691 -0.03602,-0.115199 -0.02648,-0.110568 0.03921,0.01903 0.04775,0.09421 0.129331,0.171283 0.181292,0.171283 0.05196,0 0.114639,0.03386 0.139283,0.07525 0.02502,0.04202 -0.0022,0.05654 -0.06159,0.03287 -0.14375,-0.05726 -0.19056,0.04593 -0.114991,0.25347 0.08455,0.232207 0.128362,0.216181 0.08296,-0.03035 z m -1.680796,-0.0012 c -0.03478,-0.09408 -0.02004,-0.110797 0.05731,-0.06496 0.08582,0.05086 0.08748,0.04313 0.0094,-0.04397 -0.07813,-0.08717 -0.105258,-0.08801 -0.15481,-0.0048 -0.04801,0.08063 -0.06904,0.07668 -0.104655,-0.01967 -0.02452,-0.06631 -0.08056,-0.120571 -0.124546,-0.120571 -0.04398,0 -0.05611,0.04008 -0.02694,0.08906 0.03598,0.06042 0.01256,0.07294 -0.07282,0.03893 -0.07918,-0.03154 -0.108088,-0.02029 -0.07795,0.03032 0.02634,0.04424 0.09407,0.06205 0.150491,0.03958 0.05643,-0.02248 0.102592,-0.01019 0.102592,0.02729 0,0.03749 0.05776,0.08382 0.128346,0.102968 0.07059,0.01915 0.135561,0.03879 0.14438,0.04364 0.0088,0.0049 -0.005,-0.04817 -0.0308,-0.117846 z m 0.727755,-0.01354 c -0.06783,-0.04468 -0.04134,-0.08655 0.09581,-0.15141 0.104262,-0.04931 0.169258,-0.123764 0.144434,-0.165455 -0.0723,-0.121429 -0.186402,-0.08851 -0.329643,0.0951 -0.14812,0.189866 -0.128058,0.286446 0.05914,0.284686 0.09172,-8.62e-4 0.0996,-0.01725 0.03026,-0.06292 z m -0.07743,-0.335572 c 0.197492,-0.373078 0.100327,-0.580371 -0.160571,-0.342566 -0.05742,0.05234 -0.04609,0.02231 0.02517,-0.06672 0.112386,-0.140412 0.114871,-0.167731 0.01874,-0.206021 -0.06096,-0.02428 -0.130667,-0.01083 -0.154915,0.0299 -0.02425,0.04072 -0.07253,0.0558 -0.107292,0.0335 -0.03476,-0.0223 -0.08394,-0.0057 -0.109272,0.03682 -0.02534,0.04255 -0.0089,0.07737 0.03655,0.07737 0.04915,0 0.06381,0.06148 0.0362,0.151772 -0.03574,0.116871 -0.01982,0.141181 0.06923,0.105713 0.08427,-0.03357 0.103339,-0.01279 0.07029,0.0766 -0.02534,0.06853 -0.0085,0.122664 0.03814,0.122664 0.04592,0 0.102486,-0.05138 0.125705,-0.114188 0.02322,-0.0628 0.07744,-0.114189 0.120493,-0.114189 0.04305,0 7.66e-4,0.08564 -0.09397,0.190314 -0.09474,0.104673 -0.134655,0.190315 -0.08871,0.190315 0.04595,0 0.124346,-0.07708 0.174215,-0.171283 z m 1.560789,-0.139714 c -0.01875,-0.03148 0.06961,-0.08088 0.196343,-0.109775 0.169446,-0.03863 0.203581,-0.07018 0.128986,-0.119218 -0.139827,-0.09192 -0.377063,-0.08627 -0.321142,0.0076 0.02511,0.04217 -0.0059,0.09722 -0.06901,0.122333 -0.144402,0.05752 -0.149378,0.156257 -0.0079,0.156257 0.05873,0 0.09145,-0.02576 0.0727,-0.05724 z m 0.9939658,-0.38228 c 0,-0.04635 -0.04782,-0.06522 -0.106276,-0.04194 -0.07552,0.03008 -0.09337,0.0049 -0.06166,-0.08701 0.04742,-0.137454 0.03635,-0.129981 -0.118495,0.08 -0.0877,0.118932 -0.07761,0.13322 0.09409,0.13322 0.105782,0 0.192332,-0.03792 0.192332,-0.08427 z M 9.2492672,7.0189949 c -0.03151,-0.07508 -0.04933,-0.187888 -0.0396,-0.250691 0.01285,-0.08291 -0.0048,-0.09152 -0.0645,-0.03143 -0.0593,0.05971 -0.06044,0.142157 -0.0041,0.296029 0.04296,0.117297 0.09777,0.192866 0.121797,0.167931 0.02402,-0.02494 0.01789,-0.106764 -0.01362,-0.181841 z"
         id="path1" /></g></g></svg>
