<?xml version="1.0" encoding="UTF-8" standalone="no"?>
<!-- Created with Inkscape (http://www.inkscape.org/) -->

<svg
   width="128"
   height="128"
   viewBox="0 0 33.866666 33.866666"
   version="1.1"
   id="svg1"
   xml:space="preserve"
   inkscape:version="1.4.2 (f4327f4, 2025-05-13)"
   sodipodi:docname="birds.svg"
   xmlns:inkscape="http://www.inkscape.org/namespaces/inkscape"
   xmlns:sodipodi="http://sodipodi.sourceforge.net/DTD/sodipodi-0.dtd"
   xmlns="http://www.w3.org/2000/svg"
   xmlns:svg="http://www.w3.org/2000/svg"><sodipodi:namedview
     id="namedview1"
     pagecolor="#ffffff"
     bordercolor="#000000"
     borderopacity="0.25"
     inkscape:showpageshadow="2"
     inkscape:pageopacity="0.0"
     inkscape:pagecheckerboard="0"
     inkscape:deskcolor="#d1d1d1"
     inkscape:document-units="mm"
     inkscape:zoom="2.28"
     inkscape:cx="49.780702"
     inkscape:cy="57.675439"
     inkscape:window-width="1600"
     inkscape:window-height="837"
     inkscape:window-x="-8"
     inkscape:window-y="-8"
     inkscape:window-maximized="1"
     inkscape:current-layer="layer1" /><defs
     id="defs1" /><g
     inkscape:label="Camada 1"
     inkscape:groupmode="layer"
     id="layer1"><path
       style="fill:#626262;fill-opacity:1"
       d="M 12.934054,30.286402 C 7.5860678,29.558499 2.8144138,27.156494 1.5609508,24.56129 c -0.454118,-0.94022 -0.397417,-2.349369 0.131056,-3.257016 0.489915,-0.841425 1.381743,-1.687054 2.098317,-1.989621 0.268407,-0.113332 0.533322,-0.252094 0.588699,-0.30836 0.111458,-0.113246 -1.112778,-4.00099 -2.113255,-6.710958 C 1.7135388,10.799529 1.6319128,10.416722 1.6852138,9.5726796 1.8085128,7.6201989 3.4403818,6.0061097 6.5036608,4.8067334 10.381903,3.2882719 16.051323,3.038511 19.763336,4.222591 c 3.190243,1.0176427 4.6302,2.6121604 4.398976,4.8711508 -0.04838,0.4726068 -0.200303,1.0863682 -0.337619,1.3639162 -0.137316,0.277547 -0.249665,0.554832 -0.249665,0.616189 0,0.06136 0.625356,0.158175 1.38968,0.21515 5.421821,0.404162 7.991517,3.441378 6.001009,7.092807 -0.308774,0.566421 -0.55704,1.117456 -0.551702,1.224522 0.0053,0.107066 0.305533,0.411222 0.667101,0.675901 0.392748,0.287504 0.842046,0.835488 1.116072,1.361212 1.729887,3.318817 -2.052352,6.627219 -9.446015,8.262622 -1.730143,0.382691 -2.349022,0.437627 -5.370145,0.476694 -1.878052,0.02429 -3.879191,-0.01907 -4.446974,-0.09635 z m 9.052769,-1.25287 c 3.285308,-0.630261 6.942071,-2.240672 8.418905,-3.707623 1.482311,-1.472391 1.589638,-2.73099 0.344818,-4.043599 -0.313237,-0.330294 -0.65281,-0.600534 -0.754608,-0.600534 -0.101797,0 -0.222199,0.279 -0.267559,0.62 -0.127177,0.956063 -0.996765,2.635177 -1.8552,3.58226 -1.830013,2.018993 -4.572544,2.631792 -7.633382,1.705623 -1.319503,-0.399264 -2.382758,-1.188313 -3.129595,-2.322493 l -0.590775,-0.897177 -0.800058,0.0986 c -2.200755,0.271233 -3.554272,0.277727 -5.088212,0.02442 -2.2332522,-0.368791 -3.0667312,-0.799234 -4.5773822,-2.363951 -1.059437,-1.097353 -1.298154,-1.273148 -1.516408,-1.116705 -0.142467,0.10212 -0.521691,0.347064 -0.842721,0.544321 -0.32103,0.197256 -0.772881,0.648405 -1.004112,1.002553 -0.361719,0.553998 -0.412529,0.778804 -0.3639,1.61004 0.06853,1.171349 0.490117,1.804135 1.928241,2.894191 2.082063,1.578143 5.1409312,2.679479 9.2350512,3.325051 0.262054,0.04132 1.905846,0.05034 3.652871,0.02004 2.321566,-0.04027 3.625204,-0.14119 4.844026,-0.375012 z M 7.4547468,25.688111 c -0.567168,-0.130355 -0.63302,-0.338826 -0.240207,-0.760437 0.476279,-0.511196 1.163946,-0.532878 1.501227,-0.04733 0.196218,0.282472 0.206185,0.393097 0.04871,0.540617 -0.247615,0.231964 -0.891448,0.363291 -1.309731,0.267154 z M 25.229749,25.494369 c 1.616397,-0.639392 3.107497,-2.312081 3.535987,-3.966605 0.125403,-0.484218 0.191738,-0.916966 0.147412,-0.961661 -0.04433,-0.0447 -0.63818,0.153374 -1.319677,0.440153 -1.611736,0.678231 -2.661406,0.928759 -4.428381,1.056935 -1.59934,0.116015 -3.520925,-0.10733 -5.048819,-0.586822 -0.527912,-0.165673 -0.985008,-0.275845 -1.01577,-0.244827 -0.149859,0.151107 0.480425,1.997858 0.876185,2.567249 0.524245,0.754245 1.723445,1.598211 2.739573,1.928042 1.078709,0.350143 3.334337,0.233969 4.51349,-0.232464 z m -10.095505,-2.833625 0.97622,-0.102885 v -1.047827 c 0,-0.806495 -0.06947,-1.123972 -0.301643,-1.378434 -0.389401,-0.42679 -0.809461,-1.697771 -0.812401,-2.458091 -0.0013,-0.327216 0.15443,-1.080519 0.34599,-1.674006 0.19156,-0.593487 0.317667,-1.106236 0.280237,-1.139443 -0.03743,-0.03321 -0.711278,0.04198 -1.497439,0.167089 -2.992432,0.476203 -6.6147862,0.0362 -9.1754822,-1.114538 -0.591599,-0.265855 -1.110627,-0.448091 -1.153394,-0.404968 -0.119314,0.120307 1.281857,3.99886 1.925322,5.329444 0.99541,2.05835 2.781559,3.455355 4.7994042,3.753768 1.147655,0.169723 3.349417,0.203081 4.613186,0.06989 z m 10.592657,-2.054457 c 3.657417,-1.231811 5.023636,-2.726993 4.858429,-5.317035 -0.05018,-0.786638 -1.249828,-1.784097 -2.960379,-2.46143 -0.840852,-0.332954 -1.223762,-0.378276 -3.25582,-0.385359 -1.979997,-0.0069 -2.469915,0.04433 -3.494052,0.365355 -3.037469,0.952136 -4.909692,2.777798 -4.919947,4.797594 -0.0072,1.417937 0.912992,2.510143 2.572046,3.052849 1.444854,0.472638 1.585509,0.488217 3.864492,0.428044 1.725159,-0.04555 2.284077,-0.125992 3.335231,-0.480018 z M 14.184235,14.030876 c 4.147601,-0.60248 7.656319,-2.395653 8.659507,-4.4255474 C 23.501786,8.2738146 23.339454,7.5766764 22.127862,6.530966 19.550753,4.3066945 12.761801,3.7712565 7.7723878,5.3987635 c -2.296889,0.7492268 -4.304633,2.0932636 -4.936174,3.3044046 -0.261321,0.5011489 -0.29285,1.3698529 -0.07107,1.9580449 0.418076,1.108776 2.503024,2.691653 4.133728,3.138296 1.875405,0.513665 4.7200442,0.604005 7.2853602,0.231367 z M 8.0946368,12.73995 c -2.1866,-0.492852 -3.425073,-1.354684 -3.644944,-2.536454 -0.344055,-1.8492375 2.044528,-3.3779936 6.3027432,-4.0339206 3.226529,-0.4970081 7.505891,-0.1121512 9.387561,0.844254 3.071687,1.5612605 1.143402,4.0831436 -4.267764,5.5815396 -1.404102,0.388807 -6.291012,0.479652 -7.7775962,0.144581 z m 3.9529152,-0.642933 c 0.83585,-0.323416 -0.450391,-1.991506 -1.527624,-1.981133 -0.948684,0.0091 -2.4964152,1.194541 -2.0920352,1.602287 0.304217,0.306749 3.0604382,0.595225 3.6196592,0.378846 z m 3.116194,-0.601166 c -0.208562,-0.210298 -1.729522,-0.190305 -1.943594,0.02555 -0.342923,0.345777 0.03235,0.450454 1.059828,0.295623 0.711855,-0.107271 0.994157,-0.209863 0.883766,-0.321172 z M 7.6935708,11.273402 c 0.0022,-1.017745 1.432621,-2.028475 2.8581752,-2.0195171 0.801072,0.00503 0.899855,-0.03501 1.191154,-0.4828585 0.941096,-1.4468597 2.910767,-1.7978509 4.113528,-0.7330223 0.476304,0.4216817 0.61039,0.461461 1.255118,0.3723556 1.12817,-0.1559201 1.85358,0.05139 2.464203,0.7042294 l 0.539112,0.5763825 0.297167,-0.389836 C 20.825896,8.7582076 20.792785,8.5560768 20.190499,7.9487779 19.642512,7.396229 19.097903,7.1962951 17.063387,6.8007677 14.771913,6.3552856 13.526409,6.3585689 11.062612,6.8165865 8.3728168,7.3166169 7.4057008,7.6564334 6.2049558,8.5234255 c -1.277693,0.9225521 -1.234492,1.5998205 0.161524,2.5322005 0.838863,0.560265 1.326196,0.640236 1.327091,0.217776 z m 9.8611332,-0.110128 c 1.635194,-0.512211 2.183141,-1.3054888 1.170029,-1.6938794 -1.068361,-0.4095717 -2.50342,0.06181 -2.709574,0.8900294 -0.122979,0.494067 0.178445,1.25623 0.456343,1.153881 0.107159,-0.03947 0.5946,-0.19698 1.083202,-0.350031 z M 14.752807,10.36614 c 0.996355,-0.4197698 1.180337,-1.3557119 0.365029,-1.8569526 -0.688334,-0.4231791 -1.30191,-0.4008285 -2.110315,0.076872 -1.052901,0.6221776 -1.067781,1.5261926 -0.0301,1.8285306 0.747681,0.217842 1.170719,0.206297 1.775382,-0.04845 z"
       id="path2" /></g></svg>
