<?xml version="1.0" encoding="UTF-8" standalone="no"?>
<!-- Created with Inkscape (http://www.inkscape.org/) -->

<svg
   width="128mm"
   height="128mm"
   viewBox="0 0 128 128"
   version="1.1"
   id="svg5"
   xml:space="preserve"
   inkscape:version="1.2.2 (b0a8486541, 2022-12-01)"
   sodipodi:docname="morelsAndsimilar_puro.svg"
   xmlns:inkscape="http://www.inkscape.org/namespaces/inkscape"
   xmlns:sodipodi="http://sodipodi.sourceforge.net/DTD/sodipodi-0.dtd"
   xmlns="http://www.w3.org/2000/svg"
   xmlns:svg="http://www.w3.org/2000/svg"><sodipodi:namedview
     id="namedview7"
     pagecolor="#ffffff"
     bordercolor="#000000"
     borderopacity="0.25"
     inkscape:showpageshadow="2"
     inkscape:pageopacity="0.0"
     inkscape:pagecheckerboard="0"
     inkscape:deskcolor="#d1d1d1"
     inkscape:document-units="mm"
     showgrid="false"
     inkscape:zoom="0.60881013"
     inkscape:cx="177.39521"
     inkscape:cy="294.83741"
     inkscape:window-width="1854"
     inkscape:window-height="1011"
     inkscape:window-x="0"
     inkscape:window-y="0"
     inkscape:window-maximized="1"
     inkscape:current-layer="layer1" /><defs
     id="defs2" /><g
     inkscape:label="Camada 1"
     inkscape:groupmode="layer"
     id="layer1"><g
       id="g4254"
       style="fill:#606060;fill-opacity:1"><path
         style="fill:#606060;stroke-width:0.278429;fill-opacity:1"
         d="m 55.993306,111.84007 c -0.48603,-0.31741 -0.88368,-0.69232 -0.88368,-0.83315 0,-0.14083 -0.24457,-0.32312 -0.54348,-0.40508 -0.38539,-0.10568 -0.70713,0.092 -1.10612,0.67953 -0.68592,1.01009 -0.8657,1.02051 -1.99691,0.11577 -0.53193,-0.42544 -1.25068,-0.71278 -1.78291,-0.71278 -0.5876,0 -1.44714,-0.38893 -2.52041,-1.14045 -0.89578,-0.62725 -1.84297,-1.14046 -2.10485,-1.14046 -0.26189,0 -0.78726,-0.2566 -1.16749,-0.57022 -0.38023,-0.31363 -0.78259,-0.57023 -0.89414,-0.57023 -0.11154,0 -0.64735,-0.50493 -1.19069,-1.12207 -0.76133,-0.86474 -1.48131,-1.29575 -3.13939,-1.87939 -1.18332,-0.41653 -2.56123,-1.11148 -3.06203,-1.54434 -0.61525,-0.53178 -1.12215,-0.74458 -1.56307,-0.6562 -2.01479,0.40387 -3.76428,-2.246618 -3.79166,-5.744398 -0.009,-1.11444 0.0751,-2.365894 0.18623,-2.781016 0.17038,-0.636336 1.46094,-1.764081 2.51692,-2.199412 0.14955,-0.06165 0.52843,-0.356226 0.84195,-0.654617 0.31353,-0.298391 1.84298,-1.225833 3.39877,-2.060987 1.55581,-0.835151 3.87486,-2.082221 5.15345,-2.771263 1.2786,-0.689042 2.96468,-1.549625 3.74685,-1.912406 1.8335,-0.850407 3.07214,-2.167895 3.96865,-4.221294 0.78299,-1.793368 0.75176,-2.389492 -0.12515,-2.389492 -0.98004,0 -1.65395,-0.573325 -2.20257,-1.873832 -0.29115,-0.690159 -0.76409,-1.386565 -1.05098,-1.547566 -1.06089,-0.595359 -1.96028,-2.247111 -2.32928,-4.277764 -0.42874,-2.359472 -0.34081,-10.818878 0.12539,-12.063488 0.45642,-1.218471 0.36684,-2.073061 -0.3791,-3.616633 -0.43977,-0.910001 -0.67976,-1.882012 -0.67976,-2.753153 0,-1.247319 0.0987,-1.44235 1.34018,-2.646774 1.41288,-1.37077 2.1666,-2.447275 3.28215,-4.687755 0.37387,-0.750871 0.8849,-1.482112 1.13563,-1.624982 0.55792,-0.317904 1.58339,-3.097348 1.58339,-4.291636 0,-0.479551 0.2295,-1.212469 0.50999,-1.628706 0.2805,-0.416237 0.60234,-1.205849 0.7152,-1.754692 0.21608,-1.050788 1.96688,-3.673601 2.46606,-3.694326 0.16087,-0.0067 0.56515,-0.316484 0.8984,-0.688454 0.46381,-0.517692 0.69611,-1.336834 0.99045,-3.492637 0.5047,-3.696412 0.73255,-4.437556 1.95088,-6.345832 0.56273,-0.881394 1.04663,-1.646003 1.07534,-1.699131 0.0287,-0.05313 0.57133,-0.218907 1.20583,-0.368396 0.87298,-0.205679 1.2139,-0.18218 1.40137,0.0966 0.17089,0.254106 0.28665,0.270078 0.37311,0.05148 0.069,-0.174302 0.48788,-0.74269 0.93096,-1.263083 0.44308,-0.520393 0.81402,-1.019287 0.82433,-1.108653 0.17899,-1.55244 0.33186,-1.959962 0.92056,-2.454099 0.53497,-0.449029 0.69212,-0.841267 0.69212,-1.727464 0,-1.425292 0.21885,-1.705371 2.58306,-3.3056824 2.41902,-1.63741 2.82191,-1.760823 4.026,-1.233273 1.35515,0.593729 2.7009,0.54193 4.57934,-0.176264 l 1.59173,-0.608571 1.83496,0.645321 c 1.00923,0.354927 2.32439,0.948398 2.92257,1.318826 0.59818,0.370428 1.3935,0.827148 1.76736,1.014933 0.9245,0.464359 2.17522,1.6857794 2.17522,2.1242664 0,0.543992 1.11333,1.245835 1.97626,1.245835 1.81416,0 4.53834,2.323363 4.56131,3.890186 0.007,0.4478 0.19752,1.327386 0.42433,1.954635 0.88974,2.460495 0.93979,2.900921 0.62075,5.461914 -0.45606,3.66089 -0.4331,3.824517 0.80495,5.736209 0.62093,0.958782 1.12896,1.836403 1.12896,1.950269 0,0.113865 0.20722,0.447128 0.46048,0.740584 0.6282,0.727883 1.16189,2.425983 1.16683,3.712673 0.002,0.585796 0.15092,1.640713 0.33037,2.344261 0.27624,1.083011 0.25003,1.587442 -0.17093,3.289319 -0.48521,1.961668 -0.46863,4.156777 0.0342,4.533121 0.62192,0.465433 1.13602,1.799067 1.17741,3.054307 0.19601,5.945728 0.01,7.212551 -1.75537,11.944324 -0.351,0.940874 -0.79148,2.416335 -0.97884,3.278802 -0.18736,0.862468 -0.50699,1.821198 -0.71028,2.130512 -0.20329,0.30931 -0.37008,1.014965 -0.37064,1.568122 -0.001,1.261883 -0.89947,2.85897 -1.60788,2.85897 -0.62724,0 -1.30896,0.987139 -2.16587,3.136245 -0.97961,2.456829 -1.67381,3.89335 -2.16368,4.47735 -0.43427,0.517714 -0.77266,1.118641 -2.37422,4.216208 -0.91358,1.766958 -1.19857,1.997797 -3.30385,2.67605 -0.93066,0.299828 -2.15422,0.92223 -2.71902,1.383116 -0.5648,0.460882 -1.21045,0.925517 -1.43476,1.032517 -0.22432,0.107 -0.95846,0.570569 -1.63141,1.030154 -2.66921,1.822891 -3.45765,2.077546 -7.00111,2.261273 -3.58386,0.185822 -5.05916,-2.42e-4 -5.83429,-0.735815 -0.27012,-0.256331 -0.52256,-0.413382 -0.56097,-0.349007 -0.21552,0.361182 -1.1434,3.496081 -1.46925,4.963973 -0.20886,0.94088 -0.45095,1.99936 -0.53797,2.35219 -0.12677,0.51401 -0.0449,0.6415 0.41179,0.6415 1.20567,0 2.69824,0.87598 3.07121,1.802478 0.54065,1.34302 0.47785,6.08784 -0.095,7.17859 -0.24708,0.47043 -0.50518,1.04986 -0.57357,1.2876 -0.0684,0.23774 -1.02624,0.79797 -2.12856,1.24495 -1.10233,0.44697 -2.21893,1.01062 -2.48134,1.25254 -0.26241,0.24192 -0.99654,0.53343 -1.63141,0.64779 -0.63486,0.11437 -1.52137,0.29137 -1.97001,0.39333 -0.58112,0.13208 -1.06983,0.0194 -1.69938,-0.3917 z"
         id="path4082" /><path
         style="fill:#606060;stroke-width:0.264583;fill-opacity:1"
         id="path4133"
         d="m 55.518094,110.21168 c -0.718558,0.005 -1.410459,-0.20943 -2.093878,-0.40562 -0.56887,-0.16638 -1.126776,-0.36241 -1.673,-0.59179 0,0 0.983065,0.77428 0.983065,0.77428 v 0 c 0.546573,0.21756 1.102876,0.40725 1.66819,0.57076 0.704966,0.20088 1.421844,0.41665 2.162818,0.39852 0,0 -1.047195,-0.74615 -1.047195,-0.74615 z" /><path
         style="fill:#606060;stroke-width:0.264583;fill-opacity:1"
         id="path4135"
         d="m 55.269979,110.28332 c -0.740524,0.10667 -1.488149,0.006 -2.223659,-0.091 -0.456605,-0.0668 -0.913773,-0.12953 -1.37114,-0.19085 0,0 0.99944,0.74609 0.99944,0.74609 v 0 c 0.453324,0.0572 0.906285,0.11701 1.358635,0.18153 0.757733,0.0972 1.524566,0.19228 2.287836,0.096 0,0 -1.051112,-0.74179 -1.051112,-0.74179 z" /><path
         style="fill:#606060;stroke-width:0.264583;fill-opacity:1"
         id="path4137"
         d="m 54.961795,110.46165 c -0.767366,0.028 -1.533978,5.3e-4 -2.298756,-0.0633 -0.540401,-0.0546 -0.278209,-0.0222 -0.786799,-0.0956 0,0 1.002434,0.74904 1.002434,0.74904 v 0 c 0.506045,0.0634 0.245489,0.0351 0.781826,0.0833 0.779187,0.0583 1.559319,0.08 2.340615,0.0816 0,0 -1.03932,-0.75511 -1.03932,-0.75511 z" /><path
         style="fill:#606060;stroke-width:0.264583;fill-opacity:1"
         id="path4139"
         d="m 54.889407,110.55831 c -0.834993,-0.0235 -1.648362,-0.23155 -2.453081,-0.43794 0,0 0.987472,0.75523 0.987472,0.75523 v 0 c 0.822095,0.20197 1.652024,0.40268 2.501643,0.43543 0,0 -1.036034,-0.75272 -1.036034,-0.75272 z" /><path
         style="fill:#606060;stroke-width:0.264583;fill-opacity:1"
         id="path4141"
         d="m 54.315867,110.51273 c -0.504856,-0.0274 -0.991018,-0.15447 -1.473075,-0.29714 0,0 0.988073,0.7608 0.988073,0.7608 v 0 c 0.496485,0.13704 0.996918,0.25335 1.511811,0.29623 0,0 -1.026809,-0.75989 -1.026809,-0.75989 z" /><path
         style="fill:#606060;stroke-width:0.264583;fill-opacity:1"
         id="path4143"
         d="m 55.253537,110.86505 c -0.562726,0.12358 -1.148461,-0.0334 -1.698524,-0.15651 0,0 0.990256,0.75224 0.990256,0.75224 v 0 c 0.577726,0.1209 1.183428,0.26676 1.771221,0.12973 0,0 -1.062953,-0.72546 -1.062953,-0.72546 z" /><path
         style="fill:#606060;stroke-width:0.264583;fill-opacity:1"
         id="path4145"
         d="m 55.221946,111.05875 c -0.733584,-0.002 -1.443712,-0.15465 -2.148985,-0.3412 -0.495102,-0.13626 -0.252955,-0.0721 -0.726271,-0.19327 0,0 0.995587,0.76212 0.995587,0.76212 v 0 c 0.46704,0.11919 0.227592,0.0568 0.718236,0.18763 0.722915,0.18348 1.452501,0.32289 2.200814,0.33988 0,0 -1.039381,-0.75516 -1.039381,-0.75516 z" /><path
         style="fill:#606060;stroke-width:0.264583;fill-opacity:1"
         id="path4147"
         d="m 55.512882,111.21022 c -0.690899,0.0357 -1.378138,-0.0512 -2.063329,-0.12707 -0.390332,-0.0568 -0.781659,-0.10783 -1.166583,-0.19462 0,0 1.011743,0.76711 1.011743,0.76711 v 0 c 0.384085,0.0725 0.771665,0.12367 1.159269,0.17368 0.697696,0.0713 1.395746,0.14788 2.0983,0.13607 0,0 -1.0394,-0.75517 -1.0394,-0.75517 z" /><path
         style="fill:#606060;stroke-width:0.264583;fill-opacity:1"
         id="path4149"
         d="m 55.780394,111.24627 c -0.614799,0.0289 -1.227206,-0.0315 -1.834359,-0.1224 -0.769265,-0.0992 -1.527931,-0.2614 -2.284142,-0.43104 0,0 1.000411,0.76046 1.000411,0.76046 v 0 c 0.75724,0.16316 1.516845,0.31787 2.285089,0.42046 0.621231,0.0879 1.24582,0.13481 1.873716,0.12865 0,0 -1.040715,-0.75613 -1.040715,-0.75613 z" /><path
         style="fill:#606060;stroke-width:0.264583;fill-opacity:1"
         id="path4151"
         d="m 55.12278,111.14126 c -0.682463,-0.0196 -1.333457,-0.22245 -1.983811,-0.40945 -0.592415,-0.16666 -1.146882,-0.43402 -1.718419,-0.65659 -0.08494,-0.0296 -0.169891,-0.0592 -0.254836,-0.0887 0,0 0.997575,0.7781 0.997575,0.7781 v 0 c 0.08311,0.0301 0.166214,0.0601 0.249319,0.0902 0.566889,0.22793 1.124477,0.48171 1.716911,0.63963 0.663712,0.18736 1.32875,0.37212 2.021628,0.40982 0,0 -1.028367,-0.76293 -1.028367,-0.76293 z" /><path
         style="fill:#606060;stroke-width:0.264583;fill-opacity:1"
         id="path4153"
         d="m 56.027991,111.75034 c -0.548055,0.001 -1.08526,-0.11941 -1.624121,-0.20361 -0.517361,-0.0721 -1.044048,-0.0984 -1.552395,-0.22242 -0.288679,-0.0738 -0.572071,-0.16802 -0.849093,-0.27734 0,0 1.002853,0.78523 1.002853,0.78523 v 0 c 0.280422,0.10029 0.563973,0.19379 0.854927,0.25902 0.513467,0.10194 1.036365,0.14136 1.554372,0.21432 0.548407,0.0879 1.097378,0.19775 1.655347,0.19248 0,0 -1.04189,-0.74768 -1.04189,-0.74768 z" /><path
         style="fill:#606060;stroke-width:0.264583;fill-opacity:1"
         id="path4155"
         d="m 55.379561,111.4679 c -0.755975,0.009 -1.507035,-0.0902 -2.250498,-0.21744 -0.594974,-0.10527 -1.191861,-0.19634 -1.785607,-0.30834 0,0 1.008745,0.76114 1.008745,0.76114 v 0 c 0.588285,0.1041 1.179677,0.18798 1.767883,0.2927 0.762976,0.12548 1.53526,0.22592 2.309976,0.21466 0,0 -1.050499,-0.74272 -1.050499,-0.74272 z" /><path
         style="fill:#606060;stroke-width:0.264583;fill-opacity:1"
         id="path4157"
         d="m 56.016858,112.26758 c 0.654399,0.0125 1.301168,-0.0656 1.9437,-0.18213 0.502719,-0.10509 1.000699,-0.2274 1.491967,-0.37683 0,0 -1.03769,-0.708 -1.03769,-0.708 v 0 c -0.484601,0.148 -0.97576,0.27241 -1.472888,0.37144 -0.64979,0.10987 -1.305354,0.16901 -1.965098,0.13991 0,0 1.040009,0.75561 1.040009,0.75561 z" /><path
         style="fill:#606060;stroke-width:0.264583;fill-opacity:1"
         id="path4159"
         d="m 57.624903,112.55849 c 0.45067,-0.2477 0.939614,-0.40324 1.42355,-0.5691 0.269902,-0.10946 0.138864,-0.0567 0.393071,-0.15851 0,0 -1.059064,-0.70855 -1.059064,-0.70855 v 0 c -0.248915,0.10305 -0.120806,0.051 -0.384434,0.15604 -0.490712,0.17097 -0.979535,0.34617 -1.446443,0.57672 0,0 1.07332,0.7034 1.07332,0.7034 z" /><path
         style="fill:#606060;stroke-width:0.264583;fill-opacity:1"
         id="path4163"
         d="m 55.487839,111.44948 c -0.813509,-0.30278 -1.681607,-0.40972 -2.538807,-0.50783 -0.649385,-0.0636 -1.301199,-0.0943 -1.952659,-0.12651 0,0 0.98294,0.72137 0.98294,0.72137 v 0 c 0.649926,0.0301 1.300261,0.0601 1.947159,0.13346 0.871723,0.11141 1.752457,0.2367 2.571927,0.57062 0,0 -1.01056,-0.79111 -1.01056,-0.79111 z" /><path
         style="fill:#606060;stroke-width:0.264583;fill-opacity:1"
         id="path4169"
         d="m 57.559461,111.37556 c -0.519087,0.007 -1.038257,0.008 -1.557388,0.01 -0.356116,5.3e-4 -0.712232,5.3e-4 -1.068348,2e-5 0,0 1.014751,0.73726 1.014751,0.73726 v 0 c 0.356135,-5.3e-4 0.712266,-5.3e-4 1.068401,2e-5 0.528016,0.002 1.056068,0.002 1.584042,0.01 0,0 -1.041458,-0.75667 -1.041458,-0.75667 z" /><path
         style="fill:#606060;stroke-width:0.264583;fill-opacity:1"
         id="path4171"
         d="m 56.200621,111.94761 c -0.257788,0.005 -0.515651,0.004 -0.773475,0.004 0,0 1.031042,0.7491 1.031042,0.7491 v 0 c 0.261064,-5.3e-4 0.52216,-0.002 0.78319,0.004 0,0 -1.040757,-0.75616 -1.040757,-0.75616 z" /><path
         style="fill:#606060;stroke-width:0.264583;fill-opacity:1"
         id="path4177"
         d="m 56.267111,111.34701 c -0.394909,0.009 -0.78998,0.009 -1.184973,0.01 0,0 1.014589,0.73714 1.014589,0.73714 v 0 c 0.403781,5.3e-4 0.80763,2.6e-4 1.211332,0.01 0,0 -1.040948,-0.7563 -1.040948,-0.7563 z" /><path
         style="fill:#606060;stroke-width:0.264583;fill-opacity:1"
         id="path4179"
         d="m 56.92499,111.52277 c -0.621734,0.0114 -1.243632,0.01 -1.86544,0.008 0,0 1.01218,0.73539 1.01218,0.73539 v 0 c 0.628774,-0.002 1.25763,-0.004 1.886333,0.008 0,0 -1.033073,-0.75057 -1.033073,-0.75057 z" /><path
         style="fill:#606060;stroke-width:0.264583;fill-opacity:1"
         id="path4181"
         d="m 56.936428,111.58887 c -0.297244,0.0379 -0.596345,0.0575 -0.89526,0.0763 0,0 1.033123,0.73992 1.033123,0.73992 v 0 c 0.30403,-0.0223 0.607984,-0.0457 0.911482,-0.0745 0,0 -1.049345,-0.74172 -1.049345,-0.74172 z" /><path
         style="fill:#606060;stroke-width:0.264583;fill-opacity:1"
         id="path4185"
         d="m 57.271991,112.3307 c 0.810392,-0.4052 1.656381,-0.73052 2.49256,-1.07701 0.407,-0.17796 0.819877,-0.34117 1.235379,-0.49793 0,0 -1.038982,-0.69722 -1.038982,-0.69722 v 0 c -0.408477,0.16548 -0.814419,0.3368 -1.218882,0.51191 -0.845921,0.34961 -1.695312,0.69066 -2.538005,1.04806 0,0 1.06793,0.71219 1.06793,0.71219 z" /><path
         style="fill:#606060;stroke-width:0.264583;fill-opacity:1"
         id="path4187"
         d="m 57.711091,112.65768 c 0.644366,-0.44507 1.33895,-0.79414 2.05096,-1.1155 0.437403,-0.20286 0.885695,-0.37925 1.343773,-0.52893 0,0 -1.047234,-0.70894 -1.047234,-0.70894 v 0 c -0.45112,0.16402 -0.892831,0.35135 -1.328245,0.55354 -0.72091,0.32978 -1.42221,0.69057 -2.09958,1.10315 0,0 1.080326,0.69668 1.080326,0.69668 z" /><path
         style="fill:#606060;stroke-width:0.264583;fill-opacity:1"
         id="path4189"
         d="m 56.967656,111.94312 c -0.275513,0.005 -0.131487,0.003 -0.432085,0.005 0,0 1.026768,0.74599 1.026768,0.74599 v 0 c 0.307361,0.002 0.159015,4e-5 0.445037,0.005 0,0 -1.03972,-0.7554 -1.03972,-0.7554 z" /><path
         style="fill:#606060;stroke-width:0.264583;fill-opacity:1"
         id="path4193"
         d="m 56.85142,111.24231 c -0.272127,0.1055 -0.130543,0.0491 -0.424469,0.16984 0,0 1.053097,0.70565 1.053097,0.70565 v 0 c 0.300258,-0.11631 0.153824,-0.0613 0.439111,-0.16545 0,0 -1.067739,-0.71004 -1.067739,-0.71004 z" /><path
         style="fill:#606060;stroke-width:0.264583;fill-opacity:1"
         id="path4195"
         d="m 57.311538,112.62241 c 0.292862,-0.23534 0.642022,-0.38188 0.986404,-0.52386 0,0 -1.053812,-0.70322 -1.053812,-0.70322 v 0 c -0.351925,0.15134 -0.704188,0.30778 -1.016368,0.53324 0,0 1.083776,0.69384 1.083776,0.69384 z" /><path
         style="fill:#606060;stroke-width:0.264583;fill-opacity:1"
         id="path4197"
         d="m 57.470346,112.74805 c 0.450011,-0.1518 0.854316,-0.40363 1.239438,-0.67685 0.2721,-0.20858 0.138441,-0.10831 0.400672,-0.30122 0,0 -1.07234,-0.67859 -1.07234,-0.67859 v 0 c -0.25826,0.19559 -0.126469,0.0956 -0.395354,0.29986 -0.383342,0.26344 -0.783122,0.51032 -1.236559,0.63263 0,0 1.064143,0.72417 1.064143,0.72417 z" /><path
         style="fill:#606060;stroke-width:0.264583;fill-opacity:1"
         id="path4199"
         d="m 58.141761,112.67847 c 0.739404,-0.56734 1.5079,-1.09014 2.292958,-1.59172 0.477997,-0.33997 0.255138,-0.16947 0.671489,-0.5077 0,0 -1.060222,-0.66353 -1.060222,-0.66353 v 0 c -0.399447,0.33668 -0.184489,0.1669 -0.64823,0.50508 -0.784492,0.51114 -1.551871,1.04643 -2.333424,1.56116 0,0 1.077429,0.69671 1.077429,0.69671 z" /><path
         style="fill:#606060;stroke-width:0.264583;fill-opacity:1"
         id="path4205"
         d="m 57.265569,111.82428 c -0.458007,0.0359 -0.903901,-0.0186 -1.353761,-0.0952 -0.509088,-0.11947 -1.01939,-0.23079 -1.537746,-0.30091 -0.65882,-0.0874 -1.304832,-0.24386 -1.959842,-0.35367 -0.244923,-0.0536 -0.47905,-0.0669 -0.724133,-0.0245 0,0 1.043543,0.73639 1.043543,0.73639 v 0 c 0.23151,-0.0232 0.457078,-10e-4 0.685953,0.0447 0.65568,0.11314 1.304163,0.26492 1.964159,0.35311 0.51795,0.0805 1.027998,0.19898 1.540782,0.30664 0.458467,0.0758 0.915921,0.10131 1.380747,0.0887 0,0 -1.039702,-0.75539 -1.039702,-0.75539 z" /><path
         style="fill:#606060;stroke-width:0.264583;fill-opacity:1"
         id="path4207"
         d="m 56.127581,112.0194 c -1.007523,-0.099 -2.002706,-0.29127 -3.000622,-0.45686 -0.703966,-0.12922 -0.36395,-0.0661 -1.020098,-0.18918 0,0 0.987975,0.74544 0.987975,0.74544 v 0 c 0.647478,0.11498 0.311198,0.0555 1.008859,0.17824 1.01527,0.16885 2.02733,0.36177 3.050048,0.48174 0,0 -1.026162,-0.75938 -1.026162,-0.75938 z" /><path
         style="fill:#606060;stroke-width:0.264583;fill-opacity:1"
         id="path4209"
         d="m 57.145448,111.47858 c -0.534693,0.009 -1.069519,0.008 -1.604271,0.008 -0.09125,0.005 -0.182489,0.01 -0.273736,0.0145 0,0 1.026785,0.7384 1.026785,0.7384 v 0 c 0.08901,-0.004 0.178027,-0.008 0.267041,-0.0118 0.541639,-0.001 1.08335,-8e-4 1.624933,0.008 0,0 -1.040752,-0.75615 -1.040752,-0.75615 z" /><path
         style="fill:#606060;stroke-width:0.264583;fill-opacity:1"
         id="path4211"
         d="m 56.978817,112.34493 c 0.39629,-0.005 0.792638,-0.004 1.188958,-0.005 0.479094,0.0522 0.912254,-0.10405 1.356002,-0.25891 0.437555,-0.15737 0.862746,-0.34574 1.285926,-0.53803 0.241445,-0.0942 0.455051,-0.2341 0.666485,-0.38075 0,0 -1.066599,-0.68175 -1.066599,-0.68175 v 0 c -0.20956,0.13875 -0.422177,0.26863 -0.65763,0.36045 -0.421243,0.18845 -0.843587,0.37538 -1.279067,0.52906 -0.435837,0.15114 -0.865132,0.26751 -1.332243,0.22368 -0.400973,-5.3e-4 -0.801973,-2.7e-4 -1.202923,-0.005 0,0 1.041091,0.75639 1.041091,0.75639 z" /><path
         style="fill:#606060;stroke-width:0.264583;fill-opacity:1"
         id="path4213"
         d="m 61.810748,105.08308 c -0.419039,-0.23431 -0.831101,-0.48156 -1.25712,-0.70293 -0.09094,-0.0473 -0.429723,-0.10842 -0.508381,-0.1238 -0.351184,-0.0687 -0.696986,-0.13997 -1.043355,-0.23038 -0.10061,-0.0444 -0.397296,-0.18776 -0.301826,-0.13318 0.259736,0.14849 0.503883,0.34907 0.79561,0.41548 0.131352,0.0299 -0.194143,-0.18853 -0.27428,-0.29682 -0.312899,-0.42279 -0.449969,-0.92327 -0.595802,-1.41866 -0.240898,-0.91987 -0.448734,-1.84973 -0.751425,-2.752294 -0.09316,-0.277792 -0.302405,-0.82096 -0.411035,-1.106768 -0.376574,-0.924296 -0.233278,-1.187942 -1.543188,-1.469149 -0.09646,-0.02072 0.01101,0.197207 0.02408,0.294999 0.01736,0.129993 0.04474,0.258448 0.06712,0.387673 0.108088,0.560798 0.186822,1.12731 0.328901,1.681078 0.01532,0.05973 -0.0076,0.158798 0.051,0.177816 0.336886,0.109238 0.698256,0.118898 1.047382,0.178345 -0.56505,-1.662504 -1.236501,-3.287834 -1.914245,-4.907116 0,0 -1.086104,-0.499152 -1.086104,-0.499152 v 0 c 0.696484,1.591886 1.371397,3.201064 1.871205,4.86701 0.412409,0.300363 0.804132,0.631408 1.237221,0.901088 0.05427,0.0338 -0.05427,-0.11611 -0.07418,-0.17686 -0.177557,-0.541853 -0.234328,-1.114504 -0.339151,-1.672291 -0.122613,-0.87785 0.01775,-0.643273 -1.208172,-1.216165 -0.05539,-0.02588 0.06808,0.10201 0.09484,0.156975 0.05085,0.104457 0.306104,0.723482 0.329295,0.779219 0.100155,0.252066 0.347199,0.867254 0.431096,1.107323 0.312669,0.894719 0.523846,1.820529 0.738616,2.742179 0.136515,0.50507 0.265134,1.01359 0.554181,1.45883 0.429119,0.66101 1.202499,0.99967 1.92482,1.26245 0.349117,0.0855 0.701122,0.15247 1.051276,0.23281 0.09562,0.0219 0.191368,0.044 0.285195,0.0726 0.07464,0.0228 0.284654,0.12438 0.219509,0.0814 -0.304914,-0.20113 -0.628542,-0.37234 -0.942814,-0.5585 0,0 1.19974,0.46675 1.19974,0.46675 z" /><path
         style="fill:#606060;stroke-width:0.264583;fill-opacity:1"
         id="path4215"
         d="m 62.295372,83.296706 c 1.136772,-1.003662 2.167036,-2.121032 3.216768,-3.213587 0.707741,-0.68744 1.328282,-1.491816 2.157002,-2.042874 0,0 -1.069848,-0.681001 -1.069848,-0.681001 v 0 c -0.797235,0.595699 -1.398254,1.40929 -2.100474,2.106155 -1.04036,1.097262 -2.062697,2.239902 -3.28576,3.138313 0,0 1.082312,0.692994 1.082312,0.692994 z" /><path
         style="fill:#606060;stroke-width:0.264583;fill-opacity:1"
         id="path4217"
         d="m 70.859392,73.308672 c -1.162642,0.01923 -2.326428,0.02148 -3.486996,0.104574 -0.412081,0.0295 -0.822899,0.07456 -1.23435,0.111845 -0.588947,0.06562 -1.723004,0.183277 -2.326037,0.282731 -0.33015,0.05445 -0.656108,0.131836 -0.98416,0.197752 0,0 0.960311,0.668655 0.960311,0.668655 v 0 c 0.322712,-0.06659 0.643379,-0.143999 0.968136,-0.199771 0.739585,-0.127008 1.565585,-0.206206 2.307799,-0.288372 0.415563,-0.03239 0.830562,-0.07306 1.246688,-0.09716 1.193096,-0.06911 2.388682,-0.04933 3.582744,-0.02891 0,0 -1.034135,-0.751343 -1.034135,-0.751344 z" /></g></g></svg>
