<?xml version="1.0" encoding="UTF-8" standalone="no"?>
<!-- Created with Inkscape (http://www.inkscape.org/) -->

<svg
   width="128"
   height="128"
   viewBox="0 0 33.866666 33.866666"
   version="1.1"
   id="svg1"
   xml:space="preserve"
   inkscape:version="1.4.2 (f4327f4, 2025-05-13)"
   sodipodi:docname="morels.svg"
   xmlns:inkscape="http://www.inkscape.org/namespaces/inkscape"
   xmlns:sodipodi="http://sodipodi.sourceforge.net/DTD/sodipodi-0.dtd"
   xmlns="http://www.w3.org/2000/svg"
   xmlns:svg="http://www.w3.org/2000/svg"><sodipodi:namedview
     id="namedview1"
     pagecolor="#ffffff"
     bordercolor="#000000"
     borderopacity="0.25"
     inkscape:showpageshadow="2"
     inkscape:pageopacity="0.0"
     inkscape:pagecheckerboard="0"
     inkscape:deskcolor="#d1d1d1"
     inkscape:document-units="mm"
     inkscape:zoom="1.07"
     inkscape:cx="49.53271"
     inkscape:cy="58.411215"
     inkscape:window-width="1600"
     inkscape:window-height="837"
     inkscape:window-x="-8"
     inkscape:window-y="-8"
     inkscape:window-maximized="1"
     inkscape:current-layer="layer1" /><defs
     id="defs1" /><g
     inkscape:label="Camada 1"
     inkscape:groupmode="layer"
     id="layer1"><g
       id="g2"><path
         style="fill:#626262;fill-opacity:1"
         d="m 8.4792931,30.245671 c -3.7e-4,-0.156878 1.6386249,-0.596393 2.7129529,-0.727509 0.69972,-0.0854 0.904405,-0.178355 0.904405,-0.410736 0,-0.165197 0.171361,-1.05685 0.380802,-1.981452 0.209442,-0.924601 0.380803,-2.07204 0.380803,-2.549864 v -0.868772 l -1.04372,-0.286275 C 9.5759181,22.807045 8.4834871,21.612667 8.0811831,19.339311 c -0.37187,-2.101376 -0.133835,-4.59335 0.63301,-6.626947 0.360785,-0.956766 0.884862,-2.38696 1.164617,-3.1782091 0.9006139,-2.5472704 3.2421589,-5.1411876 5.4798139,-6.0704292 2.221101,-0.9223671 3.606468,-1.0154471 5.139324,-0.3453009 0.965513,0.4221106 1.63275,1.1679615 2.506055,2.8013178 1.075175,2.010918 1.215041,2.4106153 1.562624,4.4655354 0.171096,1.011524 0.612003,2.750369 0.979793,3.864102 0.832532,2.52105 1.054693,4.996226 0.576821,6.426566 -0.425807,1.274499 -1.360682,2.16214 -2.886277,2.740447 l -1.245189,0.472013 0.05047,2.770921 0.05047,2.770921 0.761604,0.101821 c 0.99329,0.132795 2.538663,0.562969 2.665883,0.742082 0.05497,0.07739 -1.48627,0.141615 -3.42498,0.142714 -1.93871,0.0011 -3.524927,-0.02518 -3.524927,-0.0584 0,-0.03322 0.471243,-0.248122 1.047206,-0.477562 l 1.047206,-0.417164 v -2.56733 c 0,-1.412031 -0.06426,-2.599718 -0.142801,-2.639302 -0.07854,-0.03958 -1.485218,-0.124703 -3.12595,-0.18915 L 14.412799,23.950778 14.288938,24.9171 c -0.06812,0.531477 -0.245178,1.488194 -0.393454,2.126038 -0.148277,0.637843 -0.292371,1.450026 -0.320209,1.80485 -0.04781,0.60933 -0.0038,0.666895 0.792327,1.037205 0.463619,0.215639 0.883424,0.427294 0.932901,0.470345 0.04948,0.04305 -1.464996,0.06091 -3.365495,0.03967 -1.900499,-0.02123 -3.4555709,-0.08852 -3.4557149,-0.149537 z M 22.70992,22.504504 c 1.22094,-0.475098 2.267083,-1.443766 2.443639,-2.26267 0.259655,-1.20433 -0.0374,-3.403937 -0.751778,-5.566738 -0.380824,-1.152951 -0.855662,-3.03833 -1.055196,-4.189732 C 23.147051,9.3339619 22.902686,8.3016269 22.803551,8.1912849 22.704411,8.0809429 22.383357,7.431515 22.090085,6.748111 c -1.039573,-2.4224928 -1.949838,-3.1478 -3.950507,-3.1478 -1.413446,0 -2.712672,0.7107379 -4.3898,2.401427 -1.583352,1.5961549 -2.195043,2.6086619 -2.964493,4.907006 -0.32102,0.958887 -0.7941259,2.229941 -1.0513469,2.824563 -0.620954,1.435475 -0.74844,2.640996 -0.526767,4.98119 0.212088,2.238997 0.502909,2.831934 1.6616069,3.387743 1.410415,0.676555 3.097329,0.872937 7.130307,0.830076 3.429269,-0.03645 3.78904,-0.06912 4.710835,-0.427812 z m -7.079559,-0.88718 c 0.2306,-0.650459 0.666157,-1.298057 0.932954,-1.387141 0.358067,-0.119558 1.759748,0.680432 1.908965,1.089515 0.203997,0.559267 -0.05202,0.670392 -1.544469,0.670392 -1.394772,0 -1.426382,-0.0091 -1.29745,-0.372766 z m -4.495057,-0.248929 c -0.492885,-0.383199 -0.627667,-0.632865 -0.698239,-1.293392 -0.187209,-1.75221 0.783673,-2.375744 1.484395,-0.953328 0.419215,0.850978 0.449453,2.542368 0.04751,2.657655 -0.122584,0.03516 -0.497734,-0.149761 -0.833666,-0.410935 z m 8.867881,-0.03277 c -0.368611,-0.620243 -0.367167,-0.645845 0.09739,-1.726223 0.596727,-1.387769 1.382684,-1.406061 1.618514,-0.03767 0.299082,1.735406 -0.96225,3.032018 -1.7159,1.763893 z m -6.310468,-0.536707 c -0.226235,-0.318517 -0.318107,-2.651253 -0.129258,-3.282017 0.137925,-0.460675 0.279842,-0.590707 0.690467,-0.632639 0.437539,-0.04468 0.561077,0.0393 0.804986,0.547247 0.519526,1.081922 0.535399,1.510902 0.0858,2.319027 -0.628374,1.129471 -1.134725,1.49507 -1.451998,1.048382 z m 9.596745,-0.228137 c -0.05853,-0.08502 -0.168554,-0.776259 -0.244495,-1.536077 -0.114666,-1.147268 -0.08073,-1.492149 0.200195,-2.034213 0.186049,-0.359 0.429378,-0.626303 0.540731,-0.594005 0.242633,0.07037 0.591678,1.065856 0.770583,2.197716 0.121757,0.770309 0.08928,0.86306 -0.515323,1.471647 -0.354899,0.357238 -0.69316,0.579958 -0.751691,0.494932 z m -5.244056,-1.063803 c -0.782042,-0.633962 -1.06754,-2.563735 -0.516471,-3.490989 0.276748,-0.465669 0.317578,-0.478967 0.809204,-0.263533 0.284763,0.124784 0.756402,0.276702 1.048088,0.337595 0.618371,0.129093 0.9572,0.739154 0.775857,1.396929 -0.09869,0.357989 -0.980482,1.594194 -1.587818,2.226011 -0.06618,0.06884 -0.304163,-0.02386 -0.52886,-0.206013 z m -7.090397,-2.445711 c -0.366101,-0.03765 -0.766836,-0.141539 -0.890521,-0.230857 -0.2566999,-0.185374 -0.1446679,-1.097371 0.235202,-1.914673 0.28826,-0.620199 1.45266,-2.203373 1.620547,-2.203373 0.547044,0 0.746917,2.576346 0.288741,3.721859 -0.288552,0.721427 -0.296693,0.725498 -1.253969,0.627044 z m 10.539906,-0.29045 c -0.330657,-0.749771 0.5037,-3.119772 1.065645,-3.026978 0.409616,0.06764 0.492941,1.579064 0.128854,2.33728 -0.337044,0.701898 -1.016185,1.094031 -1.194499,0.689698 z m -6.895691,-1.385436 c -0.54524,-0.443184 -0.698921,-0.82281 -0.61262,-1.513301 0.0474,-0.379292 0.62679,-1.988084 0.715981,-1.988084 0.04323,0 0.315703,0.10669 0.605504,0.23709 1.131012,0.508912 1.475221,2.251489 0.63757,3.227726 -0.497576,0.579897 -0.672156,0.584638 -1.346435,0.03657 z m 4.614837,-0.542099 c -0.61672,-0.266111 -1.215239,-1.328576 -1.213116,-2.153475 0.0019,-0.719804 0.708278,-2.312924 1.124967,-2.537007 0.274225,-0.14747 0.688522,0.723881 0.862509,1.814032 0.07271,0.455603 0.345459,1.113124 0.606101,1.461157 0.377431,0.503983 0.439509,0.723184 0.304973,1.076879 -0.188404,0.495312 -0.96189,0.650618 -1.685434,0.338414 z m 2.540699,-2.586735 c -0.431162,-0.414555 -0.824996,-3.1097871 -0.544664,-3.7274441 0.469412,-1.0342531 1.112242,-0.186518 1.408806,1.8578711 0.151888,1.047055 0.159199,1.599464 0.02364,1.786458 -0.286956,0.39584 -0.538078,0.41935 -0.887783,0.08312 z m -9.598703,-1.604872 c 0.122441,-1.1409051 0.651961,-2.3465421 1.227096,-2.7939094 0.372948,-0.2900973 0.395797,-0.2853949 0.805004,0.1656733 0.533912,0.588531 0.456483,1.647068 -0.205216,2.8055251 -0.42583,0.745514 -0.510594,0.803574 -1.197037,0.819921 l -0.738755,0.01759 z m 3.854613,0.367089 c -0.606571,-0.753533 -0.219766,-2.2513601 0.753412,-2.9174471 0.791082,-0.5414515 1.352552,-0.473377 1.60595,0.194711 0.115543,0.304631 0.143607,0.706555 0.06237,0.893164 -0.240791,0.553089 -1.652039,2.1812211 -1.898125,2.1898321 -0.124963,0.0044 -0.360584,-0.157744 -0.523603,-0.36026 z m 3.418362,-3.1523556 c -0.653106,-1.4149105 -0.251345,-3.5333051 0.559107,-2.9480426 0.325909,0.2353529 0.866962,1.6644049 0.866962,2.2898557 0,0.4832999 -0.565987,1.3623004 -0.877183,1.3623004 -0.123132,0 -0.370131,-0.316851 -0.548886,-0.7041135 z M 15.270003,7.631704 C 14.782316,7.207353 15.530521,5.5924591 16.541219,4.887966 17.116644,4.4868737 17.376418,4.5242136 17.6908,5.0532064 18.066947,5.686129 17.73591,6.3228973 16.615369,7.1218488 15.740409,7.7457004 15.503984,7.8352986 15.270003,7.631704 Z m -0.316274,21.275262 c 0.0017,-0.599487 0.379848,-1.615318 0.601298,-1.615318 0.119085,0 0.15486,0.154799 0.08615,0.372766 -0.06463,0.205021 -0.171254,0.65234 -0.236943,0.994042 -0.129703,0.674697 -0.452225,0.852609 -0.450505,0.24851 z m 4.342218,-0.210756 c -0.06053,-0.05267 -0.03641,-0.371603 0.0536,-0.708743 0.09001,-0.33714 0.165702,-0.85528 0.1682,-1.151422 0.0025,-0.296141 0.102123,-0.538439 0.221388,-0.538439 0.149217,0 0.185057,0.305045 0.114918,0.978096 -0.101488,0.973872 -0.348596,1.602812 -0.55811,1.420508 z m -1.868066,-1.964865 c 0,-0.227801 0.08568,-0.46026 0.190401,-0.516576 0.107541,-0.05783 0.190402,0.07786 0.190402,0.311792 0,0.227802 -0.08568,0.460261 -0.190402,0.516577 -0.10754,0.05783 -0.190401,-0.07786 -0.190401,-0.311793 z"
         id="path2" /></g></g></svg>
