<?xml version="1.0" encoding="UTF-8" standalone="no"?>
<!-- Created with Inkscape (http://www.inkscape.org/) -->

<svg
   width="128"
   height="128"
   viewBox="0 0 33.866666 33.866666"
   version="1.1"
   id="svg1"
   xml:space="preserve"
   inkscape:version="1.4.2 (f4327f4, 2025-05-13)"
   sodipodi:docname="toothed.svg"
   xmlns:inkscape="http://www.inkscape.org/namespaces/inkscape"
   xmlns:sodipodi="http://sodipodi.sourceforge.net/DTD/sodipodi-0.dtd"
   xmlns="http://www.w3.org/2000/svg"
   xmlns:svg="http://www.w3.org/2000/svg"><sodipodi:namedview
     id="namedview1"
     pagecolor="#ffffff"
     bordercolor="#000000"
     borderopacity="0.25"
     inkscape:showpageshadow="2"
     inkscape:pageopacity="0.0"
     inkscape:pagecheckerboard="0"
     inkscape:deskcolor="#d1d1d1"
     inkscape:document-units="mm"
     inkscape:zoom="2.29"
     inkscape:cx="49.563319"
     inkscape:cy="57.860262"
     inkscape:window-width="1600"
     inkscape:window-height="837"
     inkscape:window-x="-8"
     inkscape:window-y="-8"
     inkscape:window-maximized="1"
     inkscape:current-layer="layer1" /><defs
     id="defs1" /><g
     inkscape:label="Camada 1"
     inkscape:groupmode="layer"
     id="layer1"><g
       id="g1"><path
         style="fill:#626262;fill-opacity:1"
         d="m 20.238318,30.578917 c -0.03648,-0.01273 -0.245393,-0.07799 -0.464256,-0.145027 -0.489493,-0.149928 -0.933221,-0.454178 -1.104957,-0.757633 l -0.129425,-0.228694 -0.410803,0.294731 c -0.549395,0.394163 -1.021562,0.575772 -1.727188,0.664327 -1.695533,0.212788 -3.517413,-0.619838 -4.433439,-2.026146 -0.539207,-0.827806 -0.831867,-1.729955 -0.896231,-2.762705 -0.03953,-0.634225 0.01321,-1.104017 0.282376,-2.515292 0.330744,-1.734159 0.382793,-2.226722 0.382715,-3.621756 -7e-5,-1.255168 -0.0427,-1.768204 -0.231447,-2.785713 l -0.07424,-0.400229 -0.149946,0.146862 c -0.190179,0.186266 -0.378194,0.100048 -0.494004,-0.226536 l -0.08021,-0.226179 -0.116288,0.26327 c -0.231818,0.52482 -0.349436,0.509604 -0.496051,-0.06417 -0.08355,-0.326971 -0.08835,-0.331847 -0.1555695,-0.157966 -0.08518,0.220339 -0.270943,0.421943 -0.34489,0.374296 -0.03012,-0.01941 -0.07445,-0.184534 -0.09852,-0.36695 -0.064,-0.485157 -0.135918,-0.565626 -0.232587,-0.26025 -0.06317,0.199555 -0.110605,0.249652 -0.220609,0.232992 -0.103846,-0.01573 -0.154127,-0.09178 -0.1941677,-0.293696 -0.06979,-0.351943 -0.08934,-0.366413 -0.237419,-0.175758 -0.159642,0.205538 -0.254659,0.138098 -0.313045,-0.222188 l -0.0469,-0.289402 -0.1863,0.237906 -0.186299,0.237905 -0.07102,-0.194649 c -0.03906,-0.107056 -0.07102,-0.237459 -0.07102,-0.289783 0,-0.219342 -0.138813,-0.159166 -0.239795,0.103953 -0.130671,0.340474 -0.29404,0.347734 -0.387431,0.01722 -0.04983,-0.176369 -0.09027,-0.215825 -0.188028,-0.183476 -0.07961,0.02634 -0.184937,-0.01728 -0.291927,-0.120892 l -0.167386,-0.162106 -0.100351,0.155575 c -0.100277,0.15546 -0.34946,0.21709 -0.34946,0.08643 0,-0.162162 -0.272897,-0.345722 -0.513998,-0.345734 -0.681401,-3.2e-5 -1.723456,-0.322084 -2.239223,-0.692041 -0.612674,-0.439469 -0.895005,-1.015408 -0.893715,-1.823127 0.0014,-0.898424 0.347776,-1.811922 1.061201,-2.7989984 0.5498,-0.7606884 1.149599,-1.3227674 2.255849,-2.1139844 0.527971,-0.377617 1.168862,-0.847874 1.424202,-1.0450148 2.6432967,-2.040816 5.6624062,-3.0611771 8.2814812,-2.7988732 1.596541,0.1598957 2.337623,0.3864955 3.917159,1.1977449 1.638352,0.8414575 2.276269,1.0700212 4.182951,1.4987378 1.864547,0.4192423 3.073325,1.0392543 4.168847,2.1383043 1.156246,1.1599684 1.689836,2.2928528 1.61934,3.4380748 -0.05971,0.970037 -0.589993,1.514095 -1.943397,1.993886 -0.902765,0.320036 -2.521119,0.588607 -3.554233,0.589835 -1.889296,0.0022 -3.766349,0.916288 -4.870084,2.371513 -0.50151,0.66122 -0.755478,1.141278 -0.991156,1.873514 -0.359939,1.118306 -0.449834,2.344258 -0.264605,3.608577 0.131902,0.900323 0.143413,0.945515 0.755997,2.968104 0.296875,0.980202 0.435538,1.618454 0.504734,2.323241 l 0.0448,0.45634 0.28164,-0.318051 c 0.665968,-0.752069 1.649469,-1.991984 1.934102,-2.438352 0.417917,-0.655387 0.61758,-1.282616 0.661584,-2.078319 0.01951,-0.352821 0.01003,-0.734837 -0.02106,-0.848926 -0.0749,-0.274801 -0.462747,-0.468856 -1.167934,-0.58437 -1.574925,-0.257983 -2.052347,-0.508432 -2.341757,-1.228451 -0.227468,-0.565912 -0.05373,-1.507103 0.424792,-2.301274 0.448385,-0.744149 1.621746,-1.740043 2.805774,-2.381409 1.314372,-0.711971 2.430607,-0.959275 3.640037,-0.806457 1.113066,0.140642 1.716546,0.398156 3.087781,1.317599 0.437727,0.293505 1.004782,0.670957 1.260123,0.838782 0.643657,0.423049 1.366823,1.189939 1.625102,1.723359 0.64723,1.336714 0.393875,2.479577 -0.675806,3.048509 -0.607042,0.322868 -2.3788,0.60214 -3.281957,0.517316 -0.420793,-0.03952 -0.479736,-0.03044 -0.511167,0.07872 -0.01954,0.06787 -0.215011,0.888467 -0.434378,1.823555 -0.219366,0.935088 -0.490663,1.971359 -0.60288,2.302825 -0.966008,2.853369 -2.505609,4.206557 -4.76172,4.185175 -0.316791,-0.003 -0.605829,-0.01587 -0.642306,-0.0286 z m 1.956505,-0.716903 c 1.082983,-0.359909 1.966382,-1.268913 2.588444,-2.663468 0.329802,-0.739359 0.413646,-1.009958 0.795242,-2.566562 0.177133,-0.722559 0.369504,-1.500435 0.427492,-1.728611 0.15774,-0.620693 0.50277,-1.696076 0.63226,-1.970617 0.06278,-0.133103 0.134344,-0.378989 0.159033,-0.546414 0.03963,-0.268745 0.03295,-0.29408 -0.057,-0.216253 -0.05604,0.04848 -0.101884,0.111701 -0.101884,0.140479 0,0.02878 -0.144891,0.375012 -0.321979,0.769409 -0.177088,0.394396 -0.340299,0.771536 -0.362691,0.838087 -0.02239,0.06655 -0.07542,0.121003 -0.117848,0.121003 -0.115918,0 -0.03647,-0.454924 0.156985,-0.898878 0.09114,-0.209162 0.185343,-0.447657 0.209335,-0.529989 0.04787,-0.164256 -0.01372,-0.507178 -0.09109,-0.507178 -0.05598,0 -0.400042,0.88568 -0.403572,1.038879 -0.0013,0.0561 -0.0439,0.179792 -0.09469,0.274866 -0.08349,0.156297 -0.09684,0.160769 -0.139301,0.04667 -0.02583,-0.06941 -0.01307,-0.244149 0.02836,-0.388317 0.08739,-0.30408 0.101657,-1.110385 0.01965,-1.110385 -0.05869,0 -0.209612,0.303461 -0.209612,0.421461 0,0.03808 -0.05969,0.198032 -0.132644,0.355456 -0.07526,0.162395 -0.132645,0.42773 -0.132645,0.613305 0,0.368872 -0.04829,0.545823 -0.148951,0.545823 -0.09038,0 -0.02169,-0.802403 0.07958,-0.929617 0.08634,-0.10846 -0.04104,-1.061824 -0.128308,-0.960302 -0.09453,0.109966 -0.200252,0.529133 -0.200252,0.793926 0,0.575537 -0.194108,0.196034 -0.296223,-0.579148 -0.02368,-0.179754 -0.07003,-0.344209 -0.103007,-0.365456 -0.03298,-0.02125 -0.107982,0.133603 -0.16668,0.344111 -0.0587,0.210508 -0.130909,0.382741 -0.160467,0.382741 -0.02956,0 -0.08712,-0.13817 -0.127902,-0.307045 -0.13213,-0.547064 -0.26346,-0.483269 -0.315486,0.153248 -0.07365,0.901118 -0.16707,0.938552 -0.289787,0.116121 -0.121824,-0.816441 -0.269567,-0.897584 -0.330777,-0.181669 -0.01844,0.215714 -0.06338,0.392207 -0.09985,0.392207 -0.03648,0 -0.112943,-0.153627 -0.169923,-0.341392 -0.151286,-0.498522 -0.261171,-0.488223 -0.261171,0.02448 0,0.231345 -0.02731,0.420628 -0.0607,0.420628 -0.03338,0 -0.145254,-0.18669 -0.248602,-0.414866 -0.103348,-0.228177 -0.210337,-0.414867 -0.237754,-0.414867 -0.115695,0 -0.03447,0.377515 0.174791,0.812364 0.349832,0.726968 0.40316,0.957245 0.404338,1.745981 0.0012,0.826609 -0.107493,1.350671 -0.44362,2.138213 -0.127721,0.299247 -0.688974,1.208072 -0.862566,1.396732 -0.47033,0.511157 -1.377153,1.62012 -1.574397,1.925347 -0.567703,0.878496 -0.515343,1.425345 0.168885,1.763849 0.544606,0.26943 1.805606,0.292031 2.546977,0.04565 z m -0.427778,-0.281256 c 0.03465,-0.03531 0.227154,-0.131101 0.427778,-0.21287 0.65043,-0.265095 1.219961,-0.821963 1.952374,-1.908964 0.203945,-0.302684 0.198688,-0.06638 -0.0074,0.334771 -0.259297,0.504597 -1.159624,1.436796 -1.609755,1.66674 -0.341581,0.174493 -0.903007,0.263034 -0.762948,0.120323 z m -0.749644,-0.298176 c 0.03749,-0.117253 0.442932,-0.357378 0.500744,-0.296566 0.05627,0.05919 -0.314783,0.381534 -0.439746,0.38202 -0.04864,1.89e-4 -0.07608,-0.03826 -0.061,-0.08545 z m -0.862616,-0.208067 c 0.03082,-0.09864 0.374721,-0.289911 0.425697,-0.236766 0.01851,0.0193 -0.02851,0.09992 -0.10451,0.179146 -0.151054,0.157482 -0.364343,0.195746 -0.321187,0.05762 z m 2.455767,-0.554592 c 0.358612,-0.424163 0.512783,-0.544107 0.512783,-0.398944 0,0.120056 -0.584855,0.743976 -0.736029,0.785191 -0.0949,0.02587 -0.02945,-0.08736 0.223246,-0.386247 z m -3.002295,0.119006 c 0,-0.194103 0.616134,-0.933012 0.702717,-0.842744 0.04801,0.05005 -0.561454,0.88075 -0.646179,0.88075 -0.0311,0 -0.05654,-0.0171 -0.05654,-0.03801 z m 2.254955,-0.08971 c 0,-0.08143 0.324959,-0.386277 0.366072,-0.343414 0.06758,0.07046 -0.04343,0.245764 -0.203915,0.321996 -0.08919,0.04237 -0.162157,0.052 -0.162157,0.02142 z m 1.525411,-0.825801 c 0,-0.15875 0.627257,-1.157728 0.650132,-1.03541 0.01234,0.06599 -0.05819,0.274422 -0.156734,0.463186 -0.184598,0.3536 -0.493398,0.711734 -0.493398,0.572224 z m -0.520486,-0.29502 c 0.165461,-0.306926 0.302709,-0.453589 0.364341,-0.389335 0.06591,0.06871 -0.30619,0.669849 -0.414633,0.669849 -0.0821,0 -0.07271,-0.05235 0.05029,-0.280514 z m 1.51532,-0.364938 c 0,-0.01273 0.05707,-0.207203 0.126826,-0.432153 0.321361,-1.036356 0.438986,-1.562921 0.60879,-2.72534 0.04167,-0.285221 0.117275,-0.611928 0.168023,-0.726016 0.08549,-0.192188 0.08992,-0.166779 0.06028,0.345722 -0.01759,0.304235 -0.0781,0.77096 -0.134449,1.037167 -0.05635,0.266206 -0.130055,0.624028 -0.163781,0.795161 -0.126333,0.641038 -0.507962,1.728611 -0.606569,1.728611 -0.03252,0 -0.05912,-0.01042 -0.05912,-0.02315 z m -3.31754,-0.251335 c 0.155994,-0.228395 0.257416,-0.311414 0.311526,-0.255001 0.05958,0.06212 -0.245176,0.460344 -0.352291,0.460344 -0.07928,0 -0.071,-0.04171 0.04076,-0.205343 z m 2.457557,-0.361846 c -0.0029,-0.154423 0.136364,-0.469978 0.207406,-0.469978 0.102712,0 0.05699,0.259617 -0.07476,0.424493 -0.106491,0.133267 -0.130843,0.141617 -0.132645,0.04548 z m 0.661016,-0.287698 c 0,-0.234531 0.349374,-1.563717 0.442589,-1.683822 0.08544,-0.110091 0.09112,-0.08668 0.05282,0.21771 -0.04011,0.318803 -0.380453,1.463608 -0.459667,1.546193 -0.01966,0.0205 -0.03574,-0.01554 -0.03574,-0.08008 z m 0.432083,-2.757911 c 0.0252,-0.161625 0.09992,-0.418324 0.166047,-0.570442 0.108015,-0.248461 0.120806,-0.258296 0.125826,-0.09675 0.0031,0.09891 -0.02179,0.270038 -0.05525,0.380294 -0.03346,0.110256 -0.0788,0.286032 -0.100747,0.390613 -0.067,0.319232 -0.187472,0.227273 -0.135876,-0.103717 z m 0.9617,-0.656872 c 0.0013,-0.160557 0.104992,-0.325591 0.1533,-0.244101 0.05119,0.08636 -0.02189,0.365103 -0.09573,0.365103 -0.03222,0 -0.05813,-0.05445 -0.05757,-0.121002 z m -2.321278,-0.445359 c 0.0011,-0.31894 0.08448,-0.53714 0.157927,-0.413238 0.05482,0.09247 -0.02524,0.625035 -0.101332,0.674063 -0.03169,0.02042 -0.05715,-0.09696 -0.0566,-0.260825 z m 1.977245,0.179005 c -0.04128,-0.16925 0.06213,-0.580666 0.145947,-0.580666 0.09629,0 0.07772,0.438633 -0.02476,0.584736 -0.08631,0.123055 -0.09022,0.122924 -0.121189,-0.0041 z m -0.917105,-0.457465 c 0,-0.360737 0.04884,-0.538068 0.148178,-0.538068 0.08999,0 0.02717,0.674584 -0.0725,0.778488 -0.0567,0.05911 -0.07568,-0.0012 -0.07568,-0.24042 z m -1.681966,-0.309466 c -0.06469,-0.06745 -0.05053,-0.630078 0.01696,-0.673563 0.07928,-0.05109 0.139594,0.1269 0.139594,0.411964 0,0.227812 -0.0726,0.349126 -0.156554,0.261599 z m 1.179408,-0.252209 c -0.06045,-0.164222 -0.0019,-0.551057 0.08804,-0.581844 0.05812,-0.01989 0.0829,0.06516 0.0829,0.284459 0,0.313173 -0.100674,0.488308 -0.170947,0.297385 z m -6.935051,8.289865 c 0.624973,-0.173424 1.080742,-0.561063 1.343536,-1.142698 0.125991,-0.278853 0.136481,-0.395144 0.10604,-1.175456 -0.0376,-0.963905 -0.118996,-1.342183 -0.637319,-2.962022 -0.721118,-2.253601 -0.837933,-3.654078 -0.462463,-5.544426 0.402794,-2.027919 1.85333,-3.870337 3.727069,-4.73399 0.916337,-0.422362 1.534175,-0.553749 3.261262,-0.693525 0.729545,-0.05904 1.41598,-0.124135 1.525412,-0.144648 1.232195,-0.230971 2.021367,-0.58083 2.022374,-0.896566 7.3e-4,-0.228806 -0.388997,-0.5465 -0.99438,-0.810587 -0.535058,-0.23341 -1.399862,-0.534008 -1.536311,-0.534008 -0.262782,0 0.609401,0.495836 1.337344,0.76028 0.554639,0.201487 0.795867,0.330544 0.795867,0.425789 0,0.176118 -1.077585,-0.190461 -2.052619,-0.698272 -0.375757,-0.1957 -0.533948,-0.205829 -0.533948,-0.03419 0,0.142381 0.242198,0.284428 1.054233,0.618299 0.400871,0.164819 0.782798,0.332385 0.848726,0.372369 0.102165,0.06196 0.08881,0.07301 -0.09039,0.0748 -0.234172,0.0023 -1.2149,-0.340572 -1.688423,-0.590361 -0.317998,-0.167747 -0.389431,-0.15971 -0.389431,0.04382 0,0.08685 0.141222,0.172197 0.513998,0.31064 0.889948,0.330512 0.984462,0.377338 0.887599,0.43975 -0.04866,0.03136 -0.209578,0.02864 -0.357585,-0.006 -0.5267,-0.123377 -1.609159,-0.547954 -1.694754,-0.664739 -0.08166,-0.111423 -0.09279,-0.110569 -0.181262,0.01391 -0.13809,0.194283 -0.03488,0.28113 0.588272,0.495015 0.655203,0.224886 0.671076,0.233671 0.584751,0.323669 -0.04708,0.04908 -0.168022,0.04458 -0.387131,-0.01442 -0.827042,-0.222684 -1.072881,-0.343477 -1.249007,-0.613699 -0.13716,-0.210438 -0.165439,-0.226787 -0.20524,-0.118653 -0.07168,0.194741 0.04696,0.32853 0.523755,0.590628 0.242133,0.133104 0.463927,0.269623 0.492876,0.303378 0.117209,0.136666 -0.553246,-0.02944 -0.958637,-0.23751 -0.362021,-0.185807 -0.448266,-0.265037 -0.532839,-0.489501 -0.129808,-0.34452 -0.213429,-0.34104 -0.213429,0.0089 0,0.252818 0.02861,0.298124 0.331611,0.525069 0.182386,0.136607 0.331611,0.276573 0.331611,0.311035 0,0.186434 -0.553014,-0.05285 -0.774873,-0.335281 -0.04317,-0.05496 -0.110321,-0.07941 -0.149225,-0.05434 -0.110431,0.07116 -0.08308,0.29992 0.04478,0.374516 0.170927,0.09973 0.05562,0.169828 -0.197817,0.120261 -0.149994,-0.02934 -0.258877,-0.109862 -0.338453,-0.250306 -0.145442,-0.256691 -0.21501,-0.261363 -0.273508,-0.01837 -0.03512,0.145874 -0.01303,0.216033 0.09735,0.309218 0.147301,0.124353 0.129145,0.262686 -0.03448,0.262686 -0.05114,0 -0.153266,-0.06746 -0.226943,-0.149905 l -0.133957,-0.149904 -0.101644,0.253621 c -0.06869,0.171392 -0.144362,0.253621 -0.233399,0.253621 -0.136795,0 -0.175535,-0.131308 -0.07242,-0.245462 0.03263,-0.03613 0.07959,-0.17459 0.104346,-0.307693 l 0.04501,-0.242006 -0.204627,0.31115 c -0.112545,0.171133 -0.235677,0.429434 -0.273628,0.574003 -0.06954,0.264893 -0.220754,0.395046 -0.32787,0.282198 -0.03308,-0.03485 -0.01225,-0.231649 0.04856,-0.458734 0.05858,-0.218732 0.08864,-0.416316 0.06681,-0.439077 -0.0682,-0.0711 -0.181163,0.0435 -0.181163,0.183795 0,0.112334 -0.268264,0.797322 -0.458822,1.17156 -0.0711,0.139623 -0.274051,0.17394 -0.346938,0.05866 -0.07725,-0.122174 -0.133091,-0.04517 -0.553303,0.763004 -0.450782,0.866963 -0.544226,0.844765 -0.300698,-0.07143 0.12408,-0.466812 0.122433,-0.696323 -0.0041,-0.564456 -0.144435,0.150581 -0.477313,1.259275 -0.490697,1.634332 -0.01094,0.306541 -0.04839,0.438115 -0.156891,0.551235 -0.139738,0.145685 -0.142521,0.145871 -0.142521,0.0096 0,-0.07647 0.05934,-0.260369 0.131855,-0.408666 0.07252,-0.148298 0.0964,-0.232664 0.05306,-0.187481 -0.213026,0.222091 -0.227195,-0.03204 -0.04746,-0.8513 0.104446,-0.476092 0.10758,-0.603619 0.01566,-0.637002 -0.09359,-0.03399 -0.338893,0.503505 -0.551061,1.207444 -0.173045,0.574136 -0.298116,0.664451 -0.239383,0.172861 0.09272,-0.776077 0.120769,-1.538464 0.0566,-1.538464 -0.123206,0 -0.346786,0.765001 -0.3474,1.188661 -2.04e-4,0.140366 -0.02709,0.272426 -0.05974,0.293467 -0.163606,0.105417 -0.186998,-0.679402 -0.03284,-1.101834 0.167698,-0.459537 0.175399,-0.507109 0.125794,-0.777053 l -0.0478,-0.260114 -0.108705,0.168515 c -0.05979,0.09268 -0.153585,0.35499 -0.208438,0.582905 -0.14094,0.5856 -0.233136,0.564444 -0.304818,-0.06995 -0.03311,-0.293044 -0.09136,-0.543375 -0.129434,-0.556292 -0.09723,-0.03298 -0.229221,0.383145 -0.229221,0.722666 0,0.156681 -0.02694,0.302231 -0.05986,0.323445 -0.06691,0.04311 -0.204624,-0.317657 -0.206902,-0.542024 -8.11e-4,-0.07989 -0.05527,-0.218165 -0.121011,-0.307275 l -0.119536,-0.162018 -0.102515,0.334879 c -0.05638,0.184183 -0.141206,0.334879 -0.188494,0.334879 -0.04729,0 -0.128257,-0.132239 -0.179933,-0.293864 -0.05168,-0.161625 -0.120481,-0.293864 -0.1529,-0.293864 -0.03242,0 -0.104993,0.163354 -0.161278,0.363008 -0.154139,0.546767 -0.200192,0.595106 -0.325767,0.341939 -0.0584,-0.117738 -0.107238,-0.285622 -0.108531,-0.373077 -0.0013,-0.08745 -0.0439,-0.236796 -0.09469,-0.33187 -0.109414,-0.204831 -0.128003,-0.169277 -0.250262,0.478661 -0.103741,0.549798 -0.223423,0.618733 -0.286584,0.165068 -0.02547,-0.182918 -0.08469,-0.410367 -0.1316,-0.50544 l -0.0853,-0.172861 -0.04441,0.207433 c -0.02442,0.114088 -0.05627,0.247325 -0.07076,0.29608 -0.0145,0.04876 0.0174,0.282119 0.07088,0.518584 0.122491,0.541595 0.124435,0.741086 0.0072,0.741086 -0.06074,0 -0.119902,-0.154313 -0.174229,-0.454486 -0.109848,-0.606948 -0.204707,-0.488938 -0.248344,0.308954 -0.01883,0.344287 -0.05946,0.60972 -0.0903,0.589852 -0.03084,-0.01987 -0.132761,-0.298272 -0.226501,-0.618675 -0.09374,-0.320402 -0.19859,-0.600691 -0.233001,-0.622863 -0.115258,-0.07426 -0.22653,0.296294 -0.140944,0.469373 0.173481,0.350826 0.414037,1.649969 0.473532,2.557342 0.05738,0.875103 0.01029,2.366794 -0.09711,3.076179 -0.137544,0.908494 -0.188012,1.215201 -0.276101,1.677914 -0.326329,1.714139 -0.361318,2.443952 -0.157085,3.276476 0.390713,1.592682 1.349246,2.718281 2.708393,3.180451 0.280593,0.09541 0.584782,0.186479 0.675975,0.202366 0.400772,0.06982 1.452027,0.03884 1.781181,-0.0525 z m -1.075853,-0.388808 c -0.09611,-0.07882 -0.17475,-0.188521 -0.17475,-0.243782 0,-0.08737 0.02381,-0.08764 0.182543,-0.0021 0.100398,0.05413 0.239326,0.163829 0.308729,0.243781 0.124278,0.14317 0.12416,0.145368 -0.0078,0.145368 -0.07369,0 -0.212617,-0.06449 -0.308729,-0.143307 z M 14.8094,29.177884 c -0.332285,-0.267127 -0.569093,-0.59747 -0.488517,-0.681474 0.02523,-0.0263 0.190681,0.08912 0.367668,0.256497 0.176987,0.167377 0.423668,0.388222 0.548181,0.490765 0.221905,0.182754 0.223104,0.18651 0.06058,0.189799 -0.09378,0.0019 -0.305727,-0.109128 -0.487912,-0.255587 z m 1.465229,-0.224846 c -0.06332,-0.152379 -0.114055,-0.346847 -0.112743,-0.432153 0.0023,-0.148361 0.0092,-0.146384 0.159721,0.04551 0.165898,0.21153 0.260373,0.663691 0.138672,0.663691 -0.03879,0 -0.122329,-0.124673 -0.18565,-0.277052 z m -2.403245,0.105146 c -0.27258,-0.125327 -0.739508,-0.61593 -0.901739,-0.947461 -0.20545,-0.419853 -0.115026,-0.463703 0.153289,-0.07434 0.246103,0.357136 0.509793,0.596907 0.909799,0.827275 0.419728,0.241726 0.287648,0.400962 -0.161349,0.194522 z m 2.961985,-0.07335 c -0.04233,-0.09686 -0.07631,-0.306889 -0.07549,-0.466725 l 0.0015,-0.29061 0.129695,0.172861 c 0.08152,0.108647 0.130243,0.282025 0.13117,0.466725 0.0017,0.331884 -0.07276,0.378788 -0.186846,0.117749 z m -1.664751,-0.130651 c -0.08757,-0.09718 -0.143439,-0.193158 -0.124145,-0.213274 0.05912,-0.06164 0.339792,0.213507 0.31068,0.304559 -0.01769,0.05532 -0.08342,0.02315 -0.186535,-0.09128 z m 2.200795,-0.01729 c -0.06614,-0.168299 -0.063,-0.963854 0.0041,-1.033785 0.101967,-0.106305 0.176755,0.150522 0.177765,0.610455 0.001,0.458955 -0.08717,0.664235 -0.181839,0.42333 z m -1.793548,-0.173786 c -0.04377,-0.04564 -0.07859,-0.146759 -0.07738,-0.22472 0.0021,-0.135869 0.0076,-0.134978 0.132644,0.02149 0.192225,0.240558 0.145468,0.412505 -0.05526,0.203231 z M 13.64407,28.356461 c -0.144356,-0.191328 -0.174631,-0.301825 -0.0827,-0.301825 0.08104,0 0.343172,0.307089 0.343172,0.402037 0,0.136685 -0.115168,0.09238 -0.260475,-0.100212 z m 4.212377,-0.681234 c -0.07675,-0.986108 -0.200023,-1.486424 -0.826514,-3.354392 -0.288059,-0.858888 -0.410003,-1.679018 -0.452758,-3.045006 -0.04205,-1.343435 0.01034,-2.201293 0.146218,-2.394216 0.07562,-0.107373 0.08347,0.07854 0.05094,1.207898 -0.05469,1.899203 0.09425,2.954965 0.650556,4.611619 0.543358,1.618083 0.76322,2.833223 0.61615,3.405364 -0.0766,0.29801 -0.139224,0.151712 -0.184596,-0.431267 z m -3.519104,0.175409 C 14.22037,27.61481 14.208764,27.50148 14.301593,27.50148 c 0.05246,0 0.266179,0.423164 0.266179,0.527028 0,0.103252 -0.147434,-0.01056 -0.230424,-0.177872 z m 0.710633,0.06665 c -0.09807,-0.16371 -0.107716,-0.346661 -0.01829,-0.346661 0.07871,0 0.201301,0.228827 0.201301,0.375749 0,0.149048 -0.08434,0.135643 -0.183014,-0.02909 z m 1.379147,0.0036 c -0.08617,-0.167864 -0.09296,-0.680728 -0.0078,-0.588816 0.0699,0.07543 0.172714,0.72256 0.114803,0.72256 -0.0211,0 -0.06925,-0.06019 -0.107014,-0.133744 z m 0.526603,-0.04362 c -0.08098,-0.22207 -0.08498,-0.79066 -0.0055,-0.79066 0.06606,0 0.108757,0.155369 0.175766,0.639586 0.05049,0.364855 -0.05735,0.460568 -0.170218,0.151074 z m -1.211488,-0.219824 c -0.01914,-0.104364 -0.01747,-0.21898 0.0037,-0.254702 0.04313,-0.07276 0.136436,0.137395 0.143603,0.323452 0.0075,0.193845 -0.109142,0.139423 -0.147312,-0.06875 z m -2.153351,-0.155031 c -0.04525,-0.07554 -0.08161,-0.192224 -0.0808,-0.259292 0.0012,-0.09962 0.02521,-0.0903 0.13117,0.05092 0.132444,0.176525 0.17271,0.345722 0.08228,0.345722 -0.0277,0 -0.08739,-0.06181 -0.132645,-0.137351 z m 3.808818,-0.0528 c -0.06048,-0.10544 -0.376015,-1.495489 -0.376015,-1.656489 0,-0.526343 0.356023,0.515859 0.435956,1.276194 0.04118,0.391709 0.02079,0.521046 -0.05994,0.380295 z m -4.48262,-0.283397 c -0.08868,-0.172748 -0.09365,-0.425334 -0.0084,-0.425334 0.06997,0 0.172764,0.468366 0.115824,0.527729 -0.01966,0.0205 -0.06801,-0.02558 -0.107445,-0.102395 z m 3.649217,-0.698646 c -0.08967,-0.435907 -0.09769,-1.025544 -0.01269,-0.933259 0.107583,0.116809 0.239604,1.128788 0.158316,1.213536 -0.05237,0.05459 -0.09271,-0.02306 -0.145626,-0.280277 z m -0.573452,-0.03352 c -0.05627,-0.391191 -0.0043,-0.552687 0.09442,-0.293685 0.09028,0.236756 0.09754,0.600513 0.01197,0.600513 -0.03424,0 -0.08212,-0.138073 -0.106392,-0.306828 z m -3.80281,-0.06951 c -0.165438,-0.684975 -0.0572,-2.44506 0.185202,-3.011737 0.06278,-0.146756 0.06977,-0.11543 0.0463,0.207433 -0.0152,0.209162 -0.06321,0.644772 -0.106688,0.968022 -0.0739,0.549495 -0.0553,1.423321 0.041,1.925283 0.06519,0.339818 -0.08123,0.26123 -0.165816,-0.089 z m 0.566805,-0.296813 c -0.09434,-0.362275 -0.110835,-0.533412 -0.07214,-0.748448 0.07147,-0.397181 0.148968,-0.267647 0.172025,0.287532 0.02061,0.496293 -0.02993,0.729534 -0.09988,0.460916 z m 4.022679,-0.830738 C 16.62949,24.870561 16.42479,24.108291 16.42479,23.923462 c 0,-0.332359 0.135964,-0.129147 0.300562,0.449219 0.0947,0.332758 0.200117,0.695224 0.23426,0.80548 0.07965,0.257221 0.07819,0.318118 -0.0076,0.318118 -0.03834,0 -0.116845,-0.116682 -0.174459,-0.259292 z m -0.6698,-0.177362 c -0.04448,-0.107057 -0.07843,-0.34042 -0.07546,-0.518584 l 0.0054,-0.323935 0.0975,0.232987 c 0.05362,0.128143 0.08758,0.361505 0.07546,0.518583 l -0.02204,0.285597 z m -0.372222,-1.401329 c -0.06107,-0.165924 -0.04811,-0.651218 0.01739,-0.651218 0.05495,0 0.139041,0.382537 0.140592,0.639587 9.1e-4,0.150849 -0.103897,0.158565 -0.15798,0.01163 z m 0.464692,-0.564787 c -0.123725,-0.650458 -0.185161,-1.412075 -0.147753,-1.831695 0.07741,-0.868304 0.151385,-0.727031 0.195192,0.372748 0.02325,0.583752 0.06163,1.193605 0.08529,1.35523 0.04815,0.328943 -0.07202,0.422847 -0.132727,0.103717 z m -3.688416,-0.827525 c 0,-0.26727 0.06173,-0.44547 0.137422,-0.3967 0.06562,0.04228 0.0063,0.448279 -0.07987,0.54662 -0.03369,0.03845 -0.05755,-0.02372 -0.05755,-0.14992 z m 3.5814,-2.573748 c 0,-0.187903 0.02984,-0.360871 0.06632,-0.384375 0.04118,-0.02653 0.06632,0.102999 0.06632,0.341642 0,0.211406 -0.02984,0.384375 -0.06632,0.384375 -0.03648,0 -0.06632,-0.153739 -0.06632,-0.341642 z m -3.205574,-0.119321 c -0.06995,-0.07293 -0.05139,-0.701707 0.02211,-0.749065 0.04143,-0.02669 0.06632,0.114523 0.06632,0.376214 0,0.422608 -0.0081,0.456631 -0.08843,0.372851 z M 16.42479,18.78175 c 0,-0.133441 0.04677,-0.303017 0.103938,-0.376837 0.09739,-0.125765 0.101899,-0.115183 0.07156,0.168017 -0.04192,0.391287 -0.175494,0.550222 -0.175494,0.20882 z m -0.523624,-0.488115 c -0.0076,-0.427099 0.03983,-0.631418 0.13264,-0.571619 0.08258,0.05321 0.06558,0.358501 -0.03825,0.686967 l -0.08743,0.276578 z m 0.94888,-0.375569 c 0.03724,-0.480135 0.265261,-1.203122 0.379453,-1.203122 0.07461,0 0.07359,0.270766 -0.002,0.525552 -0.0327,0.110255 -0.108034,0.371597 -0.167411,0.580759 -0.176931,0.623262 -0.253641,0.658614 -0.210069,0.09681 z m -1.980453,-0.02197 c -0.06315,-0.106531 0.02543,-0.500676 0.101504,-0.451657 0.07642,0.04924 0.07755,0.311548 0.0019,0.436058 -0.04071,0.06699 -0.07027,0.07145 -0.103382,0.0156 z m -2.047565,-0.102287 c -0.06619,-0.179826 -0.05469,-0.580425 0.01801,-0.627266 0.09113,-0.05872 0.163776,0.429732 0.08967,0.602879 -0.05703,0.133252 -0.06679,0.135464 -0.107679,0.02439 z m 2.654373,-0.272546 c -0.01874,-0.05091 -0.01006,-0.198705 0.01928,-0.328437 0.05198,-0.229824 0.05352,-0.22745 0.06014,0.09256 0.0069,0.332396 -0.01738,0.404416 -0.07941,0.235876 z m 0.886526,-0.21859 c 1.32e-4,-0.190147 0.04289,-0.42351 0.09502,-0.518584 0.09079,-0.165588 0.09488,-0.156689 0.09713,0.211504 0.0014,0.234373 -0.03565,0.436742 -0.09502,0.518584 -0.08979,0.123769 -0.09736,0.107302 -0.09713,-0.211504 z M 14.01566,17.101909 c -0.04889,-0.132833 0.02287,-0.394264 0.09539,-0.347533 0.07688,0.04954 0.07649,0.44458 -4.45e-4,0.44458 -0.03257,0 -0.0753,-0.04367 -0.09495,-0.09705 z m 1.949535,-0.265961 c 0.0026,-0.123596 0.02921,-0.28695 0.0592,-0.363009 0.05022,-0.127334 0.05831,-0.128662 0.102109,-0.01676 0.0595,0.152022 -0.01734,0.604493 -0.102657,0.604493 -0.03482,0 -0.06122,-0.101124 -0.05866,-0.224719 z m -1.349764,0.04393 c -0.05798,-0.06045 -0.06291,-0.457916 -0.0076,-0.60832 0.06326,-0.171856 0.159324,-0.05462 0.154194,0.188176 -0.0057,0.269199 -0.08192,0.487618 -0.146641,0.420144 z m 0.588659,-0.29266 c -0.0557,-0.09396 0.02253,-0.425429 0.100412,-0.425429 0.0752,0 0.07526,0.281272 8.4e-5,0.404963 -0.0378,0.0622 -0.07167,0.0691 -0.100496,0.02047 z m -1.64964,-0.240937 c -0.06573,-0.174038 -0.05836,-0.61327 0.01225,-0.729497 0.09577,-0.157644 0.141678,0.117307 0.08523,0.510433 -0.03535,0.246205 -0.06341,0.309263 -0.09748,0.219064 z m 0.615384,-0.491561 c 0,-0.168888 0.02985,-0.326299 0.06632,-0.349803 0.04088,-0.02634 0.06632,0.09148 0.06632,0.307069 0,0.192392 -0.02984,0.349803 -0.06632,0.349803 -0.03648,0 -0.06632,-0.138181 -0.06632,-0.307069 z m 1.503304,0.260973 c -0.06907,-0.07201 -0.05185,-0.49398 0.02211,-0.541632 0.04051,-0.0261 0.06632,0.07995 0.06632,0.272498 0,0.320581 -0.01,0.35093 -0.08843,0.269134 z m -0.77376,-0.568042 c 0,-0.152118 0.02984,-0.295808 0.06632,-0.319312 0.03999,-0.02577 0.06632,0.06707 0.06632,0.233844 0,0.152118 -0.02984,0.295808 -0.06632,0.319312 -0.03999,0.02577 -0.06632,-0.06707 -0.06632,-0.233844 z m 14.718573,5.867062 c 0.839031,-0.210109 1.189427,-0.485404 1.334949,-1.04883 0.09276,-0.359154 -0.01839,-0.929954 -0.282631,-1.451392 -0.265514,-0.523948 -0.936973,-1.182833 -1.710578,-1.678546 -0.346534,-0.222053 -0.896777,-0.590401 -1.222763,-0.818552 -0.716585,-0.501523 -1.398781,-0.838723 -2.005866,-0.991471 -0.658812,-0.165763 -1.828719,-0.147983 -2.508244,0.03812 -1.08099,0.296052 -2.575978,1.247401 -3.569338,2.271378 -1.008409,1.03949 -1.227386,2.286546 -0.483909,2.755812 0.260518,0.164433 0.411043,0.21258 1.068747,0.341846 0.291817,0.05735 0.719972,0.152119 0.951454,0.210587 0.231482,0.05847 0.436978,0.08952 0.456659,0.069 0.01968,-0.02052 -0.01057,-0.111052 -0.06721,-0.201186 -0.0798,-0.12697 -0.147273,-0.157106 -0.29958,-0.133801 -0.256414,0.03924 -0.335492,-0.09745 -0.116548,-0.20145 0.09325,-0.0443 0.169545,-0.107635 0.169545,-0.140753 0,-0.121209 -0.192319,-0.132156 -0.395675,-0.02252 -0.12339,0.06652 -0.322362,0.103893 -0.486822,0.09143 l -0.278142,-0.02107 0.248709,-0.128881 c 0.136789,-0.07089 0.248708,-0.151266 0.248708,-0.178624 0,-0.126294 -0.103184,-0.117328 -0.440708,0.03829 -0.45195,0.208379 -0.58969,0.147701 -0.282279,-0.124352 l 0.22557,-0.199624 -0.232127,0.09784 c -0.127671,0.05381 -0.312299,0.136921 -0.410285,0.184681 -0.20826,0.101509 -0.385582,0.05144 -0.385582,-0.108865 0,-0.412255 1.365661,-1.010096 2.918178,-1.27748 0.282804,-0.04871 1.05541,-0.08404 1.7907,-0.0819 1.299354,0.0038 2.084495,0.09196 2.951339,0.331467 0.218864,0.06047 0.785919,0.21348 1.260123,0.340022 1.040683,0.277707 1.024049,0.271963 1.544357,0.533374 0.584796,0.29381 0.891719,0.740243 0.651697,0.947921 -0.07199,0.06229 -0.136159,0.04097 -0.294286,-0.09774 -0.213351,-0.187162 -1.13548,-0.657503 -1.283941,-0.654887 -0.09084,0.0016 0.203197,0.270801 0.298734,0.273503 0.111635,0.0032 0.643341,0.427366 0.608766,0.48569 -0.03821,0.06446 -0.271071,-0.02338 -0.950197,-0.35845 -0.398338,-0.196534 -0.537933,-0.217567 -0.449068,-0.06766 0.02192,0.03698 0.233828,0.185536 0.470897,0.330117 0.237069,0.144581 0.431035,0.289997 0.431035,0.323146 0,0.0916 -0.358203,-0.0098 -0.840928,-0.237944 -0.461233,-0.218032 -0.608322,-0.224217 -0.319444,-0.01343 0.09633,0.07029 0.255057,0.196823 0.352728,0.281188 0.15994,0.138151 0.164405,0.153543 0.04494,0.154926 -0.152648,0.0018 -0.759925,-0.345629 -0.890149,-0.509216 -0.04827,-0.06064 -0.128878,-0.11025 -0.179127,-0.11025 -0.164311,0 -0.09589,0.263801 0.107604,0.414867 0.347621,0.258061 0.232993,0.365522 -0.174734,0.163809 -0.258801,-0.128035 -0.262676,-0.126536 -0.323232,0.125006 -0.03934,0.1634 -0.02267,0.1888 0.143834,0.219201 0.421271,0.07692 2.051526,-0.02597 2.604126,-0.164349 z m 0.702235,-1.769573 c -0.0552,-0.137747 -0.100373,-0.263702 -0.100373,-0.279899 0,-0.0914 -0.515051,-0.845935 -0.775881,-1.13665 -0.330628,-0.368509 -0.345899,-0.510992 -0.0296,-0.276184 0.526793,0.391072 1.137093,1.329969 1.137093,1.749326 0,0.269398 -0.111529,0.242103 -0.231238,-0.05659 z m -0.699389,-0.412226 c -0.03583,-0.09827 -0.04715,-0.209029 -0.02515,-0.246143 0.05133,-0.08659 0.221338,0.143857 0.224126,0.303804 0.0032,0.182357 -0.124988,0.145216 -0.198973,-0.05766 z M 28.865206,18.36782 c -0.315515,-0.494681 -0.356848,-0.680373 -0.0972,-0.436662 0.137364,0.128931 0.521431,0.772194 0.522669,0.875406 0.0018,0.151897 -0.145937,-4.72e-4 -0.425473,-0.438744 z m -9.389594,0.309719 c 0,-0.09595 0.487298,-0.725684 0.661769,-0.855205 0.374243,-0.277824 0.333092,-0.128557 -0.104543,0.379216 -0.403236,0.467861 -0.557226,0.5994 -0.557226,0.475989 z m 8.845099,-0.214494 c -0.06283,-0.105793 -0.218884,-0.308461 -0.346796,-0.450373 -0.127912,-0.141913 -0.212935,-0.27849 -0.18894,-0.303506 0.07513,-0.07832 0.471439,0.288213 0.629074,0.581807 0.171489,0.319397 0.08683,0.475463 -0.09334,0.172072 z m -1.044154,-0.406272 c -0.322477,-0.377906 -0.36763,-0.518911 -0.122343,-0.382051 0.290251,0.161947 0.690655,0.779999 0.495613,0.765011 -0.02736,-0.0021 -0.195329,-0.174434 -0.37327,-0.38296 z m -0.770543,-0.131528 c -0.233478,-0.259101 -0.09513,-0.303965 0.149829,-0.04859 0.145342,0.151527 0.179641,0.221174 0.108919,0.221174 -0.05678,0 -0.173212,-0.07767 -0.258748,-0.172588 z m 1.554425,-0.62775 c -0.445534,-0.279492 -0.609148,-0.420215 -0.704474,-0.605912 -0.07801,-0.151959 -0.09289,-0.160335 0.6232,0.350688 0.746288,0.532571 0.80193,0.707303 0.08127,0.255224 z m -6.197227,0.122043 c 0,-0.08913 0.259294,-0.319025 0.305498,-0.270855 0.02167,0.02259 0.01982,0.07409 -0.0041,0.114445 -0.06215,0.104837 -0.301398,0.228995 -0.301398,0.15641 z m -0.72121,-0.134152 c 0.16656,-0.221724 0.342434,-0.363029 0.449489,-0.361138 0.07072,0.0012 0.0236,0.08166 -0.141819,0.242006 -0.262445,0.254394 -0.469509,0.33457 -0.30767,0.119132 z m 4.545017,-0.0054 c -0.06037,-0.06955 -0.109762,-0.163154 -0.109762,-0.208019 0,-0.109126 0.216308,0.02938 0.322353,0.206416 0.104868,0.175067 -0.06093,0.176317 -0.212591,0.0016 z m 0.522891,-0.184129 c -0.108006,-0.09202 -0.175112,-0.189482 -0.149125,-0.216575 0.06498,-0.06774 0.374766,0.113788 0.452452,0.265123 0.09273,0.180632 -0.06373,0.155591 -0.303327,-0.04855 z m 0.757609,-0.03234 c -0.126293,-0.112542 -0.199245,-0.205887 -0.162116,-0.207433 0.07323,-0.003 0.562554,0.327468 0.562554,0.379977 0,0.09311 -0.198133,0.0077 -0.400438,-0.172544 z m -4.839018,-0.405624 c 0,-0.09034 0.297527,-0.357775 0.398036,-0.357775 0.05504,0 0.01566,0.08203 -0.09959,0.207434 -0.188759,0.205406 -0.29845,0.260662 -0.29845,0.150341 z m 3.174234,-0.144389 c -0.160672,-0.135803 -0.149742,-0.246113 0.01775,-0.179106 0.113127,0.04526 0.282663,0.311443 0.198361,0.311443 -0.03275,0 -0.129994,-0.05955 -0.216109,-0.132337 z m -2.378367,-0.0019 c 0,-0.09283 0.243604,-0.349803 0.331611,-0.349803 0.102473,0 0.07863,0.10584 -0.04974,0.220772 -0.182,0.162951 -0.281869,0.208668 -0.281869,0.129031 z m 2.853296,-0.15581 c -0.106839,-0.103772 -0.129492,-0.161017 -0.07167,-0.181111 0.0465,-0.01616 0.162721,0.05212 0.258266,0.151729 0.21928,0.228611 0.04653,0.255813 -0.186598,0.02938 z m 0.682061,-0.01895 c -0.143205,-0.131347 -0.160192,-0.17118 -0.07372,-0.172862 0.0618,-0.0012 0.196103,0.07462 0.29845,0.168491 0.143204,0.131347 0.160192,0.17118 0.07372,0.172862 -0.0618,0.0012 -0.196104,-0.07462 -0.29845,-0.168491 z m 1.479306,3.864052 c 0.02893,-0.120166 0.0081,-0.215089 -0.06348,-0.289748 -0.14376,-0.149877 -0.179573,-0.09219 -0.132101,0.2128 0.04633,0.29764 0.134134,0.332185 0.19558,0.07695 z m -0.679198,-0.04601 c 0.0811,-0.315507 0.04916,-0.466725 -0.09858,-0.466725 -0.113213,0 -0.13264,0.03011 -0.100389,0.155575 0.022,0.08557 0.0404,0.225583 0.0409,0.31115 4.98e-4,0.08557 0.02727,0.155575 0.05949,0.155575 0.03222,0 0.07658,-0.07001 0.09858,-0.155575 z m -0.62142,-0.410802 c 0,-0.148121 -0.03148,-0.194217 -0.132645,-0.194217 -0.109576,0 -0.132644,0.0461 -0.132644,0.265053 0,0.14578 0.02156,0.287536 0.04792,0.315015 0.0758,0.07903 0.217368,-0.172264 0.217369,-0.385851 z m -5.053257,0.02513 c 0.01553,-0.219668 -0.0033,-0.28849 -0.07899,-0.28849 -0.148019,0 -0.191772,0.11897 -0.143142,0.389221 0.0586,0.325649 0.196406,0.263156 0.22213,-0.100731 z m 4.428277,-0.06377 c 0.04112,-0.268361 0.03279,-0.293864 -0.09609,-0.293864 -0.136987,0 -0.1776,0.115541 -0.145828,0.414866 0.04136,0.389639 0.173817,0.323385 0.241916,-0.121002 z m -5.078732,0.116922 c 0,-0.07381 -0.04477,-0.134208 -0.09948,-0.134208 -0.09837,0 -0.13906,0.212269 -0.05707,0.297746 0.06915,0.07209 0.156555,-0.01922 0.156555,-0.163538 z m 1.260122,-0.09964 c 0,-0.265054 -0.01965,-0.31115 -0.132644,-0.31115 -0.105848,0 -0.132645,0.0461 -0.132645,0.228176 0,0.216212 0.0958,0.394124 0.212232,0.394124 0.02918,0 0.05306,-0.140018 0.05306,-0.31115 z m 2.513757,0.0934 c 0.12508,-0.374073 0.09617,-0.542837 -0.093,-0.542837 -0.143034,0 -0.165681,0.03086 -0.1649,0.224719 0.0011,0.280799 0.06443,0.53587 0.132986,0.53587 0.02865,0 0.08486,-0.09799 0.124909,-0.217752 z m 0.671582,-0.06607 c 0.09095,-0.352131 0.04509,-0.493328 -0.1508,-0.464328 -0.114169,0.0169 -0.154382,0.07451 -0.170076,0.243661 -0.02138,0.230437 0.07973,0.504492 0.186137,0.504492 0.03379,0 0.09442,-0.127722 0.134739,-0.283825 z m -2.563256,-0.17804 c 0.0067,-0.220828 -0.01378,-0.264152 -0.124666,-0.264152 -0.110724,0 -0.129742,0.03999 -0.115084,0.242006 0.0097,0.133103 0.03302,0.286102 0.05192,0.339998 0.05987,0.170781 0.179173,-0.0311 0.187834,-0.317852 z m 0.649851,-0.05898 c 0.01752,-0.168344 -0.0054,-0.209138 -0.127875,-0.227267 -0.170693,-0.02527 -0.196782,0.124694 -0.07824,0.449747 0.05718,0.156796 0.08205,0.174039 0.127875,0.08867 0.03129,-0.05829 0.0665,-0.198306 0.07824,-0.31115 z m 0.62047,0.01955 c 0.04368,-0.247802 0.0377,-0.259292 -0.134865,-0.259292 -0.17267,0 -0.178531,0.01132 -0.134004,0.258765 0.08311,0.461884 0.187513,0.462089 0.268869,5.27e-4 z M 11.249625,15.677777 c 0,-0.420039 -0.09782,-0.58293 -0.193128,-0.321592 -0.03857,0.105768 -0.07013,0.250485 -0.07013,0.321592 0,0.07111 0.03156,0.215824 0.07013,0.321592 0.0953,0.261339 0.193128,0.09845 0.193128,-0.321592 z m -0.799513,-0.276578 c -0.002,-0.285221 -0.02671,-0.580119 -0.05489,-0.65533 -0.04923,-0.13138 -0.05452,-0.130358 -0.134811,0.02604 -0.07971,0.155281 -0.05578,0.86285 0.04088,1.208868 0.07258,0.25982 0.152534,-0.05154 0.148821,-0.579578 z m -0.5868565,0.121379 c 0.05727,-0.22173 0.05673,-0.382336 -0.0022,-0.656872 -0.08832,-0.411465 -0.169597,-0.463054 -0.235638,-0.149574 -0.05604,0.26598 0.047,1.099934 0.1359,1.099934 0.01438,0 0.06025,-0.13207 0.101938,-0.293488 z m -0.668605,-0.445314 c 5.59e-4,-0.197178 -0.0331,-0.446098 -0.07479,-0.553155 l -0.0758,-0.194649 -0.05589,0.242006 c -0.05211,0.225649 -0.02907,0.622155 0.05378,0.9253 0.06147,0.224904 0.15157,-0.02264 0.152694,-0.419502 z m 3.1834675,-0.164146 c 6.3e-4,-0.281267 -0.03427,-0.503823 -0.0919,-0.585983 -0.08671,-0.123621 -0.09809,-0.112433 -0.170374,0.167433 -0.08092,0.31329 -0.03868,0.80541 0.08254,0.961763 0.11579,0.149343 0.1786,-0.0405 0.179726,-0.543213 z m -0.76169,-0.0858 c 0,-0.538244 -0.06943,-0.905673 -0.160103,-0.847251 -0.103431,0.06664 -0.127336,0.481001 -0.05733,0.993704 0.08871,0.649647 0.21743,0.562945 0.21743,-0.146453 z m -0.73664,0.395368 c 0.07034,-0.191107 0.03756,-0.81637 -0.05408,-1.031512 l -0.08836,-0.207433 -0.06469,0.172861 c -0.06125,0.163677 -0.05513,0.443455 0.0208,0.950736 0.03604,0.240811 0.120834,0.2933 0.186334,0.115348 z m -2.2646862,-0.58964 c 0.01329,-0.694693 -0.134124,-1.14693 -0.239822,-0.735736 -0.06048,0.235296 -0.04983,0.5592 0.03139,0.954002 0.09578,0.465588 0.197389,0.35918 0.208434,-0.218266 z m 8.6647912,0.336003 c 0.135834,-0.439058 0.154052,-0.770803 0.0503,-0.916055 -0.05428,-0.076 -0.115456,-0.120707 -0.135941,-0.09935 -0.07639,0.07964 -0.127722,1.240126 -0.05485,1.240126 0.03903,0 0.102249,-0.101124 0.140487,-0.22472 z M 7.4443738,14.733928 c 0.05313,-0.295254 -0.04255,-0.895943 -0.138891,-0.871988 -0.07574,0.01883 -0.1262,0.727425 -0.06878,0.965936 0.05693,0.236496 0.1563,0.191544 0.207672,-0.09395 z M 18.08134,14.581268 c 0.0369,-0.138494 0.0668,-0.36071 0.06644,-0.493813 -6.75e-4,-0.252898 -0.08939,-0.472347 -0.149743,-0.370391 -0.05334,0.09012 -0.180483,0.853029 -0.180483,1.083001 0,0.17174 0.01523,0.190026 0.09835,0.118105 0.05409,-0.0468 0.128538,-0.198408 0.165436,-0.336902 z M 8.0671728,14.415891 c -0.0011,-0.544432 -0.08084,-0.789393 -0.196935,-0.605014 -0.08651,0.137395 -0.08407,0.422663 0.0069,0.799115 0.110088,0.455807 0.191226,0.372952 0.190077,-0.194101 z M 14.06171,14.55418 c 0.09006,-0.35037 0.02113,-1.227314 -0.09647,-1.227314 -0.03045,0 -0.09076,0.123144 -0.134012,0.273653 -0.06161,0.214379 -0.06022,0.364151 0.0064,0.691445 0.08961,0.440238 0.157808,0.52004 0.224082,0.262216 z m 4.814247,-0.605014 c 0.0011,-0.371179 -0.09986,-0.480777 -0.182807,-0.19842 -0.08739,0.297498 -0.141748,0.871287 -0.08787,0.927521 0.06871,0.07171 0.269899,-0.470221 0.270673,-0.729101 z M 6.9913078,13.812528 c 0.02229,-0.407497 0.0062,-0.65153 -0.05007,-0.76121 -0.114528,-0.223103 -0.171496,-0.09045 -0.227913,0.530702 -0.05287,0.58209 0.05713,1.180601 0.176214,0.958761 0.03793,-0.07066 0.08373,-0.398376 0.101767,-0.728253 z m 3.2293942,0.179085 c -0.0222,-0.123353 -0.06792,-0.268932 -0.101602,-0.323509 -0.05287,-0.08567 -0.07017,-0.08505 -0.1265515,0.0045 -0.08655,0.137461 -0.08346,0.387741 0.009,0.726017 l 0.07558,0.276578 0.09197,-0.229647 c 0.05357,-0.133747 0.07512,-0.323304 0.05162,-0.453923 z m -0.6934245,0.09501 c 0,-0.446148 -0.117786,-0.825895 -0.209455,-0.675293 -0.07794,0.128052 -0.06799,0.868967 0.01382,1.028325 0.115155,0.224325 0.195639,0.07909 0.19564,-0.353032 z M 6.3373228,14.28457 c 0.08548,-0.255656 0.0977,-1.002648 0.01725,-1.054488 -0.07354,-0.04738 -0.209726,0.580144 -0.209726,0.966364 0,0.357392 0.08884,0.398067 0.192478,0.08812 z m 6.3908782,-0.379694 c 0.0062,-0.538642 -0.06071,-0.83715 -0.163577,-0.729907 -0.07895,0.08231 -0.09325,0.780321 -0.02272,1.109467 0.07818,0.364889 0.180132,0.157183 0.186297,-0.37956 z m 0.61256,0.459306 c 0.02313,-0.07598 0.04486,-0.301561 0.04828,-0.501298 0.01028,-0.599543 -0.152068,-0.91092 -0.23891,-0.458231 -0.118568,0.618066 0.04458,1.43927 0.19063,0.959529 z m 1.489945,-0.48009 c -0.0013,-0.211401 -0.04363,-0.462122 -0.09408,-0.557158 l -0.09172,-0.172793 -0.05384,0.207365 c -0.07001,0.269664 -0.07104,0.860736 -0.0018,1.037099 0.05362,0.136568 0.05547,0.136619 0.149037,0.0041 0.0562,-0.07961 0.09379,-0.290589 0.0924,-0.518583 z m 0.625316,0.439713 c 0.06085,-0.165319 0.04627,-0.949117 -0.01967,-1.057656 -0.118012,-0.194246 -0.205366,0.0074 -0.205366,0.474009 0,0.484427 0.03992,0.693019 0.132644,0.693019 0.02867,0 0.07025,-0.04922 0.09239,-0.109372 z m 0.792664,-0.481949 c -0.0044,-0.369207 -0.119552,-0.684608 -0.225157,-0.616563 -0.08564,0.05518 -0.07991,0.806779 0.008,1.047808 0.06785,0.186049 0.07431,0.188539 0.146145,0.05636 0.04134,-0.07606 0.0733,-0.295481 0.07102,-0.487604 z m 3.108779,0.275665 c 0.0606,-0.224045 0.01101,-0.652366 -0.07554,-0.652366 -0.06692,0 -0.137929,0.345563 -0.137929,0.671277 0,0.29004 0.133084,0.27825 0.213464,-0.01891 z M 12.014579,14.01697 c 0.05116,-0.315683 -0.01543,-0.946953 -0.106038,-1.005338 -0.109571,-0.0706 -0.205719,0.343487 -0.172448,0.742691 0.05052,0.606112 0.199982,0.747077 0.278486,0.262647 z m 4.874466,-0.202235 c 0,-0.392295 -0.153506,-0.849401 -0.222395,-0.66224 -0.06743,0.183183 -0.05013,0.791662 0.02676,0.941442 0.108546,0.211451 0.195639,0.08716 0.195639,-0.279202 z M 8.9140065,13.312638 c -0.0382,-0.556617 -0.1399497,-0.734015 -0.2491927,-0.434459 -0.07009,0.192205 -0.05676,0.344653 0.0783,0.895163 0.05818,0.237147 0.07624,0.256646 0.1354697,0.146298 0.0385,-0.07172 0.05396,-0.336798 0.03542,-0.607002 z m 2.2713275,0.160983 c 0,-0.371316 -0.02833,-0.569202 -0.08901,-0.6217 -0.133252,-0.115295 -0.176284,-0.02438 -0.176284,0.372434 0,0.381986 0.106607,0.793955 0.205454,0.793955 0.03291,0 0.05983,-0.24511 0.05983,-0.544689 z m -5.3057792,0.418453 c 0,-0.0314 -0.06885,-0.124527 -0.153005,-0.206949 -0.117294,-0.114881 -0.171215,-0.130874 -0.231023,-0.06852 -0.120393,0.125517 -0.177038,0.0079 -0.091,-0.188983 0.106977,-0.244778 0.09657,-0.689274 -0.01847,-0.788809 -0.07964,-0.0689 -0.102382,-0.03862 -0.136465,0.181681 -0.08043,0.51988 -0.105363,0.581228 -0.267497,0.658245 -0.202563,0.09622 -0.284933,0.02483 -0.177765,-0.154079 0.09783,-0.163319 0.106575,-0.550949 0.01243,-0.550949 -0.03738,0 -0.09519,0.07465 -0.128459,0.165884 -0.0671,0.183992 -0.325055,0.401296 -0.410792,0.346053 -0.03026,-0.0195 0.0044,-0.156979 0.07713,-0.305512 0.132702,-0.271188 0.179695,-0.690436 0.07739,-0.690436 -0.106693,0 -0.355684,0.336264 -0.441345,0.596038 -0.112655,0.341635 -0.213054,0.369262 -0.325821,0.08965 -0.156596,-0.38828 0.07254,-0.892495 0.579312,-1.274792 0.602163,-0.454255 1.763843,-1.108799 2.309575,-1.301321 0.876099,-0.309068 2.4647397,-0.4007234 3.8688792,-0.223211 2.722149,0.344135 2.652418,0.340069 3.785703,0.220759 1.199047,-0.126234 1.218154,-0.129708 2.865928,-0.5209954 3.062322,-0.72719 5.921415,-0.441976 8.98321,0.8961384 1.673819,0.731518 2.023699,0.958453 2.182182,1.41538 0.0459,0.132351 0.09985,0.240426 0.119882,0.240166 0.02003,-2.6e-4 0.1072,-0.108832 0.193711,-0.241273 C 29.124786,11.311265 28.408666,9.5400116 26.985805,8.3093362 26.425317,7.8245532 25.81214,7.4405852 25.054991,7.1002692 24.527824,6.8633242 24.088864,6.7378962 21.896373,6.1977322 21.118774,6.0061553 20.394725,5.7140362 19.196644,5.1085204 17.056666,4.0269662 16.124504,3.7987116 14.15649,3.8743583 c -1.136111,0.04367 -1.84394,0.1805671 -2.957083,0.5719126 -1.2732375,0.4476295 -2.3293502,1.055034 -3.7944412,2.1823043 -0.419488,0.322762 -1.134954,0.849182 -1.589924,1.169823 -1.381721,0.9737664 -2.26726,2.0307924 -2.714696,3.2404038 -0.652935,1.765165 0.233096,2.836483 2.397856,2.899298 0.209744,0.0061 0.381353,-0.01463 0.381353,-0.04603 z M 28.099424,10.865577 c -0.1091,-0.250855 -0.33004,-0.647572 -0.490976,-0.8815934 -0.285587,-0.415275 -1.17342,-1.356335 -1.496612,-1.5863354 -0.207103,-0.147385 -0.127499,-0.23683 0.11026,-0.12389 0.545019,0.258894 1.533448,1.3771124 1.869046,2.1144678 0.168192,0.369542 0.310145,0.93345 0.234978,0.93345 -0.01558,0 -0.117595,-0.205244 -0.226696,-0.456099 z M 3.6911698,11.027813 c 6.39e-4,-0.22277 0.543162,-0.950737 0.708543,-0.950737 0.134498,0 0.113034,0.04261 -0.280522,0.556847 -0.379434,0.495787 -0.428443,0.540888 -0.428021,0.39389 z M 27.202674,10.440085 c -0.137712,-0.21867 -0.353198,-0.5302624 -0.478858,-0.6924284 -0.338861,-0.437303 -0.226517,-0.530044 0.145389,-0.12002 0.316891,0.349371 0.580511,0.7691854 0.66214,1.0544534 0.07922,0.276838 -0.07207,0.165443 -0.328671,-0.242005 z m -22.5169192,0.19284 c 0,-0.102495 0.277867,-0.348472 0.344876,-0.305296 0.08611,0.05548 -0.162608,0.367868 -0.295134,0.370689 -0.02736,5.82e-4 -0.04974,-0.02885 -0.04974,-0.06539 z M 25.827182,9.7426516 c -0.441653,-0.452922 -0.520069,-0.562571 -0.40293,-0.563411 0.166502,-0.0012 0.919559,0.69262 0.98497,0.9074844 0.08625,0.283314 -0.04718,0.204439 -0.58204,-0.3440734 z m -0.890865,-0.03424 c -0.200027,-0.112729 -0.619182,-0.519598 -0.619182,-0.601033 0,-0.115303 0.08888,-0.0749 0.397933,0.180889 0.407346,0.337144 0.548037,0.604311 0.221249,0.420144 z M 13.455291,9.3732846 c 0.03635,-0.113683 0.2344,-0.234699 0.289718,-0.177026 0.0631,0.06578 -0.100091,0.258517 -0.218884,0.258517 -0.05329,0 -0.08516,-0.03667 -0.07083,-0.08149 z m -0.678224,-0.0552 c 0,-0.09647 0.326363,-0.306729 0.383423,-0.247014 0.02622,0.02744 -0.02279,0.109442 -0.108901,0.182228 -0.171734,0.145151 -0.274522,0.169409 -0.274522,0.06479 z m -0.663222,-0.05691 c 0,-0.09771 0.155539,-0.221262 0.278553,-0.221262 0.172597,0 0.146559,0.103181 -0.04955,0.196334 -0.20006,0.09503 -0.229007,0.09818 -0.229007,0.02493 z m 11.291359,-0.02907 c -0.17928,-0.09014 -0.195127,-0.192187 -0.02985,-0.192187 0.123014,0 0.278553,0.123549 0.278553,0.221262 0,0.07133 -0.06387,0.06386 -0.248708,-0.02907 z m 2.17251,-0.472989 C 24.964863,8.2562342 24.856796,8.0685022 25.325688,8.3212932 c 0.230712,0.124383 0.848469,0.7048314 0.848469,0.7972264 0,0.109185 -0.09552,0.05163 -0.596443,-0.359408 z m -15.387214,0.2882 c 0,-0.07632 0.172085,-0.150665 0.223841,-0.09671 0.02081,0.0217 0.02197,0.06623 0.0026,0.09895 -0.04656,0.07854 -0.226411,0.07676 -0.226411,-0.0023 z m 1.326445,-0.0073 c 0,-0.09755 0.383701,-0.287445 0.428412,-0.212022 0.0428,0.0722 -0.0011,0.108293 -0.253051,0.20817 -0.108105,0.04285 -0.175361,0.04433 -0.175361,0.0038 z m -0.60536,-0.161456 c 0.05006,-0.06335 0.167951,-0.115186 0.261973,-0.115186 0.214373,0 0.120718,0.109103 -0.15403,0.179437 -0.180218,0.04613 -0.19039,0.04008 -0.107943,-0.06425 z m 3.656182,-0.08061 c 0.156002,-0.173122 0.331611,-0.2301244 0.331611,-0.107638 0,0.08692 -0.269904,0.280499 -0.39109,0.280499 -0.06831,0 -0.05102,-0.05023 0.05948,-0.172861 z m 9.964915,-0.149387 C 24.118755,8.3386842 24.010437,8.1937892 24.239371,8.2562042 c 0.159438,0.04347 0.756559,0.5175144 0.791258,0.6281684 0.0443,0.141267 -0.06064,0.09157 -0.497947,-0.23581 z m -0.97583,0.0081 C 23.375798,8.5261202 23.196728,8.4076342 23.158919,8.3933632 c -0.03781,-0.01427 -0.04755,-0.04972 -0.02164,-0.07877 0.06691,-0.07502 0.65682,0.261075 0.769908,0.4386434 0.131878,0.207069 0.03298,0.179806 -0.350339,-0.09657 z m -9.585985,0.04267 c 0,-0.08041 0.265246,-0.3508494 0.344117,-0.3508494 0.06642,0 0.06776,0.07877 0.0031,0.179796 -0.07489,0.1169404 -0.347176,0.2510914 -0.347176,0.1710534 z m 8.472665,-0.04467 c -0.161817,-0.09152 -0.249397,-0.2370294 -0.142668,-0.2370294 0.0957,0 0.490859,0.2289964 0.490859,0.2844564 0,0.08941 -0.139967,0.07034 -0.348191,-0.04743 z m -9.202209,-0.0593 c 0,-0.1054434 0.192129,-0.2468724 0.335372,-0.2468724 0.100959,0 -0.0392,0.185336 -0.213854,0.2827864 -0.09271,0.05173 -0.121518,0.04321 -0.121518,-0.03591 z m -7.6270572,-0.03303 c 0,-0.158256 0.955953,-0.838996 1.168468,-0.832072 0.120659,0.0039 0.120753,0.0068 0.0028,0.08643 -0.0671,0.0453 -0.27602,0.201545 -0.464256,0.34721 -0.41982,0.324875 -0.707022,0.486723 -0.707022,0.398431 z m 6.8975122,-0.0025 c 0,-0.08987 0.272394,-0.281049 0.39611,-0.278012 0.06573,0.0016 0.03143,0.0622 -0.09766,0.172517 -0.211514,0.180754 -0.29845,0.211483 -0.29845,0.105495 z M 7.3073248,7.9408232 c 0.07194,-0.07208 0.205415,-0.151625 0.296608,-0.176756 l 0.165806,-0.04569 -0.186085,0.176756 c -0.226746,0.215379 -0.488948,0.258736 -0.276329,0.04569 z m 13.7434402,0.0507 c -0.197767,-0.0753 -0.246166,-0.196213 -0.07854,-0.196213 0.140926,0 0.360412,0.127806 0.360412,0.209866 0,0.07975 -0.04191,0.07772 -0.281869,-0.01365 z m 1.1072,-0.08568 c -0.07298,-0.05329 -0.204127,-0.107746 -0.291432,-0.121003 -0.179854,-0.02731 -0.270888,-0.196966 -0.105689,-0.196966 0.130588,0 0.607652,0.247115 0.665521,0.344735 0.06104,0.102967 -0.114747,0.08544 -0.2684,-0.02677 z m 1.893881,-0.167207 c -0.348365,-0.205642 -0.402201,-0.258753 -0.280535,-0.276756 0.159504,-0.0236 0.75029,0.316057 0.795459,0.45733 0.04054,0.126812 -0.04505,0.0968 -0.514924,-0.180574 z m 1.115458,0.08912 c -0.336982,-0.182944 -0.45486,-0.309022 -0.288923,-0.309022 0.126288,0 0.632554,0.339394 0.632554,0.424055 0,0.07589 0.02098,0.08291 -0.343631,-0.115033 z m -2.139496,-0.134063 c -0.27114,-0.129399 -0.428669,-0.240055 -0.383329,-0.269269 0.139769,-0.09006 0.986559,0.363842 0.869659,0.466158 -0.01432,0.01253 -0.233166,-0.07607 -0.48633,-0.196889 z M 7.5376108,7.3171862 c 0,-0.112174 0.64271,-0.559045 0.804044,-0.559045 0.121302,0 0.05679,0.06954 -0.288672,0.31115 -0.467838,0.327204 -0.515372,0.350067 -0.515372,0.247895 z m 1.05865,-0.146988 c 0.218652,-0.194847 0.4013897,-0.264704 0.3996177,-0.152765 -0.0011,0.07194 -0.4428147,0.363637 -0.5454067,0.360198 -0.04611,-0.0015 0.0195,-0.09489 0.145789,-0.207433 z m 1.1963057,-0.654063 c 0.147872,-0.1641 0.3979335,-0.237323 0.3979335,-0.116523 0,0.05274 -0.4180595,0.289385 -0.5112285,0.289385 -0.02336,0 0.02762,-0.07779 0.113295,-0.172862 z m -0.862189,-0.104733 c 0,-0.08151 0.3918,-0.344066 0.513997,-0.344447 0.157384,-4.907e-4 0.08207,0.113053 -0.174836,0.263587 -0.289544,0.169658 -0.339161,0.181487 -0.339161,0.08086 z M 19.070524,6.2496292 c -0.445447,-0.1910373 -0.786551,-0.4043005 -0.95258,-0.5955668 -0.164462,-0.1894625 -0.0147,-0.1840332 0.24517,0.00889 0.110695,0.082175 0.424623,0.2506403 0.69762,0.3743667 0.272997,0.1237261 0.528761,0.2587391 0.568366,0.3000291 0.123665,0.128928 -0.155721,0.08505 -0.558576,-0.08772 z m -1.186645,-0.05552 c -0.127671,-0.08175 -0.196845,-0.1613161 -0.153721,-0.1768019 0.08832,-0.031715 0.454958,0.1496459 0.518201,0.2563289 0.07008,0.118225 -0.120663,0.07661 -0.36448,-0.07953 z m 2.275287,-0.02244 c -0.862805,-0.3462597 -2.34161,-1.164307 -2.34161,-1.2953351 0,-0.1312173 0.295137,-0.030097 0.807217,0.2765711 0.831393,0.4978935 1.999715,1.052082 2.217965,1.052082 0.04627,0 0.10258,0.03111 0.125124,0.06915 0.07429,0.125316 -0.386643,0.06692 -0.808696,-0.102463 z M 15.973798,5.9837234 c -0.206628,-0.2154214 6.6e-5,-0.2607876 0.252025,-0.055316 l 0.165805,0.1352139 -0.169121,0.00154 c -0.09302,8.456e-4 -0.204936,-0.0358 -0.248709,-0.081436 z m 0.6997,-0.2078345 c -0.319654,-0.1434 -0.410115,-0.2625596 -0.198967,-0.2620894 0.147739,3.29e-4 0.547159,0.2517721 0.547159,0.3444475 0,0.038588 -0.0075,0.067642 -0.01658,0.064564 -0.0091,-0.00308 -0.158344,-0.069193 -0.331611,-0.1469224 z m 0.431094,-0.3504885 c -0.353073,-0.2248751 -0.43016,-0.3267261 -0.247286,-0.3267261 0.149749,0 0.628639,0.349377 0.628639,0.4586273 0,0.1190464 0.0277,0.1286264 -0.381353,-0.1319012 z m -2.604477,-0.017247 c -0.04614,-0.057963 -0.06749,-0.1224875 -0.04744,-0.1433873 0.03785,-0.039465 0.446708,0.158211 0.446708,0.2159784 0,0.080927 -0.323939,0.022031 -0.399263,-0.072591 z m 0.681133,-0.1704323 c -0.190154,-0.1208725 -0.28879,-0.2773357 -0.174836,-0.2773357 0.08398,0 0.556189,0.3043291 0.556189,0.3584546 0,0.095506 -0.15554,0.062421 -0.381353,-0.081119 z M 15.84447,5.0865812 c -0.118551,-0.076409 -0.215547,-0.1671763 -0.215547,-0.2017051 0,-0.1270855 0.202851,-0.057111 0.413467,0.1426269 0.249305,0.2364276 0.131706,0.2715301 -0.19792,0.059078 z M 13.404401,4.8866407 c -0.02404,-0.04056 -0.02719,-0.090969 -0.007,-0.1120207 0.05648,-0.058885 0.374503,0.041266 0.374503,0.1179383 0,0.091704 -0.312613,0.08667 -0.3675,-0.00592 z m 3.766514,-0.010646 C 17.088845,4.8347277 17.02169,4.7746038 17.02169,4.7423858 c 0,-0.1115642 0.245258,-0.05797 0.364772,0.079711 0.136993,0.1578169 0.03958,0.1821761 -0.215547,0.053898 z M 14.435123,4.7068924 c -0.358596,-0.058886 -0.464256,-0.097924 -0.464256,-0.1715283 0,-0.1070469 0.536065,-0.012079 0.660854,0.1170757 0.05341,0.055282 0.06833,0.096275 0.03316,0.091096 -0.03518,-0.00518 -0.138566,-0.021668 -0.229759,-0.036643 z m 1.681423,-0.022622 c -0.162092,-0.068183 -0.267354,-0.2078962 -0.156633,-0.2078962 0.08849,0 0.464877,0.1973776 0.464877,0.2437813 0,0.048986 -0.147227,0.031846 -0.308244,-0.035885 z M 15.120533,4.5666317 c -0.139559,-0.028374 -0.277128,-0.2285464 -0.157068,-0.2285464 0.130081,0 0.400169,0.1388489 0.400169,0.205722 0,0.038971 -0.02238,0.066618 -0.04974,0.06144 -0.02736,-0.00518 -0.114369,-0.022556 -0.193359,-0.038615 z m 2.621734,8.9849533 c 0.06876,-0.366417 0.01055,-0.916164 -0.09702,-0.916164 -0.0774,0 -0.225626,0.501214 -0.225626,0.762914 0,0.287696 0.09204,0.550831 0.192671,0.550831 0.03045,0 0.08894,-0.178912 0.129973,-0.397581 z m -7.186678,0.119501 c 0.05205,-0.247074 -0.007,-0.6581 -0.127868,-0.889993 l -0.08625,-0.165479 -0.04298,0.238859 c -0.02364,0.131373 -0.01284,0.404554 0.024,0.607069 0.03684,0.202516 0.06698,0.379521 0.06698,0.393345 0,0.01382 0.02747,0.02513 0.06105,0.02513 0.03358,0 0.08086,-0.09402 0.10507,-0.208935 z m -2.8592682,0.03042 c 0.06672,-0.181267 0.0453,-0.788763 -0.03319,-0.941682 -0.106779,-0.208009 -0.18978,-0.03574 -0.189917,0.394182 -1.75e-4,0.550569 0.116551,0.837008 0.223111,0.5475 z M 18.512698,13.238274 c 6.83e-4,-0.236495 -0.02435,-0.492221 -0.05562,-0.56828 l -0.05686,-0.138289 -0.05454,0.138289 c -0.06674,0.169224 -0.08132,1.030497 -0.01854,1.09594 0.102977,0.107359 0.1844,-0.124169 0.185566,-0.52766 z M 8.3003158,13.133261 c 0,-0.436536 -0.06345,-0.667507 -0.165337,-0.601858 -0.07304,0.04706 -0.09234,0.85303 -0.02482,1.036461 0.08086,0.219683 0.190161,-0.03012 0.19016,-0.434603 z m -2.182177,-0.05996 c 0.05796,-0.322086 -0.09184,-0.821354 -0.209594,-0.698586 -0.07478,0.07797 -0.114461,0.65119 -0.06435,0.929671 0.04415,0.245338 0.05342,0.253987 0.139959,0.130596 0.05098,-0.07268 0.111268,-0.235435 0.133985,-0.361681 z m 3.7403797,0.05934 c -4.45e-4,-0.307287 -0.117058,-0.773795 -0.193424,-0.773795 -0.149664,0 -0.120533,0.78261 0.03929,1.055581 0.06824,0.116551 0.154481,-0.04112 0.154134,-0.281786 z m 3.8715805,0.107797 c 0.103833,-0.40394 -0.0074,-1.150945 -0.157041,-1.054533 -0.126883,0.08175 -0.06516,1.210108 0.0662,1.210108 0.02797,0 0.06885,-0.07001 0.09084,-0.155575 z m 0.704008,-0.418947 c -9.84e-4,-0.481827 -0.07336,-0.753878 -0.172935,-0.650063 -0.121896,0.127084 -0.0152,1.269152 0.11098,1.187854 0.03463,-0.02232 0.06251,-0.264322 0.06196,-0.537791 z m 5.305778,0 c -0.0011,-0.540804 -0.0811,-0.7849 -0.196935,-0.600934 -0.08705,0.138244 -0.08542,0.872745 0.0023,1.043649 0.121903,0.237471 0.19567,0.06967 0.194623,-0.442715 z m -6.715015,-0.31075 c -0.02874,-0.494204 -0.116786,-0.731833 -0.211781,-0.571587 -0.07656,0.129146 -0.04729,1.009708 0.04022,1.209939 l 0.08263,0.189068 0.05915,-0.161221 c 0.03253,-0.08867 0.04593,-0.388461 0.02978,-0.666199 z m 2.762581,0.104812 c -0.0042,-0.497958 -0.108222,-0.850437 -0.228178,-0.773146 -0.08528,0.05495 -0.07926,0.832901 0.009,1.164315 0.109721,0.411971 0.224213,0.207626 0.219168,-0.391169 z m 4.69083,0.365593 c 0.06187,-0.2153 0.06175,-0.338297 -5.73e-4,-0.555151 -0.04403,-0.153215 -0.105062,-0.262462 -0.135624,-0.242769 -0.146497,0.09439 -0.1451,1.074498 0.0015,1.074498 0.03035,0 0.09095,-0.12446 0.134666,-0.276578 z m -3.987169,-0.197115 c 0,-0.437816 -0.1091,-0.863384 -0.205427,-0.801316 -0.08258,0.05321 -0.07557,0.907773 0.0088,1.072122 0.123762,0.241092 0.196633,0.140733 0.196633,-0.270806 z m 0.663222,-0.0041 c 0,-0.339532 -0.09672,-0.728202 -0.222853,-0.895545 -0.123463,-0.1638 -0.181643,0.258748 -0.09865,0.716447 0.121914,0.672311 0.321498,0.783494 0.321498,0.179098 z m 1.881543,0.253055 c 0.06981,-0.271585 0.04498,-0.712335 -0.04756,-0.844279 -0.126776,-0.180754 -0.199914,-0.03036 -0.190684,0.392103 0.01201,0.549834 0.147189,0.806395 0.238242,0.452176 z m -3.937532,-0.436699 c 0,-0.551445 -0.09749,-0.890639 -0.20508,-0.713526 -0.129254,0.212777 -0.0057,1.236655 0.149256,1.236655 0.0307,0 0.05582,-0.235408 0.05582,-0.523129 z m -8.4252732,-0.07863 c 0.0025,-0.240483 -0.11783,-0.573695 -0.207262,-0.573695 -0.06684,0 -0.07561,0.993335 -0.0094,1.062383 0.07253,0.07562 0.214043,-0.2436 0.216643,-0.488688 z m 2.5889167,-0.06374 c 0,-0.444195 -0.07666,-0.717391 -0.2013,-0.717391 -0.08654,0 -0.08174,0.942528 0.0057,1.112794 0.118438,0.230721 0.195639,0.07469 0.195639,-0.395403 z m 2.2794765,0.371634 c 0.09295,-0.361622 -0.02976,-0.998774 -0.215407,-1.118391 -0.150971,-0.09728 -0.132059,0.613643 0.03067,1.152964 0.05054,0.16749 0.136953,0.151318 0.184736,-0.03457 z m 0.797412,0.0462 c 0.120662,-0.327822 -0.0051,-1.273518 -0.169356,-1.273518 -0.08221,0 -0.100461,1.061677 -0.02229,1.296459 0.04006,0.120333 0.14347,0.107954 0.191649,-0.02294 z m 8.831953,-0.199697 c 0.04661,-0.259042 -0.07858,-0.752304 -0.175152,-0.690082 -0.06783,0.04371 -0.08367,0.718756 -0.02087,0.889381 0.0588,0.159745 0.14767,0.06939 0.196018,-0.199299 z m -13.9403102,0.0152 c 0.07412,-0.288362 0.04372,-0.92157 -0.05072,-1.056213 -0.08641,-0.123199 -0.09805,-0.11265 -0.176336,0.159756 -0.06688,0.232717 -0.06732,0.368505 -0.0022,0.671849 0.08666,0.403699 0.163798,0.479276 0.229261,0.224608 z m 3.4925262,-0.898877 c -0.04049,-0.142611 -0.106272,-0.259292 -0.146186,-0.259292 -0.09786,0 -0.03265,0.865776 0.08593,1.140883 0.08852,0.205363 0.08963,0.203292 0.11164,-0.207433 0.01223,-0.228177 -0.0109,-0.531548 -0.05138,-0.674158 z M 21.89453,12.575 c 0.04417,-0.20966 -0.0789,-0.838482 -0.1641,-0.838482 -0.129278,0 -0.163604,0.468205 -0.06223,0.84879 0.07752,0.291038 0.16367,0.287115 0.226328,-0.01031 z m -3.756008,-0.115718 c 0.147596,-0.337724 0.0531,-1.285027 -0.117233,-1.175274 -0.151042,0.09732 -0.159934,1.351388 -0.0096,1.351388 0.02742,0 0.08448,-0.07925 0.126815,-0.176114 z M 5.0836878,12.142275 c 0,-0.104575 -0.02586,-0.206797 -0.05746,-0.227159 -0.08966,-0.05777 -0.281397,0.203055 -0.24259,0.330011 0.117125,0.383169 0.102397,0.367279 0.205302,0.221504 0.05211,-0.07382 0.09475,-0.21978 0.09475,-0.324356 z m 2.848865,-0.01223 c -0.0017,-0.19741 -0.04161,-0.452273 -0.08881,-0.566361 -0.07651,-0.184945 -0.09003,-0.192441 -0.124702,-0.06914 -0.111315,0.395887 -0.116175,0.589507 -0.02078,0.827547 0.134899,0.336597 0.237989,0.252096 0.234287,-0.192042 z m 2.1550742,0.07932 c -0.0036,-0.324544 -0.1378035,-0.749394 -0.2367845,-0.749394 -0.08595,0 -0.07083,0.610863 0.02172,0.877693 0.10875,0.313541 0.2191935,0.247655 0.2150645,-0.128299 z m -1.4888602,-0.09335 c 0,-0.311217 -0.110176,-0.656045 -0.209613,-0.656045 -0.07764,0 -0.0698,0.643706 0.01052,0.863966 0.09425,0.25843 0.199091,0.148934 0.199093,-0.207921 z m -2.984501,-0.125942 c 0,-0.400015 -0.02965,-0.471295 -0.172289,-0.414229 -0.112841,0.04514 -0.121316,0.365977 -0.01603,0.606885 0.120985,0.276833 0.188321,0.207947 0.188319,-0.192656 z m 11.9667872,0.05762 c 0.04887,-0.271566 -0.01073,-0.714232 -0.114482,-0.850292 -0.10854,-0.142344 -0.177407,0.034 -0.178577,0.457257 -0.0016,0.581049 0.208518,0.862855 0.293059,0.393035 z m -3.487771,-0.492075 c 0.02497,-0.515543 0.0233,-0.521901 -0.131464,-0.499071 -0.142781,0.02106 -0.155684,0.05381 -0.144724,0.367302 0.03285,0.939837 0.232436,1.035056 0.276188,0.131769 z m 6.03223,0.229122 c 0.02007,-0.394782 -0.0734,-0.708248 -0.188972,-0.633781 -0.06994,0.04506 -0.08662,0.786678 -0.02166,0.963146 0.08215,0.223193 0.191217,0.05265 0.210634,-0.329365 z M 6.2751378,11.550477 c 0.0026,-0.32733 -0.06766,-0.409039 -0.249904,-0.290385 -0.107953,0.07029 -0.117337,0.12484 -0.06879,0.399923 0.03092,0.175194 0.07319,0.365206 0.09394,0.42225 0.06308,0.17339 0.222087,-0.202845 0.224754,-0.531788 z m 7.1335552,0.233859 c 0.06705,-0.466166 0.02163,-0.704665 -0.134209,-0.704665 -0.117052,0 -0.130799,0.04064 -0.116943,0.345722 0.03139,0.691153 0.174043,0.895029 0.251152,0.358943 z m 7.389998,-0.358943 c 0.0017,-0.437081 -0.08164,-0.60229 -0.193692,-0.384013 -0.09287,0.180919 -0.119033,0.830106 -0.0389,0.965285 0.09264,0.156274 0.231078,-0.1897 0.23259,-0.581272 z m 2.082597,0.432153 c 0.04429,-0.261912 -0.03379,-0.708731 -0.123847,-0.708731 -0.129203,0 -0.189479,0.367075 -0.107258,0.653183 0.09727,0.338478 0.179897,0.358337 0.231105,0.05555 z m 0.67192,0.02308 c 0.04767,-0.2263 -0.01889,-0.697241 -0.09855,-0.697241 -0.07685,0 -0.132359,0.188473 -0.132359,0.449439 0,0.444286 0.154567,0.610164 0.230907,0.247802 z m -4.098139,-0.263524 c 0.0226,-0.175701 -7.38e-4,-0.346203 -0.06487,-0.473807 l -0.10018,-0.199337 -0.0749,0.289984 c -0.06635,0.256882 -0.04755,0.563125 0.04502,0.733342 0.05843,0.107444 0.159388,-0.07393 0.19493,-0.350182 z m 2.035982,-0.222813 c 0.0048,-0.426064 -0.06852,-0.637468 -0.165691,-0.477578 -0.0665,0.109418 -0.07619,0.711437 -0.01527,0.948715 0.03862,0.150422 0.04734,0.153456 0.109288,0.03804 0.03703,-0.06898 0.06928,-0.29811 0.07167,-0.509181 z m 2.852149,0.509457 c 0.05903,-0.160363 0.04937,-0.340639 -0.02987,-0.557942 -0.05615,-0.153957 -0.08239,-0.17209 -0.131629,-0.09093 -0.101399,0.167145 -0.0789,0.758246 0.02886,0.758246 0.05081,0 0.110503,-0.04922 0.132644,-0.109372 z m -9.683045,-0.06914 c 0.02214,-0.06015 0.04026,-0.281289 0.04026,-0.491409 0,-0.31996 -0.01705,-0.375218 -0.104908,-0.340067 -0.0577,0.02308 -0.117389,0.04197 -0.132644,0.04197 -0.04318,0 -0.0326,0.666918 0.01252,0.789506 0.02214,0.06015 0.06372,0.109372 0.09239,0.109372 0.02867,0 0.07025,-0.04922 0.09239,-0.109372 z m 4.111978,0 c 0.06658,-0.180891 0.04534,-0.708923 -0.03048,-0.757777 -0.09827,-0.06332 -0.128085,-0.01711 -0.172323,0.2671 -0.06482,0.416458 0.09119,0.79392 0.202801,0.490677 z m 3.529608,-0.06975 c 0.05108,-0.212178 -0.08569,-0.74159 -0.176476,-0.683095 -0.07108,0.0458 -0.08724,0.744845 -0.01887,0.816124 0.08589,0.08955 0.15272,0.04404 0.195346,-0.133029 z M 11.848556,11.38674 c 0,-0.225932 -0.02984,-0.415453 -0.06632,-0.421157 -0.216372,-0.03384 -0.231109,-0.01632 -0.212358,0.252377 0.02369,0.339522 0.140903,0.66834 0.220055,0.61734 0.03224,-0.02078 0.05862,-0.222627 0.05862,-0.44856 z m 3.515078,0.0041 c 0,-0.437915 -0.01263,-0.484011 -0.132644,-0.484011 -0.156331,0 -0.172876,0.187058 -0.05845,0.660826 0.108905,0.450908 0.191093,0.374861 0.191094,-0.176815 z m 0.74138,-0.103717 c 0.01962,-0.445326 0.01072,-0.484011 -0.111319,-0.484011 -0.118807,0 -0.132032,0.04406 -0.126777,0.422324 0.01142,0.821979 0.202418,0.871463 0.238096,0.06169 z m 0.638016,-0.197861 c -0.01451,-0.260551 -0.04632,-0.355294 -0.119274,-0.355294 -0.0769,0 -0.103986,0.108305 -0.119322,0.477151 -0.01091,0.262433 1.37e-4,0.52691 0.02455,0.587728 0.07931,0.197557 0.235695,-0.320889 0.214046,-0.709585 z m -9.9349642,0.267006 c 0,-0.295407 -0.02267,-0.380295 -0.101564,-0.380295 -0.151923,0 -0.191161,0.185022 -0.103746,0.489202 0.110883,0.385846 0.20531,0.335757 0.20531,-0.108907 z m 5.8899122,-0.02266 c 0.01781,-0.251971 0.0031,-0.28849 -0.116064,-0.28849 -0.145831,0 -0.16064,0.06409 -0.09449,0.408924 0.05797,0.302177 0.185848,0.22903 0.210553,-0.120434 z M 9.5272775,11.110162 c 0,-0.39123 -0.0078,-0.410786 -0.164537,-0.410786 -0.157841,0 -0.162865,0.01337 -0.123455,0.328437 0.08578,0.685787 0.287992,0.743608 0.287992,0.08235 z m -0.6760087,-0.07248 c -0.01747,-0.319705 -0.03929,-0.372882 -0.153019,-0.372882 -0.11529,0 -0.130195,0.03959 -0.11392,0.302587 0.02227,0.359787 0.130435,0.606731 0.223342,0.509871 0.03518,-0.03668 0.0548,-0.234492 0.0436,-0.439576 z m -1.346346,0.282437 c 0.07122,-0.23394 -0.02757,-0.551602 -0.171548,-0.551602 -0.148036,0 -0.155191,0.06002 -0.05056,0.424131 0.08529,0.296772 0.157878,0.338435 0.222103,0.127471 z m 2.7518992,-0.20588 c 0,-0.322674 -0.01105,-0.345722 -0.165805,-0.345722 -0.1923305,0 -0.1863035,-0.01825 -0.093641,0.283546 0.039691,0.12927 0.083521,0.273931 0.097401,0.321468 0.06251,0.214076 0.162046,0.05481 0.162045,-0.259292 z m 0.85044,-0.0085 c -0.01689,-0.184222 -0.05422,-0.238354 -0.176828,-0.256452 -0.164921,-0.02435 -0.164863,0.0048 9.31e-4,0.466353 0.08354,0.23255 0.203356,0.08957 0.175897,-0.209901 z m -2.9064292,-0.06065 c 0,-0.32726 -0.0093,-0.345723 -0.174483,-0.345723 -0.163196,0 -0.171985,0.01606 -0.135854,0.248176 0.03939,0.253092 0.147569,0.443269 0.252136,0.443269 0.03201,0 0.0582,-0.155575 0.0582,-0.345722 z M 24.76801,11.017269 c -0.02648,-0.192306 -0.251909,-0.238887 -0.251909,-0.05205 0,0.07574 0.01841,0.187715 0.04091,0.24884 0.05868,0.15942 0.237137,-0.007 0.211002,-0.196786 z m -0.743436,-0.0066 c 0.05714,-0.237353 -0.0083,-0.380449 -0.174083,-0.380449 -0.112845,0 -0.131075,0.02945 -0.0963,0.155575 0.02359,0.08557 0.05746,0.210026 0.07526,0.276578 0.04682,0.17504 0.146923,0.148515 0.195124,-0.0517 z m -6.816495,-0.264791 c 0.02184,-0.2694 0.01614,-0.277566 -0.147804,-0.211977 -0.108813,0.04353 -0.135048,0.210554 -0.06358,0.404736 0.06887,0.187115 0.189505,0.07711 0.211379,-0.192759 z m 6.124363,0.130757 c 0.08463,-0.193638 0.03923,-0.369294 -0.11098,-0.429386 -0.151986,-0.06081 -0.173833,-0.0063 -0.125012,0.312029 0.04972,0.324162 0.128491,0.363335 0.235992,0.117357 z m -5.410677,-0.06856 c 0.05772,-0.23974 -0.02496,-0.454429 -0.175,-0.454429 -0.0974,0 -0.128175,0.04844 -0.128175,0.201778 0,0.411777 0.220608,0.595621 0.303175,0.252651 z m 1.850594,-0.03613 c 0.05565,-0.1122 0.101186,-0.316729 0.101186,-0.454509 0,-0.201265 -0.02281,-0.245978 -0.116063,-0.227459 -0.0931,0.01849 -0.11997,0.108398 -0.13581,0.454509 -0.01086,0.237302 -0.0042,0.431458 0.01488,0.431458 0.01904,0 0.08016,-0.0918 0.135809,-0.203999 z m 2.157175,-0.176295 c 0,-0.334198 -0.01608,-0.380295 -0.132644,-0.380295 -0.151345,0 -0.165752,0.11494 -0.06283,0.501298 0.100317,0.376594 0.195479,0.317688 0.195479,-0.121003 z m -3.33837,-0.125792 c 0.03724,-0.239214 0.02913,-0.254503 -0.134869,-0.254503 -0.154399,0 -0.174483,0.02721 -0.174483,0.236351 0,0.129992 0.019,0.28798 0.04223,0.351083 0.06416,0.174317 0.218015,-0.01744 0.267122,-0.332931 z m 4.039364,0.26955 c 0.05834,-0.242356 0.01081,-0.415347 -0.121436,-0.441898 -0.122842,-0.02466 -0.151304,0.151034 -0.0735,0.453715 0.05238,0.203755 0.144381,0.198178 0.194936,-0.01182 z m -2.175862,-0.05733 c 0.101744,-0.131673 0.164614,-0.517276 0.09197,-0.564083 -0.157668,-0.101591 -0.275157,0.04647 -0.275157,0.346761 0,0.305867 0.05988,0.376904 0.183187,0.217322 z m 0.811646,-0.341651 c 0,-0.16107 -0.0283,-0.194218 -0.165805,-0.194218 -0.143364,0 -0.165806,0.03088 -0.165806,0.228176 0,0.298939 0.130798,0.446574 0.247822,0.279724 0.04608,-0.0657 0.08379,-0.206863 0.08379,-0.313682 z m -2.055989,0.0047 c 0,-0.152871 -0.03073,-0.198967 -0.132644,-0.198967 -0.137007,0 -0.179597,0.20685 -0.09174,0.445548 0.06312,0.171498 0.224382,-0.0057 0.224382,-0.246581 z"
         id="path1" /></g></g></svg>
