<?xml version="1.0" encoding="UTF-8" standalone="no"?>
<!-- Created with Inkscape (http://www.inkscape.org/) -->

<svg
   width="128"
   height="128"
   viewBox="0 0 33.866666 33.866666"
   version="1.1"
   id="svg1"
   xml:space="preserve"
   inkscape:version="1.4.2 (f4327f4, 2025-05-13)"
   sodipodi:docname="toothed.svg"
   xmlns:inkscape="http://www.inkscape.org/namespaces/inkscape"
   xmlns:sodipodi="http://sodipodi.sourceforge.net/DTD/sodipodi-0.dtd"
   xmlns="http://www.w3.org/2000/svg"
   xmlns:svg="http://www.w3.org/2000/svg"><sodipodi:namedview
     id="namedview1"
     pagecolor="#ffffff"
     bordercolor="#000000"
     borderopacity="0.25"
     inkscape:showpageshadow="2"
     inkscape:pageopacity="0.0"
     inkscape:pagecheckerboard="0"
     inkscape:deskcolor="#d1d1d1"
     inkscape:document-units="mm"
     inkscape:zoom="1.07"
     inkscape:cx="49.53271"
     inkscape:cy="58.411215"
     inkscape:window-width="1600"
     inkscape:window-height="837"
     inkscape:window-x="-8"
     inkscape:window-y="-8"
     inkscape:window-maximized="1"
     inkscape:current-layer="layer1" /><defs
     id="defs1" /><g
     inkscape:label="Camada 1"
     inkscape:groupmode="layer"
     id="layer1"><g
       id="g2"><path
         style="fill:#626262;fill-opacity:1"
         d="m 13.557572,32.622998 c -1.704414,-0.510212 -2.369024,-2.10112 -1.770601,-4.238373 0.261651,-0.934478 0.560641,-1.543205 2.046524,-4.166594 0.441617,-0.779693 0.911298,-1.701117 1.043736,-2.04761 0.502049,-1.31349 0.703613,-2.776784 0.654257,-4.74971 l -0.0091,-0.363493 -0.217482,0.573929 c -0.334297,0.8822 -0.646697,0.942841 -0.719644,0.139693 l -0.03799,-0.418323 -0.141562,0.408115 c -0.250837,0.723153 -0.532389,1.108056 -0.753787,1.030486 -0.0969,-0.03395 -0.11734,-0.262551 -0.118349,-1.323661 -0.0017,-1.783892 -0.06565,-1.827338 -0.443383,-0.301191 -0.170222,0.687745 -0.402975,1.269352 -0.553683,1.383552 -0.227109,0.172094 -0.354735,-0.04378 -0.361195,-0.610944 -0.0032,-0.284989 -0.0331,-0.665378 -0.06634,-0.845307 l -0.06044,-0.327143 -0.0929,0.204654 c -0.05109,0.112559 -0.0929,0.2476 -0.0929,0.30009 0,0.183798 -0.241972,0.622084 -0.343445,0.622084 -0.19959,0 -0.293649,-0.17944 -0.302954,-0.577954 -0.0101,-0.432769 -0.12293,-0.977732 -0.140404,-0.67817 -0.02654,0.45494 -0.681973,1.401521 -0.970448,1.401521 -0.177203,0 -0.20553,-0.09855 -0.271637,-0.945082 -0.08563,-1.096471 -0.428496,-2.606522 -0.43743,-1.926513 -0.0037,0.280235 -0.137078,0.717346 -0.338337,1.108654 -0.125147,0.243323 -0.201525,0.308969 -0.359479,0.308969 H 8.498031 l 0.05409,-0.566136 c 0.06341,-0.663663 0.0186,-0.815137 -0.2411,-0.815137 -0.153982,0 -0.191167,0.03836 -0.193819,0.199921 -0.0046,0.278549 -0.326207,0.849348 -0.494598,0.877756 -0.176797,0.02983 -0.196345,-0.03066 -0.260193,-0.805058 -0.02884,-0.349862 -0.08071,-0.636112 -0.11526,-0.636112 -0.03455,0 -0.108791,0.106321 -0.164983,0.23627 -0.207896,0.480773 -0.627877,0.726304 -0.749077,0.437929 -0.02901,-0.06902 -0.02938,-0.324609 -8.39e-4,-0.567981 l 0.0519,-0.442495 -0.346074,-0.09382 C 5.002606,14.129091 4.064849,13.513364 3.732564,12.896021 3.573261,12.600056 3.547093,12.444562 3.551971,11.822917 c 0.005,-0.64317 0.03604,-0.79786 0.268852,-1.341723 0.81471,-1.9032367 2.829885,-4.0245568 5.246728,-5.5230862 1.44779,-0.897682 3.381582,-1.6798095 5.228069,-2.1145064 3.940221,-0.9276003 8.326316,-0.094731 11.819499,2.2443868 2.307347,1.5450535 3.93018,3.250462 4.927426,5.1781488 0.470279,0.909054 0.646134,1.524663 0.646134,2.261888 0,0.796447 -0.178125,1.229619 -0.724733,1.76244 -0.617039,0.601473 -1.831855,1.147944 -2.977703,1.339486 l -0.318489,0.05324 0.02036,0.411614 c 0.01656,0.334796 -0.0065,0.424754 -0.123724,0.48202 -0.201159,0.0983 -0.299618,0.02163 -0.488246,-0.38015 -0.1452,-0.309282 -0.188555,-0.346128 -0.383224,-0.325685 -0.15119,0.01588 -0.224371,0.0683 -0.235148,0.168449 -0.0086,0.07997 -0.03833,0.366219 -0.06605,0.636112 -0.04633,0.451041 -0.06529,0.490716 -0.23448,0.490716 -0.212285,0 -0.388683,-0.327141 -0.481666,-0.893279 -0.05334,-0.324782 -0.168251,-0.449779 -0.231408,-0.251724 -0.01594,0.04998 -0.09149,0.287159 -0.167899,0.527065 -0.07641,0.239905 -0.195011,0.534335 -0.263566,0.654287 -0.06856,0.119953 -0.144154,0.381327 -0.167997,0.580832 -0.05637,0.471694 -0.238184,0.519474 -0.504478,0.132576 -0.1785,-0.259343 -0.450807,-0.942536 -0.574111,-1.440394 l -0.05401,-0.218096 -0.147904,0.261823 c -0.08618,0.152549 -0.18305,0.562153 -0.232118,0.981431 -0.141401,1.208269 -0.266294,1.523922 -0.540481,1.366008 -0.08544,-0.04921 -0.200196,-0.339366 -0.315627,-0.79805 -0.296214,-1.177054 -0.272841,-1.142267 -0.386556,-0.575335 -0.05614,0.279889 -0.104903,0.68064 -0.108362,0.890558 -0.0053,0.322866 -0.02932,0.381667 -0.155786,0.381667 -0.182764,0 -0.297914,-0.118816 -0.37028,-0.382074 -0.06725,-0.244643 -0.09154,-0.246033 -0.322521,-0.01847 -0.253948,0.250187 -0.412795,0.169491 -0.476386,-0.24201 -0.0288,-0.186383 -0.07867,-0.453379 -0.110814,-0.593324 l -0.05845,-0.254445 -0.09043,0.293041 c -0.04974,0.161172 -0.143772,0.357458 -0.208964,0.436191 -0.09559,0.115452 -0.11902,0.42538 -0.121062,1.601746 -0.0035,2.032268 -0.237989,3.525865 -1.049183,6.683649 -0.504596,1.964276 -1.091889,3.732387 -1.460127,4.39588 -0.464026,0.836086 -1.245909,1.56444 -1.991881,1.855517 -0.428545,0.167217 -1.567076,0.213527 -2.007593,0.08166 z m 1.985417,-0.435996 c 0.692493,-0.285495 1.163382,-0.731193 1.68466,-1.594537 0.613892,-1.016732 1.816879,-5.312568 2.334738,-8.337296 0.112148,-0.655036 0.143095,-1.268855 0.142945,-2.835246 -1.05e-4,-1.099567 -0.02935,-2.125555 -0.065,-2.279974 l -0.06481,-0.280763 -0.189723,0.162738 c -0.114929,0.09858 -0.24108,0.144743 -0.319992,0.117095 -0.11145,-0.03905 -0.122357,-0.122727 -0.0755,-0.57927 0.03204,-0.312186 0.01254,-0.877796 -0.047,-1.363003 l -0.101769,-0.829376 -0.152636,0.468372 c -0.166122,0.509752 -0.619697,1.218133 -0.826324,1.290529 -0.318189,0.111483 -0.364563,-0.03767 -0.389239,-1.251933 -0.01298,-0.638691 -0.06254,-1.337893 -0.110143,-1.553783 -0.138163,-0.626647 -0.208606,-3.069847 -0.09414,-3.265128 0.05258,-0.089702 0.124067,-0.1470298 0.158863,-0.1273948 0.0348,0.019635 0.08556,0.6993748 0.112813,1.5105318 0.02725,0.811158 0.08883,1.687477 0.136853,1.947374 0.04802,0.259898 0.09399,0.902864 0.102153,1.428814 0.01644,1.059051 0.05824,1.104233 0.403106,0.435734 0.324556,-0.629137 0.628558,-2.130815 0.730675,-3.609315 0.08206,-1.188143 0.137711,-1.490321 0.274458,-1.490321 0.142673,0 0.142677,0.04759 1.6e-4,1.781115 -0.133606,1.625122 -0.134921,1.490388 0.02909,2.980644 0.07701,0.699724 0.117558,1.381768 0.09012,1.515652 -0.03601,0.175685 -0.02406,0.22885 0.04293,0.191047 0.301978,-0.170404 0.552392,-1.571349 0.55359,-3.09706 8.16e-4,-1.039191 0.05171,-1.372187 0.209729,-1.372187 0.0874,0 0.109435,0.194314 0.109256,0.963258 -1.23e-4,0.529791 -0.03393,1.241328 -0.07512,1.581194 -0.04119,0.339866 -0.09144,0.78151 -0.111668,0.981432 l -0.03677,0.363493 0.171609,-0.197118 c 0.176296,-0.202502 0.442429,-0.787751 0.621123,-1.365902 0.06889,-0.222882 0.09618,-0.778949 0.08563,-1.744768 -0.01867,-1.709528 0.03546,-2.471752 0.175537,-2.471752 0.076,0 0.115988,0.46575 0.166981,1.944687 0.0876,2.540769 0.08982,2.973934 0.01714,3.344137 -0.03336,0.169933 -0.0301,0.308969 0.0073,0.308969 0.125532,0 0.498832,-0.720447 0.687092,-1.326044 0.22547,-0.7253 0.32433,-1.267288 0.441034,-2.417935 0.142702,-1.406969 0.158572,-1.490321 0.283738,-1.490321 0.08093,0 0.114555,0.08702 0.114555,0.296458 0,0.63674 -0.175077,2.102987 -0.337865,2.829582 -0.226743,1.01205 -0.198319,1.88296 0.107955,3.307787 0.331342,1.541445 0.351441,1.569534 0.464488,0.649147 0.05957,-0.485037 0.05126,-0.58222 -0.05596,-0.653801 -0.109301,-0.07297 -0.12358,-0.299079 -0.108101,-1.711781 0.0187,-1.706792 0.06288,-2.104492 0.239768,-2.158327 0.08888,-0.02705 0.09706,0.267925 0.04799,1.730909 -0.0423,1.261389 -0.03456,1.749642 0.02721,1.714788 0.268825,-0.151696 0.645031,-2.263186 0.648031,-3.637133 0.0028,-1.270471 0.231314,-2.400197 0.445915,-2.204258 0.03259,0.02975 0.01701,0.373203 -0.03461,0.763222 -0.118545,0.895597 -0.287572,3.465503 -0.26898,4.089611 0.01637,0.549525 0.267034,1.513637 0.486729,1.872073 0.03449,0.05628 0.04635,-0.660882 0.02634,-1.593687 -0.04178,-1.948393 0.0795,-3.054755 0.311637,-2.8428 0.04243,0.03874 0.03584,0.582215 -0.01615,1.333084 -0.05414,0.781814 -0.06171,1.518449 -0.01974,1.921967 l 0.06805,0.654287 0.130246,-0.363493 c 0.07164,-0.199921 0.209209,-0.657922 0.305719,-1.01778 0.160059,-0.59681 0.169499,-0.743697 0.107457,-1.672068 -0.111871,-1.674011 -0.05469,-2.625752 0.153881,-2.561267 0.06945,0.02147 0.0885,0.224996 0.0678,0.724388 -0.02775,0.669511 0.0143,1.157707 0.278846,3.23745 0.173808,1.366397 0.230378,1.50395 0.291045,0.707689 0.02742,-0.359859 0.104243,-1.04686 0.170724,-1.526671 0.06648,-0.479811 0.121623,-1.02717 0.122539,-1.216353 9.17e-4,-0.189183 0.04479,-0.573578 0.0975,-0.854209 0.07948,-0.423215 0.121767,-0.51024 0.247904,-0.51024 0.130302,0 0.14383,0.03383 0.09449,0.236271 -0.09653,0.396053 -0.113834,1.668099 -0.02793,2.053736 0.195762,0.878856 0.405671,1.676006 0.45348,1.72214 0.02854,0.02754 0.06155,-0.365033 0.07335,-0.872383 0.03238,-1.392168 0.229165,-2.630874 0.417941,-2.630874 0.150592,0 0.160634,0.171449 0.04784,0.816699 -0.06477,0.370493 -0.137481,0.996109 -0.161587,1.390257 l -0.04383,0.716633 0.272067,-0.0466 c 0.439249,-0.07524 1.234887,-0.329828 1.756563,-0.562069 0.657408,-0.292667 1.195499,-0.728688 1.453818,-1.178045 0.195006,-0.339221 0.214264,-0.443661 0.209627,-1.136873 -0.0055,-0.80628 -0.112518,-1.165344 -0.65031,-2.180959 C 29.589112,8.2131354 26.963414,5.7877923 24.403238,4.4686273 23.547675,4.0277867 22.182387,3.5153385 21.059102,3.2134369 20.82302,3.1499857 20.515475,3.0894674 19.506468,2.907911 18.813876,2.783289 16.290759,2.7851998 15.565165,2.9108958 14.948248,3.0177654 14.031234,3.2312233 13.415363,3.4113154 12.895048,3.5634652 11.629959,4.0428332 11.026695,4.3164302 9.047599,5.2140047 7.511868,6.3295822 5.797095,8.1152887 5.415649,8.5125132 4.615572,9.6253742 4.352061,10.125246 c -0.508174,0.963991 -0.6345,2.002495 -0.312915,2.572425 0.319415,0.566087 0.982681,1.031752 1.897233,1.332009 L 6.39191,14.179236 6.33231,13.509967 C 6.23689,12.438406 6.2379,12.404506 6.36522,12.404506 c 0.184342,0 0.263382,0.487759 0.273196,1.6859 0.0099,1.202675 0.03429,1.224417 0.359164,0.319481 0.199267,-0.555066 0.206026,-0.820273 0.04723,-1.853142 -0.06611,-0.429992 -0.09982,-0.811902 -0.07492,-0.848689 0.0699,-0.10326 0.172818,-0.07941 0.22844,0.05293 0.103419,0.246071 0.431435,2.786063 0.468027,3.624163 0.0299,0.684793 0.07808,0.505238 0.419448,-1.56302 0.101503,-0.614984 0.193918,-1.807125 0.193918,-2.501518 0,-0.09003 0.219271,-0.177387 0.244634,-0.09746 0.0032,0.01 0.03903,0.656105 0.07967,1.435797 0.04065,0.779694 0.119617,1.842911 0.175487,2.362706 0.09587,0.891936 0.107165,0.930912 0.200865,0.693092 0.129781,-0.329394 0.426084,-3.099859 0.434052,-4.058429 0.0053,-0.641866 0.02416,-0.745062 0.132449,-0.726198 0.169958,0.02961 0.206145,0.875688 0.08985,2.100658 -0.08205,0.864243 -0.07575,0.966839 0.109403,1.781116 0.108057,0.475227 0.221251,1.0239 0.251542,1.219274 0.04537,0.292636 0.06939,0.331869 0.136326,0.222663 0.05294,-0.08638 0.06336,-0.712216 0.02991,-1.796219 -0.04802,-1.556117 -0.04238,-1.662093 0.08723,-1.639468 0.119777,0.02091 0.146901,0.157192 0.199982,1.004803 0.06498,1.037665 0.01508,2.581812 -0.105249,3.256862 -0.03967,0.222555 -0.05749,0.418009 -0.03961,0.434342 0.04285,0.03912 0.363726,-0.537921 0.455065,-0.818358 0.275862,-0.846968 0.404517,-2.407522 0.232531,-2.820543 -0.03995,-0.09594 -0.09214,-0.695109 -0.115972,-1.331483 -0.02383,-0.636374 -0.06817,-1.348493 -0.09853,-1.582487 -0.05092,-0.392512 -0.04348,-0.423387 0.09607,-0.398888 0.19104,0.03354 0.255476,0.388671 0.268286,1.478619 0.01391,1.1835 0.109365,1.775568 0.364843,2.262957 l 0.223767,0.426893 0.06232,-0.799685 c 0.03428,-0.439827 0.142959,-1.094115 0.241513,-1.453973 0.133524,-0.487543 0.179913,-0.871763 0.182025,-1.507636 0.002,-0.607946 0.03111,-0.863269 0.101147,-0.88785 0.330343,-0.115933 0.335891,1.335352 0.0093,2.431835 -0.160107,0.537532 -0.182408,0.769295 -0.171386,1.781117 0.0074,0.683082 0.08073,1.643273 0.177553,2.326355 0.09069,0.639748 0.164887,1.209524 0.164892,1.266168 2e-5,0.209958 0.08257,0.01525 0.242889,-0.57288 0.116097,-0.425903 0.139857,-0.627357 0.08039,-0.681649 -0.104702,-0.0956 -0.118037,-4.455046 -0.01381,-4.513862 0.217435,-0.122697 0.255266,0.20156 0.231918,1.98779 -0.02197,1.680594 0.0175,2.136577 0.140538,1.623876 0.02639,-0.109957 0.06541,-0.248993 0.08671,-0.30897 0.0213,-0.05998 0.127022,-0.485263 0.234935,-0.945081 0.167318,-0.712952 0.203072,-1.103606 0.242853,-2.653501 0.04336,-1.689351 0.08867,-2.0400277 0.245171,-1.8976245 0.03357,0.030549 0.08125,1.0261565 0.105946,2.2124605 0.04187,2.011164 0.05701,2.185072 0.224116,2.573553 0.09857,0.22915 0.203766,0.430492 0.233775,0.447429 0.03001,0.01694 0.04415,-0.464979 0.03142,-1.070923 -0.02997,-1.42668 0.06144,-2.482991 0.214877,-2.482991 0.09377,0 0.111688,0.330027 0.109529,2.01711 -0.0019,1.470691 -0.02874,2.045884 -0.09914,2.123334 -0.07099,0.0781 -0.08119,0.322757 -0.0385,0.92414 0.08532,1.201872 0.12484,1.27716 0.331733,0.631887 0.369355,-1.15197 0.547518,-2.717741 0.4223,-3.711328 -0.05314,-0.421639 -0.08293,-1.368738 -0.06812,-2.165967 0.02377,-1.280337 0.03972,-1.419052 0.165644,-1.4411279 0.129268,-0.022662 0.139339,0.090373 0.139339,1.5640049 0,2.083273 0.175133,3.480329 0.5085,4.056372 l 0.168289,0.290794 0.03981,-1.577736 c 0.02775,-1.0997 0.06918,-1.604495 0.136729,-1.666051 0.158814,-0.144715 0.177437,0.01147 0.209068,1.753466 0.01633,0.899645 0.04375,1.716484 0.06091,1.815196 0.0225,0.129397 -0.0093,0.186961 -0.11405,0.206294 -0.246339,0.04547 -0.704412,-0.424438 -0.899412,-0.922656 -0.100459,-0.256668 -0.102846,-0.250079 -0.1023,0.282439 3.08e-4,0.299882 0.03221,0.905098 0.07089,1.344925 0.13159,1.496146 -0.135341,3.804442 -0.571668,4.943505 -0.297938,0.77779 -0.661709,1.514556 -1.131595,2.291882 -1.764111,2.918348 -2.453529,4.783241 -2.211551,5.982303 0.178687,0.885441 0.702634,1.557901 1.447703,1.858055 0.546193,0.220036 1.61069,0.210872 2.167437,-0.01866 z M 29.406476,13.781145 c -0.02628,-0.06253 -0.0091,-0.191253 0.03824,-0.286059 C 29.796663,12.789814 28.241184,11.626002 25.863023,10.81526 21.748995,9.4127407 16.702496,9.0393741 11.623862,9.7617723 8.795383,10.164103 6.385513,11.013806 5.688705,11.854469 c -0.08504,0.102599 -0.172836,0.347527 -0.195096,0.544283 -0.04636,0.409767 -0.199347,0.511559 -0.322901,0.214846 -0.484554,-1.163649 2.09575,-2.521287 5.917089,-3.1133024 2.160706,-0.334744 2.658867,-0.3672744 5.59208,-0.3651682 3.006827,0.00216 2.895724,-0.00594 5.444321,0.3969569 0.685611,0.1083859 2.535405,0.5561157 3.31413,0.8021627 0.39413,0.12453 0.788261,0.246117 0.875845,0.270194 0.270263,0.07429 1.731675,0.757134 2.109991,0.985887 1.161059,0.702046 1.653468,1.486619 1.311723,2.090015 -0.134296,0.237118 -0.256414,0.274486 -0.329411,0.100802 z m -15.227345,3.748614 c 0.254839,-0.765761 0.265474,-1.94153 0.02137,-2.362705 -0.0927,-0.159937 -0.19445,-0.400349 -0.226121,-0.53425 -0.09803,-0.414467 -0.24038,-0.142001 -0.23332,0.44659 0.01364,1.136965 0.140832,3.107438 0.197079,3.053111 0.03275,-0.03163 0.141193,-0.302864 0.240991,-0.602746 z m 7.756088,-0.799685 c 0.08106,-0.454535 0.101377,-0.802152 0.05942,-1.01684 l -0.06375,-0.326203 -0.188532,0.326203 c -0.238762,0.413112 -0.302087,1.158401 -0.160974,1.894549 l 0.103497,0.539914 0.06358,-0.363493 c 0.03497,-0.199921 0.11901,-0.674279 0.186754,-1.05413 z m -0.760274,0.281099 c 0.0033,-0.582292 -0.0088,-0.630584 -0.167453,-0.668473 -0.18086,-0.04318 -0.182416,-0.111152 -0.0269,-1.175646 0.03796,-0.259822 0.03293,-0.271436 -0.04722,-0.109048 -0.04933,0.09996 -0.121844,0.238553 -0.161133,0.307983 -0.136689,0.241551 -0.0538,1.691308 0.144497,2.527263 l 0.04311,0.181747 0.105754,-0.218096 c 0.06008,-0.123902 0.107304,-0.489166 0.109345,-0.84573 z m -0.910847,0.0535 c 0.06502,-0.227916 0.118215,-0.529525 0.118215,-0.670242 v -0.255848 l -0.236175,0.153548 c -0.185166,0.120384 -0.228829,0.196036 -0.202159,0.350269 0.01871,0.108196 0.05601,0.355112 0.0829,0.548701 0.02689,0.19359 0.06466,0.337578 0.08394,0.319974 0.01928,-0.0176 0.08825,-0.218485 0.153272,-0.446402 z m -8.503653,-1.082084 c 0.04518,-0.819334 0.03955,-0.863062 -0.129564,-1.006916 -0.09724,-0.08271 -0.197408,-0.131561 -0.222605,-0.108556 -0.107585,0.09823 -0.02166,1.759127 0.113237,2.188905 0.08765,0.27925 0.189602,-0.17877 0.238932,-1.073433 z m 15.018443,-0.561092 c -0.03885,-0.325372 -0.12151,-0.664737 -0.154567,-0.634554 -0.02084,0.01902 -0.06721,0.203966 -0.103051,0.410981 -0.06178,0.356852 -0.05645,0.375255 0.102736,0.354506 0.09333,-0.01216 0.162119,-0.07032 0.154882,-0.130933 z M 8.475717,14.785387 c -0.01538,-0.06997 -0.05521,-0.25808 -0.08851,-0.418017 l -0.06054,-0.290795 -0.04556,0.363493 c -0.0515,0.410953 -0.03648,0.472541 0.115298,0.472541 0.05974,0 0.09489,-0.05637 0.07931,-0.127222 z"
         id="path2" /></g></g></svg>
