<?xml version="1.0" encoding="UTF-8" standalone="no"?>
<!-- Created with Inkscape (http://www.inkscape.org/) -->

<svg
   width="128"
   height="128"
   viewBox="0 0 33.866667 33.866666"
   version="1.1"
   id="svg5"
   xml:space="preserve"
   inkscape:version="1.2.2 (b0a8486541, 2022-12-01)"
   sodipodi:docname="tootheed_puro.svg"
   xmlns:inkscape="http://www.inkscape.org/namespaces/inkscape"
   xmlns:sodipodi="http://sodipodi.sourceforge.net/DTD/sodipodi-0.dtd"
   xmlns="http://www.w3.org/2000/svg"
   xmlns:svg="http://www.w3.org/2000/svg"><sodipodi:namedview
     id="namedview7"
     pagecolor="#ffffff"
     bordercolor="#000000"
     borderopacity="0.25"
     inkscape:showpageshadow="2"
     inkscape:pageopacity="0.0"
     inkscape:pagecheckerboard="0"
     inkscape:deskcolor="#d1d1d1"
     inkscape:document-units="mm"
     showgrid="false"
     inkscape:zoom="4.2546304"
     inkscape:cx="74.977135"
     inkscape:cy="76.974958"
     inkscape:window-width="1854"
     inkscape:window-height="1011"
     inkscape:window-x="0"
     inkscape:window-y="0"
     inkscape:window-maximized="1"
     inkscape:current-layer="layer1" /><defs
     id="defs2" /><g
     inkscape:label="Camada 1"
     inkscape:groupmode="layer"
     id="layer1"><path
       style="fill:#5f5f5f;stroke-width:0.0664367;fill-opacity:1"
       d="m 11.021654,32.048272 c 0,-0.244154 -0.486982,-1.134368 -0.668606,-1.222227 -0.6568447,-0.317743 -1.3894788,-0.554968 -1.7111698,-0.554071 -0.799007,0.0022 -1.259062,-0.246675 -1.321951,-0.715209 -0.02941,-0.219139 -0.08523,-0.316823 -0.245083,-0.428911 -0.113846,-0.07983 -0.218876,-0.174376 -0.2334,-0.210102 -0.01452,-0.03573 -0.142282,-0.185461 -0.283908,-0.332745 -0.254806,-0.264984 -0.340049,-0.468706 -0.426826,-1.02006 -0.03279,-0.208318 -0.01804,-0.314454 0.05536,-0.398475 0.195686,-0.223993 0.265089,-0.579362 0.17308,-0.886236 -0.06573,-0.219217 -0.06658,-0.287444 -0.0038,-0.308338 0.0443,-0.01476 0.08055,-0.115481 0.08055,-0.223832 0,-0.27944 0.139451,-0.514687 0.510921,-0.861902 0.31384,-0.293348 1.299726,-0.911855 2.247204,-1.40981 0.7638591,-0.401453 1.6817658,-1.124965 2.3107268,-1.821359 0.61136,-0.676906 0.89722,-1.152409 0.927715,-1.54317 0.01782,-0.228295 0.01324,-0.232802 -0.256408,-0.25248 -0.151001,-0.01102 -0.514873,0.04128 -0.808603,0.116222 -0.897438,0.22897 -1.244401,0.17009 -1.7414348,-0.295523 -0.127938,-0.11985 -0.297304,-0.237289 -0.376371,-0.260976 -0.07907,-0.02369 -0.348233,-0.273371 -0.598148,-0.554854 -0.249914,-0.281483 -0.509283,-0.571679 -0.576373,-0.644881 -1.169171,-1.275653 -2.789726,-3.322843 -3.049402,-3.8522 -0.103668,-0.21133 -0.21869,-0.634709 -0.284188,-1.046051 -0.02182,-0.137004 -0.162303,-0.480404 -0.312196,-0.763112 -0.149893,-0.282707 -0.311958,-0.678669 -0.360146,-0.879916 -0.155125,-0.647846 -0.08786,-1.8614699 0.147273,-2.657137 0.161653,-0.5470242 0.693633,-1.257118 1.580168,-2.1092278 0.695882,-0.6688604 1.241834,-1.0623347 2.367244,-1.7061009 0.310704,-0.1777316 0.821961,-0.4954108 1.136126,-0.7059536 1.3219198,-0.8859065 2.6299668,-1.5837169 3.4496728,-1.8403153 0.493909,-0.1546118 1.891801,-0.4349768 2.724895,-0.5465125 0.310704,-0.041597 0.744361,-0.1236898 0.963682,-0.1824273 0.219321,-0.058738 0.757654,-0.130963 1.196295,-0.1605011 0.438642,-0.029538 1.067724,-0.072076 1.39796,-0.09453 0.912688,-0.062055 2.429916,0.2619916 3.475229,0.742232 0.675879,0.3105145 2.237533,1.3702145 3.168575,2.1501171 0.682264,0.5715106 1.926189,1.9145086 2.329712,2.5152626 0.954641,1.4212468 1.326457,2.2656325 1.657569,3.7643038 0.241639,1.093697 0.273318,1.567529 0.137649,2.058791 -0.06052,0.219162 -0.154496,0.562847 -0.208825,0.763745 -0.05433,0.200898 -0.157656,0.491958 -0.229615,0.646799 -0.07196,0.154842 -0.130835,0.305891 -0.130835,0.335664 0,0.16174 -0.409503,0.66781 -0.621865,0.768509 -0.155149,0.07357 -0.253064,0.172432 -0.274807,0.277468 -0.01858,0.08975 -0.04899,0.236628 -0.06757,0.326403 -0.01939,0.09367 -0.153916,0.24688 -0.315689,0.359536 -0.155043,0.10797 -0.444695,0.362582 -0.643671,0.565804 l -0.361775,0.369495 0.15487,0.373381 c 0.131138,0.316164 0.149233,0.447853 0.118087,0.859381 -0.03616,0.477792 -0.217136,1.01081 -0.418804,1.233489 -0.05501,0.06074 -0.137189,0.364795 -0.182617,0.675675 -0.06113,0.418313 -0.130265,0.633968 -0.26598,0.829662 -0.398362,0.574421 -1.300154,1.120869 -2.44635,1.482386 -0.874547,0.275838 -1.087563,0.407054 -1.287258,0.792941 -0.06222,0.120231 -0.197255,0.334655 -0.300081,0.476499 -0.102826,0.141844 -0.204388,0.368851 -0.225693,0.50446 -0.0421,0.26794 -0.163862,1.533208 -0.209078,2.172528 -0.0404,0.571211 -0.08893,0.928031 -0.203257,1.494284 -0.06781,0.335883 -0.08601,0.644572 -0.05588,0.947871 0.08476,0.853272 -0.08106,1.10751 -1.645014,2.522189 l -0.569008,0.514698 h -4.194458 -4.194413 z m 6.000132,-3.172873 c 1.032827,-0.315269 1.486184,-1.173629 1.739343,-3.293165 0.05615,-0.470103 0.21345,-1.429512 0.349557,-2.132021 0.167436,-0.864209 0.225649,-1.299092 0.180002,-1.344706 -0.03711,-0.03708 -0.245482,-0.08451 -0.463058,-0.105395 -0.786038,-0.07546 -0.703944,-0.11358 -0.831412,0.386042 -0.06286,0.24639 -0.176273,0.634904 -0.252028,0.863364 -0.07575,0.22846 -0.244878,0.767906 -0.375831,1.198768 -0.351978,1.158085 -0.961457,2.443858 -1.370349,2.890925 -0.447273,0.489034 -0.869458,1.120004 -0.842786,1.259574 0.01318,0.06896 0.138719,0.148547 0.320032,0.202882 0.164092,0.04917 0.417978,0.128413 0.564192,0.176088 0.282706,0.09218 0.377337,0.08232 0.982338,-0.102356 z"
       id="path209" /></g></svg>
