<?xml version="1.0" encoding="UTF-8" standalone="no"?>
<!-- Created with Inkscape (http://www.inkscape.org/) -->

<svg
   width="128"
   height="128"
   viewBox="0 0 33.866666 33.866666"
   version="1.1"
   id="svg1"
   xml:space="preserve"
   inkscape:version="1.4.2 (f4327f4, 2025-05-13)"
   sodipodi:docname="gilled.svg"
   xmlns:inkscape="http://www.inkscape.org/namespaces/inkscape"
   xmlns:sodipodi="http://sodipodi.sourceforge.net/DTD/sodipodi-0.dtd"
   xmlns="http://www.w3.org/2000/svg"
   xmlns:svg="http://www.w3.org/2000/svg"><sodipodi:namedview
     id="namedview1"
     pagecolor="#ffffff"
     bordercolor="#000000"
     borderopacity="0.25"
     inkscape:showpageshadow="2"
     inkscape:pageopacity="0.0"
     inkscape:pagecheckerboard="0"
     inkscape:deskcolor="#d1d1d1"
     inkscape:document-units="mm"
     inkscape:zoom="1.07"
     inkscape:cx="49.53271"
     inkscape:cy="58.411215"
     inkscape:window-width="1600"
     inkscape:window-height="837"
     inkscape:window-x="-8"
     inkscape:window-y="-8"
     inkscape:window-maximized="1"
     inkscape:current-layer="layer1" /><defs
     id="defs1" /><g
     inkscape:label="Camada 1"
     inkscape:groupmode="layer"
     id="layer1"><g
       id="g2"><path
         style="fill:#626262;fill-opacity:1"
         d="m 15.974832,32.170245 c -0.306715,-0.03704 -0.712093,-0.131293 -0.900841,-0.209445 -0.222468,-0.09211 -0.8092,-0.162163 -1.668081,-0.199149 -0.728696,-0.03138 -1.342119,-0.07585 -1.363161,-0.09882 -0.0683,-0.07457 0.37547,-0.217143 1.175598,-0.377689 0.430767,-0.08643 0.783214,-0.188394 0.783214,-0.226577 0,-0.03818 -0.07364,-0.142191 -0.163656,-0.23113 -0.333115,-0.329151 -0.552197,-1.080544 -0.589493,-2.021814 -0.02815,-0.710459 0.01036,-1.125999 0.190987,-2.060812 0.554838,-2.871483 0.796401,-4.845041 0.841727,-6.876867 l 0.02072,-0.928615 -0.557664,-0.152934 c -0.682819,-0.187257 -0.91553,-0.342729 -1.024676,-0.684579 -0.07761,-0.243087 -0.04287,-0.312031 0.456736,-0.906442 0.777843,-0.92544 0.858211,-1.149942 0.863678,-2.412613 0.0025,-0.582131 -0.03365,-1.09049 -0.08125,-1.142067 -0.04719,-0.05113 -0.838647,-0.160234 -1.758792,-0.242461 C 8.7025173,13.085696 6.6929693,12.62333 5.0089133,11.743702 3.0365053,10.71346 2.7766583,9.2893243 4.2477913,7.5722564 5.2117903,6.4471013 6.3490593,5.7582821 9.0254843,4.6785112 9.8984423,4.3263268 11.340734,3.6438785 12.230578,3.1619594 c 2.099873,-1.1372445 2.829743,-1.4044293 4.049691,-1.4824789 1.764243,-0.1128723 2.804505,0.1817139 5.189266,1.4695213 0.827895,0.4470756 2.063335,1.0335598 2.745422,1.3032983 1.553756,0.6144489 3.496248,1.6212996 4.228295,2.1916496 1.184884,0.9231629 2.118809,2.3904656 2.114748,3.3225076 -0.0025,0.5723877 -0.243262,1.1258047 -0.651943,1.4985277 -0.483437,0.440901 -1.601805,1.008048 -2.433407,1.234029 -1.193123,0.324222 -3.892501,0.65005 -6.631721,0.800482 -0.650325,0.03571 -1.203486,0.10217 -1.229246,0.147679 -0.02576,0.04551 -0.04609,0.479106 -0.04518,0.963548 0.0025,1.343499 0.184119,1.860119 1.013785,2.884116 0.571137,0.704914 0.21824,1.219883 -0.925397,1.350394 l -0.53178,0.06069 0.05259,1.928886 c 0.05471,2.006554 0.141762,2.821741 0.586127,5.488469 0.394925,2.370031 0.298429,3.610307 -0.351024,4.511776 -0.223148,0.309739 -0.161024,0.40607 0.261873,0.40607 0.409402,0 1.633818,0.263345 1.738422,0.373897 0.08943,0.09452 -0.4731,0.162306 -1.961589,0.236392 -0.61343,0.03053 -1.308365,0.112822 -1.544299,0.182866 -0.572748,0.170038 -1.252081,0.217888 -1.930375,0.13597 z m 1.977689,-0.918446 c 0.880323,-0.365171 1.354214,-1.173427 1.427518,-2.434735 0.02931,-0.504281 -0.02551,-1.181733 -0.186641,-2.306443 -0.427742,-2.98574 -0.464649,-3.279156 -0.553782,-4.402644 -0.04905,-0.618243 -0.08958,-1.656368 -0.09007,-2.306943 -6.76e-4,-0.902993 -0.02952,-1.208814 -0.121921,-1.292541 -0.224849,-0.203744 -0.729031,-0.226549 -1.244115,-0.05627 -0.463358,0.153177 -0.529363,0.154069 -0.973321,0.01315 -0.486858,-0.154531 -1.058172,-0.195952 -1.300774,-0.09431 -0.108234,0.04535 -0.135942,0.211285 -0.136861,0.819641 -0.0029,1.940449 -0.319895,4.823883 -0.784051,7.132564 -0.131963,0.656378 -0.190289,1.273158 -0.19488,2.060812 -0.0058,0.989535 0.01686,1.17596 0.189042,1.557532 0.359914,0.797599 0.947391,1.319073 1.676989,1.488578 0.582203,0.135262 1.757093,0.04385 2.292863,-0.178397 z m 0.167172,-0.633305 c 0,-0.0571 0.05368,-0.152462 0.119288,-0.211912 0.06561,-0.05945 0.201809,-0.31753 0.302666,-0.57351 0.100857,-0.255979 0.196423,-0.465417 0.212369,-0.465417 0.01595,0 -8.1e-5,0.17359 -0.03561,0.385755 -0.05922,0.353604 -0.598708,1.133117 -0.598708,0.865084 z M 17.641462,29.71383 c 0.0261,-0.09297 0.08858,-0.450052 0.138831,-0.793524 0.05025,-0.343473 0.113796,-0.646787 0.141203,-0.674031 0.113532,-0.112859 -0.05212,1.115858 -0.184074,1.365385 -0.07888,0.149159 -0.122062,0.195135 -0.09596,0.10217 z m 0.918278,-1.357705 c 0.03686,-0.293743 0.04921,-0.808073 0.02744,-1.142955 -0.02672,-0.410954 -0.01269,-0.563464 0.04316,-0.469173 0.149765,0.252853 0.198154,1.10064 0.09073,1.589566 -0.143806,0.6545 -0.242354,0.668282 -0.161324,0.02256 z m -4.199676,-0.487242 c 9.78e-4,-0.386402 0.0308,-0.807932 0.06627,-0.936733 0.03547,-0.1288 0.04775,0.145194 0.02729,0.608877 -0.04724,1.070575 -0.09587,1.24098 -0.09356,0.327856 z m 5.532318,-9.964214 0.357082,-0.0075 -0.272764,-0.330092 c -0.150021,-0.18155 -0.366581,-0.498703 -0.481245,-0.704785 -0.114664,-0.206081 -0.229822,-0.395769 -0.255906,-0.421529 -0.08199,-0.08097 -0.111193,-0.387133 -0.151637,-1.589887 -0.04551,-1.353447 0.05636,-2.061225 0.404288,-2.809017 0.561999,-1.207873 1.094802,-1.718392 3.237781,-3.1023697 0.671775,-0.4338457 1.221932,-0.8156386 1.222571,-0.848429 6.39e-4,-0.03279 -0.172061,-0.087981 -0.383778,-0.1226454 -0.372984,-0.061069 -0.413455,-0.041834 -1.303035,0.6193028 -1.161656,0.8633436 -2.630454,2.4250853 -3.068862,3.2630553 -0.394576,0.75419 -0.35068,0.351152 0.06121,-0.56204 0.352539,-0.781601 1.446418,-1.9897317 2.529314,-2.7934934 C 22.22388,8.1712703 22.581,7.8711533 22.581,7.828313 c 0,-0.04284 -0.179459,-0.1072743 -0.398797,-0.1431867 l -0.398797,-0.065295 -0.85073,0.9211369 c -1.224222,1.3255241 -1.967038,2.4410788 -2.443574,3.6697248 l -0.205546,0.529958 0.05666,-0.42153 c 0.149962,-1.115593 0.948767,-2.5102957 2.206043,-3.8517217 0.899689,-0.9599046 0.913755,-1.0192876 0.241436,-1.0192876 -0.290477,0 -0.361308,0.055281 -0.750128,0.5854579 -0.673963,0.9189837 -1.094682,1.6340767 -1.556912,2.6462694 -0.235274,0.515203 -0.448299,0.999962 -0.473389,1.077242 -0.03201,0.0986 -0.04709,0.08464 -0.05056,-0.04684 -0.01757,-0.665448 0.879483,-2.6483277 1.68584,-3.7264509 0.200544,-0.2681341 0.364626,-0.5194302 0.364626,-0.5584358 0,-0.039006 -0.164082,-0.070653 -0.364626,-0.070327 -0.320499,5.206e-4 -0.384221,0.037364 -0.526538,0.3044381 -0.843571,1.5830629 -1.136463,2.3899226 -1.470444,4.0507756 l -0.207204,1.030406 0.04924,-0.796222 c 0.05262,-0.850983 0.280064,-2.1224717 0.502316,-2.8081217 0.07478,-0.230699 0.289004,-0.7292328 0.476052,-1.107853 0.187048,-0.3786203 0.340087,-0.7062403 0.340087,-0.7280445 0,-0.021804 -0.172245,-0.039644 -0.382768,-0.039644 -0.377613,0 -0.384099,0.00536 -0.481619,0.3981113 -0.05437,0.2189613 -0.190628,0.903947 -0.3028,1.5221902 l -0.20395,1.1240787 0.03988,-1.1709147 c 0.02193,-0.6440039 0.06524,-1.3289897 0.09623,-1.5221908 0.05255,-0.3276166 0.04209,-0.3512743 -0.155302,-0.3512743 h -0.211652 l -0.107859,1.9905601 c -0.05932,1.0948057 -0.137583,2.2645507 -0.173911,2.5994327 -0.08091,0.745839 -0.08365,0.695216 -0.129558,-2.3886677 -0.01764,-1.1849672 -0.03515,-2.1821539 -0.03892,-2.2159708 -0.0038,-0.033817 -0.08095,-0.040327 -0.171526,-0.014466 -0.156366,0.044646 -0.162599,0.1281311 -0.12347,1.6539308 0.02646,1.031585 0.01208,1.5566037 -0.04015,1.4664017 -0.04475,-0.07728 -0.103173,-0.309122 -0.129839,-0.5152027 -0.194188,-1.5007396 -0.345242,-2.4471909 -0.401296,-2.5143919 -0.0823,-0.098668 -0.56867,-0.1400334 -0.689311,-0.058626 -0.05728,0.038652 0.0181,0.3289995 0.208121,0.8016072 0.363063,0.9030027 0.716447,2.3633344 0.826236,3.4143564 0.04488,0.429613 0.07008,0.793681 0.05602,0.809042 -0.01407,0.01536 -0.154454,-0.4879 -0.311967,-1.118357 C 15.683593,9.9974443 15.329468,8.9950343 14.827121,7.916478 l -0.28359,-0.6088762 -0.571266,-0.027698 c -0.60671,-0.029417 -0.68096,0.031007 -0.390294,0.3176181 0.333988,0.3293274 1.189117,1.7002094 1.437318,2.3042054 0.273486,0.6655267 0.499877,1.5683287 0.571144,2.2776147 0.04482,0.446096 0.03776,0.435275 -0.153291,-0.234914 C 15.108028,10.789944 14.338898,9.2718213 13.568655,8.2563808 L 12.877322,7.3449691 12.36329,7.3652222 c -0.282717,0.011139 -0.53126,0.050689 -0.552317,0.087888 -0.02106,0.037199 0.173665,0.2423541 0.432714,0.4558993 1.205816,0.9940058 2.242555,2.3587945 2.612998,3.4398145 0.26964,0.786862 0.216098,0.989018 -0.09301,0.351189 C 14.217682,10.57341 13.346474,9.4290363 12.098163,8.1987395 11.366003,7.4771456 11.346525,7.465213 10.982835,7.5154601 c -0.203585,0.028127 -0.419309,0.079394 -0.479387,0.1139272 -0.06802,0.039095 0.320462,0.3780648 1.029533,0.8983283 1.83942,1.3496287 2.788402,2.4964624 3.021044,3.6508954 0.03907,0.193869 -0.05285,0.07767 -0.296387,-0.374693 C 14.063478,11.443276 13.76235,10.987554 13.588464,10.791201 13.16698,10.315261 12.429252,9.6978803 12.23084,9.6550493 11.766879,9.5548943 9.2228713,8.3018089 8.8997493,8.0142756 c -0.08556,-0.076135 -0.965637,0.032169 -1.055094,0.1298407 -0.06637,0.072462 1.151814,0.66804 2.6373027,1.289396 1.724919,0.7215067 2.254201,1.0336137 2.857131,1.6847977 0.929391,1.00377 1.323472,2.510537 1.110705,4.246773 -0.111185,0.9073 -0.316187,1.397922 -0.839195,2.008407 l -0.37504,0.437769 0.639642,0.01425 c 0.554297,0.01234 0.662636,-0.0127 0.811973,-0.187718 0.09478,-0.111079 0.172331,-0.235147 0.172331,-0.275708 0,-0.04056 0.07281,-0.204461 0.161793,-0.364225 l 0.161793,-0.290479 -0.04182,0.405307 -0.04182,0.405306 0.373348,0.109051 c 0.205342,0.05998 0.537489,0.163548 0.738105,0.230155 0.302293,0.100365 0.434523,0.09897 0.77215,-0.0082 0.224066,-0.0711 0.590779,-0.147123 0.814917,-0.16894 0.224138,-0.02182 0.406148,-0.06722 0.404467,-0.100883 -0.0017,-0.03367 -0.05798,-0.31238 -0.125109,-0.619359 -0.130628,-0.597353 -0.106259,-0.813925 0.04143,-0.368161 0.213368,0.644022 0.387611,1.034516 0.553036,1.239404 0.153075,0.189593 0.223821,0.210023 0.52034,0.150264 0.188748,-0.03804 0.503864,-0.07255 0.700259,-0.07668 z m -6.160838,-5.156883 c -0.09346,-0.223949 -0.09883,-0.224923 -0.393708,-0.07139 -0.288308,0.15011 -0.291745,0.157867 -0.09645,0.21771 0.111381,0.03413 0.28855,0.06626 0.393709,0.07139 0.171866,0.0084 0.181618,-0.01362 0.09645,-0.21771 z m 7.67461,0.133375 c 0.285034,0 0.121078,-0.08698 -0.542255,-0.287684 -0.651503,-0.197121 -0.856729,-0.186879 -0.856729,0.04276 0,0.198343 0.416024,0.340177 0.84847,0.289266 0.207131,-0.02439 0.454862,-0.04434 0.550514,-0.04434 z m -8.45787,-0.30257 c 0.522868,-0.26652 0.500175,-0.245121 0.388845,-0.366675 -0.06991,-0.07633 -0.268564,-0.0351 -0.744981,0.154618 -0.35731,0.142286 -0.649653,0.295208 -0.649653,0.339827 0,0.155646 0.599078,0.07954 1.005789,-0.12777 z m 10.748046,0.126343 c 0.805119,-0.03436 0.499857,-0.137456 -1.410614,-0.476402 -1.398836,-0.248175 -1.641952,-0.269919 -1.746134,-0.156169 -0.104182,0.11375 0.0086,0.165304 0.810053,0.370277 1.193353,0.305203 1.225526,0.311456 1.531648,0.297678 0.141561,-0.0064 0.508332,-0.02229 0.815047,-0.03538 z m -11.675365,-0.39488 c 0.452304,-0.162394 0.859048,-0.33217 0.903876,-0.37728 0.127288,-0.128092 -0.546747,-0.0977 -1.071564,0.04831 -0.257646,0.07168 -0.854521,0.228224 -1.32639,0.347872 -0.8268397,0.209654 -0.8455027,0.219912 -0.514767,0.282943 0.542828,0.103452 1.122652,0.01633 2.008845,-0.301847 z m 14.735527,-0.02568 c 1.221361,-0.234837 1.111726,-0.305244 -0.585524,-0.376019 -0.865588,-0.03609 -1.689619,-0.08344 -1.83118,-0.105214 -0.655468,-0.100813 -2.679025,-0.15122 -2.867144,-0.07142 -0.166692,0.07071 -0.03167,0.111086 0.686356,0.205235 0.49163,0.06446 1.260643,0.190854 1.708919,0.280868 1.057082,0.212263 2.015852,0.234352 2.888573,0.06655 z M 10.704413,11.991265 c 0.726345,-0.180321 1.420156,-0.327857 1.541801,-0.327857 0.143125,0 0.199939,-0.03751 0.160999,-0.106306 -0.0811,-0.143275 -1.684043,-0.04813 -2.4808877,0.14726 -0.330308,0.08099 -0.967332,0.171682 -1.415608,0.201532 -1.027945,0.06845 -1.173065,0.123966 -0.729252,0.278971 0.622059,0.21726 1.50301,0.15891 2.9229477,-0.1936 z M 9.6672923,11.52464 c 0.4709627,-0.08484 0.8731687,-0.172685 0.8937917,-0.195202 0.02062,-0.02252 -1.0017327,-0.03035 -2.2719027,-0.01741 -1.270169,0.01294 -2.463829,-0.01137 -2.652577,-0.05402 -0.449403,-0.101547 -0.313422,0.06155 0.264539,0.317286 0.372668,0.1649 0.566766,0.181809 1.665836,0.145128 0.68421,-0.02284 1.629351,-0.110937 2.100313,-0.195782 z M 21.200761,10.871373 c 0.375027,-0.207473 0.819702,-0.366203 2.667158,-0.9520627 0.448276,-0.142156 1.088605,-0.392475 1.422954,-0.556263 0.334349,-0.163789 0.74938,-0.348776 0.92229,-0.411082 0.172911,-0.06231 0.314383,-0.147963 0.314383,-0.190349 0,-0.04239 -0.188433,-0.1264217 -0.418739,-0.1867452 -0.406183,-0.1063902 -0.438985,-0.098582 -1.093879,0.2603942 -0.371327,0.203541 -1.292111,0.608683 -2.046186,0.900317 -1.467551,0.5675657 -1.929784,0.8201007 -2.461996,1.3450777 -0.510686,0.503744 -0.583414,0.745056 -0.104174,0.34565 0.22252,-0.185452 0.581705,-0.435174 0.798189,-0.554937 z m 7.706778,0.643267 c 0.208394,-0.133343 0.359561,-0.263556 0.335925,-0.289362 -0.02364,-0.02581 -0.313967,-10e-4 -0.645179,0.05509 -0.331213,0.05611 -0.884366,0.09701 -1.229229,0.09089 l -0.627024,-0.01113 0.471869,-0.08166 c 1.218363,-0.210834 2.034951,-0.383962 2.137541,-0.453189 0.153648,-0.10368 -0.07926,-0.6296 -0.25579,-0.577577 -0.06763,0.01993 -0.431825,0.137585 -0.80932,0.261453 -1.021366,0.335143 -1.738806,0.487782 -3.260188,0.693621 -0.754991,0.102148 -1.411319,0.198593 -1.458505,0.214323 -0.11813,0.03938 1.122965,0.139267 2.616729,0.210604 0.684211,0.03268 1.260106,0.07515 1.279767,0.09439 0.01966,0.01924 0.267218,0.03498 0.550126,0.03498 0.398548,0 0.599701,-0.05459 0.893278,-0.242442 z M 13.046878,11.319392 C 12.799816,10.990664 11.891997,10.44032 10.675156,9.8815913 9.3111963,9.2553113 8.7480483,8.9807813 7.9656983,8.5607515 7.4049063,8.2596728 7.3256863,8.2481488 6.8377263,8.3966682 l -0.343177,0.1044523 0.643458,0.2767398 c 0.353902,0.152207 0.952318,0.398332 1.329813,0.546945 1.135394,0.446982 0.278578,0.319383 -1.115327,-0.166097 -0.377496,-0.131477 -0.762509,-0.296153 -0.855586,-0.365947 -0.09308,-0.06979 -0.237073,-0.1268972 -0.319993,-0.1268972 -0.200504,0 -0.84059,0.2826722 -0.84059,0.3712182 0,0.136434 2.774003,0.913491 4.032338,1.1295427 1.4766067,0.253529 2.7795367,0.674501 3.4317767,1.108795 0.362354,0.241273 0.399738,0.247944 0.246439,0.04397 z m 8.486096,0.06879 c 0.272575,-0.08535 1.849615,-0.316013 2.892609,-0.423078 1.046873,-0.107464 1.39105,-0.160144 2.187757,-0.334866 0.777637,-0.170538 2.215471,-0.605144 2.297177,-0.6943527 0.04804,-0.05245 -0.504395,-0.42613 -0.630677,-0.42661 -0.05076,-1.92e-4 -0.359934,0.101748 -0.687059,0.226534 -0.815495,0.3110817 -1.502794,0.4764877 -3.140375,0.7557617 -1.412691,0.240922 -2.722487,0.59139 -3.143794,0.841201 -0.266323,0.157914 -0.175008,0.180466 0.224362,0.05541 z m -9.847863,-0.352663 c 0,-0.05774 -0.81689,-0.250051 -2.1448607,-0.50493 -1.589393,-0.305054 -3.090973,-0.6984367 -4.036701,-1.0575317 -0.49778,-0.189009 -0.60035,-0.201175 -0.788518,-0.09353 -0.327462,0.18733 -0.362341,0.398474 -0.08487,0.513775 0.358603,0.1490157 1.162027,0.3357537 2.250464,0.5230687 l 0.986636,0.169796 -0.585163,0.02785 c -0.609796,0.02902 -1.752325,-0.163087 -2.523846,-0.424365 -0.518173,-0.175482 -0.628167,-0.116818 -0.446059,0.237899 0.188028,0.366248 0.468934,0.476195 1.420366,0.555932 0.724914,0.06075 5.9525517,0.106452 5.9525517,0.05204 z m 18.360006,-1.015914 c 0,-0.7027997 -0.69924,-1.8703812 -1.596643,-2.6660523 -0.859977,-0.7624879 -2.845001,-1.814097 -4.880835,-2.585728 -0.47187,-0.17885 -1.610791,-0.7367379 -2.530936,-1.239751 -2.100494,-1.148271 -2.546967,-1.2797952 -4.332618,-1.2763256 -1.638887,0.00318 -2.105005,0.141561 -4.246643,1.2607016 -0.873058,0.4562277 -2.282313,1.1120802 -3.1316777,1.4574498 -2.464036,1.0019294 -3.784473,1.7901304 -4.731949,2.8246175 -0.542343,0.5921479 -0.797317,1.1239083 -0.799586,1.6675723 l -0.0016,0.374693 0.178005,-0.318798 c 0.246484,-0.44144 0.446162,-0.609043 1.236961,-1.0382613 1.118985,-0.6073465 2.655397,-1.0217249 5.3621517,-1.4462003 2.645027,-0.4147953 5.419797,-0.5283754 7.850189,-0.3213331 3.149715,0.2683206 4.980408,0.5046725 6.00561,0.7753552 0.09437,0.024918 0.441841,0.1148228 0.77215,0.1997897 2.576621,0.662797 4.463181,1.6588108 4.645674,2.4526935 0.06114,0.265989 0.20171,0.182069 0.20171,-0.120423 z M 25.841191,9.9174933 c 1.057275,-0.269565 1.973271,-0.583839 1.973271,-0.67702 0,-0.03621 -0.164081,-0.128953 -0.364626,-0.206102 l -0.364626,-0.140272 -1.5443,0.685663 c -1.375427,0.6106837 -1.492699,0.6791967 -1.07243,0.6265367 0.259528,-0.03252 0.877248,-0.162481 1.372711,-0.2888057 z m -2.708036,-0.46756 c 0.185716,-0.07278 0.761015,-0.351815 1.278443,-0.620084 0.798545,-0.4140184 0.909631,-0.4972792 0.734764,-0.5507179 -0.502177,-0.1534638 -0.701362,-0.080838 -1.830389,0.6673869 -1.43557,0.951375 -1.601913,1.0912577 -0.992354,0.834498 0.259529,-0.109318 0.623819,-0.258306 0.809536,-0.331083 z m -10.933277,0.118028 c 0,-0.01905 -0.419448,-0.376684 -0.932107,-0.794741 C 10.755112,8.355162 10.287095,7.9492193 10.227733,7.8711236 10.107607,7.7130888 9.3267413,7.6695129 9.2437033,7.8162103 c -0.02711,0.047893 0.617287,0.4649976 1.4319927,0.926898 1.703794,0.965972 1.524182,0.868771 1.524182,0.824851 z"
         id="path2" /></g></g></svg>
