<?xml version="1.0" encoding="UTF-8" standalone="no"?>
<!-- Created with Inkscape (http://www.inkscape.org/) -->

<svg
   width="128"
   height="128"
   viewBox="0 0 33.866666 33.866666"
   version="1.1"
   id="svg5"
   xml:space="preserve"
   inkscape:version="1.2.2 (b0a8486541, 2022-12-01)"
   sodipodi:docname="gilled_puro.svg"
   xmlns:inkscape="http://www.inkscape.org/namespaces/inkscape"
   xmlns:sodipodi="http://sodipodi.sourceforge.net/DTD/sodipodi-0.dtd"
   xmlns="http://www.w3.org/2000/svg"
   xmlns:svg="http://www.w3.org/2000/svg"><sodipodi:namedview
     id="namedview7"
     pagecolor="#ffffff"
     bordercolor="#000000"
     borderopacity="0.25"
     inkscape:showpageshadow="2"
     inkscape:pageopacity="0.0"
     inkscape:pagecheckerboard="0"
     inkscape:deskcolor="#d1d1d1"
     inkscape:document-units="mm"
     showgrid="false"
     inkscape:zoom="1.1932427"
     inkscape:cx="206.99896"
     inkscape:cy="193.1711"
     inkscape:window-width="1854"
     inkscape:window-height="1011"
     inkscape:window-x="0"
     inkscape:window-y="0"
     inkscape:window-maximized="1"
     inkscape:current-layer="layer1" /><defs
     id="defs2" /><g
     inkscape:label="Camada 1"
     inkscape:groupmode="layer"
     id="layer1"
     transform="translate(-64.913108,-44.58486)"><path
       id="path4721"
       style="fill:#575757;fill-opacity:1;stroke-width:0.0775615"
       d="M 82.31773 46.690675 C 82.155853 46.690797 81.973589 46.69461 81.763759 46.70101 C 80.920082 46.72663 80.54404 46.771841 80.18246 46.891696 C 79.92158 46.978176 79.402849 47.15311 79.029559 47.280303 C 78.656269 47.407497 78.104968 47.548444 77.804311 47.593979 C 77.503661 47.639519 76.919773 47.759087 76.506716 47.859596 C 76.093656 47.960102 75.542347 48.109699 75.281467 48.191875 C 75.02059 48.274055 74.479284 48.462662 74.078957 48.610971 C 73.678627 48.759278 73.133095 48.984462 72.866628 49.111715 C 72.600168 49.238975 72.162624 49.471256 71.894594 49.627446 C 71.626564 49.783635 71.283233 49.997641 71.131333 50.103386 C 70.979443 50.209131 70.731859 50.398473 70.580979 50.524032 C 70.430109 50.649589 70.115307 50.923035 69.881797 51.13123 C 69.648287 51.339425 69.297666 51.713848 69.102516 51.963738 C 68.907369 52.213624 68.657651 52.566258 68.547511 52.747152 C 68.437384 52.92805 68.256369 53.32398 68.145469 53.626685 C 67.981059 54.075415 67.94284 54.324506 67.93773 54.975957 C 67.93173 55.731057 67.944579 55.800695 68.182159 56.239446 C 68.320189 56.494792 68.525986 56.809816 68.639496 56.939661 C 68.753003 57.069509 69.066504 57.344276 69.336094 57.550477 C 69.605684 57.756678 69.986377 58.014834 70.182037 58.124085 C 70.377697 58.233342 70.800438 58.445497 71.120998 58.595374 C 71.441555 58.74524 72.2239 59.04973 72.85991 59.272336 C 73.495917 59.49494 74.425397 59.781817 74.925417 59.910023 C 75.425444 60.038221 76.254145 60.213059 76.767165 60.298113 C 77.280182 60.383173 77.947522 60.510051 78.249762 60.580266 C 78.754149 60.69745 78.798865 60.724148 78.798565 60.904794 C 78.798315 61.013033 78.744249 61.443833 78.678159 61.862358 C 78.612059 62.280881 78.519091 62.863388 78.471454 63.156336 C 78.423854 63.449301 78.355475 63.842877 78.319525 64.031218 C 78.283625 64.219558 78.21628 64.562213 78.17018 64.792412 C 78.12408 65.022601 78.032228 65.587769 77.966058 66.048149 C 77.899858 66.508538 77.813408 67.661282 77.774338 68.60975 C 77.735241 69.558247 77.717664 70.396816 77.735064 70.473719 C 77.752464 70.550619 77.803309 71.09066 77.847719 71.673646 C 77.879519 72.090799 77.895211 72.346201 77.893711 72.514938 C 77.921811 72.555568 77.944006 72.609725 77.955206 72.677719 C 77.966806 72.748029 77.961892 72.714554 77.970192 72.779005 C 77.985592 72.878065 78.000965 72.976821 78.003265 73.077178 C 78.004035 73.108748 78.002064 73.138071 77.997064 73.164511 C 78.009464 73.175151 78.022837 73.185817 78.030137 73.195517 C 78.063937 73.240417 78.068239 73.882273 78.039439 74.622303 L 77.987245 75.968474 L 78.254929 76.127121 C 78.464009 76.251343 78.591316 76.275002 78.838356 76.235124 C 79.012276 76.207057 79.208252 76.186592 79.273472 76.189132 C 79.338672 76.192032 79.587789 76.163544 79.826926 76.126604 C 80.066076 76.089584 80.724122 76.040893 81.289369 76.018083 C 82.222466 75.980486 82.36431 75.992267 82.830877 76.150375 C 83.113497 76.246165 83.536392 76.332801 83.770872 76.343128 C 84.050719 76.355488 84.261434 76.321576 84.383754 76.244426 C 84.486244 76.179766 84.570306 76.054657 84.570306 75.966407 C 84.570306 75.878177 84.49238 75.682205 84.39719 75.530775 C 84.30199 75.379353 84.034862 75.034054 83.803945 74.76338 C 83.580755 74.501756 83.398479 74.216939 83.386399 74.114324 C 83.383399 74.111424 83.384715 74.112739 83.380715 74.108639 C 83.303215 74.031599 83.227291 73.951839 83.165741 73.862143 C 83.128641 73.808123 83.107045 73.757138 83.098045 73.711248 C 83.091045 73.702348 83.082707 73.693903 83.075307 73.684893 C 83.009407 73.603253 82.944209 73.519598 82.892889 73.428577 C 82.862789 73.37526 82.846279 73.325959 82.840179 73.282333 C 82.790879 73.176275 82.731708 73.030967 82.677398 72.874606 C 82.585998 72.61142 82.434525 71.994832 82.340985 71.504664 C 82.197545 70.753142 82.171723 70.339379 82.175103 68.863481 C 82.178103 67.389323 82.211272 66.90316 82.383359 65.781499 C 82.495749 65.04907 82.644825 64.038908 82.714605 63.536675 C 82.784405 63.034437 82.8738 62.383735 82.91356 62.090768 C 82.95336 61.797802 83.005318 61.481102 83.028798 61.386935 C 83.070798 61.218122 83.089222 61.215461 84.354299 61.214853 C 85.060026 61.214538 86.353131 61.163827 87.227508 61.102198 C 88.101895 61.040558 88.991005 60.958059 89.203615 60.918747 C 89.416245 60.879467 89.821705 60.806111 90.104335 60.755966 C 90.386955 60.705806 90.938266 60.563254 91.329583 60.439189 C 91.720883 60.315126 92.272202 60.126978 92.554832 60.02061 C 92.837449 59.914247 93.352675 59.689915 93.699465 59.52245 C 94.125162 59.31688 94.47825 59.072476 94.78622 58.769524 C 95.03712 58.522702 95.357668 58.107232 95.498838 57.846583 C 95.735668 57.409346 95.755607 57.316723 95.756187 56.649757 C 95.756497 56.194583 95.701802 55.71564 95.608392 55.356296 C 95.526792 55.042399 95.317504 54.486435 95.143304 54.121229 C 94.948004 53.711802 94.792561 53.475895 94.738161 53.505763 C 94.689661 53.53242 94.675222 53.527364 94.706122 53.494394 C 94.732419 53.466384 94.714998 53.372628 94.671498 53.273219 C 94.655098 53.252459 94.639657 53.231306 94.627057 53.208106 C 94.615657 53.191446 94.6116 53.167103 94.5945 53.154363 C 94.5809 53.144863 94.573211 53.132663 94.564011 53.119223 C 94.551611 53.101043 94.551427 53.09099 94.558327 53.08615 C 94.441127 52.925492 94.240562 52.680459 94.040012 52.456731 C 93.768595 52.153924 93.258172 51.663826 92.905715 51.367392 C 92.553255 51.070955 91.911915 50.601399 91.480995 50.324045 C 91.050078 50.046688 90.484071 49.707033 90.223191 49.569052 C 89.962311 49.431075 89.48218 49.19108 89.156073 49.036268 C 88.829943 48.881426 88.225036 48.634404 87.811969 48.486947 C 87.398899 48.339497 86.84757 48.155674 86.58672 48.078704 C 86.325833 48.001734 85.994748 47.86324 85.850848 47.770712 C 85.706948 47.678182 85.536637 47.62199 85.472577 47.645655 C 85.408477 47.669325 85.170764 47.571337 84.943927 47.428097 C 84.717097 47.284863 84.402481 47.109825 84.245261 47.039491 C 84.088041 46.969151 83.714668 46.856731 83.415338 46.789377 C 83.105768 46.719717 82.803887 46.690315 82.318247 46.690675 L 82.31773 46.690675 z M 93.62195 52.312554 C 93.64375 52.312554 93.661741 52.32935 93.661741 52.350277 C 93.661741 52.371197 93.64375 52.388518 93.62195 52.388518 C 93.60015 52.388518 93.582676 52.371207 93.582676 52.350277 C 93.582676 52.32936 93.60025 52.312554 93.62195 52.312554 z M 93.859145 52.616928 C 93.880945 52.616928 93.898936 52.633712 93.898936 52.654652 C 93.898936 52.675572 93.880945 52.692892 93.859145 52.692892 C 93.837345 52.692892 93.819871 52.675582 93.819871 52.654652 C 93.819871 52.633722 93.837345 52.616928 93.859145 52.616928 z M 146.83886 62.011186 C 146.84286 62.088266 146.84918 62.164934 146.85798 62.241147 C 146.8626 62.235687 146.86781 62.229492 146.87245 62.224093 C 146.87866 62.216861 146.88478 62.209343 146.89105 62.201873 L 146.89157 62.202389 C 146.89557 62.197589 146.89955 62.19299 146.90345 62.18792 C 146.90545 62.185317 146.90748 62.181709 146.90914 62.178618 L 146.90914 62.178101 C 146.90937 62.177665 146.90994 62.177513 146.91017 62.177068 L 146.91017 62.176551 L 146.91069 62.176034 C 146.91164 62.173997 146.91244 62.17152 146.91327 62.169316 C 146.91341 62.168964 146.91365 62.168639 146.91379 62.168283 C 146.91411 62.167389 146.91452 62.166101 146.91482 62.165182 C 146.9155 62.163158 146.91631 62.160605 146.91689 62.158464 C 146.91714 62.157488 146.91717 62.156361 146.9174 62.155364 C 146.9179 62.153264 146.91855 62.151359 146.91896 62.149163 C 146.91909 62.148461 146.91935 62.147806 146.91947 62.147096 C 146.92416 62.119359 146.92192 62.084358 146.91585 62.048394 C 146.88925 62.035764 146.86426 62.023776 146.83886 62.011186 z M 150.4004 63.818828 L 152.56977 67.256861 L 150.4004 63.818828 z M 150.28361 63.888591 L 151.45408 66.691004 L 150.28361 63.888591 z M 155.52825 69.290329 C 155.52839 69.291329 155.52863 69.292429 155.52877 69.293429 C 155.56837 69.316279 155.59957 69.334278 155.63987 69.357508 C 155.67747 69.379188 155.58807 69.326249 155.52825 69.290329 z M 155.48381 69.936801 C 155.47981 69.948271 155.47684 69.959697 155.47244 69.970907 C 155.53574 70.005787 155.56934 70.024605 155.64349 70.065475 L 155.48381 69.936801 z M 154.86834 70.560019 C 154.79354 70.580819 154.7147 70.591728 154.63373 70.592058 C 154.63473 70.614908 154.63473 70.637741 154.63425 70.660271 C 154.72145 70.641681 154.80024 70.608801 154.86834 70.560019 z " /></g></svg>
