<?xml version="1.0" encoding="UTF-8" standalone="no"?>
<!-- Created with Inkscape (http://www.inkscape.org/) -->

<svg
   width="128"
   height="128"
   viewBox="0 0 33.866666 33.866668"
   version="1.1"
   id="svg5"
   xml:space="preserve"
   inkscape:version="1.2.2 (b0a8486541, 2022-12-01)"
   sodipodi:docname="gilled_puro.svg"
   xmlns:inkscape="http://www.inkscape.org/namespaces/inkscape"
   xmlns:sodipodi="http://sodipodi.sourceforge.net/DTD/sodipodi-0.dtd"
   xmlns="http://www.w3.org/2000/svg"
   xmlns:svg="http://www.w3.org/2000/svg"><sodipodi:namedview
     id="namedview7"
     pagecolor="#ffffff"
     bordercolor="#000000"
     borderopacity="0.25"
     inkscape:showpageshadow="2"
     inkscape:pageopacity="0.0"
     inkscape:pagecheckerboard="0"
     inkscape:deskcolor="#d1d1d1"
     inkscape:document-units="mm"
     showgrid="false"
     inkscape:zoom="1.5341894"
     inkscape:cx="-22.161541"
     inkscape:cy="179.57366"
     inkscape:window-width="1854"
     inkscape:window-height="1011"
     inkscape:window-x="0"
     inkscape:window-y="0"
     inkscape:window-maximized="1"
     inkscape:current-layer="layer1" /><defs
     id="defs2" /><g
     inkscape:label="Camada 1"
     inkscape:groupmode="layer"
     id="layer1"
     transform="translate(-63.245607,-67.682673)"><path
       style="fill:#ffffff;fill-opacity:0.694118;stroke-width:0.264583"
       d="m 100.82598,163.21949 c -0.7268,-0.38725 -0.835352,-0.4287 -1.036573,-1.02293 -0.027,-0.0797 0.02363,-0.17176 0,-0.25258 -0.118141,-0.40408 -0.179771,-0.50365 -0.179771,-0.88954 0,-0.11568 -0.06559,-0.45174 0,-0.52758 0.244258,-0.28246 0.517004,-0.53896 0.775504,-0.80844"
       id="path1548" /><path
       style="fill:#ffffff;fill-opacity:0.694118;stroke-width:0.264583"
       d="m 99.609634,161.05444 c 0.136181,0.2106 0.356573,0.38644 0.408546,0.63179 0.0334,0.15749 -0.137489,0.2929 -0.179774,0.44823 -0.139555,0.51259 -0.214265,1.11618 -0.275352,1.64417 -0.101373,0.8762 0,1.82224 0,2.70728 0,0.22476 0.05481,0.57038 0,0.795 -0.01487,0.061 -0.09065,0.10596 -0.08419,0.16838 0.0035,0.0337 0.06775,0 0.101623,0"
       id="path1550" /><path
       style="fill:#ffffff;fill-opacity:0.694118;stroke-width:0.264583"
       d="m 99.563054,163.77863 c -0.0016,0.0986 -0.103056,0.29421 -0.0045,0.29571 0.09857,0.002 0.0045,-0.19713 0.0045,-0.29571 0,-0.40199 -0.0045,-0.80397 -0.0045,-1.20596 0,-0.81317 0,-1.62634 0,-2.43952 0,-0.26958 0.01733,-0.42578 -0.08833,-0.70667 -0.03772,-0.10029 -0.271103,-0.21368 -0.178393,-0.26741 0.320334,-0.18563 0.720589,-0.17039 1.080889,-0.25559"
       id="path1552" /><path
       style="fill:#ffffff;fill-opacity:0.694118;stroke-width:0.264583"
       d="m 99.609634,161.05444 c 0.140438,0.25833 0.332192,0.49478 0.421316,0.77499 0.0555,0.1746 0,0.36644 0,0.54967 0,0.29617 0,0.59234 0,0.8885 0,1.20056 0,2.40111 0,3.60166 0,0.10536 0.12397,1.03632 -0.08247,1.1366 -0.200055,0.0972 -0.267841,-0.35799 -0.367994,-0.55657"
       id="path1554" /><path
       style="fill:#ffffff;fill-opacity:0.694118;stroke-width:0.264583"
       d="m 100.81048,164.41219 c -0.76209,-0.21147 -0.17641,-0.98151 -0.32165,-1.38888 -0.014,-0.0392 -0.0589,-0.0589 -0.0883,-0.0883 -0.0589,-0.0883 -0.14309,-0.16429 -0.17666,-0.26501 -0.0279,-0.0838 0.0145,-0.17786 0,-0.26499 -0.0153,-0.0918 -0.073,-0.17316 -0.0883,-0.26501 -0.0909,-0.54535 0.0948,-1.13671 0,-1.68143 -0.489878,-1.67919 0.006,0.25143 -0.193579,-1.23081 -0.0056,-0.0413 -0.07823,-0.0479 -0.08833,-0.0883 -0.02143,-0.0857 0,-0.17666 0,-0.265 0,-0.0582 -0.05811,-0.17785 0,-0.17459 0.185589,0.0104 0.346089,0.13578 0.519129,0.20367"
       id="path1556" /><path
       style="fill:#ffffff;fill-opacity:0.694118;stroke-width:0.264583"
       d="m 100.13557,162.14 c 0.32397,1.22577 0.13218,2.45383 0.0669,3.68686 -0.0503,0.94927 0.0432,1.90828 0,2.85772 -0.0126,0.27738 -0.0764,0.55034 -0.099,0.82709 -0.0104,0.12805 0.0299,0.26047 0,0.38542 -0.0306,0.12807 -0.135031,0.22841 -0.176671,0.35333 -0.01863,0.0559 0.01847,0.12075 0,0.17667 -0.01283,0.0388 -0.122597,0.0665 -0.08695,0.0866 0.317221,0.17865 0.669361,0.28658 1.004041,0.42987"
       id="path1558" /><path
       style="fill:#ffffff;fill-opacity:0.694118;stroke-width:0.264583"
       d="m 119.70432,165.49998 c 0.10666,0.10367 0.21631,0.41767 0.31998,0.311 0.10367,-0.10666 -0.24946,-0.18004 -0.31998,-0.311 -0.14366,-0.2668 -0.18878,-0.5767 -0.30802,-0.85527 -0.46153,-1.07828 -0.40353,-0.59515 -0.84434,-1.79013 -0.31852,-0.86348 -0.32567,-1.15614 -0.54173,-1.9875 -0.10767,-0.41429 -0.089,-0.11538 -0.089,-0.44339"
       id="path1560" /><path
       style="fill:#ffffff;fill-opacity:0.694118;stroke-width:0.264583"
       d="m 119.3842,164.70829 c 0.33522,0.56836 0.76468,1.05316 1.07314,1.64201 0.12205,0.233 0.2251,0.4774 0.30261,0.72875 0.0564,0.18286 0.0446,0.38175 0.0966,0.56589 0.0289,0.10216 0.3709,0.1692 0.265,0.17666 -0.5452,0.0384 -2.04702,-2.59255 -2.26733,-2.98849 -0.34949,-0.6281 -0.54155,-1.27955 -0.90507,-1.88606 -0.17238,-0.28759 -0.0244,-0.0651 -0.087,-0.44028 -0.0153,-0.0918 -0.17147,-0.30693 -0.0883,-0.265 0.29478,0.14864 0.51873,0.40854 0.77809,0.61281"
       id="path1562" /><path
       style="fill:#ffffff;fill-opacity:0.694118;stroke-width:0.264583"
       d="m 118.85422,164.83311 c 0.0587,-0.24499 -0.071,-0.6853 0.17598,-0.73496 0.31474,-0.0633 0.56374,0.63574 0.76119,0.84951 0.29801,0.29813 0.59602,0.59625 0.89403,0.89438 0.13066,0.22658 0.22555,0.47798 0.39198,0.67975 0.13073,0.1585 0.35759,0.21981 0.48376,0.38197 0.33769,0.43403 -0.17998,0.68831 -0.43961,0.91784"
       id="path1564" /><path
       style="fill:#ffffff;fill-opacity:0.694118;stroke-width:0.264583"
       d="m 118.55194,162.85458 c 0.38315,1.0152 0.65272,1.94177 1.16871,2.88636 0.046,0.0842 0.48066,0.57554 0.44926,0.72219 -0.0181,0.0844 -0.17623,-0.0297 -0.24602,-0.0804 -0.22458,-0.16319 -0.42932,-0.35368 -0.62386,-0.55173 -0.5468,-0.55668 -0.73277,-1.46367 -1.03481,-2.16037 -0.0177,-0.0408 -0.0911,-0.0498 -0.0945,-0.0942 -0.0324,-0.42177 0.49006,0.70246 0.62972,1.10175 0.0725,0.20728 0.0419,0.43862 0.0932,0.65215 0.0517,0.21528 0.14825,0.41736 0.21428,0.62868 0.0662,0.21174 0.10038,0.43388 0.18219,0.64007 0.19391,0.48877 0.17839,0.10996 0.17839,0.35299 0,0.0173 0.004,-0.0349 0,-0.0518 -0.0238,-0.11043 -0.043,-0.22283 -0.0821,-0.32883 -0.0841,-0.22812 -0.16754,-0.45869 -0.2864,-0.67078 -0.2733,-0.4877 -0.62133,-0.93151 -0.88713,-1.42334 -0.11192,-0.2071 -0.1866,-0.43481 -0.24084,-0.66388 -0.0339,-0.1432 -0.0456,-0.51018 0.0804,-0.43408 0.54839,0.33136 0.21713,0.32043 0.32677,0.87471 0.0547,0.27649 0.19315,0.53027 0.26707,0.80224 0.0291,0.10707 0.0413,0.37349 -0.0597,0.32746 -0.27137,-0.12372 -0.54699,-0.25317 -0.7781,-0.44167 -0.26984,-0.22009 0.0147,-0.23562 -0.0883,-0.44166 -0.0373,-0.0745 -0.17335,-0.0935 -0.17667,-0.17667 -10e-4,-0.0288 0.19031,-0.11303 0.24948,-0.0832 0.52066,0.2629 0.73928,0.4906 1.06,0.97167 0.028,0.042 0.10907,0.39492 0.21186,0.38749 0.21522,-0.0155 0.42641,-0.0665 0.63961,-0.0998"
       id="path1566" /><path
       style="fill:#ffffff;fill-opacity:0.694118;stroke-width:0.264583"
       d="m 119.72065,165.74094 c -0.59312,-0.52546 -1.23649,-1.10585 -1.34087,-1.94092 -0.0183,-0.14608 0.0405,-0.30011 0,-0.44167 -0.11303,-0.39558 -0.24777,-0.0834 -0.32735,0.021"
       id="path1570" /><path
       style="fill:#ffffff;fill-opacity:0.694118;stroke-width:0.264583"
       d="m 117.94915,162.94709 c -0.21462,-0.0219 -0.44545,-0.1503 -0.64386,-0.0656 -0.0976,0.0417 0.13846,0.166 0.17666,0.265 0.0899,0.23295 0.0887,0.49929 0.20393,0.72082 0.3988,0.76667 0.81006,1.12926 1.37896,1.73242 -0.26746,0.005 -0.54019,0.0673 -0.80238,0.0142 -0.0577,-0.0117 0.0303,-0.12617 0,-0.17666 -0.0643,-0.10712 -0.19876,-0.15909 -0.265,-0.265 -0.0733,-0.11719 -0.20401,-0.52504 -0.26569,-0.70667 -0.0152,-0.0447 0.0218,-0.0996 0,-0.14147 -0.0508,-0.0975 -0.16475,-0.14725 -0.23325,-0.23326 -0.20128,-0.2527 -0.23733,-0.50497 -0.35334,-0.795 -0.0339,-0.0848 -0.0516,-0.34313 -0.0883,-0.25948 -0.0945,0.21529 -0.16855,0.43902 -0.25283,0.65853"
       id="path1572" /><path
       style="fill:#ffffff;fill-opacity:0.694118;stroke-width:0.264583"
       d="m 118.58657,165.38377 c -0.0439,-0.22013 -0.0584,-0.44818 -0.13157,-0.66039 -0.13953,-0.40496 -0.42197,-0.74859 -0.57934,-1.14695 -0.11833,-0.29955 -0.19589,-0.61374 -0.30296,-0.9175 -0.22531,-0.63921 -0.18184,-0.24211 -0.18184,-0.81121 0,-0.0883 -0.0616,-0.32835 0,-0.265 0.17709,0.1822 0.25533,0.43936 0.38299,0.65905"
       id="path1574" /><path
       style="fill:#ffffff;fill-opacity:0.694118;stroke-width:0.264583"
       d="m 119.3963,164.64471 c 0.46407,0.0407 0.47814,-0.0851 0.62282,0.39474 0.17024,0.56463 0.18665,1.09115 -0.56864,0.58762 -0.57776,-0.38517 -0.37498,-0.99051 -0.80777,-1.45267 -0.0627,-0.067 -0.17567,0.0531 -0.26351,0.0797"
       id="path1576" /><path
       style="fill:#ffffff;fill-opacity:0.694118;stroke-width:0.264583"
       d="m 99.853659,158.69987 c 0.04995,-0.0173 0.107082,-0.0209 0.149861,-0.052 0.0309,-0.0224 0,-0.0763 0,-0.11449 0,-0.0929 0.06,-0.47363 0.009,-0.52457 -0.06626,-0.0663 0.008,0.18733 0.008,0.28104 0,0.0918 -0.014,0.2144 0.0197,0.30033 0.01,0.0253 0.0436,0.0343 0.0576,0.0576 0.0185,0.0308 0,0.43711 0,0.49763 0,0.0382 0,0.0763 0,0.1145 0,0.0128 -0.01,0.047 0,0.0384 0.0808,-0.0729 0.0385,-0.26176 0.0158,-0.35195 -0.0151,-0.06 0.007,-0.12734 0.0183,-0.18388 0.0107,-0.0548 0.0162,-0.29016 0,-0.33686 -0.0175,-0.0506 -0.0416,-0.10058 -0.0564,-0.15245 -0.005,-0.0185 0.007,-0.0398 0,-0.0576 -0.0303,-0.0756 -0.07592,-0.0304 -0.07592,-0.16018 0,-0.004 -2.65e-4,0.008 0,0.0122 0.02625,0.3153 0.02281,0.16788 0.02281,0.38046 0,0.091 -0.003,0.20212 0.0192,0.29026 0.008,0.0337 0.0305,0.0631 0.0389,0.0968 0.0168,0.0669 0.005,0.14614 0.0384,0.21202 0.008,0.0162 0.0317,0.0216 0.0384,0.0384 0.007,0.0178 -0.005,0.0392 0,0.0576 0.008,0.0276 0.0278,0.0503 0.0385,0.0769 0.0144,0.036 -0.006,0.0952 0,0.13354 0.003,0.02 0.0373,0.0666 0.0192,0.0576 -0.0981,-0.0487 -0.18182,-0.12234 -0.272723,-0.18351"
       id="path1578" /><path
       style="fill:#ffffff;fill-opacity:0.694118;stroke-width:0.264583"
       d="m 100.15731,159.08553 c 0.1416,-0.0902 0.11702,-0.0836 0.0927,-0.20536 -0.003,-0.0126 0.004,-0.0263 0,-0.0384 -0.003,-0.008 -0.016,-0.0104 -0.0188,-0.0188 -0.006,-0.0179 0.0114,-0.0416 0,-0.0567 -0.0643,-0.0856 -0.0591,-0.0244 -0.0956,-0.13399 -0.0168,-0.0505 -0.003,-0.11778 -0.0192,-0.17286 -0.0171,-0.0598 -0.0533,-0.14877 -0.0958,-0.19131 -0.0109,-0.0109 -0.04781,-0.0321 -0.05312,-0.0439 -0.0016,-0.003 -0.0024,-0.0145 0,-0.0115 0.01963,0.0243 0.03539,0.0514 0.05309,0.0771"
       id="path1580" /><path
       style="fill:#ffffff;fill-opacity:0.694118;stroke-width:0.264583"
       d="m 100.23121,158.82297 c -0.007,-0.0341 -0.0114,-0.14683 -0.025,-0.18723 -0.007,-0.0221 -0.0337,-0.0354 -0.0388,-0.0582 -0.008,-0.0377 0.003,-0.0773 0,-0.11576 -0.005,-0.0606 -0.0217,-0.30535 -0.0394,-0.34984 -0.0371,-0.0933 -0.0621,-0.0205 -0.0773,-0.0965 -0.0223,-0.11153 0.0414,-0.003 -0.0192,-0.15291 -0.002,-0.006 -0.0139,0.004 -0.0192,0 -0.02246,-0.015 -0.04804,-0.0319 -0.05724,-0.0572 -0.0013,-0.004 0.0083,-0.002 0.01201,0 0.03783,0.0149 0.05902,0.0323 0.07338,0.0761 0.016,0.0487 -0.005,0.10264 0,0.15365 0.0102,0.11091 0.0596,0.20218 0.0776,0.30993 0.004,0.0265 -0.008,0.0699 0,0.0953 0.006,0.0169 0.0321,0.0208 0.0377,0.0377 0,0.0857 -0.009,10e-4 0.0192,0.0572 0.0201,0.04 0.0289,0.14966 0.0375,0.19904 0.005,0.0298 0.0187,0.11896 0.0187,0.0887 0,-0.0159 -0.0275,-0.29588 -0.0379,-0.31155 -0.0101,-0.0151 -0.0284,-0.0233 -0.0384,-0.0384 -0.012,-0.0179 -0.008,-0.0587 -0.0188,-0.0749 -0.01,-0.0146 -0.0276,-0.0226 -0.0372,-0.0372 -0.0145,-0.022 -0.009,-0.0526 -0.0192,-0.0768 0.0369,-0.069 -0.0421,-0.0613 -0.0568,-0.0952 -0.02299,-0.0531 0.0348,0.11406 0.0275,0.17151 -0.003,0.0253 -0.0199,-0.047 -0.0298,-0.0705"
       id="path1582" /><path
       style="fill:#ffffff;fill-opacity:0.694118;stroke-width:0.264583"
       d="m 99.470222,159.42648 0.665838,-1.02838"
       id="path1584" /><path
       style="fill:#5e5e5e;fill-opacity:1;stroke-width:0.0833033"
       d="m 81.085571,100.27246 c -0.334321,-0.0582 -0.751919,-0.1512 -0.927995,-0.20683 -0.234043,-0.07398 -0.711681,-0.08654 -1.775953,-0.0469 l -1.45581,0.0544 -0.263288,-0.30885 c -0.345319,-0.405103 -0.433743,-0.705168 -0.511365,-1.7353 -0.03547,-0.470724 -0.07696,-0.984235 -0.09222,-1.141141 -0.04871,-0.501049 -0.206856,-5.070947 -0.197454,-5.705685 0.0051,-0.336232 0.04506,-0.831401 0.08909,-1.100389 0.04402,-0.268976 0.08033,-0.679462 0.08068,-0.912176 3.54e-4,-0.232712 0.03095,-0.441042 0.06798,-0.46296 0.03702,-0.02187 0.07697,-0.176808 0.08874,-0.344213 0.01178,-0.167412 0.03562,-0.326405 0.053,-0.353322 0.06954,-0.107724 0.640666,-3.640957 0.641721,-3.969935 3.53e-4,-0.11432 -0.06506,-0.187654 -0.190998,-0.214077 -0.813911,-0.170735 -1.605898,-0.323322 -2.405093,-0.463385 -1.063414,-0.186365 -2.442282,-0.536443 -3.3203,-0.842977 -0.327774,-0.114435 -0.825818,-0.287513 -1.106767,-0.384619 -2.102722,-0.726777 -3.76897,-1.858887 -4.367872,-2.967697 l -0.311941,-0.577528 0.0022,-0.855855 c 0.0023,-0.904581 0.112933,-1.35783 0.527035,-2.160006 0.506784,-0.981718 1.922016,-2.43875 3.067942,-3.158551 0.267671,-0.168132 0.526935,-0.333187 0.576144,-0.366788 0.170742,-0.116599 0.501883,-0.288547 1.141022,-0.592509 0.569358,-0.270769 1.045987,-0.461144 2.148555,-0.858163 0.573946,-0.206678 1.80055,-0.512284 2.921007,-0.727768 1.084349,-0.208538 1.357654,-0.28052 1.87299,-0.493261 0.959175,-0.395985 1.507014,-0.486772 2.937188,-0.486772 1.617027,0 2.04984,0.09435 2.925319,0.637629 0.287477,0.178399 0.651263,0.334424 0.808413,0.346723 0.157149,0.01228 0.370332,0.09846 0.473735,0.191456 0.103403,0.09302 0.224311,0.169105 0.26869,0.169105 0.114861,0 1.25245,0.35561 1.928069,0.602715 3.452229,1.262641 6.644257,3.715992 7.699943,5.918073 0.502594,1.048368 0.747222,2.105376 0.692689,2.993022 -0.04081,0.664206 -0.182264,0.982985 -0.789445,1.77908 -0.466315,0.611398 -1.331866,1.123951 -2.812044,1.665207 -0.28095,0.102743 -0.587435,0.215925 -0.681084,0.251525 -0.241912,0.09195 -1.23233,0.378663 -1.515376,0.438655 -1.413781,0.299643 -4.249219,0.534225 -6.45906,0.534355 l -1.418972,7.8e-5 -0.09219,0.411568 c -0.05071,0.226353 -0.09219,0.499063 -0.09219,0.606004 0,0.106956 -0.05451,0.536126 -0.121147,0.953728 -0.06663,0.41761 -0.164055,1.107744 -0.216503,1.533625 -0.05244,0.425893 -0.130823,1.031103 -0.174177,1.344922 -0.04335,0.313806 -0.118322,0.856334 -0.166609,1.2056 -0.04828,0.349265 -0.08779,0.761906 -0.08779,0.916981 0,0.155076 -0.02872,0.281912 -0.06385,0.281866 -0.08117,-7.7e-5 0.02233,2.450065 0.137802,3.262014 0.1347,0.947215 0.414599,2.064876 0.638515,2.549617 0.111658,0.241728 0.439226,0.729442 0.727926,1.083815 0.288707,0.354371 0.614631,0.754342 0.724285,0.888837 0.26484,0.324835 0.328218,0.551187 0.198247,0.708017 -0.15128,0.18251 -1.07926,0.2381 -1.821443,0.10906 z"
       id="path1646" /></g></svg>
