<?xml version="1.0" encoding="UTF-8" standalone="no"?>
<!-- Created with Inkscape (http://www.inkscape.org/) -->

<svg
   width="128"
   height="128"
   viewBox="0 0 33.866666 33.866666"
   version="1.1"
   id="svg1"
   xml:space="preserve"
   inkscape:version="1.4.2 (f4327f4, 2025-05-13)"
   sodipodi:docname="polypore.svg"
   xmlns:inkscape="http://www.inkscape.org/namespaces/inkscape"
   xmlns:sodipodi="http://sodipodi.sourceforge.net/DTD/sodipodi-0.dtd"
   xmlns="http://www.w3.org/2000/svg"
   xmlns:svg="http://www.w3.org/2000/svg"><sodipodi:namedview
     id="namedview1"
     pagecolor="#ffffff"
     bordercolor="#000000"
     borderopacity="0.25"
     inkscape:showpageshadow="2"
     inkscape:pageopacity="0.0"
     inkscape:pagecheckerboard="0"
     inkscape:deskcolor="#d1d1d1"
     inkscape:document-units="mm"
     inkscape:zoom="1.6328077"
     inkscape:cx="49.6078"
     inkscape:cy="57.875767"
     inkscape:window-width="1600"
     inkscape:window-height="837"
     inkscape:window-x="-8"
     inkscape:window-y="-8"
     inkscape:window-maximized="1"
     inkscape:current-layer="layer1" /><defs
     id="defs1" /><g
     inkscape:label="Camada 1"
     inkscape:groupmode="layer"
     id="layer1"><path
       style="fill:#626262;fill-opacity:1"
       d="m 15.574808,30.884173 c -0.0252,-0.0252 -0.407679,-0.04299 -0.849954,-0.03955 -0.691837,0.0054 -0.809807,-0.01538 -0.844731,-0.148776 -0.03803,-0.145244 -0.04125,-0.145095 -0.05094,0.0024 -0.0084,0.128359 -0.06385,0.147189 -0.300306,0.102048 -0.159476,-0.03044 -0.463216,-0.05067 -0.674978,-0.04494 -0.242919,0.0066 -0.364124,-0.0234 -0.328401,-0.0812 0.03114,-0.05039 0.09122,-0.07023 0.133509,-0.0441 0.04229,0.02614 0.09964,0.01071 0.127443,-0.03428 0.02781,-0.04499 0.171097,-0.07345 0.318426,-0.06325 0.147329,0.0102 0.26787,-0.01387 0.26787,-0.05348 0,-0.03962 0.124603,-0.07203 0.276895,-0.07203 h 0.276894 l -0.288056,-0.328112 c -0.321125,-0.365741 -0.531698,-0.807224 -0.532925,-1.117318 -4.47e-4,-0.11282 -0.0048,-0.305497 -0.0098,-0.428171 -0.0049,-0.122674 0.02305,-0.5643 0.06217,-0.981392 0.16127,-1.719649 -0.04088,-2.54889 -1.036828,-4.253214 -0.1873,-0.320519 -0.325666,-0.660026 -0.30748,-0.754462 0.01819,-0.09444 -0.0021,-0.149971 -0.04506,-0.123413 -0.0811,0.05012 -0.121767,-0.05122 -0.232277,-0.578825 -0.06822,-0.325703 -0.06285,-2.295091 0.0066,-2.407408 0.07027,-0.1137 -0.13048,-1.193882 -0.290437,-1.562767 -0.282193,-0.650794 -0.886549,-1.043723 -1.9173122,-1.246571 -0.663991,-0.130669 -1.875261,-0.229514 -2.742907,-0.223835 -0.991856,0.0065 -2.180372,-0.473189 -2.954151,-1.192287 -0.462355,-0.429681 -0.812816,-0.901038 -0.730866,-0.982988 0.03126,-0.03126 0.01529,-0.05684 -0.03549,-0.05684 -0.173471,0 -0.37035,-1.014502 -0.380932,-1.962918 -0.01128,-1.011091 0.226008,-2.075097 0.512313,-2.2972138 0.07906,-0.06134 0.115186,-0.111522 0.08028,-0.111522 -0.03491,0 0.02313,-0.169747 0.128967,-0.377216 0.246263,-0.482715 1.444481,-1.672999 1.902251,-1.889656 0.19323,-0.09145 0.393969,-0.202241 0.446087,-0.246195 0.05212,-0.04395 0.375796,-0.265173 0.719283,-0.491599 0.343487,-0.226426 0.682611,-0.496146 0.753609,-0.599379 0.250563,-0.364329 0.715121,-0.780216 0.807647,-0.723032 0.05153,0.03185 0.08266,0.0106 0.06917,-0.04722 -0.03013,-0.1291959 1.002802,-0.7258436 1.157616,-0.6686686 0.06134,0.022653 0.111521,0.00851 0.111521,-0.031432 0,-0.1435083 3.7640452,-1.1368246 3.9267652,-1.0362577 0.04003,0.024738 0.08624,0.0106 0.102702,-0.031419 0.05418,-0.1383155 1.713428,-0.5728426 2.291787,-0.6001763 0.311703,-0.014731 0.584615,-0.044667 0.606472,-0.066524 0.09909,-0.099085 1.409209,0.054967 2.841579,0.3341296 0.09814,0.019127 0.760579,0.1828003 1.472088,0.3637187 0.711509,0.1809185 1.373948,0.3401631 1.472087,0.3538769 0.260493,0.036401 0.699956,0.1529856 0.802957,0.2130155 0.04907,0.028598 0.160674,0.063126 0.248011,0.076729 0.25286,0.039383 1.045641,0.4653618 1.045641,0.5618462 0,0.048243 0.04191,0.087714 0.09313,0.087714 0.103216,0 1.183128,0.872494 1.230266,0.99397 0.01636,0.04215 0.08649,0.07664 0.155857,0.07664 0.147117,0 1.266488,0.585386 1.780042,0.930891 0.461091,0.310208 1.219107,1.109789 1.153198,1.216431 -0.02825,0.04571 -0.0097,0.08311 0.0413,0.08311 0.05097,0 0.178367,0.170629 0.283108,0.379174 0.104741,0.208546 0.284486,0.5047 0.399433,0.65812 0.114947,0.15342 0.18062,0.310411 0.14594,0.348869 -0.03468,0.03846 -0.01855,0.04455 0.03585,0.01355 0.10243,-0.05839 1.182446,1.0098345 1.542169,1.5253285 0.1125,0.161218 0.181184,0.354005 0.15263,0.428416 -0.02855,0.07441 -0.01512,0.112551 0.02985,0.08475 0.179657,-0.111034 0.399641,1.301496 0.331026,2.125533 -0.02917,0.350278 -0.05414,0.709497 -0.0555,0.798265 -0.0015,0.09895 -0.04232,0.136766 -0.105473,0.09774 -0.06458,-0.03991 -0.07875,-0.02442 -0.038,0.04152 0.08633,0.139693 -0.02942,0.65161 -0.132889,0.587666 -0.04452,-0.02751 -0.05764,0.01068 -0.02917,0.08487 0.06279,0.163629 -0.310482,0.993462 -0.585598,1.301857 -0.109436,0.122674 -0.251974,0.323413 -0.316752,0.446087 -0.149192,0.282534 -1.59346,1.66508 -2.057562,1.969631 -0.192681,0.12644 -0.5186,0.341042 -0.724265,0.476894 -0.21395,0.141326 -0.420245,0.218383 -0.482176,0.180107 -0.06461,-0.03993 -0.08516,-0.02956 -0.05098,0.02575 0.05198,0.08411 -0.394102,0.32914 -0.609603,0.334859 -0.04907,0.0013 -0.169513,0.04841 -0.267653,0.104679 -0.09814,0.05627 -0.218582,0.111079 -0.267652,0.121796 -0.04907,0.01072 -0.189587,0.05999 -0.312261,0.109485 -0.122674,0.0495 -0.429661,0.09487 -0.682193,0.100833 -0.252533,0.006 -0.440866,0.04095 -0.418518,0.07775 0.124192,0.204517 -2.609196,-0.07395 -2.872729,-0.292667 -0.0563,-0.04673 -0.128786,-0.05854 -0.161074,-0.02625 -0.03229,0.03229 -0.0587,0.0095 -0.0587,-0.05065 0,-0.06014 -0.04015,-0.08454 -0.08922,-0.05421 -0.04907,0.03033 -0.139403,0.02382 -0.20074,-0.01446 -0.06134,-0.03828 -0.188666,-0.0816 -0.282954,-0.09626 -0.09429,-0.01466 -0.224768,-0.07093 -0.289957,-0.125027 -0.06519,-0.0541 -0.118524,-0.07284 -0.118524,-0.04164 0,0.0312 -0.13048,0.0024 -0.289956,-0.06391 -0.159476,-0.06635 -0.340141,-0.103692 -0.401478,-0.08298 -0.06134,0.02071 -0.111428,0.0042 -0.111313,-0.03669 1.16e-4,-0.04089 -0.321067,-0.06125 -0.713739,-0.04525 -0.41191,0.01679 -0.713949,0.06801 -0.713949,0.121067 0,0.05058 -0.06903,0.06548 -0.153411,0.0331 -0.08438,-0.03238 -0.129806,-0.03526 -0.100956,-0.0064 0.02885,0.02885 -0.06875,0.181526 -0.216898,0.33928 -0.309162,0.329218 -0.594521,0.905574 -0.597384,1.20657 -0.0011,0.113302 -0.03207,0.187385 -0.06887,0.164627 -0.09586,-0.05928 -0.05342,0.972396 0.06768,1.645285 0.05656,0.314264 0.257404,1.023052 0.44632,1.575084 0.218796,0.639343 0.305248,1.004192 0.238154,1.005063 -0.062,8.04e-4 -0.05028,0.03694 0.0285,0.08785 0.0736,0.04757 0.0988,0.0871 0.05599,0.08785 -0.04281,7.51e-4 -0.02786,0.06159 0.03323,0.135192 0.06109,0.07361 0.08116,0.133826 0.04461,0.133826 -0.03655,0 -0.02297,0.0524 0.03018,0.116438 0.159325,0.191975 0.306964,1.400188 0.255302,2.089285 -0.0459,0.6123 -0.243105,1.143461 -0.576458,1.55269 -0.158288,0.194316 0.01815,0.262321 0.781674,0.301281 0.916006,0.04674 0.997656,0.05525 1.516696,0.158108 0.269883,0.05348 0.537854,0.08884 0.59549,0.07857 0.05764,-0.01027 0.130265,0.02254 0.161396,0.07291 0.03113,0.05037 -0.01603,0.09279 -0.104794,0.09426 -1.921261,0.03182 -4.557677,0.106326 -4.635848,0.131009 -0.05654,0.01785 -0.123417,0.01184 -0.148617,-0.01336 z m -0.32421,-1.391975 c 0.417886,-0.281614 0.596831,-0.63429 0.737707,-1.453921 0.108344,-0.630363 0.129184,-0.677272 0.187265,-0.421518 0.03595,0.158278 0.0361,0.33511 3.5e-4,0.392958 -0.04076,0.06594 -0.02658,0.08143 0.038,0.04152 0.07164,-0.04427 0.103828,0.0534 0.105715,0.32078 0.0024,0.335821 0.01586,0.361873 0.106659,0.206005 0.174303,-0.299207 0.116228,-1.533768 -0.102822,-2.185827 -0.286031,-0.851447 -0.620651,-2.052001 -0.571936,-2.052001 0.02324,0 0.221266,0.391442 0.440049,0.86987 0.218783,0.478429 0.438216,0.941762 0.487628,1.02963 0.04941,0.08787 0.06197,0.208311 0.02791,0.267652 -0.03461,0.06029 -0.02707,0.07606 0.01707,0.03575 0.04345,-0.03968 0.127871,0.06069 0.187592,0.223044 0.105364,0.286429 0.108075,0.279988 0.09143,-0.217214 -0.0094,-0.281818 -0.03894,-0.512668 -0.06557,-0.513 -0.07812,-9.76e-4 -0.271462,-0.808286 -0.215329,-0.899112 0.02817,-0.04559 0.01278,-0.08288 -0.03421,-0.08288 -0.102036,0 -0.50845,-1.087161 -0.674521,-1.804348 -0.06504,-0.280883 -0.08362,-0.48929 -0.04129,-0.463127 0.04233,0.02616 0.07697,0.0084 0.07697,-0.03948 0,-0.04788 -0.03989,-0.100431 -0.08864,-0.116787 -0.04875,-0.01636 -0.09329,-0.340543 -0.09897,-0.720413 -0.01053,-0.704641 -0.116152,-0.84296 -0.220194,-0.288369 -0.03182,0.169593 -0.08985,0.288573 -0.128961,0.2644 -0.03911,-0.02417 -0.0501,0.0364 -0.02442,0.134606 0.02568,0.09821 0.0099,0.178558 -0.03501,0.178558 -0.04494,0 -0.06779,0.150555 -0.05077,0.334566 0.02559,0.276765 0.0136,0.30683 -0.06942,0.174024 -0.190436,-0.304622 -0.208859,-1.080735 -0.03851,-1.62232 0.08809,-0.280067 0.213457,-0.529661 0.278589,-0.554655 0.06513,-0.02499 0.09933,-0.07633 0.076,-0.114088 -0.02333,-0.03775 0.05298,-0.171587 0.169584,-0.297405 0.116605,-0.125819 0.193389,-0.247382 0.170632,-0.270139 -0.02276,-0.02276 0.17011,-0.202648 0.428596,-0.399756 0.424706,-0.32386 0.480518,-0.344037 0.57945,-0.209477 0.09946,0.135286 0.10804,0.132794 0.09377,-0.02726 -0.02093,-0.234678 0.436782,-0.392111 1.159216,-0.398721 0.609668,-0.0056 1.212237,0.127184 2.631135,0.57971 0.523107,0.166833 1.239629,0.348099 1.592271,0.402814 0.601703,0.09336 2.195908,0.07629 2.372667,-0.0254 0.04407,-0.02536 0.356418,-0.136803 0.694099,-0.247662 0.594796,-0.19527 1.727794,-0.777962 2.034631,-1.046396 0.08278,-0.07242 0.199389,-0.101461 0.259133,-0.06454 0.06755,0.04175 0.0856,0.02987 0.04773,-0.03139 -0.03349,-0.05419 0.01208,-0.137579 0.101266,-0.185311 0.08919,-0.04773 0.481753,-0.417234 0.872369,-0.821118 1.029166,-1.064123 1.02867,-1.06357 0.955558,-1.066671 -0.0368,-0.0016 -0.0061,-0.05175 0.06813,-0.111521 0.07427,-0.05978 0.259113,-0.378854 0.410754,-0.709061 0.151642,-0.330208 0.30039,-0.575699 0.330552,-0.545538 0.03016,0.03016 0.03924,-0.02618 0.02016,-0.125215 -0.01907,-0.09903 0.0047,-0.355387 0.0529,-0.569681 0.109248,-0.486044 0.153511,-1.864645 0.05797,-1.805599 -0.03883,0.024 -0.0706,-0.01939 -0.0706,-0.09643 0,-0.288114 -0.374692,-0.913169 -0.8486,-1.415619 -0.269314,-0.285534 -0.489661,-0.558901 -0.489661,-0.607483 0,-0.04858 -0.0409,-0.06306 -0.09088,-0.03216 -0.04999,0.0309 -0.145116,-0.0728 -0.211396,-0.23043 -0.0683,-0.1624458 -0.137544,-0.2355008 -0.159832,-0.1686368 -0.0219,0.06569 -0.185766,-0.116149 -0.369801,-0.410367 -0.181762,-0.290586 -0.310289,-0.580946 -0.285615,-0.645246 0.02467,-0.0643 0.01104,-0.09601 -0.03029,-0.07046 -0.04133,0.02554 -0.121018,-0.05423 -0.17708,-0.177266 -0.156053,-0.342507 -0.898938,-1.097559 -1.326264,-1.347988 -0.210234,-0.123206 -0.382243,-0.262712 -0.382243,-0.310015 0,-0.0473 -0.04268,-0.05963 -0.09484,-0.02739 -0.05216,0.03224 -0.162568,0.002 -0.245347,-0.06721 -0.08278,-0.0692 -0.328344,-0.202928 -0.545698,-0.297164 -0.470248,-0.203879 -1.288112,-0.832991 -1.328619,-1.02199 -0.01577,-0.07359 -0.06834,-0.1739518 -0.116807,-0.2230213 -0.05817,-0.058884 -0.06511,-0.028812 -0.02043,0.088448 0.06022,0.158037 0.03745,0.153108 -0.206161,-0.044609 -0.150625,-0.1222615 -0.256923,-0.2519357 -0.236218,-0.2881758 0.02071,-0.03624 -0.03125,-0.039454 -0.11545,-0.00714 -0.112091,0.043013 -0.133536,0.0271 -0.08007,-0.059415 0.04812,-0.077853 0.03852,-0.096836 -0.02813,-0.055644 -0.05564,0.034386 -0.192321,0.012943 -0.303742,-0.047651 C 22.876344,4.817503 22.72496,4.7568097 22.651356,4.7432227 22.136452,4.6481746 21.580747,4.4884211 21.580747,4.4354452 c 0,-0.034785 -0.07108,-0.044658 -0.157957,-0.021939 -0.08688,0.022719 -0.3378,-0.00237 -0.557609,-0.055762 C 20.645373,4.3043553 20.381315,4.242185 20.278385,4.2195871 20.175456,4.1969892 19.773978,4.0733125 19.386211,3.9447501 18.998445,3.8161876 18.620959,3.7029428 18.547355,3.693095 18.473755,3.683245 18.273012,3.648352 18.101268,3.615551 17.404833,3.482538 17.034872,3.4535948 16.183094,3.4654861 c -1.015343,0.014175 -1.370167,0.040489 -1.561305,0.1157912 -0.760902,0.2997688 -2.652295,0.8715649 -2.807608,0.8487815 -0.05058,-0.00742 -0.15218,0.00756 -0.225784,0.033298 -0.0736,0.025733 -0.51523,0.1341765 -0.981391,0.2409855 -1.2916082,0.2959395 -2.1420062,0.7477045 -2.9447922,1.5643895 -0.776,0.789435 -1.280795,1.16582 -1.435406,1.070265 -0.06462,-0.03993 -0.08516,-0.02956 -0.05098,0.02575 0.03149,0.05096 -0.07271,0.145242 -0.231563,0.209523 -0.573617,0.23212 -2.021648,1.457773 -2.02705,1.715751 -8.32e-4,0.0397 -0.04786,0.04353 -0.104514,0.0085 -0.05665,-0.03501 -0.07915,-0.02506 -0.04999,0.02212 0.02916,0.04718 -0.04585,0.259824 -0.166678,0.472549 -0.294809,0.5190202 -0.572505,1.3866672 -0.572505,1.7887632 0,0.179996 -0.02793,0.355192 -0.06206,0.389326 -0.08906,0.08906 -0.112998,0.324548 -0.03299,0.324548 0.03718,0 0.07081,0.150554 0.07474,0.334565 0.008,0.372806 0.04872,0.575227 0.188612,0.936783 0.05221,0.134942 0.06582,0.245963 0.03023,0.246714 -0.03559,7.52e-4 -0.02244,0.03086 0.02923,0.06691 0.05166,0.03605 0.210269,0.22041 0.352458,0.409688 0.142188,0.189277 0.429843,0.474952 0.639233,0.634833 0.20939,0.159881 0.351893,0.322601 0.316673,0.361599 -0.03522,0.039 -0.01978,0.04569 0.03431,0.01487 0.05409,-0.03082 0.307781,0.02052 0.563756,0.114077 0.255975,0.09356 0.854084,0.219994 1.329131,0.28096 0.475047,0.06097 0.893218,0.153749 0.929269,0.206185 0.04637,0.06744 0.06595,0.06723 0.06691,-7.2e-4 0.0026,-0.183304 1.958529,-0.0367 2.6217792,0.196514 0.513797,0.180661 1.057087,0.554021 0.982288,0.675047 -0.03502,0.05666 -0.02151,0.07487 0.03132,0.04222 0.05109,-0.03158 0.142506,0.0024 0.203144,0.07543 0.06064,0.07306 0.07759,0.132844 0.03767,0.132844 -0.03992,0 -0.0069,0.05019 0.07342,0.111522 0.0803,0.06134 0.236475,0.332335 0.347046,0.602217 0.185426,0.452587 0.201394,0.63274 0.20561,2.319653 0.0034,1.348866 0.03565,1.88348 0.122962,2.036668 0.06512,0.114241 0.09311,0.273609 0.0622,0.35415 -0.03091,0.08054 -0.02703,0.117279 0.0086,0.08164 0.08647,-0.08647 1.022186,1.643662 0.96935,1.79231 -0.02271,0.06388 -0.0084,0.09581 0.03188,0.07093 0.09966,-0.06159 0.396472,0.903748 0.317277,1.031887 -0.0362,0.05857 -0.02403,0.07804 0.02848,0.04559 0.143527,-0.0887 0.22183,0.915701 0.152304,1.953626 -0.04287,0.640011 -0.09277,0.908928 -0.161526,0.870553 -0.05472,-0.03054 -0.04931,-0.0015 0.01203,0.06462 0.06134,0.06608 0.111522,0.206498 0.111522,0.312036 0,0.867773 0.876924,1.314582 1.6102,0.820428 z m -0.678931,-8.46119 c 0.03756,-0.941779 0.344779,-2.182055 0.514509,-2.077156 0.05643,0.03487 0.07343,0.02032 0.0398,-0.03408 -0.07713,-0.1248 0.02723,-0.391635 0.128658,-0.328951 0.04336,0.0268 0.05662,-0.0092 0.02945,-0.08 -0.105223,-0.274207 1.042594,-1.288738 1.716721,-1.517374 0.239727,-0.08131 0.3888,-0.207519 0.498107,-0.421726 0.0858,-0.168132 0.156054,-0.248819 0.15613,-0.179304 7.7e-5,0.06952 0.02423,0.102298 0.05368,0.07285 0.02945,-0.02945 0.02057,-0.106398 -0.01972,-0.171 -0.0403,-0.0646 -0.08454,-0.189853 -0.09832,-0.278338 -0.06612,-0.424612 -0.684938,-1.161919 -1.335083,-1.590708 -0.538872,-0.355402 -1.370467,-0.563819 -2.258334,-0.565991 -0.740994,-0.0018 -0.897473,0.02597 -1.244483,0.22097 -0.218304,0.122674 -0.476146,0.359042 -0.572981,0.525261 -0.173529,0.297865 -0.173595,0.304058 -0.0046,0.43008 0.09433,0.07032 0.160471,0.168161 0.146988,0.217414 -0.01348,0.04925 0.01258,0.06662 0.05792,0.0386 0.09457,-0.05845 0.57159,0.457277 0.758036,0.819544 0.202079,0.392643 0.330063,0.926546 0.205332,0.856566 -0.06884,-0.03862 -0.06647,-0.0176 0.0069,0.06146 0.06134,0.06608 0.112174,0.2426 0.112971,0.392263 0.002,0.367496 -0.373268,2.28059 -0.439475,2.24068 -0.02897,-0.01746 -0.06149,0.154354 -0.07228,0.381813 -0.01078,0.227459 -0.05093,0.423943 -0.08922,0.43663 -0.03829,0.01269 -0.06014,0.253979 -0.04857,0.536203 l 0.02104,0.513136 -0.13676,-0.35687 c -0.109404,-0.285487 -0.128158,-0.633477 -0.09376,-1.73974 0.04713,-1.51563 -0.03837,-2.050523 -0.436293,-2.729526 -0.119127,-0.203274 -0.187889,-0.401387 -0.152804,-0.440249 0.03508,-0.03886 0.01997,-0.04571 -0.0336,-0.01522 -0.123281,0.07018 -0.687954,-0.503016 -0.595619,-0.604612 0.03767,-0.04144 0.01943,-0.04717 -0.04052,-0.01273 -0.05995,0.03444 -0.201125,0.0023 -0.313721,-0.07152 -0.199798,-0.130912 -0.826038,-0.37778 -1.1831896,-0.46642 -0.09814,-0.02436 -0.4594696,-0.06656 -0.8029566,-0.09379 -0.343487,-0.02723 -0.682413,-0.09458 -0.75317,-0.149677 -0.07076,-0.0551 -0.104689,-0.06003 -0.07541,-0.01096 0.07302,0.12236 -1.758708,0.01233 -2.212799,-0.132915 -0.573713,-0.183536 -1.282264,-0.70321 -1.563626,-1.146872 -0.143444,-0.226188 -0.240396,-0.46444 -0.215449,-0.52945 0.02495,-0.06501 0.0057,-0.09367 -0.04284,-0.06369 -0.04851,0.02998 -0.0882,-0.02816 -0.0882,-0.129193 0,-0.101035 -0.003,-0.212807 -0.0067,-0.248383 -0.0037,-0.03557 0.03409,-0.07828 0.08394,-0.09489 0.04985,-0.01662 0.140968,0.142973 0.202495,0.35464 0.382695,1.316545 1.330685,1.856935 3.257562,1.856935 0.562824,0 1.005134,0.03011 0.982911,0.06691 -0.02222,0.0368 0.210129,0.07148 0.516338,0.07705 0.8697492,0.01584 2.4577112,0.618684 2.4577112,0.933026 0,0.05135 0.03379,0.07248 0.07508,0.04696 0.130447,-0.08062 0.617347,0.503533 0.94626,1.135268 0.296739,0.569939 0.316964,0.589824 0.317602,0.312261 3.76e-4,-0.163042 -0.106495,-0.557401 -0.237489,-0.876353 -0.275619,-0.671089 -0.803557,-1.178585 -1.539163,-1.479565 -0.249908,-0.102253 -0.437996,-0.202622 -0.417973,-0.223044 0.02002,-0.02042 -0.105029,-0.04463 -0.277894,-0.0538 -0.172865,-0.0092 -0.379969,-0.04444 -0.4602316,-0.07839 -0.18726,-0.07918 -0.5177546,-0.126608 -0.8714196,-0.125043 -0.668422,0.003 -1.908952,-0.26929 -2.433423,-0.534042 -0.616581,-0.311249 -1.117097,-0.894668 -1.053399,-1.22788 0.02086,-0.109116 0.0036,-0.177164 -0.0384,-0.151218 -0.04198,0.02595 -0.07633,-0.176009 -0.07633,-0.448787 0,-0.272779 0.03639,-0.495961 0.08087,-0.495961 0.04448,0 0.06143,-0.07431 0.03768,-0.165123 -0.07089,-0.271088 0.460046,-1.310119 0.921611,-1.8035698 0.236847,-0.253208 0.832401,-0.722932 1.323453,-1.043832 0.491052,-0.320899 1.053413,-0.712032 1.249691,-0.869184 0.5150496,-0.41238 1.2628152,-0.81574 1.9707482,-1.063061 0.733603,-0.256288 2.044306,-0.533597 2.214096,-0.468443 0.06625,0.02542 0.15546,0.0132 0.198241,-0.02717 0.164587,-0.155298 1.520315,-0.358748 2.390595,-0.358748 1.04005,0 1.601229,0.08693 2.8618,0.44329 0.490695,0.13872 1.046959,0.279007 1.23614,0.311749 0.739396,0.127968 1.508642,0.428701 2.057178,0.804244 0.31551,0.216007 0.738811,0.476996 0.940668,0.579976 0.201857,0.10298 0.343435,0.225384 0.314619,0.27201 -0.02882,0.04663 0.0042,0.06306 0.07334,0.03653 0.144694,-0.05552 1.047876,0.460526 1.448545,0.827654 0.394755,0.361708 0.686772,0.809859 0.612158,0.939463 -0.03551,0.06167 -0.03141,0.08207 0.0091,0.04533 0.04052,-0.03674 0.186184,0.130216 0.323706,0.371009 0.142067,0.248749 0.475173,0.614678 0.77139,0.847399 0.894168,0.702499 1.179499,1.253635 1.179499,2.278283 0,0.685876 -0.223429,1.559534 -0.374896,1.465922 -0.05903,-0.03648 -0.07361,-0.02035 -0.03624,0.04012 0.208218,0.336904 -1.319276,1.845966 -2.450254,2.420687 -0.296806,0.150826 -0.607481,0.284805 -0.690389,0.297732 -0.08291,0.01293 -0.200927,0.05482 -0.262264,0.0931 -0.06134,0.03828 -0.15167,0.04478 -0.200739,0.01446 -0.04907,-0.03033 -0.08922,-0.01581 -0.08922,0.03225 0,0.320638 -2.660862,0.418538 -3.925566,0.144431 -0.788748,-0.17095 -1.998588,-0.233613 -2.230435,-0.115524 -0.0736,0.03749 -0.274343,0.127208 -0.446087,0.199373 -0.655427,0.275406 -1.041417,0.600144 -1.584027,1.332662 -0.224988,0.303731 -0.708314,1.502919 -0.829826,2.058895 -0.05994,0.274234 -0.07095,0.15399 -0.04514,-0.493016 z m 1.351455,-2.444396 c 0.409325,-0.351723 1.196834,-0.732156 1.748179,-0.844518 0.560064,-0.11414 1.330278,-0.06814 2.214315,0.132252 0.814576,0.184644 2.596195,0.180636 3.314702,-0.0075 0.311441,-0.08153 0.606403,-0.156862 0.655473,-0.167404 0.169359,-0.03638 1.191276,-0.56438 1.452898,-0.750671 0.144306,-0.102755 0.29799,-0.157903 0.341521,-0.12255 0.04353,0.03535 0.05032,0.02876 0.01509,-0.01465 -0.03523,-0.04341 0.06978,-0.185292 0.233363,-0.315291 0.163582,-0.129999 0.462231,-0.435738 0.663664,-0.679419 0.201433,-0.243681 0.427639,-0.513315 0.502681,-0.599187 0.07504,-0.08587 0.136439,-0.213982 0.136439,-0.284691 0,-0.07071 0.0408,-0.153778 0.09067,-0.184599 0.04987,-0.03082 0.06929,-0.09064 0.04315,-0.132927 -0.02614,-0.04229 -0.0061,-0.10251 0.04461,-0.133826 0.05067,-0.03132 0.07231,-0.089 0.0481,-0.128183 -0.02422,-0.03918 -0.01198,-0.33752 0.0272,-0.662966 0.03918,-0.325447 0.04273,-0.591721 0.0079,-0.591721 -0.03484,0 -0.09068,-0.145753 -0.124103,-0.323896 -0.07757,-0.413503 -0.632527,-1.282018 -0.819169,-1.282018 -0.116535,0 -0.706228,-0.642611 -0.676716,-0.737444 0.01348,-0.04333 -0.01208,-0.05616 -0.0568,-0.02852 -0.108826,0.0673 -0.286663,-0.15694 -0.303681,-0.382867 -0.0075,-0.09995 -0.031,-0.164429 -0.05215,-0.143276 -0.02115,0.02115 -0.15045,-0.138129 -0.287326,-0.3539608 -0.286172,-0.451246 -0.719931,-0.887724 -1.055371,-1.061987 -0.127584,-0.06628 -0.52181,-0.287031 -0.87606,-0.490557 -0.354249,-0.203525 -0.682123,-0.370046 -0.728609,-0.370046 -0.04649,0 -0.0979,-0.03011 -0.114258,-0.06691 -0.04945,-0.111258 -0.67974,-0.557609 -0.7874,-0.557609 -0.05524,0 -0.08077,-0.03181 -0.05674,-0.0707 0.02403,-0.03888 -0.04024,-0.07702 -0.142837,-0.08475 -0.102592,-0.0077 -0.210218,-0.04617 -0.239167,-0.08543 -0.02895,-0.03926 -0.09279,-0.07286 -0.141854,-0.07466 -0.156061,-0.0057 -1.15112,-0.226842 -1.382872,-0.307284 -0.122674,-0.04258 -0.374714,-0.102559 -0.560088,-0.133285 -0.185375,-0.03073 -0.3158,-0.09024 -0.289834,-0.132255 0.02597,-0.04201 -0.03335,-0.05532 -0.131822,-0.02957 -0.09847,0.02575 -0.232698,0.0023 -0.298288,-0.05215 -0.06559,-0.05443 -0.145672,-0.07256 -0.17796,-0.04027 -0.03229,0.03229 -0.0587,0.01417 -0.0587,-0.04026 0,-0.05443 -0.07559,-0.08441 -0.167984,-0.06661 -0.09239,0.01779 -0.343207,-0.007 -0.557369,-0.05514 -0.60199,-0.135258 -2.442862,-0.110402 -3.28943,0.04442 -0.417092,0.07628 -0.914838,0.161255 -1.106102,0.188842 -1.024539,0.147772 -2.244922,0.569571 -2.968879,1.026129 -1.3179032,0.831125 -2.9385902,1.960666 -3.2251432,2.247771 -0.375401,0.3761228 -0.729446,0.9264168 -0.729446,1.1337818 0,0.08778 -0.02793,0.187531 -0.06206,0.221664 -0.197927,0.197927 -0.188612,1.532749 0.01347,1.930462 0.128365,0.252631 0.616904,0.808386 0.697919,0.793943 0.01089,-0.0019 0.140244,0.04349 0.287452,0.100957 0.233428,0.09113 1.195252,0.253602 1.551032,0.262007 0.06952,0.0016 0.0257,-0.07405 -0.100204,-0.173089 -0.376251,-0.295959 -0.54385,-0.760813 -0.477584,-1.324631 0.106001,-0.90191 0.730318,-1.738113 1.7089076,-2.288895 0.242252,-0.136347 0.7218066,-0.4168038 1.0656766,-0.6232368 0.741504,-0.445143 2.058611,-0.970839 2.284433,-0.911785 0.08789,0.02298 0.171755,0.0077 0.186375,-0.03384 0.0453,-0.128884 1.683985,-0.285129 2.435452,-0.232215 0.785029,0.05528 2.981643,0.49727 3.859865,0.776666 0.669889,0.213117 1.473123,0.687259 1.390566,0.8208388 -0.03233,0.05231 -0.01972,0.07097 0.02802,0.04146 0.09527,-0.05888 0.899379,0.451088 1.377588,0.873678 0.42261,0.373456 1.156607,1.345547 1.080052,1.430397 -0.03487,0.03865 -0.01628,0.04328 0.0413,0.01031 0.116669,-0.06682 0.626364,0.518271 0.882241,1.012741 0.259099,0.500696 0.227148,1.448555 -0.06786,2.013054 -0.340476,0.651507 -1.184886,1.382368 -1.425399,1.233723 -0.05946,-0.03675 -0.07665,-0.02287 -0.04171,0.03368 0.07694,0.124491 -0.895491,0.49294 -1.165014,0.441418 -0.109851,-0.021 -0.178502,-0.0038 -0.152556,0.03815 0.04197,0.06791 -0.263555,0.101266 -0.944748,0.103131 -0.122674,3.36e-4 -0.726213,-0.03101 -1.341199,-0.06967 -1.545057,-0.09711 -2.120495,0.06825 -3.006156,0.863861 -0.20745,0.186356 -0.351782,0.338829 -0.320738,0.338829 0.03104,0 -0.01622,0.08029 -0.105038,0.178435 -0.223159,0.246587 -0.124826,0.223515 0.186115,-0.04367 z m 5.746842,-1.590442 c 0.122674,-0.009 0.248916,-0.05207 0.280537,-0.09565 0.03162,-0.04358 0.178229,-0.08373 0.325795,-0.08922 0.147566,-0.0055 0.25575,-0.03047 0.240409,-0.05551 -0.01534,-0.02505 0.206893,-0.185638 0.493853,-0.35687 0.378751,-0.226004 0.599014,-0.438694 0.803667,-0.776035 0.595406,-0.98144 0.541048,-1.731555 -0.188772,-2.604985 -0.238518,-0.285452 -0.40471,-0.54796 -0.369317,-0.583353 0.03539,-0.03539 0.0081,-0.05097 -0.06071,-0.03461 -0.153524,0.03651 -0.563211,-0.533279 -0.483651,-0.672654 0.03157,-0.05531 0.03125,-0.0775 -7.26e-4,-0.0493 -0.03197,0.02819 -0.250096,-0.1324 -0.484719,-0.356873 -0.234622,-0.224473 -0.756895,-0.626822 -1.160606,-0.894109 -0.403711,-0.267287 -0.734021,-0.5182108 -0.734021,-0.5576088 0,-0.0394 -0.03011,-0.06327 -0.06691,-0.05305 -0.0368,0.01022 -0.3078,-0.07331 -0.602217,-0.185615 -0.294421,-0.112307 -0.936786,-0.281052 -1.427482,-0.374989 -0.490696,-0.09394 -1.153135,-0.229813 -1.472087,-0.301946 -0.318952,-0.07213 -0.748172,-0.132562 -0.953822,-0.134286 -0.20565,-0.0017 -0.399126,-0.04394 -0.429947,-0.09381 -0.03082,-0.04987 -0.09355,-0.06749 -0.139385,-0.03916 -0.07088,0.0438 -1.04317,0.170647 -2.000934,0.261038 -0.147209,0.01389 -0.368022,0.06759 -0.490696,0.119331 -0.454041,0.191496 -1.116291,0.41439 -1.149851,0.387007 -0.01905,-0.01554 -0.0592,0.0074 -0.08922,0.05089 -0.184947,0.268194 -1.9072556,1.2208928 -2.0140632,1.1140848 -0.03453,-0.03453 -0.0494,-0.01906 -0.03304,0.03438 0.04504,0.147156 -0.55743,0.617864 -0.767424,0.599583 -0.143487,-0.01249 -0.149062,-0.0059 -0.02521,0.02988 0.151072,0.04363 0.150493,0.06006 -0.01159,0.328779 -0.246813,0.409203 -0.406527,1.133321 -0.334569,1.516888 0.03753,0.200031 0.190844,0.462863 0.392035,0.67206 0.304528,0.316648 0.371595,0.344762 0.8562786,0.358946 0.28923,0.0085 0.5635436,0.03867 0.6095866,0.06713 0.04604,0.02846 0.02018,-0.07113 -0.05748,-0.221303 -0.1703206,-0.329365 -0.1771976,-0.402702 -0.02967,-0.31644 0.06134,0.03587 0.03504,-0.02199 -0.05844,-0.128561 -0.1277766,-0.145682 -0.1388476,-0.194113 -0.04461,-0.19514 0.101984,-0.0011 0.100404,-0.01749 -0.0085,-0.08785 -0.07361,-0.04757 -0.09368,-0.08722 -0.04461,-0.08811 0.04907,-8.96e-4 0.09228,-0.143183 0.09602,-0.316194 0.0037,-0.17301 0.08663,-0.421492 0.184207,-0.552182 0.277734,-0.371994 0.796501,-0.755175 1.042283,-0.76987 0.123084,-0.0074 0.206837,-0.03036 0.186117,-0.05112 -0.02072,-0.02076 0.198607,-0.170898 0.487395,-0.333644 0.564619,-0.318189 1.534548,-0.607844 1.801577,-0.538014 0.09021,0.02359 0.177165,0.0035 0.193229,-0.04473 0.05068,-0.152055 1.868498,-0.109139 2.56052,0.06045 0.346861,0.085 0.630747,0.180336 0.630859,0.211852 1.12e-4,0.03152 0.110518,0.06205 0.245348,0.06784 0.381409,0.0164 1.014186,0.21224 0.961452,0.297565 -0.02608,0.0422 0.03,0.05649 0.124623,0.03174 0.279164,-0.073 1.208228,0.486447 1.748546,1.052914 0.274935,0.288241 0.474268,0.565519 0.442963,0.616172 -0.03131,0.05065 -0.02382,0.08142 0.01663,0.06836 0.121093,-0.03908 0.942065,0.894623 0.877898,0.998448 -0.0326,0.05274 -0.02617,0.08487 0.01428,0.07138 0.04045,-0.01348 0.09075,0.01563 0.111781,0.0647 0.02103,0.04907 0.09129,0.14227 0.15613,0.207112 0.111002,0.111002 0.141503,0.321243 0.138214,0.952715 -0.0023,0.444815 -0.01658,0.503537 -0.108515,0.446718 -0.04914,-0.03037 -0.06632,0.0025 -0.0388,0.07423 0.121621,0.316939 -0.899712,1.103775 -1.478923,1.139362 -0.173978,0.01069 -0.154351,0.02662 0.08922,0.07242 0.171743,0.03229 0.472852,0.04443 0.66913,0.02697 0.196279,-0.01746 0.457239,-0.03913 0.579913,-0.04815 z m -1.650522,-0.288895 c 0.09814,-0.0033 0.339027,-0.04049 0.535305,-0.08255 0.196278,-0.04206 0.397017,-0.06637 0.446087,-0.05403 0.04907,0.01235 0.064,-0.0028 0.03317,-0.0336 -0.03083,-0.03083 0.05572,-0.167816 0.192329,-0.304422 0.241547,-0.241547 0.442125,-0.755506 0.443134,-1.135479 9.82e-4,-0.370028 -0.207647,-0.800861 -0.57889,-1.195444 -0.207751,-0.220806 -0.544474,-0.631542 -0.748272,-0.91274 -0.680869,-0.939453 -1.824228,-1.62062 -2.937737,-1.750186 -0.06423,-0.0075 -0.09327,-0.05164 -0.06453,-0.09814 0.02912,-0.04711 -0.03462,-0.06782 -0.143942,-0.04677 -0.248735,0.0479 -0.624383,-0.04334 -0.566176,-0.137526 0.02426,-0.03926 -0.04251,-0.04873 -0.148393,-0.02104 -0.10588,0.02769 -0.169991,0.01391 -0.142469,-0.03063 0.02752,-0.04453 -0.09668,-0.08345 -0.276006,-0.08648 -0.179325,-0.003 -0.647228,-0.01447 -1.039785,-0.02542 -0.712409,-0.01986 -1.644632,0.128044 -2.319652,0.368037 -0.196279,0.06978 -0.412643,0.107608 -0.48081,0.08405 -0.06817,-0.02355 -0.101134,-0.0059 -0.07326,0.03918 0.02787,0.0451 -0.251671,0.241014 -0.621213,0.435357 -0.624735,0.328549 -1.188981,0.817753 -1.188981,1.030852 0,0.05026 -0.03193,0.07165 -0.07095,0.04753 -0.03902,-0.02411 -0.06354,0.209028 -0.05449,0.518096 0.01927,0.658249 0.195464,0.98793 0.567771,1.062391 0.141406,0.02828 0.457144,0.147924 0.701639,0.265872 l 0.444535,0.214451 0.05274,-0.263676 c 0.06746,-0.337321 0.510215,-0.751541 0.930776,-0.870796 0.620896,-0.176064 1.337355,-0.214338 1.502586,-0.08027 0.110387,0.08957 0.133631,0.09205 0.08365,0.0089 -0.05084,-0.08454 -0.01393,-0.103866 0.139004,-0.07279 0.114518,0.02327 0.329696,0.06222 0.478173,0.08656 0.445948,0.07311 1.297098,0.421319 1.243163,0.508587 -0.02767,0.04476 0.01167,0.05761 0.08741,0.02855 0.08101,-0.03109 0.160232,0.0059 0.192417,0.08973 0.03009,0.07841 0.0865,0.12292 0.125365,0.0989 0.03886,-0.02402 0.294302,0.197896 0.567647,0.493141 0.6271,0.677343 0.782629,1.150446 0.556484,1.692769 -0.04789,0.11485 0.07801,0.130536 0.887874,0.11062 0.700126,-0.01722 0.927106,0.0036 0.879463,0.0807 -0.04445,0.07192 -0.02564,0.07925 0.06109,0.02383 0.06892,-0.04404 0.205602,-0.08281 0.303741,-0.08615 z m 2.520392,2.216912 c 0.110407,-0.02127 0.291072,-0.02127 0.401479,0 0.110406,0.02126 0.02007,0.03866 -0.20074,0.03866 -0.220813,0 -0.311145,-0.0174 -0.200739,-0.03866 z m 0.912654,-0.02302 c 0.0726,-0.04603 0.285824,-0.109676 0.473829,-0.141439 0.188005,-0.03176 0.577604,-0.150151 0.865775,-0.263085 0.28817,-0.112933 0.546684,-0.182595 0.574475,-0.154804 0.02779,0.02779 0.05053,0.0037 0.05053,-0.05356 0,-0.05725 0.04169,-0.104087 0.09264,-0.104087 0.20475,0 1.682771,-1.087318 2.222537,-1.635026 0.31649,-0.321147 0.617599,-0.559982 0.669131,-0.530744 0.05153,0.02924 0.06792,0.0243 0.03643,-0.01097 -0.03149,-0.03527 0.07706,-0.287201 0.24124,-0.559842 0.164176,-0.272641 0.342597,-0.721955 0.39649,-0.998477 0.05389,-0.276522 0.132656,-0.613452 0.175028,-0.748735 0.04237,-0.135283 0.04672,-0.227231 0.0097,-0.20433 -0.05875,0.03631 -0.08646,-0.174725 -0.130277,-0.99205 -0.0057,-0.106318 -0.02707,-0.176629 -0.04745,-0.156247 -0.02038,0.02038 -0.149212,-0.159319 -0.286289,-0.399333 -0.137083,-0.240014 -0.550381,-0.706981 -0.918446,-1.037705 -0.552091,-0.49608 -0.732358,-0.730577 -1.030056,-1.3399238 -0.477673,-0.977733 -0.954389,-1.400367 -2.369617,-2.100792 -0.604034,-0.298948 -1.312354,-0.726823 -1.574044,-0.950833 -0.457452,-0.391584 -1.262702,-0.818974 -1.635628,-0.868116 -0.792539,-0.104436 -1.918174,-0.3905875 -1.918174,-0.487625 0,-0.030786 -0.07026,-0.062352 -0.156131,-0.070147 -0.08587,-0.0078 -0.457239,-0.1017813 -0.825261,-0.2088583 -1.32923,-0.3867433 -3.671125,-0.3145113 -4.776448,0.1473219 -0.353116,0.1475416 -0.665814,0.1651408 -0.665814,0.037473 0,-0.04907 0.05375,-0.089217 0.119438,-0.089217 0.06569,0 0.450085,-0.1040712 0.854209,-0.2312694 0.404124,-0.1271982 0.757134,-0.2089064 0.784467,-0.1815739 0.02733,0.027333 0.114676,0.015802 0.194095,-0.025625 0.280894,-0.1465162 1.267964,-0.2007862 1.4195,-0.078045 0.110815,0.089757 0.127126,0.090247 0.07423,0.00223 -0.05318,-0.088489 0.06308,-0.1012332 0.539309,-0.059119 0.333906,0.029528 0.633057,0.069728 0.664779,0.089333 0.03172,0.019605 0.212916,0.060265 0.402652,0.090355 0.189737,0.03009 0.36505,0.080801 0.389585,0.1126906 0.02454,0.03189 0.14811,0.064595 0.274611,0.072677 0.126502,0.00808 0.387463,0.083742 0.579914,0.1681331 0.19245,0.084391 0.410132,0.1645863 0.483736,0.1782122 1.487574,0.275386 2.51922,0.558589 2.448957,0.672277 -0.02715,0.04392 0.0068,0.05829 0.07553,0.03193 0.06891,-0.02645 0.45363,0.195826 0.858383,0.495932 0.403423,0.29912 1.122156,0.748278 1.597183,0.998128 0.992207,0.521872 1.603595,0.944902 1.935216,1.339012 0.242708,0.288441 0.707391,1.142461 0.621628,1.142461 -0.02727,0 0.03326,0.08892 0.134512,0.1976068 0.101254,0.1086828 0.165084,0.2471558 0.141845,0.3077168 -0.0273,0.07114 0.009,0.09045 0.102518,0.05456 0.11035,-0.04235 0.130468,-0.01828 0.08461,0.101216 -0.04025,0.104885 -0.02323,0.143836 0.05142,0.11769 0.170398,-0.05968 1.243056,1.081575 1.490179,1.585475 0.174753,0.356331 0.22236,0.60316 0.236609,1.226739 0.0098,0.429359 -0.01712,0.780653 -0.05984,0.780653 -0.04272,0 -0.05637,0.05554 -0.03032,0.123411 0.02605,0.06788 -0.02177,0.278653 -0.106257,0.468392 -0.08449,0.189739 -0.157243,0.373083 -0.161679,0.407432 -0.0044,0.03435 -0.05825,0.112637 -0.119587,0.173974 -0.06134,0.06134 -0.111521,0.143181 -0.111521,0.181876 0,0.102983 -0.239683,0.392631 -0.892174,1.078162 -0.863496,0.907219 -2.369881,1.858986 -3.423607,2.163109 -0.61577,0.177722 -1.33031,0.263469 -1.128306,0.135401 z M 14.06418,17.351636 c -0.0368,-0.08988 -0.06691,-0.280157 -0.06691,-0.422826 0,-0.142669 -0.07934,-0.468212 -0.176318,-0.723429 -0.236166,-0.621539 -0.166427,-0.645936 0.127737,-0.04469 0.179911,0.367726 0.230941,0.591269 0.21003,0.920057 -0.01895,0.297937 -0.04863,0.382995 -0.09454,0.270885 z M 4.0049178,12.211261 c 0,-0.141579 0.05018,-0.277667 0.111522,-0.302417 0.07783,-0.03141 0.07986,-0.04713 0.0067,-0.05204 -0.123113,-0.0083 -0.06901,-0.660031 0.05845,-0.704243 0.04451,-0.01544 0.05943,-0.08409 0.03315,-0.15256 -0.04844,-0.126229 0.304019,-0.980157 0.519888,-1.2595738 0.353975,-0.458179 1.17836,-1.201731 1.74316,-1.572239 0.354172,-0.232336 0.664859,-0.422429 0.690416,-0.422429 0.05108,0 0.345132,-0.232674 0.572449,-0.452954 0.07985,-0.07738 0.305779,-0.257818 0.502057,-0.400971 0.196279,-0.143153 0.386366,-0.300654 0.422417,-0.350003 0.03605,-0.04935 0.06616,-0.06153 0.06691,-0.02707 7.51e-4,0.03446 0.106786,-0.03505 0.235634,-0.154459 0.128847,-0.119411 0.264815,-0.198232 0.302152,-0.175157 0.03734,0.02308 0.11713,-0.01738 0.177319,-0.08991 0.06019,-0.07252 0.1450336,-0.10986 0.1885436,-0.08297 0.04351,0.02689 0.07911,0.01376 0.07911,-0.02917 0,-0.167396 1.6977006,-0.7508945 1.9434786,-0.6679728 0.06299,0.021251 0.167407,-0.00525 0.232044,-0.058898 0.164238,-0.1363055 0.947087,-0.235517 0.947087,-0.1200256 0,0.050168 -0.190702,0.1180342 -0.423783,0.1508143 -1.658798,0.2332921 -2.9104792,0.8541361 -4.9738692,2.4670791 -0.245348,0.191787 -0.498357,0.329053 -0.562243,0.305035 -0.06388,-0.02402 -0.09481,-0.0091 -0.06871,0.03309 0.02609,0.04222 -0.162525,0.217384 -0.419149,0.389256 -0.608471,0.40752 -1.313268,1.105972 -1.535182,1.5213628 -0.09703,0.181626 -0.206177,0.33023 -0.242548,0.33023 -0.03637,0 -0.04501,0.05504 -0.01919,0.122322 0.02582,0.06728 -0.0055,0.177684 -0.06971,0.245348 -0.06416,0.06766 -0.121359,0.203321 -0.127111,0.30146 -0.0057,0.09814 -0.03256,0.298879 -0.05958,0.446087 -0.02702,0.147209 -0.05242,0.413912 -0.05645,0.592673 -0.0092,0.408016 -0.274989,0.572623 -0.274989,0.17031 z"
       id="path2" /></g></svg>
