<?xml version="1.0" encoding="UTF-8" standalone="no"?>
<!-- Created with Inkscape (http://www.inkscape.org/) -->

<svg
   width="128"
   height="128"
   viewBox="0 0 33.866667 33.866666"
   version="1.1"
   id="svg5"
   xml:space="preserve"
   inkscape:version="1.2.2 (b0a8486541, 2022-12-01)"
   sodipodi:docname="polypore_puro.svg"
   xmlns:inkscape="http://www.inkscape.org/namespaces/inkscape"
   xmlns:sodipodi="http://sodipodi.sourceforge.net/DTD/sodipodi-0.dtd"
   xmlns="http://www.w3.org/2000/svg"
   xmlns:svg="http://www.w3.org/2000/svg"><sodipodi:namedview
     id="namedview7"
     pagecolor="#ffffff"
     bordercolor="#000000"
     borderopacity="0.25"
     inkscape:showpageshadow="2"
     inkscape:pageopacity="0.0"
     inkscape:pagecheckerboard="0"
     inkscape:deskcolor="#d1d1d1"
     inkscape:document-units="mm"
     showgrid="false"
     inkscape:zoom="5.218448"
     inkscape:cx="84.507884"
     inkscape:cy="51.260451"
     inkscape:window-width="1854"
     inkscape:window-height="1011"
     inkscape:window-x="0"
     inkscape:window-y="0"
     inkscape:window-maximized="1"
     inkscape:current-layer="layer1" /><defs
     id="defs2" /><g
     inkscape:label="Camada 1"
     inkscape:groupmode="layer"
     id="layer1"><g
       id="g2355"><path
         id="path2210"
         style="fill:#6c6c6c;stroke-width:0.0978751;fill-opacity:1"
         d="m 12.658659,4.0581502 c -0.16059,0.00101 -0.347302,0.029341 -0.636137,0.075964 -0.44372,0.071625 -1.096517,0.2744353 -1.486731,0.4619873 -0.6935237,0.3333374 -1.4045654,0.8843772 -1.4045654,1.0883057 0,0.05908 -0.2550193,0.3101922 -0.5668905,0.5581054 -0.6787628,0.5395663 -1.3772782,1.4907752 -1.508435,2.0541382 -0.1554054,0.6675182 0.086888,1.8083088 0.4904093,2.3083858 0.082689,0.102477 0.2745372,0.316284 0.4263306,0.475424 l 0.2759521,0.289388 -0.5400187,0.189135 c -0.2970112,0.104027 -0.5793719,0.228293 -0.6273519,0.275953 -0.047982,0.04766 -0.2636405,0.149809 -0.4795573,0.226859 -0.2159178,0.07705 -0.4515128,0.197117 -0.5234822,0.267167 -0.071973,0.07005 -0.2682133,0.206441 -0.4361491,0.303341 -0.3021112,0.174325 -1.2378379,1.115724 -1.2939779,1.301729 -0.015994,0.05299 -0.078936,0.09664 -0.1395264,0.09664 -0.1759608,0 -1.1176862,1.367618 -1.3782104,2.001428 -0.1309124,0.318489 -0.2387792,0.721379 -0.2397786,0.895553 -0.00239,0.401854 0.1766389,1.16582 0.2733683,1.16582 0.04039,0 0.07338,0.140524 0.07338,0.312643 0,0.418274 0.3933529,1.079544 1.2035441,2.023132 0.3527712,0.410856 1.0221133,0.953296 1.2562541,1.018026 0.2999262,0.08291 0.3077184,0.191094 0.03359,0.462504 -0.1160394,0.114889 -0.3414066,0.523357 -0.5012614,0.907438 -0.497239,1.194704 -0.3233386,2.157954 0.587561,3.249931 0.470652,0.564209 1.4342451,1.359607 1.6469279,1.359607 0.062659,0 0.1609046,0.07091 0.2180746,0.157613 0.057167,0.0867 0.3662141,0.264149 0.6867797,0.394291 0.3205672,0.130141 0.6323416,0.28838 0.692981,0.3514 0.060637,0.06302 0.6299428,0.226337 1.2650389,0.363285 2.129037,0.459089 4.257491,0.284067 5.758305,-0.473873 0.607685,-0.306895 0.881553,-0.524408 1.330668,-1.0573 0.310965,-0.368963 0.566741,-0.744574 0.568441,-0.834574 0.0017,-0.09 0.09506,-0.305111 0.207739,-0.478524 0.203859,-0.313727 0.210733,-0.315895 1.370976,-0.360185 1.580101,-0.06031 2.880193,-0.212194 4.132047,-0.482657 0.575783,-0.124399 1.392995,-0.296623 1.81591,-0.382923 0.422923,-0.0863 0.807195,-0.186555 0.853695,-0.222725 0.04649,-0.03616 0.230426,-0.08852 0.40876,-0.116272 0.616577,-0.09594 1.486511,-0.404044 2.156458,-0.764295 0.143946,-0.0774 0.542148,-0.288138 0.885217,-0.468188 0.784281,-0.411601 1.769605,-1.221929 2.364197,-1.944067 0.387439,-0.470548 0.457853,-0.617908 0.457853,-0.955498 0,-0.219487 0.04465,-0.433373 0.0987,-0.475423 0.06398,-0.04977 0.08163,-0.303138 0.05116,-0.726054 -0.122371,-1.698601 -1.604919,-3.315686 -3.749642,-4.089673 -1.562577,-0.563896 -2.880122,-0.846746 -4.338753,-0.931726 -0.463489,-0.02701 -0.770702,-0.06035 -0.933793,-0.113171 -0.0055,0.0027 -0.01176,0.0051 -0.01912,0.0067 -0.02245,0.005 -0.04568,0.0074 -0.06821,0.01188 -0.03214,0.0066 -0.06426,0.01227 -0.09663,0.01757 -0.02981,0.0047 -0.05968,0.0103 -0.0894,0.0155 -0.03929,0.0081 -0.07843,0.01627 -0.117822,0.02377 -0.03582,0.0066 -0.0718,0.01244 -0.108004,0.01654 -0.007,7.5e-4 -0.01418,0.0015 -0.02119,0.0021 -0.01786,0.0071 -0.04183,0.01156 -0.077,0.01189 -0.246043,0.0023 -0.90906,0.309061 -1.049032,0.485241 -0.357031,0.449395 -0.772969,0.654006 -1.315165,0.647506 -0.301404,-0.0036 -0.663432,-0.06644 -0.804602,-0.140043 -0.209976,-0.109475 -0.293819,-0.104783 -0.460954,0.02636 -0.183354,0.143834 -0.23298,0.138134 -0.483174,-0.05271 -0.174427,-0.133048 -0.260637,-0.2716 -0.230477,-0.37052 0.05448,-0.178692 0.0029,-0.170768 1.294495,-0.199988 0.712757,-0.01612 1.031313,-0.06978 1.238684,-0.209289 0.174154,-0.117173 0.475827,-0.188103 0.801501,-0.188103 0.287151,0 0.629274,-0.05105 0.76016,-0.113688 0.07865,-0.03763 0.142588,-0.05649 0.194821,-0.05788 5.52e-4,-2.59e-4 0.0015,-2.66e-4 0.0021,-5.17e-4 0.0027,-0.0012 0.0052,-0.0026 0.0083,-0.0036 0.0034,-0.0011 0.0069,-0.0025 0.01033,-0.0036 0.0084,-0.0028 0.01632,-0.0044 0.02326,-0.0047 0.0089,-3.07e-4 0.0166,0.0017 0.02274,0.0047 0.0081,-0.0059 0.01614,-0.0101 0.03204,-0.0124 0.02565,-0.005 0.05102,-0.01132 0.07596,-0.01912 0.02385,-0.0094 0.0481,-0.0181 0.07286,-0.0248 0.02526,-0.0071 0.04829,-0.01881 0.07286,-0.02791 0.0234,-0.0076 0.04728,-0.0146 0.0708,-0.0217 0.02437,-0.008 0.04878,-0.01445 0.07441,-0.01705 0.0081,-0.0015 0.01622,-0.0029 0.02429,-0.0047 3.44e-4,-1.52e-4 7.23e-4,-3.65e-4 0.001,-5.16e-4 0.01993,-0.0088 0.04005,-0.01743 0.06098,-0.02377 0.02272,-0.0085 0.04533,-0.01701 0.0677,-0.02636 0.120024,-0.09488 0.339836,-0.215113 0.659908,-0.37052 0.821568,-0.398897 1.164212,-0.749256 1.403015,-1.435054 0.135009,-0.387729 0.07797,-0.7049 -0.194303,-1.079004 C 24.857041,10.067129 23.178983,9.227215 22.070487,9.0609456 21.289821,8.9438488 21.257689,8.9481109 20.838005,9.2221761 20.601055,9.3769135 20.368994,9.4719927 20.322274,9.4335327 20.275548,9.3950743 20.214378,9.0426746 20.185848,8.650118 20.157314,8.2575611 20.071855,7.7503877 19.996195,7.523055 19.879516,7.1724509 19.827596,7.1194291 19.654097,7.1742391 19.494523,7.2246507 19.438886,7.1865036 19.400366,7.001123 19.364004,6.8261093 19.306247,6.7810734 19.182292,6.8305908 19.084766,6.86955 18.97067,6.8322208 18.91099,6.7417074 18.85435,6.6558045 18.584004,6.4726954 18.309993,6.3344971 18.035988,6.1962983 17.507358,5.8996286 17.135388,5.6751058 c -0.378507,-0.2284725 -0.750445,-0.384044 -0.844909,-0.35295 -0.238936,0.078646 -0.877983,0.7887447 -0.877983,0.975651 0,0.1759398 -0.01691,0.1830676 -0.21084,0.0894 -0.07589,-0.036658 -0.137976,-0.1278042 -0.137976,-0.2025716 0,-0.074768 -0.07819,-0.2255524 -0.17415,-0.3348633 C 14.79357,5.7404622 14.714522,5.5724799 14.714347,5.4761515 14.714168,5.3798242 14.640971,5.1524527 14.551567,4.9712728 14.418677,4.7020011 14.245033,4.584065 13.601237,4.3242839 13.121979,4.1308977 12.926308,4.0564617 12.658659,4.0581502 Z" /></g></g></svg>
