<?xml version="1.0" encoding="UTF-8" standalone="no"?>
<!-- Created with Inkscape (http://www.inkscape.org/) -->

<svg
   width="128"
   height="128"
   viewBox="0 0 33.866667 33.866666"
   version="1.1"
   id="svg5"
   xml:space="preserve"
   inkscape:version="1.2.2 (b0a8486541, 2022-12-01)"
   sodipodi:docname="jellyfungi_puro.svg"
   xmlns:inkscape="http://www.inkscape.org/namespaces/inkscape"
   xmlns:sodipodi="http://sodipodi.sourceforge.net/DTD/sodipodi-0.dtd"
   xmlns="http://www.w3.org/2000/svg"
   xmlns:svg="http://www.w3.org/2000/svg"><sodipodi:namedview
     id="namedview7"
     pagecolor="#ffffff"
     bordercolor="#000000"
     borderopacity="0.25"
     inkscape:showpageshadow="2"
     inkscape:pageopacity="0.0"
     inkscape:pagecheckerboard="0"
     inkscape:deskcolor="#d1d1d1"
     inkscape:document-units="mm"
     showgrid="false"
     inkscape:zoom="1.4990514"
     inkscape:cx="84.720246"
     inkscape:cy="55.034806"
     inkscape:window-width="1854"
     inkscape:window-height="1011"
     inkscape:window-x="0"
     inkscape:window-y="0"
     inkscape:window-maximized="1"
     inkscape:current-layer="layer1" /><defs
     id="defs2" /><g
     inkscape:label="Camada 1"
     inkscape:groupmode="layer"
     id="layer1"><path
       style="fill:#5d5d5d;stroke-width:0.163612;fill-opacity:1"
       d="m 13.623017,30.549987 c -0.601949,-0.423639 -0.778519,-0.887752 -0.661082,-1.737658 l 0.09983,-0.722521 -0.591509,0.124694 c -0.381834,0.08049 -0.727827,0.310554 -0.976069,0.649014 -0.498209,0.679276 -0.943381,0.607433 -1.019555,-0.164538 -0.03851,-0.390273 0.09292,-0.863421 0.434283,-1.563408 0.444452,-0.91138 0.474082,-1.062348 0.321926,-1.640265 -0.311993,-1.185007 -0.56686,-1.956589 -0.644045,-1.949779 -0.04227,0.0037 -0.214167,0.259409 -0.381996,0.56818 -0.167829,0.308771 -0.5100296,0.641273 -0.7604445,0.738896 -0.250416,0.09762 -0.510033,0.277559 -0.576926,0.399862 -0.168614,0.308283 -1.018893,0.278022 -1.720499,-0.06123 l -0.58651,-0.283604 -0.490798,0.657063 c -0.320452,0.429011 -0.573218,0.62046 -0.728267,0.551606 -0.455693,-0.202367 -0.430474,-0.64592 0.07839,-1.378713 0.375362,-0.540547 0.462501,-0.787274 0.350574,-0.99262 -0.246464,-0.452177 -0.438924,-0.420608 -0.922037,0.151245 -0.368411,0.436081 -0.599699,0.551643 -1.15649,0.577838 -0.678339,0.03191 -0.870834,0.236954 -0.842067,0.896959 0.0038,0.0881 -0.110121,0.236025 -0.253245,0.328718 -0.207385,0.134312 -0.38017,0.01244 -0.850907,-0.600205 -0.607644,-0.790816 -0.599139,-0.742584 -0.386274,-2.190382 0.02956,-0.201079 0.24904,-0.780835 0.487726,-1.28835 0.347864,-0.739656 0.400158,-0.985418 0.263547,-1.238569 -0.142322,-0.263735 -0.06247,-0.457628 0.484222,-1.175763 l 0.654649,-0.859947 -0.438129,-0.485553 c -0.476253,-0.527799 -0.584373,-1.422506 -0.282825,-2.340373 0.133356,-0.405914 0.218666,-0.458069 0.603546,-0.368987 0.432212,0.100037 0.447505,0.08116 0.427719,-0.527902 -0.01543,-0.474863 0.06848,-0.709339 0.338034,-0.94464 0.281834,-0.246022 0.370063,-0.514533 0.412351,-1.254924 0.02959,-0.518063 0.09575,-1.060738 0.147032,-1.205945 0.05128,-0.145206 0.0816,-0.352102 0.06739,-0.459767 -0.01421,-0.107665 0.07723,-0.42448 0.203209,-0.704032 0.125978,-0.2795522 0.229473,-0.6836294 0.229988,-0.8979494 9.94e-4,-0.4134776 0.933738,-1.2824033 1.376589,-1.2824033 0.132231,0 0.437128,0.2376108 0.677551,0.528024 0.454716,0.5492647 0.91518,0.6869994 1.029729,0.308014 0.04874,-0.1612618 0.1467,-0.1377626 0.36685,0.088004 0.416482,0.4271067 0.556966,0.3931463 1.1781059,-0.2847944 0.4177806,-0.4559853 0.5431406,-0.7322256 0.5431406,-1.1968545 0,-1.0354937 0.623036,-1.2916288 0.922748,-0.3793495 0.117558,0.3578297 0.186146,0.3938987 0.444617,0.2338146 0.359566,-0.2226978 0.379726,-0.4887233 0.07265,-0.9585725 -0.319296,-0.4885369 -0.292846,-1.3242259 0.04286,-1.3541314 0.146386,-0.01304 0.437256,-0.037789 0.646379,-0.054997 0.209122,-0.017208 0.530918,-0.04614 0.715101,-0.064294 0.184185,-0.018154 0.567519,-0.3102195 0.851854,-0.6490349 0.573119,-0.682929 0.739909,-0.7405721 1.018559,-0.352016 0.108599,0.1514323 0.440259,0.264012 0.777779,0.264012 0.423733,0 0.641619,0.098534 0.778408,0.352016 0.287303,0.5323976 0.827243,0.4464235 1.105372,-0.176008 0.236625,-0.5295458 0.443792,-0.6601641 0.595752,-0.3756204 0.04476,0.083822 0.449028,0.1418536 0.898364,0.1289593 0.704384,-0.020214 0.871294,-0.095794 1.211127,-0.5484216 0.321641,-0.4283973 0.443552,-0.4899879 0.662675,-0.3347867 0.542924,0.3845459 1.143588,1.4467866 1.227497,2.1707618 0.07588,0.6546822 0.110116,0.7046301 0.330135,0.4816174 0.135014,-0.1368494 0.408014,-0.3062631 0.606668,-0.3764746 0.437574,-0.1546549 0.621776,0.1161952 0.625062,0.9190895 0.002,0.4899683 0.140713,0.6949113 0.998029,1.4746079 0.812241,0.7387032 0.990162,0.9905794 0.965644,1.3670315 -0.06616,1.0158472 0.02463,2.1335552 0.173308,2.1335552 0.08662,0 0.28951,-0.356416 0.450862,-0.792036 0.210428,-0.568113 0.380894,-0.7920355 0.602952,-0.7920355 0.170271,0 0.309583,0.061192 0.309583,0.1359831 0,0.074791 0.22243,0.2750274 0.49429,0.4449704 0.271859,0.169943 0.58562,0.524569 0.697247,0.788059 0.437666,1.033083 0.793388,2.434382 0.713084,2.809051 -0.04643,0.21664 -3.04e-4,0.549901 0.102663,0.74058 0.159129,0.294881 0.132889,0.413454 -0.1756,0.793468 -0.472645,0.58223 -0.274205,0.81111 0.228954,0.264077 0.308128,-0.334997 0.439019,-0.380759 0.645778,-0.22578 0.199391,0.149456 0.249483,0.402322 0.216747,1.09416 -0.03816,0.806413 -0.01015,0.899783 0.26992,0.899783 0.358156,0 0.66829,0.739121 0.526724,1.255303 -0.08958,0.326641 -0.323797,0.390873 -1.223643,0.335581 -0.39512,-0.02428 -0.465708,0.0319 -0.44518,0.354344 0.01948,0.305946 0.21456,0.455354 0.967674,0.74111 0.836093,0.31724 1.02926,0.484524 1.699915,1.472127 0.41615,0.612821 0.756634,1.167007 0.756634,1.231528 0,0.264665 -2.148328,-0.122547 -3.473742,-0.626104 -1.483948,-0.563787 -2.071549,-0.659636 -2.229599,-0.363689 -0.0517,0.0968 -0.291238,0.176008 -0.532311,0.176008 -0.241074,0 -0.480614,-0.0792 -0.532312,-0.176008 -0.149063,-0.279119 -0.794552,-0.20434 -0.896757,0.103887 -0.137702,0.41528 0.01689,0.597318 0.884291,1.041251 0.431797,0.220994 0.862393,0.509606 0.956883,0.641364 0.254239,0.354521 0.394137,1.146511 0.288533,1.633451 -0.137004,0.631707 -1.229775,1.212991 -2.125373,1.130559 -0.694683,-0.06394 -0.704513,-0.05744 -0.704513,0.466246 0,0.712209 -0.609866,1.446986 -1.330495,1.603001 -0.31384,0.06795 -0.64266,0.237122 -0.730709,0.375946 -0.13779,0.217247 -0.188055,0.213417 -0.360824,-0.0275 -0.261166,-0.364176 -0.415474,-0.352964 -0.872885,0.06342 -0.270992,0.246688 -0.566285,0.329748 -1.049089,0.295085 -0.369564,-0.02653 -0.718238,-0.101826 -0.77483,-0.167317 -0.05659,-0.06549 -0.467049,-0.119076 -0.912127,-0.119076 -0.779919,0 -0.823274,0.02574 -1.196753,0.71041 -0.554579,1.016672 -1.183101,1.409969 -2.178253,1.363033 -0.447112,-0.02109 -1.007374,-0.175186 -1.245029,-0.342442 z M 14.33911,6.7122187 C 14.3905,6.5572423 14.33701,6.3604461 14.220271,6.274894 13.878084,6.0241474 13.779864,6.0863886 13.779864,6.5539743 c 0,0.4985467 0.408115,0.614027 0.559246,0.1582444 z"
       id="path6251" /></g></svg>
