<?xml version="1.0" encoding="UTF-8" standalone="no"?>
<!-- Created with Inkscape (http://www.inkscape.org/) -->

<svg
   width="128"
   height="128"
   viewBox="0 0 33.866666 33.866666"
   version="1.1"
   id="svg1"
   xml:space="preserve"
   inkscape:version="1.4.2 (f4327f4, 2025-05-13)"
   sodipodi:docname="jelly.svg"
   xmlns:inkscape="http://www.inkscape.org/namespaces/inkscape"
   xmlns:sodipodi="http://sodipodi.sourceforge.net/DTD/sodipodi-0.dtd"
   xmlns="http://www.w3.org/2000/svg"
   xmlns:svg="http://www.w3.org/2000/svg"><sodipodi:namedview
     id="namedview1"
     pagecolor="#ffffff"
     bordercolor="#000000"
     borderopacity="0.25"
     inkscape:showpageshadow="2"
     inkscape:pageopacity="0.0"
     inkscape:pagecheckerboard="0"
     inkscape:deskcolor="#d1d1d1"
     inkscape:document-units="mm"
     inkscape:zoom="2.28"
     inkscape:cx="49.561404"
     inkscape:cy="57.675439"
     inkscape:window-width="1600"
     inkscape:window-height="837"
     inkscape:window-x="-8"
     inkscape:window-y="-8"
     inkscape:window-maximized="1"
     inkscape:current-layer="layer1" /><defs
     id="defs1" /><g
     inkscape:label="Camada 1"
     inkscape:groupmode="layer"
     id="layer1"><g
       id="g2"><path
         style="fill:#626262;fill-opacity:1"
         d="m 8.6095065,30.531362 c -0.131263,-0.221763 0.850422,-0.651588 1.7978555,-0.78718 0.787695,-0.112732 0.866869,-0.348823 0.229219,-0.683518 -0.244759,-0.128471 -0.7528415,-0.166573 -1.3912165,-0.104329 -1.261675,0.123018 -1.704797,0.0072 -2.395578,-0.626078 -0.607547,-0.556981 -0.86691,-1.312904 -1.0473,-3.052399 l -0.114311,-1.102286 -0.974478,-0.09005 c -1.597058,-0.147587 -2.552114,-0.864497 -3.268755,-2.453685 -0.49421503,-1.095947 -0.51528003,-2.592896 -0.05458,-3.878586 0.182027,-0.507989 0.429264,-1.008803 0.549414,-1.112921 0.158942,-0.137733 0.195683,-0.485532 0.134864,-1.276658 -0.07379,-0.959857 -0.03303,-1.177446 0.347667,-1.855724 0.551858,-0.983245 1.589722,-1.725064 2.92518,-2.090789 1.044458,-0.286033 1.064455,-0.284958 1.916177,0.103039 1.357459,0.618383 1.42915,0.62643 1.42915,0.16043 0,-0.306146 -0.214518,-0.556981 -0.850838,-0.994878 C 5.9955745,9.4151061 5.7511725,7.4740024 7.2523345,6.0026521 8.3975155,4.8802124 10.289052,4.2585499 11.613615,4.5692967 c 0.649425,0.1523575 0.696262,0.1365583 0.946886,-0.3194056 0.145017,-0.2638303 0.485214,-0.6167815 0.755995,-0.7843359 0.619691,-0.3834542 1.940679,-0.394109 2.617413,-0.021111 0.45606,0.2513682 0.565223,0.2526391 1.218097,0.014181 1.543474,-0.5637435 4.335142,0.1096586 5.438161,1.3117857 0.575798,0.6275338 0.615638,1.6949413 0.09603,2.5728011 -0.343006,0.5794958 -0.344663,0.6074284 -0.05798,0.9771002 0.293688,0.3786999 0.297841,0.3790122 0.853874,0.064203 0.850981,-0.4817992 3.085287,-0.4453423 4.005512,0.065357 1.061439,0.5890706 1.847109,1.3975289 2.261843,2.3274488 0.609948,1.36763 0.462772,2.625854 -0.450256,3.849293 -0.256941,0.344294 -0.467164,0.701362 -0.467164,0.793483 0,0.09212 0.385663,0.284558 0.857028,0.427637 2.591595,0.786654 3.892518,4.065548 2.633164,6.63672 -0.594324,1.213409 -1.464108,1.947757 -2.896474,2.445459 -1.030711,0.35814 -1.054925,0.380734 -1.536724,1.433897 -0.269231,0.588513 -0.682565,1.228583 -0.91852,1.422378 -0.55144,0.45291 -1.921398,0.635223 -2.837599,0.377626 -0.696025,-0.195694 -0.706043,-0.192225 -1.18044,0.408705 -1.309885,1.659268 -3.892441,2.207103 -6.109468,1.295996 l -0.760388,-0.312489 -0.775967,0.409895 c -0.426782,0.225442 -1.303812,0.481493 -1.948956,0.569001 -1.590799,0.215778 -4.6196955,0.213508 -4.7481785,-0.0036 z m 5.8541875,-1.429245 c 0.309776,-0.135146 0.563229,-0.287593 0.563229,-0.338772 0,-0.05118 -0.246119,-0.455711 -0.546931,-0.898961 -0.300812,-0.443251 -0.615899,-1.029779 -0.700195,-1.303397 -0.139915,-0.454158 -0.272633,-0.528007 -1.523834,-0.847912 -1.771547,-0.452947 -2.7241665,-1.051983 -3.6320725,-2.283961 -0.963611,-1.307565 -1.593586,-1.843327 -2.331447,-1.982779 -1.079174,-0.203958 -1.659952,-0.649607 -1.659952,-1.273731 0,-0.08779 0.164443,-0.04934 0.365429,0.08545 0.200986,0.134787 0.729644,0.300507 1.174796,0.368264 1.266327,0.192752 1.702334,0.463288 3.007339,1.86601 1.5513495,1.667514 2.4696575,2.144889 4.1260395,2.144889 1.448155,0 2.286355,-0.394208 3.369751,-1.584803 0.9136,-1.003997 1.208464,-2.020717 1.039169,-3.583145 -0.148966,-1.374812 -0.708313,-2.484552 -1.564717,-3.104389 -0.624281,-0.451835 -0.81301,-0.498781 -2.002593,-0.498143 -1.152666,6.19e-4 -1.502136,0.08145 -2.856281,0.660614 -1.9964655,0.853884 -3.7224185,1.028 -4.4257535,0.446469 -0.58739,-0.485664 -0.617244,-0.927312 -0.04426,-0.654717 0.661486,0.314698 3.8203585,-0.379712 3.8203585,-0.839823 0,-0.0703 -0.333077,-0.525389 -0.7401705,-1.011301 -0.543155,-0.648321 -0.921415,-0.933788 -1.42111,-1.072492 -0.374519,-0.103958 -0.922674,-0.343593 -1.218123,-0.532522 -0.633981,-0.405409 -1.593846,-0.433433 -2.273639,-0.06638 -0.723111,0.390442 -1.475716,1.100935 -1.747508,1.649725 -0.256364,0.517637 -0.163774,0.893966 0.380181,1.545235 0.225144,0.269561 0.182165,0.366882 -0.496687,1.124667 -1.51407,1.690116 -1.398517,3.708306 0.30156,5.266886 0.531728,0.487472 0.64984,0.520606 1.855808,0.520606 1.54382,0 1.538064,-0.007 1.698441,2.054404 0.126279,1.623101 0.470001,2.4264 1.154497,2.698133 0.229092,0.09095 0.948951,0.165355 1.599687,0.165355 1.0418285,0 1.2588175,0.05739 1.8165735,0.480474 0.348379,0.264261 0.733723,0.607666 0.85632,0.763122 0.279212,0.354049 1.287686,0.372161 2.056095,0.03693 z M 13.678895,21.43964 c -0.05657,-0.05907 0.150503,-0.37195 0.460171,-0.695288 0.596966,-0.623319 0.722101,-1.282113 0.407594,-2.145846 -0.120337,-0.330483 -0.107231,-0.407564 0.05804,-0.341343 0.304118,0.121852 0.624033,1.359875 0.501692,1.941475 -0.05684,0.270228 -0.322842,0.684167 -0.59111,0.919864 -0.505208,0.44387 -0.661406,0.503844 -0.836387,0.321138 z m 7.11369,7.221219 c 0.357309,-0.170626 0.80092,-0.449432 0.985802,-0.619569 0.418049,-0.384707 1.110179,-1.630896 1.355546,-2.440676 0.390638,-1.289217 1.062706,-2.121404 2.233031,-2.765047 1.884909,-1.036642 2.680068,-2.050152 2.680068,-3.416014 0,-1.193416 -0.374214,-3.271806 -0.605795,-3.364595 -0.412144,-0.165136 -1.238829,0.63304 -1.548088,1.494702 -0.365975,1.019688 -1.322403,2.07986 -2.092914,2.319935 -0.671557,0.209243 -1.885103,0.141134 -1.838204,-0.103169 0.0179,-0.09327 0.253603,-0.216787 0.523774,-0.274482 0.854055,-0.182384 1.293595,-0.628909 1.94555,-1.976466 0.786144,-1.624923 1.25843,-2.100249 2.684548,-2.701831 0.984417,-0.415258 1.170039,-0.566292 1.50094,-1.221259 0.713828,-1.412911 0.372128,-2.604543 -1.045076,-3.644561 -0.970898,-0.7124949 -2.292544,-0.8048973 -3.622614,-0.2532736 -0.919406,0.3813086 -0.964238,0.4273876 -0.969295,0.9962736 -0.0029,0.328061 -0.143778,1.015376 -0.313026,1.527366 -0.169249,0.511991 -0.294763,0.939984 -0.278921,0.951097 0.01584,0.01111 0.299548,0.0638 0.630457,0.117083 0.693445,0.11166 1.42851,-0.35613 1.42851,-0.909094 0,-0.52479 0.255598,-0.376963 0.441445,0.255312 0.286856,0.975922 -0.135918,1.23651 -2.915057,1.796779 -1.08743,0.219223 -1.501174,0.649369 -1.672134,1.73842 -0.135599,0.863795 -0.42364,1.234522 -1.154992,1.486545 l -0.551483,0.19004 0.105389,1.319488 c 0.233025,2.917516 -1.000634,5.368787 -3.129127,6.217549 -0.850964,0.339332 -0.913427,0.717669 -0.279516,1.693024 1.197447,1.842431 3.546494,2.519845 5.501182,1.586423 z M 19.98052,25.982184 c 0.535963,-0.154204 1.134116,-0.37576 1.32923,-0.492348 0.430017,-0.256952 0.538519,-0.264992 0.538519,-0.0399 0,0.395269 -1.056077,0.844145 -1.948956,0.828386 l -0.893271,-0.01577 z m 6.101384,0.815827 c 0.172902,-0.09662 0.494561,-0.546963 0.714798,-1.000765 0.489705,-1.009045 0.976239,-1.424619 2.224062,-1.899682 1.608932,-0.612543 2.734699,-2.061467 2.734699,-3.51971 0,-0.780093 -0.46123,-1.923922 -1.017379,-2.523052 -0.482005,-0.519255 -1.636767,-1.054608 -1.832951,-0.849764 -0.04797,0.05009 -0.0092,0.746336 0.08609,1.547224 0.227752,1.913709 0.03454,2.733116 -0.90052,3.819035 -0.385031,0.447151 -1.124874,1.054855 -1.644096,1.350453 -1.240315,0.706123 -1.569534,1.014806 -1.981435,1.857841 -0.391953,0.802205 -0.430975,1.159228 -0.140099,1.281781 0.366594,0.154454 1.436076,0.115883 1.756836,-0.06336 z M 19.127852,16.341322 c 0.06699,-0.03924 0.121809,-0.210154 0.121809,-0.3798 0,-0.552674 0.470516,-1.502308 1.221066,-2.464458 1.236204,-1.584723 1.37626,-1.910001 1.376935,-3.197907 5.53e-4,-1.0538957 -0.04197,-1.2021843 -0.474138,-1.6534297 -0.794439,-0.829508 -1.516289,-0.5952042 -1.587506,0.5152854 -0.02441,0.3806717 -0.148845,0.9003473 -0.276515,1.1548353 -0.571662,1.139508 -2.035949,2.075046 -3.244298,2.072794 -0.570941,-0.0011 -1.795649,-0.321523 -1.682057,-0.440129 0.04066,-0.04245 0.558522,-0.10559 1.150809,-0.140304 1.747103,-0.102401 2.956364,-1.061815 3.265974,-2.5911862 C 19.11166,8.6651196 19.615093,8.1367748 20.867897,7.2566227 22.098512,6.3920584 22.031106,5.6679661 20.65786,5.0003553 19.710013,4.5395548 18.416527,4.4599087 17.235808,4.7896431 16.624561,4.9603436 16.366923,4.9431759 15.519526,4.6752788 14.437454,4.3331912 13.829767,4.4229946 13.500823,4.9736007 c -0.138727,0.2322103 -0.110657,0.4238474 0.124196,0.8479125 0.166888,0.3013423 0.525212,0.9866898 0.796275,1.5229945 0.321144,0.6353892 0.5947,0.9750994 0.785214,0.9750994 0.634862,0 1.145286,-0.4294863 1.650258,-1.3885777 0.286898,-0.544904 0.598571,-0.9599073 0.692606,-0.9222296 0.09404,0.037678 0.309781,-0.037474 0.479434,-0.1670039 0.351109,-0.2680699 1.185404,-0.307349 1.540978,-0.07255 0.289839,0.1913915 0.272501,0.2053575 -0.644949,0.5194961 -0.642254,0.2199105 -0.789927,0.3694706 -1.218097,1.2336625 -0.296476,0.5983894 -0.712601,1.1392498 -1.062849,1.3814442 -1.247122,0.8623758 -2.984108,1.0132125 -4.29678,0.3731244 -1.189025,-0.5797947 -2.7848985,-1.683913 -2.5513755,-1.7651903 0.110901,-0.038599 0.8255065,0.1655271 1.5880125,0.4536135 1.319232,0.498426 2.506286,0.6819162 2.506286,0.3874118 0,-0.291517 -0.946361,-1.6741736 -1.446876,-2.1139201 -0.433054,-0.3804763 -0.684954,-0.4630185 -1.413029,-0.4630185 -1.0680405,0 -1.7851505,0.2915339 -2.7520695,1.1188269 -1.232764,1.0547498 -1.131818,1.9977668 0.321724,3.0054673 0.879693,0.6098663 1.392339,1.4204313 1.392339,2.2014803 0,0.238701 0.3179525,0.865562 0.7277155,1.43473 1.038562,1.442581 1.085688,1.472854 1.942252,1.247648 1.748799,-0.459792 3.564131,-0.02295 4.828255,1.161879 0.672275,0.630104 1.072065,0.726644 1.637509,0.395421 z m 3.207656,14.20503 -0.893271,-0.102864 0.649652,-0.325842 c 0.920648,-0.461763 3.478401,-0.479284 4.344548,-0.02976 0.334977,0.173851 0.609049,0.383709 0.609049,0.466352 0,0.163516 -3.269051,0.158042 -4.709978,-0.0079 z"
         id="path2" /></g></g></svg>
