<?xml version="1.0" encoding="UTF-8" standalone="no"?>
<!-- Created with Inkscape (http://www.inkscape.org/) -->

<svg
   width="128"
   height="128"
   viewBox="0 0 33.866666 33.866666"
   version="1.1"
   id="svg1"
   xml:space="preserve"
   inkscape:version="1.4.2 (f4327f4, 2025-05-13)"
   sodipodi:docname="clubs.svg"
   xmlns:inkscape="http://www.inkscape.org/namespaces/inkscape"
   xmlns:sodipodi="http://sodipodi.sourceforge.net/DTD/sodipodi-0.dtd"
   xmlns="http://www.w3.org/2000/svg"
   xmlns:svg="http://www.w3.org/2000/svg"><sodipodi:namedview
     id="namedview1"
     pagecolor="#ffffff"
     bordercolor="#000000"
     borderopacity="0.25"
     inkscape:showpageshadow="2"
     inkscape:pageopacity="0.0"
     inkscape:pagecheckerboard="0"
     inkscape:deskcolor="#d1d1d1"
     inkscape:document-units="mm"
     inkscape:zoom="2.28"
     inkscape:cx="49.561404"
     inkscape:cy="57.675439"
     inkscape:window-width="1600"
     inkscape:window-height="837"
     inkscape:window-x="-8"
     inkscape:window-y="-8"
     inkscape:window-maximized="1"
     inkscape:current-layer="layer1" /><defs
     id="defs1" /><g
     inkscape:label="Camada 1"
     inkscape:groupmode="layer"
     id="layer1"><g
       id="g2"><path
         style="fill:#626262;fill-opacity:1"
         d="m 15.9167,32.049156 c -0.31795,-0.09772 -1.445226,-0.227032 -2.505059,-0.287363 l -1.926969,-0.109694 1.25253,-0.366358 c 0.821534,-0.240295 1.227828,-0.444499 1.180744,-0.593444 -0.03948,-0.124896 -0.208943,-0.649233 -0.376579,-1.165193 -0.41266,-1.270107 -0.382345,-5.117932 0.06652,-8.442975 0.216351,-1.602671 0.344818,-3.737305 0.343877,-5.713932 -0.0015,-3.066842 -0.01922,-3.208144 -0.632232,-5.031672 -1.335652,-3.9731445 -0.801768,-6.8881959 1.519395,-8.2960109 0.55572,-0.3370512 0.904836,-0.4028117 2.138489,-0.4028117 1.307815,0 1.552021,0.052442 2.162037,0.4642849 0.37823,0.2553567 0.91344,0.8652729 1.189355,1.3553694 0.705698,1.2535032 0.706095,3.2380429 0.0011,5.2675594 -0.736668,2.1205549 -0.803007,4.7263679 -0.266826,10.4809969 0.49199,5.280357 0.462358,9.344057 -0.07758,10.639125 -0.171141,0.41049 -0.311165,0.805795 -0.311165,0.878454 0,0.07266 0.455246,0.226666 1.011658,0.342236 0.556412,0.11557 1.228442,0.312038 1.493401,0.436596 0.429986,0.202138 0.27472,0.227852 -1.445227,0.239342 -1.293573,0.0086 -2.085317,0.093 -2.40871,0.256633 -0.558469,0.282583 -1.580759,0.303318 -2.408711,0.04886 z m 2.329718,-1.619471 c 0.931164,-1.227408 1.072824,-4.720076 0.448858,-11.066774 -0.508469,-5.171918 -0.437985,-8.956232 0.198262,-10.644755 0.564833,-1.4989997 0.729508,-3.6381172 0.342947,-4.4548509 -0.383841,-0.8109855 -1.533593,-1.5831553 -2.357301,-1.5831553 -0.86015,0 -2.071602,0.7423283 -2.522117,1.5454503 -0.572229,1.0200994 -0.484564,3.4363144 0.20013,5.5159468 0.468716,1.4236391 0.545134,1.9931211 0.629415,4.6905421 0.0655,2.096351 3.6e-5,3.962842 -0.206391,5.884497 -0.647054,6.023509 -0.607061,8.171417 0.179463,9.638528 0.649935,1.212329 2.330966,1.47078 3.086734,0.474571 z"
         id="path2" /></g></g></svg>
