<?xml version="1.0" encoding="UTF-8" standalone="no"?>
<!-- Created with Inkscape (http://www.inkscape.org/) -->

<svg
   width="128"
   height="128"
   viewBox="0 0 33.866667 33.866667"
   version="1.1"
   id="svg5"
   xml:space="preserve"
   inkscape:version="1.2.2 (b0a8486541, 2022-12-01)"
   sodipodi:docname="clubs_puro.svg"
   xmlns:inkscape="http://www.inkscape.org/namespaces/inkscape"
   xmlns:sodipodi="http://sodipodi.sourceforge.net/DTD/sodipodi-0.dtd"
   xmlns="http://www.w3.org/2000/svg"
   xmlns:svg="http://www.w3.org/2000/svg"><sodipodi:namedview
     id="namedview7"
     pagecolor="#ffffff"
     bordercolor="#000000"
     borderopacity="0.25"
     inkscape:showpageshadow="2"
     inkscape:pageopacity="0.0"
     inkscape:pagecheckerboard="0"
     inkscape:deskcolor="#d1d1d1"
     inkscape:document-units="mm"
     showgrid="false"
     inkscape:zoom="3.5175"
     inkscape:cx="78.749112"
     inkscape:cy="40.511727"
     inkscape:window-width="1854"
     inkscape:window-height="1011"
     inkscape:window-x="0"
     inkscape:window-y="0"
     inkscape:window-maximized="1"
     inkscape:current-layer="layer1" /><defs
     id="defs2" /><g
     inkscape:label="Camada 1"
     inkscape:groupmode="layer"
     id="layer1"
     transform="translate(-54.059536,-75.824003)"><g
       id="g7185"
       style="fill:#5f5f5f;fill-opacity:1"><g
         id="g7181"
         style="fill:#5f5f5f;fill-opacity:1"><path
           id="path7130"
           style="fill:#5f5f5f;stroke-width:0.118535;fill-opacity:1"
           d="M 65.475377 77.524674 L 64.651138 77.566016 C 63.588546 77.619157 62.993182 77.977055 62.390294 78.925106 C 61.983058 79.565486 61.958795 79.666642 61.958795 80.743083 C 61.958795 82.044305 62.195414 82.874271 63.265692 85.327299 C 64.110286 87.263068 64.418247 88.086438 64.731753 89.244889 C 65.087969 90.561158 65.507774 92.32627 65.600434 92.897379 C 65.642951 93.159437 65.766783 93.707748 65.875352 94.115393 C 66.357599 95.926091 66.484437 96.998317 66.608124 100.30933 C 66.759466 104.36061 66.870279 105.08501 67.39619 105.45889 C 67.867645 105.79407 68.157779 106.34699 68.26332 107.1115 C 68.325557 107.56231 68.419875 107.76048 68.628673 107.87734 L 68.629189 107.87734 C 68.82473 107.98646 69.075562 108.01428 69.448778 107.96881 C 70.156293 107.88253 70.482595 107.74374 71.496715 107.09651 C 71.962174 106.79944 72.453768 106.55649 72.589154 106.55649 C 72.72454 106.55649 73.097481 106.35389 73.418044 106.10639 C 74.151577 105.54003 74.133731 105.67565 74.159601 100.5212 C 74.182463 95.96579 74.4413 92.499837 74.817959 91.705204 C 74.879703 91.574942 74.974155 91.212239 75.027765 90.899569 C 75.101008 90.472356 75.232671 90.235559 75.558999 89.946655 C 75.797833 89.735212 76.171286 89.300082 76.388922 88.979789 C 76.979022 88.111349 77.301685 87.662863 77.661713 87.207804 C 78.482262 86.170662 79.522765 84.168764 79.878115 82.944499 C 80.078325 82.25627 80.075671 80.780188 79.873981 80.342073 C 79.671111 79.901376 77.919609 78.625352 77.352171 78.504976 C 77.096722 78.450786 76.559347 78.358578 76.157929 78.300338 C 75.756511 78.242097 75.144235 78.13574 74.797288 78.06366 C 74.266053 77.953294 73.979006 77.960988 72.980345 78.114302 C 72.328124 78.214431 71.263706 78.323091 70.615115 78.355631 C 69.586963 78.407205 69.365805 78.386486 68.887571 78.191817 C 68.143471 77.888923 67.517404 77.902835 67.024636 78.233675 C 66.549234 78.552856 66.391871 78.514671 65.873285 77.954622 L 65.475377 77.524674 z " /></g></g></g></svg>
